%TF.GenerationSoftware,KiCad,Pcbnew,7.0.9*%
%TF.CreationDate,2023-12-10T22:34:59+01:00*%
%TF.ProjectId,LTC2439-Evaluation-board,4c544332-3433-4392-9d45-76616c756174,rev?*%
%TF.SameCoordinates,Original*%
%TF.FileFunction,Paste,Top*%
%TF.FilePolarity,Positive*%
%FSLAX46Y46*%
G04 Gerber Fmt 4.6, Leading zero omitted, Abs format (unit mm)*
G04 Created by KiCad (PCBNEW 7.0.9) date 2023-12-10 22:34:59*
%MOMM*%
%LPD*%
G01*
G04 APERTURE LIST*
G04 Aperture macros list*
%AMRoundRect*
0 Rectangle with rounded corners*
0 $1 Rounding radius*
0 $2 $3 $4 $5 $6 $7 $8 $9 X,Y pos of 4 corners*
0 Add a 4 corners polygon primitive as box body*
4,1,4,$2,$3,$4,$5,$6,$7,$8,$9,$2,$3,0*
0 Add four circle primitives for the rounded corners*
1,1,$1+$1,$2,$3*
1,1,$1+$1,$4,$5*
1,1,$1+$1,$6,$7*
1,1,$1+$1,$8,$9*
0 Add four rect primitives between the rounded corners*
20,1,$1+$1,$2,$3,$4,$5,0*
20,1,$1+$1,$4,$5,$6,$7,0*
20,1,$1+$1,$6,$7,$8,$9,0*
20,1,$1+$1,$8,$9,$2,$3,0*%
G04 Aperture macros list end*
%ADD10RoundRect,0.250000X-0.650000X0.325000X-0.650000X-0.325000X0.650000X-0.325000X0.650000X0.325000X0*%
%ADD11RoundRect,0.250000X-0.312500X-0.625000X0.312500X-0.625000X0.312500X0.625000X-0.312500X0.625000X0*%
%ADD12RoundRect,0.250000X-0.625000X0.312500X-0.625000X-0.312500X0.625000X-0.312500X0.625000X0.312500X0*%
%ADD13R,1.526000X0.435000*%
%ADD14RoundRect,0.243750X-0.243750X-0.456250X0.243750X-0.456250X0.243750X0.456250X-0.243750X0.456250X0*%
G04 APERTURE END LIST*
D10*
%TO.C,C1*%
X123952000Y-85647000D03*
X123952000Y-88597000D03*
%TD*%
D11*
%TO.C,R2*%
X123313000Y-96012000D03*
X126238000Y-96012000D03*
%TD*%
D12*
%TO.C,R1*%
X119949500Y-93279500D03*
X119949500Y-96204500D03*
%TD*%
D10*
%TO.C,C2*%
X127254000Y-85647000D03*
X127254000Y-88597000D03*
%TD*%
D13*
%TO.C,LTC2439*%
X131736000Y-80644000D03*
X131736000Y-81280000D03*
X131736000Y-81914000D03*
X131736000Y-82550000D03*
X131736000Y-83184000D03*
X131736000Y-83820000D03*
X131736000Y-84454000D03*
X131736000Y-85090000D03*
X131736000Y-85724000D03*
X131736000Y-86360000D03*
X131736000Y-86994000D03*
X131736000Y-87630000D03*
X131736000Y-88264000D03*
X131736000Y-88900000D03*
X137160000Y-88900000D03*
X137160000Y-88264000D03*
X137160000Y-87630000D03*
X137160000Y-86994000D03*
X137160000Y-86360000D03*
X137160000Y-85724000D03*
X137160000Y-85090000D03*
X137160000Y-84454000D03*
X137160000Y-83820000D03*
X137160000Y-83184000D03*
X137160000Y-82550000D03*
X137160000Y-81914000D03*
X137160000Y-81280000D03*
X137160000Y-80644000D03*
%TD*%
D14*
%TO.C,D1*%
X119966500Y-81534000D03*
X121841500Y-81534000D03*
%TD*%
D11*
%TO.C,R3*%
X129855500Y-96012000D03*
X132780500Y-96012000D03*
%TD*%
D12*
%TO.C,R4*%
X118110000Y-85659500D03*
X118110000Y-88584500D03*
%TD*%
M02*
