%TF.GenerationSoftware,KiCad,Pcbnew,7.0.9*%
%TF.CreationDate,2023-12-10T22:34:59+01:00*%
%TF.ProjectId,LTC2439-Evaluation-board,4c544332-3433-4392-9d45-76616c756174,rev?*%
%TF.SameCoordinates,Original*%
%TF.FileFunction,Legend,Bot*%
%TF.FilePolarity,Positive*%
%FSLAX46Y46*%
G04 Gerber Fmt 4.6, Leading zero omitted, Abs format (unit mm)*
G04 Created by KiCad (PCBNEW 7.0.9) date 2023-12-10 22:34:59*
%MOMM*%
%LPD*%
G01*
G04 APERTURE LIST*
%ADD10C,0.150000*%
G04 APERTURE END LIST*
D10*
X160477030Y-77339819D02*
X160953220Y-77339819D01*
X160953220Y-77339819D02*
X160953220Y-76339819D01*
X160286553Y-76339819D02*
X159715125Y-76339819D01*
X160000839Y-77339819D02*
X160000839Y-76339819D01*
X158810363Y-77244580D02*
X158857982Y-77292200D01*
X158857982Y-77292200D02*
X159000839Y-77339819D01*
X159000839Y-77339819D02*
X159096077Y-77339819D01*
X159096077Y-77339819D02*
X159238934Y-77292200D01*
X159238934Y-77292200D02*
X159334172Y-77196961D01*
X159334172Y-77196961D02*
X159381791Y-77101723D01*
X159381791Y-77101723D02*
X159429410Y-76911247D01*
X159429410Y-76911247D02*
X159429410Y-76768390D01*
X159429410Y-76768390D02*
X159381791Y-76577914D01*
X159381791Y-76577914D02*
X159334172Y-76482676D01*
X159334172Y-76482676D02*
X159238934Y-76387438D01*
X159238934Y-76387438D02*
X159096077Y-76339819D01*
X159096077Y-76339819D02*
X159000839Y-76339819D01*
X159000839Y-76339819D02*
X158857982Y-76387438D01*
X158857982Y-76387438D02*
X158810363Y-76435057D01*
X158429410Y-76435057D02*
X158381791Y-76387438D01*
X158381791Y-76387438D02*
X158286553Y-76339819D01*
X158286553Y-76339819D02*
X158048458Y-76339819D01*
X158048458Y-76339819D02*
X157953220Y-76387438D01*
X157953220Y-76387438D02*
X157905601Y-76435057D01*
X157905601Y-76435057D02*
X157857982Y-76530295D01*
X157857982Y-76530295D02*
X157857982Y-76625533D01*
X157857982Y-76625533D02*
X157905601Y-76768390D01*
X157905601Y-76768390D02*
X158477029Y-77339819D01*
X158477029Y-77339819D02*
X157857982Y-77339819D01*
X157000839Y-76673152D02*
X157000839Y-77339819D01*
X157238934Y-76292200D02*
X157477029Y-77006485D01*
X157477029Y-77006485D02*
X156857982Y-77006485D01*
X156572267Y-76339819D02*
X155953220Y-76339819D01*
X155953220Y-76339819D02*
X156286553Y-76720771D01*
X156286553Y-76720771D02*
X156143696Y-76720771D01*
X156143696Y-76720771D02*
X156048458Y-76768390D01*
X156048458Y-76768390D02*
X156000839Y-76816009D01*
X156000839Y-76816009D02*
X155953220Y-76911247D01*
X155953220Y-76911247D02*
X155953220Y-77149342D01*
X155953220Y-77149342D02*
X156000839Y-77244580D01*
X156000839Y-77244580D02*
X156048458Y-77292200D01*
X156048458Y-77292200D02*
X156143696Y-77339819D01*
X156143696Y-77339819D02*
X156429410Y-77339819D01*
X156429410Y-77339819D02*
X156524648Y-77292200D01*
X156524648Y-77292200D02*
X156572267Y-77244580D01*
X155477029Y-77339819D02*
X155286553Y-77339819D01*
X155286553Y-77339819D02*
X155191315Y-77292200D01*
X155191315Y-77292200D02*
X155143696Y-77244580D01*
X155143696Y-77244580D02*
X155048458Y-77101723D01*
X155048458Y-77101723D02*
X155000839Y-76911247D01*
X155000839Y-76911247D02*
X155000839Y-76530295D01*
X155000839Y-76530295D02*
X155048458Y-76435057D01*
X155048458Y-76435057D02*
X155096077Y-76387438D01*
X155096077Y-76387438D02*
X155191315Y-76339819D01*
X155191315Y-76339819D02*
X155381791Y-76339819D01*
X155381791Y-76339819D02*
X155477029Y-76387438D01*
X155477029Y-76387438D02*
X155524648Y-76435057D01*
X155524648Y-76435057D02*
X155572267Y-76530295D01*
X155572267Y-76530295D02*
X155572267Y-76768390D01*
X155572267Y-76768390D02*
X155524648Y-76863628D01*
X155524648Y-76863628D02*
X155477029Y-76911247D01*
X155477029Y-76911247D02*
X155381791Y-76958866D01*
X155381791Y-76958866D02*
X155191315Y-76958866D01*
X155191315Y-76958866D02*
X155096077Y-76911247D01*
X155096077Y-76911247D02*
X155048458Y-76863628D01*
X155048458Y-76863628D02*
X155000839Y-76768390D01*
X153810362Y-76958866D02*
X153048458Y-76958866D01*
X151857981Y-77054104D02*
X151381791Y-77054104D01*
X151953219Y-77339819D02*
X151619886Y-76339819D01*
X151619886Y-76339819D02*
X151286553Y-77339819D01*
X150953219Y-77339819D02*
X150953219Y-76339819D01*
X150953219Y-76339819D02*
X150715124Y-76339819D01*
X150715124Y-76339819D02*
X150572267Y-76387438D01*
X150572267Y-76387438D02*
X150477029Y-76482676D01*
X150477029Y-76482676D02*
X150429410Y-76577914D01*
X150429410Y-76577914D02*
X150381791Y-76768390D01*
X150381791Y-76768390D02*
X150381791Y-76911247D01*
X150381791Y-76911247D02*
X150429410Y-77101723D01*
X150429410Y-77101723D02*
X150477029Y-77196961D01*
X150477029Y-77196961D02*
X150572267Y-77292200D01*
X150572267Y-77292200D02*
X150715124Y-77339819D01*
X150715124Y-77339819D02*
X150953219Y-77339819D01*
X149381791Y-77244580D02*
X149429410Y-77292200D01*
X149429410Y-77292200D02*
X149572267Y-77339819D01*
X149572267Y-77339819D02*
X149667505Y-77339819D01*
X149667505Y-77339819D02*
X149810362Y-77292200D01*
X149810362Y-77292200D02*
X149905600Y-77196961D01*
X149905600Y-77196961D02*
X149953219Y-77101723D01*
X149953219Y-77101723D02*
X150000838Y-76911247D01*
X150000838Y-76911247D02*
X150000838Y-76768390D01*
X150000838Y-76768390D02*
X149953219Y-76577914D01*
X149953219Y-76577914D02*
X149905600Y-76482676D01*
X149905600Y-76482676D02*
X149810362Y-76387438D01*
X149810362Y-76387438D02*
X149667505Y-76339819D01*
X149667505Y-76339819D02*
X149572267Y-76339819D01*
X149572267Y-76339819D02*
X149429410Y-76387438D01*
X149429410Y-76387438D02*
X149381791Y-76435057D01*
X148191314Y-76958866D02*
X147429410Y-76958866D01*
X146191314Y-76816009D02*
X145857981Y-76816009D01*
X145715124Y-77339819D02*
X146191314Y-77339819D01*
X146191314Y-77339819D02*
X146191314Y-76339819D01*
X146191314Y-76339819D02*
X145715124Y-76339819D01*
X145381790Y-76673152D02*
X145143695Y-77339819D01*
X145143695Y-77339819D02*
X144905600Y-76673152D01*
X144096076Y-77339819D02*
X144096076Y-76816009D01*
X144096076Y-76816009D02*
X144143695Y-76720771D01*
X144143695Y-76720771D02*
X144238933Y-76673152D01*
X144238933Y-76673152D02*
X144429409Y-76673152D01*
X144429409Y-76673152D02*
X144524647Y-76720771D01*
X144096076Y-77292200D02*
X144191314Y-77339819D01*
X144191314Y-77339819D02*
X144429409Y-77339819D01*
X144429409Y-77339819D02*
X144524647Y-77292200D01*
X144524647Y-77292200D02*
X144572266Y-77196961D01*
X144572266Y-77196961D02*
X144572266Y-77101723D01*
X144572266Y-77101723D02*
X144524647Y-77006485D01*
X144524647Y-77006485D02*
X144429409Y-76958866D01*
X144429409Y-76958866D02*
X144191314Y-76958866D01*
X144191314Y-76958866D02*
X144096076Y-76911247D01*
X143477028Y-77339819D02*
X143572266Y-77292200D01*
X143572266Y-77292200D02*
X143619885Y-77196961D01*
X143619885Y-77196961D02*
X143619885Y-76339819D01*
X142667504Y-76673152D02*
X142667504Y-77339819D01*
X143096075Y-76673152D02*
X143096075Y-77196961D01*
X143096075Y-77196961D02*
X143048456Y-77292200D01*
X143048456Y-77292200D02*
X142953218Y-77339819D01*
X142953218Y-77339819D02*
X142810361Y-77339819D01*
X142810361Y-77339819D02*
X142715123Y-77292200D01*
X142715123Y-77292200D02*
X142667504Y-77244580D01*
X141762742Y-77339819D02*
X141762742Y-76816009D01*
X141762742Y-76816009D02*
X141810361Y-76720771D01*
X141810361Y-76720771D02*
X141905599Y-76673152D01*
X141905599Y-76673152D02*
X142096075Y-76673152D01*
X142096075Y-76673152D02*
X142191313Y-76720771D01*
X141762742Y-77292200D02*
X141857980Y-77339819D01*
X141857980Y-77339819D02*
X142096075Y-77339819D01*
X142096075Y-77339819D02*
X142191313Y-77292200D01*
X142191313Y-77292200D02*
X142238932Y-77196961D01*
X142238932Y-77196961D02*
X142238932Y-77101723D01*
X142238932Y-77101723D02*
X142191313Y-77006485D01*
X142191313Y-77006485D02*
X142096075Y-76958866D01*
X142096075Y-76958866D02*
X141857980Y-76958866D01*
X141857980Y-76958866D02*
X141762742Y-76911247D01*
X141429408Y-76673152D02*
X141048456Y-76673152D01*
X141286551Y-76339819D02*
X141286551Y-77196961D01*
X141286551Y-77196961D02*
X141238932Y-77292200D01*
X141238932Y-77292200D02*
X141143694Y-77339819D01*
X141143694Y-77339819D02*
X141048456Y-77339819D01*
X140715122Y-77339819D02*
X140715122Y-76673152D01*
X140715122Y-76339819D02*
X140762741Y-76387438D01*
X140762741Y-76387438D02*
X140715122Y-76435057D01*
X140715122Y-76435057D02*
X140667503Y-76387438D01*
X140667503Y-76387438D02*
X140715122Y-76339819D01*
X140715122Y-76339819D02*
X140715122Y-76435057D01*
X140096075Y-77339819D02*
X140191313Y-77292200D01*
X140191313Y-77292200D02*
X140238932Y-77244580D01*
X140238932Y-77244580D02*
X140286551Y-77149342D01*
X140286551Y-77149342D02*
X140286551Y-76863628D01*
X140286551Y-76863628D02*
X140238932Y-76768390D01*
X140238932Y-76768390D02*
X140191313Y-76720771D01*
X140191313Y-76720771D02*
X140096075Y-76673152D01*
X140096075Y-76673152D02*
X139953218Y-76673152D01*
X139953218Y-76673152D02*
X139857980Y-76720771D01*
X139857980Y-76720771D02*
X139810361Y-76768390D01*
X139810361Y-76768390D02*
X139762742Y-76863628D01*
X139762742Y-76863628D02*
X139762742Y-77149342D01*
X139762742Y-77149342D02*
X139810361Y-77244580D01*
X139810361Y-77244580D02*
X139857980Y-77292200D01*
X139857980Y-77292200D02*
X139953218Y-77339819D01*
X139953218Y-77339819D02*
X140096075Y-77339819D01*
X139334170Y-76673152D02*
X139334170Y-77339819D01*
X139334170Y-76768390D02*
X139286551Y-76720771D01*
X139286551Y-76720771D02*
X139191313Y-76673152D01*
X139191313Y-76673152D02*
X139048456Y-76673152D01*
X139048456Y-76673152D02*
X138953218Y-76720771D01*
X138953218Y-76720771D02*
X138905599Y-76816009D01*
X138905599Y-76816009D02*
X138905599Y-77339819D01*
X137667503Y-77339819D02*
X137667503Y-76339819D01*
X137667503Y-76720771D02*
X137572265Y-76673152D01*
X137572265Y-76673152D02*
X137381789Y-76673152D01*
X137381789Y-76673152D02*
X137286551Y-76720771D01*
X137286551Y-76720771D02*
X137238932Y-76768390D01*
X137238932Y-76768390D02*
X137191313Y-76863628D01*
X137191313Y-76863628D02*
X137191313Y-77149342D01*
X137191313Y-77149342D02*
X137238932Y-77244580D01*
X137238932Y-77244580D02*
X137286551Y-77292200D01*
X137286551Y-77292200D02*
X137381789Y-77339819D01*
X137381789Y-77339819D02*
X137572265Y-77339819D01*
X137572265Y-77339819D02*
X137667503Y-77292200D01*
X136619884Y-77339819D02*
X136715122Y-77292200D01*
X136715122Y-77292200D02*
X136762741Y-77244580D01*
X136762741Y-77244580D02*
X136810360Y-77149342D01*
X136810360Y-77149342D02*
X136810360Y-76863628D01*
X136810360Y-76863628D02*
X136762741Y-76768390D01*
X136762741Y-76768390D02*
X136715122Y-76720771D01*
X136715122Y-76720771D02*
X136619884Y-76673152D01*
X136619884Y-76673152D02*
X136477027Y-76673152D01*
X136477027Y-76673152D02*
X136381789Y-76720771D01*
X136381789Y-76720771D02*
X136334170Y-76768390D01*
X136334170Y-76768390D02*
X136286551Y-76863628D01*
X136286551Y-76863628D02*
X136286551Y-77149342D01*
X136286551Y-77149342D02*
X136334170Y-77244580D01*
X136334170Y-77244580D02*
X136381789Y-77292200D01*
X136381789Y-77292200D02*
X136477027Y-77339819D01*
X136477027Y-77339819D02*
X136619884Y-77339819D01*
X135429408Y-77339819D02*
X135429408Y-76816009D01*
X135429408Y-76816009D02*
X135477027Y-76720771D01*
X135477027Y-76720771D02*
X135572265Y-76673152D01*
X135572265Y-76673152D02*
X135762741Y-76673152D01*
X135762741Y-76673152D02*
X135857979Y-76720771D01*
X135429408Y-77292200D02*
X135524646Y-77339819D01*
X135524646Y-77339819D02*
X135762741Y-77339819D01*
X135762741Y-77339819D02*
X135857979Y-77292200D01*
X135857979Y-77292200D02*
X135905598Y-77196961D01*
X135905598Y-77196961D02*
X135905598Y-77101723D01*
X135905598Y-77101723D02*
X135857979Y-77006485D01*
X135857979Y-77006485D02*
X135762741Y-76958866D01*
X135762741Y-76958866D02*
X135524646Y-76958866D01*
X135524646Y-76958866D02*
X135429408Y-76911247D01*
X134953217Y-77339819D02*
X134953217Y-76673152D01*
X134953217Y-76863628D02*
X134905598Y-76768390D01*
X134905598Y-76768390D02*
X134857979Y-76720771D01*
X134857979Y-76720771D02*
X134762741Y-76673152D01*
X134762741Y-76673152D02*
X134667503Y-76673152D01*
X133905598Y-77339819D02*
X133905598Y-76339819D01*
X133905598Y-77292200D02*
X134000836Y-77339819D01*
X134000836Y-77339819D02*
X134191312Y-77339819D01*
X134191312Y-77339819D02*
X134286550Y-77292200D01*
X134286550Y-77292200D02*
X134334169Y-77244580D01*
X134334169Y-77244580D02*
X134381788Y-77149342D01*
X134381788Y-77149342D02*
X134381788Y-76863628D01*
X134381788Y-76863628D02*
X134334169Y-76768390D01*
X134334169Y-76768390D02*
X134286550Y-76720771D01*
X134286550Y-76720771D02*
X134191312Y-76673152D01*
X134191312Y-76673152D02*
X134000836Y-76673152D01*
X134000836Y-76673152D02*
X133905598Y-76720771D01*
X132667502Y-76958866D02*
X131905598Y-76958866D01*
X130667502Y-77339819D02*
X130667502Y-76339819D01*
X130667502Y-76339819D02*
X130429407Y-76339819D01*
X130429407Y-76339819D02*
X130286550Y-76387438D01*
X130286550Y-76387438D02*
X130191312Y-76482676D01*
X130191312Y-76482676D02*
X130143693Y-76577914D01*
X130143693Y-76577914D02*
X130096074Y-76768390D01*
X130096074Y-76768390D02*
X130096074Y-76911247D01*
X130096074Y-76911247D02*
X130143693Y-77101723D01*
X130143693Y-77101723D02*
X130191312Y-77196961D01*
X130191312Y-77196961D02*
X130286550Y-77292200D01*
X130286550Y-77292200D02*
X130429407Y-77339819D01*
X130429407Y-77339819D02*
X130667502Y-77339819D01*
X129238931Y-77339819D02*
X129238931Y-76816009D01*
X129238931Y-76816009D02*
X129286550Y-76720771D01*
X129286550Y-76720771D02*
X129381788Y-76673152D01*
X129381788Y-76673152D02*
X129572264Y-76673152D01*
X129572264Y-76673152D02*
X129667502Y-76720771D01*
X129238931Y-77292200D02*
X129334169Y-77339819D01*
X129334169Y-77339819D02*
X129572264Y-77339819D01*
X129572264Y-77339819D02*
X129667502Y-77292200D01*
X129667502Y-77292200D02*
X129715121Y-77196961D01*
X129715121Y-77196961D02*
X129715121Y-77101723D01*
X129715121Y-77101723D02*
X129667502Y-77006485D01*
X129667502Y-77006485D02*
X129572264Y-76958866D01*
X129572264Y-76958866D02*
X129334169Y-76958866D01*
X129334169Y-76958866D02*
X129238931Y-76911247D01*
X128762740Y-77339819D02*
X128762740Y-76673152D01*
X128762740Y-76863628D02*
X128715121Y-76768390D01*
X128715121Y-76768390D02*
X128667502Y-76720771D01*
X128667502Y-76720771D02*
X128572264Y-76673152D01*
X128572264Y-76673152D02*
X128477026Y-76673152D01*
X128143692Y-77339819D02*
X128143692Y-76673152D01*
X128143692Y-76339819D02*
X128191311Y-76387438D01*
X128191311Y-76387438D02*
X128143692Y-76435057D01*
X128143692Y-76435057D02*
X128096073Y-76387438D01*
X128096073Y-76387438D02*
X128143692Y-76339819D01*
X128143692Y-76339819D02*
X128143692Y-76435057D01*
X127238931Y-76673152D02*
X127238931Y-77339819D01*
X127667502Y-76673152D02*
X127667502Y-77196961D01*
X127667502Y-77196961D02*
X127619883Y-77292200D01*
X127619883Y-77292200D02*
X127524645Y-77339819D01*
X127524645Y-77339819D02*
X127381788Y-77339819D01*
X127381788Y-77339819D02*
X127286550Y-77292200D01*
X127286550Y-77292200D02*
X127238931Y-77244580D01*
X126810359Y-77292200D02*
X126715121Y-77339819D01*
X126715121Y-77339819D02*
X126524645Y-77339819D01*
X126524645Y-77339819D02*
X126429407Y-77292200D01*
X126429407Y-77292200D02*
X126381788Y-77196961D01*
X126381788Y-77196961D02*
X126381788Y-77149342D01*
X126381788Y-77149342D02*
X126429407Y-77054104D01*
X126429407Y-77054104D02*
X126524645Y-77006485D01*
X126524645Y-77006485D02*
X126667502Y-77006485D01*
X126667502Y-77006485D02*
X126762740Y-76958866D01*
X126762740Y-76958866D02*
X126810359Y-76863628D01*
X126810359Y-76863628D02*
X126810359Y-76816009D01*
X126810359Y-76816009D02*
X126762740Y-76720771D01*
X126762740Y-76720771D02*
X126667502Y-76673152D01*
X126667502Y-76673152D02*
X126524645Y-76673152D01*
X126524645Y-76673152D02*
X126429407Y-76720771D01*
X126048454Y-76673152D02*
X125524645Y-76673152D01*
X125524645Y-76673152D02*
X126048454Y-77339819D01*
X126048454Y-77339819D02*
X125524645Y-77339819D01*
X124381787Y-77339819D02*
X124381787Y-76339819D01*
X123810359Y-77339819D02*
X124238930Y-76768390D01*
X123810359Y-76339819D02*
X124381787Y-76911247D01*
X123381787Y-77339819D02*
X123381787Y-76673152D01*
X123381787Y-76863628D02*
X123334168Y-76768390D01*
X123334168Y-76768390D02*
X123286549Y-76720771D01*
X123286549Y-76720771D02*
X123191311Y-76673152D01*
X123191311Y-76673152D02*
X123096073Y-76673152D01*
X122334168Y-77339819D02*
X122334168Y-76816009D01*
X122334168Y-76816009D02*
X122381787Y-76720771D01*
X122381787Y-76720771D02*
X122477025Y-76673152D01*
X122477025Y-76673152D02*
X122667501Y-76673152D01*
X122667501Y-76673152D02*
X122762739Y-76720771D01*
X122334168Y-77292200D02*
X122429406Y-77339819D01*
X122429406Y-77339819D02*
X122667501Y-77339819D01*
X122667501Y-77339819D02*
X122762739Y-77292200D01*
X122762739Y-77292200D02*
X122810358Y-77196961D01*
X122810358Y-77196961D02*
X122810358Y-77101723D01*
X122810358Y-77101723D02*
X122762739Y-77006485D01*
X122762739Y-77006485D02*
X122667501Y-76958866D01*
X122667501Y-76958866D02*
X122429406Y-76958866D01*
X122429406Y-76958866D02*
X122334168Y-76911247D01*
X121953215Y-76673152D02*
X121762739Y-77339819D01*
X121762739Y-77339819D02*
X121572263Y-76863628D01*
X121572263Y-76863628D02*
X121381787Y-77339819D01*
X121381787Y-77339819D02*
X121191311Y-76673152D01*
X120381787Y-77292200D02*
X120477025Y-77339819D01*
X120477025Y-77339819D02*
X120667501Y-77339819D01*
X120667501Y-77339819D02*
X120762739Y-77292200D01*
X120762739Y-77292200D02*
X120810358Y-77244580D01*
X120810358Y-77244580D02*
X120857977Y-77149342D01*
X120857977Y-77149342D02*
X120857977Y-76863628D01*
X120857977Y-76863628D02*
X120810358Y-76768390D01*
X120810358Y-76768390D02*
X120762739Y-76720771D01*
X120762739Y-76720771D02*
X120667501Y-76673152D01*
X120667501Y-76673152D02*
X120477025Y-76673152D01*
X120477025Y-76673152D02*
X120381787Y-76720771D01*
X120048453Y-76673152D02*
X119524644Y-76673152D01*
X119524644Y-76673152D02*
X120048453Y-77339819D01*
X120048453Y-77339819D02*
X119524644Y-77339819D01*
X119238929Y-76673152D02*
X119000834Y-77339819D01*
X118762739Y-76673152D02*
X119000834Y-77339819D01*
X119000834Y-77339819D02*
X119096072Y-77577914D01*
X119096072Y-77577914D02*
X119143691Y-77625533D01*
X119143691Y-77625533D02*
X119238929Y-77673152D01*
X118381786Y-77339819D02*
X118381786Y-76339819D01*
X118286548Y-76958866D02*
X118000834Y-77339819D01*
X118000834Y-76673152D02*
X118381786Y-77054104D01*
X116810357Y-76958866D02*
X116048453Y-76958866D01*
X114286548Y-77339819D02*
X114857976Y-77339819D01*
X114572262Y-77339819D02*
X114572262Y-76339819D01*
X114572262Y-76339819D02*
X114667500Y-76482676D01*
X114667500Y-76482676D02*
X114762738Y-76577914D01*
X114762738Y-76577914D02*
X114857976Y-76625533D01*
X113905595Y-76435057D02*
X113857976Y-76387438D01*
X113857976Y-76387438D02*
X113762738Y-76339819D01*
X113762738Y-76339819D02*
X113524643Y-76339819D01*
X113524643Y-76339819D02*
X113429405Y-76387438D01*
X113429405Y-76387438D02*
X113381786Y-76435057D01*
X113381786Y-76435057D02*
X113334167Y-76530295D01*
X113334167Y-76530295D02*
X113334167Y-76625533D01*
X113334167Y-76625533D02*
X113381786Y-76768390D01*
X113381786Y-76768390D02*
X113953214Y-77339819D01*
X113953214Y-77339819D02*
X113334167Y-77339819D01*
X112905595Y-77244580D02*
X112857976Y-77292200D01*
X112857976Y-77292200D02*
X112905595Y-77339819D01*
X112905595Y-77339819D02*
X112953214Y-77292200D01*
X112953214Y-77292200D02*
X112905595Y-77244580D01*
X112905595Y-77244580D02*
X112905595Y-77339819D01*
X112477024Y-76435057D02*
X112429405Y-76387438D01*
X112429405Y-76387438D02*
X112334167Y-76339819D01*
X112334167Y-76339819D02*
X112096072Y-76339819D01*
X112096072Y-76339819D02*
X112000834Y-76387438D01*
X112000834Y-76387438D02*
X111953215Y-76435057D01*
X111953215Y-76435057D02*
X111905596Y-76530295D01*
X111905596Y-76530295D02*
X111905596Y-76625533D01*
X111905596Y-76625533D02*
X111953215Y-76768390D01*
X111953215Y-76768390D02*
X112524643Y-77339819D01*
X112524643Y-77339819D02*
X111905596Y-77339819D01*
X111286548Y-76339819D02*
X111191310Y-76339819D01*
X111191310Y-76339819D02*
X111096072Y-76387438D01*
X111096072Y-76387438D02*
X111048453Y-76435057D01*
X111048453Y-76435057D02*
X111000834Y-76530295D01*
X111000834Y-76530295D02*
X110953215Y-76720771D01*
X110953215Y-76720771D02*
X110953215Y-76958866D01*
X110953215Y-76958866D02*
X111000834Y-77149342D01*
X111000834Y-77149342D02*
X111048453Y-77244580D01*
X111048453Y-77244580D02*
X111096072Y-77292200D01*
X111096072Y-77292200D02*
X111191310Y-77339819D01*
X111191310Y-77339819D02*
X111286548Y-77339819D01*
X111286548Y-77339819D02*
X111381786Y-77292200D01*
X111381786Y-77292200D02*
X111429405Y-77244580D01*
X111429405Y-77244580D02*
X111477024Y-77149342D01*
X111477024Y-77149342D02*
X111524643Y-76958866D01*
X111524643Y-76958866D02*
X111524643Y-76720771D01*
X111524643Y-76720771D02*
X111477024Y-76530295D01*
X111477024Y-76530295D02*
X111429405Y-76435057D01*
X111429405Y-76435057D02*
X111381786Y-76387438D01*
X111381786Y-76387438D02*
X111286548Y-76339819D01*
X110572262Y-76435057D02*
X110524643Y-76387438D01*
X110524643Y-76387438D02*
X110429405Y-76339819D01*
X110429405Y-76339819D02*
X110191310Y-76339819D01*
X110191310Y-76339819D02*
X110096072Y-76387438D01*
X110096072Y-76387438D02*
X110048453Y-76435057D01*
X110048453Y-76435057D02*
X110000834Y-76530295D01*
X110000834Y-76530295D02*
X110000834Y-76625533D01*
X110000834Y-76625533D02*
X110048453Y-76768390D01*
X110048453Y-76768390D02*
X110619881Y-77339819D01*
X110619881Y-77339819D02*
X110000834Y-77339819D01*
X109667500Y-76339819D02*
X109048453Y-76339819D01*
X109048453Y-76339819D02*
X109381786Y-76720771D01*
X109381786Y-76720771D02*
X109238929Y-76720771D01*
X109238929Y-76720771D02*
X109143691Y-76768390D01*
X109143691Y-76768390D02*
X109096072Y-76816009D01*
X109096072Y-76816009D02*
X109048453Y-76911247D01*
X109048453Y-76911247D02*
X109048453Y-77149342D01*
X109048453Y-77149342D02*
X109096072Y-77244580D01*
X109096072Y-77244580D02*
X109143691Y-77292200D01*
X109143691Y-77292200D02*
X109238929Y-77339819D01*
X109238929Y-77339819D02*
X109524643Y-77339819D01*
X109524643Y-77339819D02*
X109619881Y-77292200D01*
X109619881Y-77292200D02*
X109667500Y-77244580D01*
M02*
