%TF.GenerationSoftware,KiCad,Pcbnew,7.0.9*%
%TF.CreationDate,2023-12-10T22:35:00+01:00*%
%TF.ProjectId,LTC2439-Evaluation-board,4c544332-3433-4392-9d45-76616c756174,rev?*%
%TF.SameCoordinates,Original*%
%TF.FileFunction,Soldermask,Top*%
%TF.FilePolarity,Negative*%
%FSLAX46Y46*%
G04 Gerber Fmt 4.6, Leading zero omitted, Abs format (unit mm)*
G04 Created by KiCad (PCBNEW 7.0.9) date 2023-12-10 22:35:00*
%MOMM*%
%LPD*%
G01*
G04 APERTURE LIST*
G04 Aperture macros list*
%AMRoundRect*
0 Rectangle with rounded corners*
0 $1 Rounding radius*
0 $2 $3 $4 $5 $6 $7 $8 $9 X,Y pos of 4 corners*
0 Add a 4 corners polygon primitive as box body*
4,1,4,$2,$3,$4,$5,$6,$7,$8,$9,$2,$3,0*
0 Add four circle primitives for the rounded corners*
1,1,$1+$1,$2,$3*
1,1,$1+$1,$4,$5*
1,1,$1+$1,$6,$7*
1,1,$1+$1,$8,$9*
0 Add four rect primitives between the rounded corners*
20,1,$1+$1,$2,$3,$4,$5,0*
20,1,$1+$1,$4,$5,$6,$7,0*
20,1,$1+$1,$6,$7,$8,$9,0*
20,1,$1+$1,$8,$9,$2,$3,0*%
G04 Aperture macros list end*
%ADD10RoundRect,0.250000X-0.650000X0.325000X-0.650000X-0.325000X0.650000X-0.325000X0.650000X0.325000X0*%
%ADD11R,1.700000X1.700000*%
%ADD12O,1.700000X1.700000*%
%ADD13RoundRect,0.250000X-0.312500X-0.625000X0.312500X-0.625000X0.312500X0.625000X-0.312500X0.625000X0*%
%ADD14RoundRect,0.250000X-0.625000X0.312500X-0.625000X-0.312500X0.625000X-0.312500X0.625000X0.312500X0*%
%ADD15R,1.526000X0.435000*%
%ADD16C,3.200000*%
%ADD17RoundRect,0.243750X-0.243750X-0.456250X0.243750X-0.456250X0.243750X0.456250X-0.243750X0.456250X0*%
G04 APERTURE END LIST*
D10*
%TO.C,C1*%
X123952000Y-85647000D03*
X123952000Y-88597000D03*
%TD*%
D11*
%TO.C,J4*%
X131318000Y-64262000D03*
D12*
X128778000Y-64262000D03*
X126238000Y-64262000D03*
X123698000Y-64262000D03*
X121158000Y-64262000D03*
X118618000Y-64262000D03*
X116078000Y-64262000D03*
X113538000Y-64262000D03*
%TD*%
D13*
%TO.C,R2*%
X123313000Y-96012000D03*
X126238000Y-96012000D03*
%TD*%
D11*
%TO.C,J3*%
X155941000Y-72898000D03*
D12*
X153401000Y-72898000D03*
X150861000Y-72898000D03*
X148321000Y-72898000D03*
X145781000Y-72898000D03*
X143241000Y-72898000D03*
X140701000Y-72898000D03*
X138161000Y-72898000D03*
%TD*%
D11*
%TO.C,J10*%
X113284000Y-82804000D03*
D12*
X113284000Y-85344000D03*
X113284000Y-87884000D03*
%TD*%
D11*
%TO.C,J1*%
X108458000Y-82814000D03*
D12*
X108458000Y-85354000D03*
X108458000Y-87894000D03*
X108458000Y-90434000D03*
%TD*%
D14*
%TO.C,R1*%
X119949500Y-93279500D03*
X119949500Y-96204500D03*
%TD*%
D10*
%TO.C,C2*%
X127254000Y-85647000D03*
X127254000Y-88597000D03*
%TD*%
D15*
%TO.C,LTC2439*%
X131736000Y-80644000D03*
X131736000Y-81280000D03*
X131736000Y-81914000D03*
X131736000Y-82550000D03*
X131736000Y-83184000D03*
X131736000Y-83820000D03*
X131736000Y-84454000D03*
X131736000Y-85090000D03*
X131736000Y-85724000D03*
X131736000Y-86360000D03*
X131736000Y-86994000D03*
X131736000Y-87630000D03*
X131736000Y-88264000D03*
X131736000Y-88900000D03*
X137160000Y-88900000D03*
X137160000Y-88264000D03*
X137160000Y-87630000D03*
X137160000Y-86994000D03*
X137160000Y-86360000D03*
X137160000Y-85724000D03*
X137160000Y-85090000D03*
X137160000Y-84454000D03*
X137160000Y-83820000D03*
X137160000Y-83184000D03*
X137160000Y-82550000D03*
X137160000Y-81914000D03*
X137160000Y-81280000D03*
X137160000Y-80644000D03*
%TD*%
D12*
%TO.C,J9*%
X155951000Y-96266000D03*
X153411000Y-96266000D03*
X150871000Y-96266000D03*
X148331000Y-96266000D03*
X145791000Y-96266000D03*
X143251000Y-96266000D03*
D11*
X140711000Y-96266000D03*
%TD*%
D16*
%TO.C,H3*%
X162052000Y-97536000D03*
%TD*%
D11*
%TO.C,J6*%
X138176000Y-64262000D03*
D12*
X140716000Y-64262000D03*
X143256000Y-64262000D03*
X145796000Y-64262000D03*
X148336000Y-64262000D03*
X150876000Y-64262000D03*
X153416000Y-64262000D03*
X155956000Y-64262000D03*
%TD*%
D11*
%TO.C,J7*%
X131318000Y-68580000D03*
D12*
X128778000Y-68580000D03*
X126238000Y-68580000D03*
X123698000Y-68580000D03*
X121158000Y-68580000D03*
X118618000Y-68580000D03*
X116078000Y-68580000D03*
X113538000Y-68580000D03*
%TD*%
D16*
%TO.C,H1*%
X106934000Y-62992000D03*
%TD*%
D11*
%TO.C,J2*%
X131318000Y-72898000D03*
D12*
X128778000Y-72898000D03*
X126238000Y-72898000D03*
X123698000Y-72898000D03*
X121158000Y-72898000D03*
X118618000Y-72898000D03*
X116078000Y-72898000D03*
X113538000Y-72898000D03*
%TD*%
D11*
%TO.C,J5*%
X155956000Y-86106000D03*
D12*
X155956000Y-83566000D03*
X155956000Y-81026000D03*
%TD*%
D17*
%TO.C,D1*%
X119966500Y-81534000D03*
X121841500Y-81534000D03*
%TD*%
D11*
%TO.C,J8*%
X138176000Y-68580000D03*
D12*
X140716000Y-68580000D03*
X143256000Y-68580000D03*
X145796000Y-68580000D03*
X148336000Y-68580000D03*
X150876000Y-68580000D03*
X153416000Y-68580000D03*
X155956000Y-68580000D03*
%TD*%
D16*
%TO.C,H4*%
X106934000Y-97536000D03*
%TD*%
%TO.C,H2*%
X162052000Y-62992000D03*
%TD*%
D13*
%TO.C,R3*%
X129855500Y-96012000D03*
X132780500Y-96012000D03*
%TD*%
D14*
%TO.C,R4*%
X118110000Y-85659500D03*
X118110000Y-88584500D03*
%TD*%
M02*
