%TF.GenerationSoftware,KiCad,Pcbnew,7.0.9*%
%TF.CreationDate,2023-12-10T22:34:59+01:00*%
%TF.ProjectId,LTC2439-Evaluation-board,4c544332-3433-4392-9d45-76616c756174,rev?*%
%TF.SameCoordinates,Original*%
%TF.FileFunction,Copper,L1,Top*%
%TF.FilePolarity,Positive*%
%FSLAX46Y46*%
G04 Gerber Fmt 4.6, Leading zero omitted, Abs format (unit mm)*
G04 Created by KiCad (PCBNEW 7.0.9) date 2023-12-10 22:34:59*
%MOMM*%
%LPD*%
G01*
G04 APERTURE LIST*
G04 Aperture macros list*
%AMRoundRect*
0 Rectangle with rounded corners*
0 $1 Rounding radius*
0 $2 $3 $4 $5 $6 $7 $8 $9 X,Y pos of 4 corners*
0 Add a 4 corners polygon primitive as box body*
4,1,4,$2,$3,$4,$5,$6,$7,$8,$9,$2,$3,0*
0 Add four circle primitives for the rounded corners*
1,1,$1+$1,$2,$3*
1,1,$1+$1,$4,$5*
1,1,$1+$1,$6,$7*
1,1,$1+$1,$8,$9*
0 Add four rect primitives between the rounded corners*
20,1,$1+$1,$2,$3,$4,$5,0*
20,1,$1+$1,$4,$5,$6,$7,0*
20,1,$1+$1,$6,$7,$8,$9,0*
20,1,$1+$1,$8,$9,$2,$3,0*%
G04 Aperture macros list end*
%TA.AperFunction,SMDPad,CuDef*%
%ADD10RoundRect,0.250000X-0.650000X0.325000X-0.650000X-0.325000X0.650000X-0.325000X0.650000X0.325000X0*%
%TD*%
%TA.AperFunction,ComponentPad*%
%ADD11R,1.700000X1.700000*%
%TD*%
%TA.AperFunction,ComponentPad*%
%ADD12O,1.700000X1.700000*%
%TD*%
%TA.AperFunction,SMDPad,CuDef*%
%ADD13RoundRect,0.250000X-0.312500X-0.625000X0.312500X-0.625000X0.312500X0.625000X-0.312500X0.625000X0*%
%TD*%
%TA.AperFunction,SMDPad,CuDef*%
%ADD14RoundRect,0.250000X-0.625000X0.312500X-0.625000X-0.312500X0.625000X-0.312500X0.625000X0.312500X0*%
%TD*%
%TA.AperFunction,SMDPad,CuDef*%
%ADD15R,1.526000X0.435000*%
%TD*%
%TA.AperFunction,SMDPad,CuDef*%
%ADD16RoundRect,0.243750X-0.243750X-0.456250X0.243750X-0.456250X0.243750X0.456250X-0.243750X0.456250X0*%
%TD*%
%TA.AperFunction,ViaPad*%
%ADD17C,0.800000*%
%TD*%
%TA.AperFunction,Conductor*%
%ADD18C,0.500000*%
%TD*%
%TA.AperFunction,Conductor*%
%ADD19C,0.300000*%
%TD*%
G04 APERTURE END LIST*
D10*
%TO.P,C1,1*%
%TO.N,VCC*%
X123952000Y-85647000D03*
%TO.P,C1,2*%
%TO.N,GND*%
X123952000Y-88597000D03*
%TD*%
D11*
%TO.P,J4,1,Pin_1*%
%TO.N,VCC*%
X131318000Y-64262000D03*
D12*
%TO.P,J4,2,Pin_2*%
X128778000Y-64262000D03*
%TO.P,J4,3,Pin_3*%
X126238000Y-64262000D03*
%TO.P,J4,4,Pin_4*%
X123698000Y-64262000D03*
%TO.P,J4,5,Pin_5*%
X121158000Y-64262000D03*
%TO.P,J4,6,Pin_6*%
X118618000Y-64262000D03*
%TO.P,J4,7,Pin_7*%
X116078000Y-64262000D03*
%TO.P,J4,8,Pin_8*%
X113538000Y-64262000D03*
%TD*%
D13*
%TO.P,R2,1*%
%TO.N,REF+*%
X123313000Y-96012000D03*
%TO.P,R2,2*%
%TO.N,REF-*%
X126238000Y-96012000D03*
%TD*%
D11*
%TO.P,J3,1,Pin_1*%
%TO.N,CH0*%
X155941000Y-72898000D03*
D12*
%TO.P,J3,2,Pin_2*%
%TO.N,CH1*%
X153401000Y-72898000D03*
%TO.P,J3,3,Pin_3*%
%TO.N,CH2*%
X150861000Y-72898000D03*
%TO.P,J3,4,Pin_4*%
%TO.N,CH3*%
X148321000Y-72898000D03*
%TO.P,J3,5,Pin_5*%
%TO.N,CH4*%
X145781000Y-72898000D03*
%TO.P,J3,6,Pin_6*%
%TO.N,CH5*%
X143241000Y-72898000D03*
%TO.P,J3,7,Pin_7*%
%TO.N,CH6*%
X140701000Y-72898000D03*
%TO.P,J3,8,Pin_8*%
%TO.N,CH7*%
X138161000Y-72898000D03*
%TD*%
D11*
%TO.P,J10,1,Pin_1*%
%TO.N,Net-(J1-Pin_1)*%
X113284000Y-82804000D03*
D12*
%TO.P,J10,2,Pin_2*%
%TO.N,COM*%
X113284000Y-85344000D03*
%TO.P,J10,3,Pin_3*%
%TO.N,GND*%
X113284000Y-87884000D03*
%TD*%
D11*
%TO.P,J1,1,Pin_1*%
%TO.N,Net-(J1-Pin_1)*%
X108458000Y-82814000D03*
D12*
%TO.P,J1,2,Pin_2*%
X108458000Y-85354000D03*
%TO.P,J1,3,Pin_3*%
X108458000Y-87894000D03*
%TO.P,J1,4,Pin_4*%
X108458000Y-90434000D03*
%TD*%
D14*
%TO.P,R1,1*%
%TO.N,VCC*%
X119949500Y-93279500D03*
%TO.P,R1,2*%
%TO.N,REF+*%
X119949500Y-96204500D03*
%TD*%
D10*
%TO.P,C2,1*%
%TO.N,VCC*%
X127254000Y-85647000D03*
%TO.P,C2,2*%
%TO.N,GND*%
X127254000Y-88597000D03*
%TD*%
D15*
%TO.P,LTC2439,1,CH8*%
%TO.N,CH8*%
X131736000Y-80644000D03*
%TO.P,LTC2439,2,CH9*%
%TO.N,CH9*%
X131736000Y-81280000D03*
%TO.P,LTC2439,3,CH10*%
%TO.N,CH10*%
X131736000Y-81914000D03*
%TO.P,LTC2439,4,CH11*%
%TO.N,CH11*%
X131736000Y-82550000D03*
%TO.P,LTC2439,5,CH12*%
%TO.N,CH12*%
X131736000Y-83184000D03*
%TO.P,LTC2439,6,CH13*%
%TO.N,CH13*%
X131736000Y-83820000D03*
%TO.P,LTC2439,7,CH14*%
%TO.N,CH14*%
X131736000Y-84454000D03*
%TO.P,LTC2439,8,CH15*%
%TO.N,CH15*%
X131736000Y-85090000D03*
%TO.P,LTC2439,9,VCC*%
%TO.N,VCC*%
X131736000Y-85724000D03*
%TO.P,LTC2439,10,COM*%
%TO.N,COM*%
X131736000Y-86360000D03*
%TO.P,LTC2439,11,REF+*%
%TO.N,REF+*%
X131736000Y-86994000D03*
%TO.P,LTC2439,12,REF-*%
%TO.N,REF-*%
X131736000Y-87630000D03*
%TO.P,LTC2439,13,NC_1*%
%TO.N,GND*%
X131736000Y-88264000D03*
%TO.P,LTC2439,14,NC_2*%
X131736000Y-88900000D03*
%TO.P,LTC2439,15,GND*%
X137160000Y-88900000D03*
%TO.P,LTC2439,16,~{CS}*%
%TO.N,CS*%
X137160000Y-88264000D03*
%TO.P,LTC2439,17,SDO*%
%TO.N,MISO*%
X137160000Y-87630000D03*
%TO.P,LTC2439,18,SCK*%
%TO.N,SCK*%
X137160000Y-86994000D03*
%TO.P,LTC2439,19,FO*%
%TO.N,Net-(J5-Pin_2)*%
X137160000Y-86360000D03*
%TO.P,LTC2439,20,SDI*%
%TO.N,MOSI*%
X137160000Y-85724000D03*
%TO.P,LTC2439,21,CH0*%
%TO.N,CH0*%
X137160000Y-85090000D03*
%TO.P,LTC2439,22,CH1*%
%TO.N,CH1*%
X137160000Y-84454000D03*
%TO.P,LTC2439,23,CH2*%
%TO.N,CH2*%
X137160000Y-83820000D03*
%TO.P,LTC2439,24,CH3*%
%TO.N,CH3*%
X137160000Y-83184000D03*
%TO.P,LTC2439,25,CH4*%
%TO.N,CH4*%
X137160000Y-82550000D03*
%TO.P,LTC2439,26,CH5*%
%TO.N,CH5*%
X137160000Y-81914000D03*
%TO.P,LTC2439,27,CH6*%
%TO.N,CH6*%
X137160000Y-81280000D03*
%TO.P,LTC2439,28,CH7*%
%TO.N,CH7*%
X137160000Y-80644000D03*
%TD*%
D12*
%TO.P,J9,7,Pin_7*%
%TO.N,F0*%
X155951000Y-96266000D03*
%TO.P,J9,6,Pin_6*%
%TO.N,MOSI*%
X153411000Y-96266000D03*
%TO.P,J9,5,Pin_5*%
%TO.N,SCK*%
X150871000Y-96266000D03*
%TO.P,J9,4,Pin_4*%
%TO.N,MISO*%
X148331000Y-96266000D03*
%TO.P,J9,3,Pin_3*%
%TO.N,CS*%
X145791000Y-96266000D03*
%TO.P,J9,2,Pin_2*%
%TO.N,GND*%
X143251000Y-96266000D03*
D11*
%TO.P,J9,1,Pin_1*%
%TO.N,VCC*%
X140711000Y-96266000D03*
%TD*%
%TO.P,J6,1,Pin_1*%
%TO.N,VCC*%
X138176000Y-64262000D03*
D12*
%TO.P,J6,2,Pin_2*%
X140716000Y-64262000D03*
%TO.P,J6,3,Pin_3*%
X143256000Y-64262000D03*
%TO.P,J6,4,Pin_4*%
X145796000Y-64262000D03*
%TO.P,J6,5,Pin_5*%
X148336000Y-64262000D03*
%TO.P,J6,6,Pin_6*%
X150876000Y-64262000D03*
%TO.P,J6,7,Pin_7*%
X153416000Y-64262000D03*
%TO.P,J6,8,Pin_8*%
X155956000Y-64262000D03*
%TD*%
D11*
%TO.P,J7,1,Pin_1*%
%TO.N,GND*%
X131318000Y-68580000D03*
D12*
%TO.P,J7,2,Pin_2*%
X128778000Y-68580000D03*
%TO.P,J7,3,Pin_3*%
X126238000Y-68580000D03*
%TO.P,J7,4,Pin_4*%
X123698000Y-68580000D03*
%TO.P,J7,5,Pin_5*%
X121158000Y-68580000D03*
%TO.P,J7,6,Pin_6*%
X118618000Y-68580000D03*
%TO.P,J7,7,Pin_7*%
X116078000Y-68580000D03*
%TO.P,J7,8,Pin_8*%
X113538000Y-68580000D03*
%TD*%
D11*
%TO.P,J2,1,Pin_1*%
%TO.N,CH8*%
X131318000Y-72898000D03*
D12*
%TO.P,J2,2,Pin_2*%
%TO.N,CH9*%
X128778000Y-72898000D03*
%TO.P,J2,3,Pin_3*%
%TO.N,CH10*%
X126238000Y-72898000D03*
%TO.P,J2,4,Pin_4*%
%TO.N,CH11*%
X123698000Y-72898000D03*
%TO.P,J2,5,Pin_5*%
%TO.N,CH12*%
X121158000Y-72898000D03*
%TO.P,J2,6,Pin_6*%
%TO.N,CH13*%
X118618000Y-72898000D03*
%TO.P,J2,7,Pin_7*%
%TO.N,CH14*%
X116078000Y-72898000D03*
%TO.P,J2,8,Pin_8*%
%TO.N,CH15*%
X113538000Y-72898000D03*
%TD*%
D11*
%TO.P,J5,1,Pin_1*%
%TO.N,F0*%
X155956000Y-86106000D03*
D12*
%TO.P,J5,2,Pin_2*%
%TO.N,Net-(J5-Pin_2)*%
X155956000Y-83566000D03*
%TO.P,J5,3,Pin_3*%
%TO.N,GND*%
X155956000Y-81026000D03*
%TD*%
D16*
%TO.P,D1,1,K*%
%TO.N,Net-(D1-K)*%
X119966500Y-81534000D03*
%TO.P,D1,2,A*%
%TO.N,VCC*%
X121841500Y-81534000D03*
%TD*%
D11*
%TO.P,J8,1,Pin_1*%
%TO.N,GND*%
X138176000Y-68580000D03*
D12*
%TO.P,J8,2,Pin_2*%
X140716000Y-68580000D03*
%TO.P,J8,3,Pin_3*%
X143256000Y-68580000D03*
%TO.P,J8,4,Pin_4*%
X145796000Y-68580000D03*
%TO.P,J8,5,Pin_5*%
X148336000Y-68580000D03*
%TO.P,J8,6,Pin_6*%
X150876000Y-68580000D03*
%TO.P,J8,7,Pin_7*%
X153416000Y-68580000D03*
%TO.P,J8,8,Pin_8*%
X155956000Y-68580000D03*
%TD*%
D13*
%TO.P,R3,1*%
%TO.N,REF-*%
X129855500Y-96012000D03*
%TO.P,R3,2*%
%TO.N,GND*%
X132780500Y-96012000D03*
%TD*%
D14*
%TO.P,R4,1*%
%TO.N,Net-(D1-K)*%
X118110000Y-85659500D03*
%TO.P,R4,2*%
%TO.N,GND*%
X118110000Y-88584500D03*
%TD*%
D17*
%TO.N,COM*%
X128950000Y-86550000D03*
%TO.N,GND*%
X137525000Y-90700000D03*
X118872000Y-90424000D03*
X134750000Y-95975000D03*
X123698000Y-90424000D03*
X127000000Y-90424000D03*
X131325000Y-90725000D03*
%TO.N,Net-(J5-Pin_2)*%
X148075000Y-86025000D03*
X143075000Y-86850000D03*
%TD*%
D18*
%TO.N,VCC*%
X121603000Y-85647000D02*
X123952000Y-85647000D01*
X120970000Y-86280000D02*
X121603000Y-85647000D01*
X120970000Y-91230000D02*
X120970000Y-86280000D01*
X119949500Y-92250500D02*
X120970000Y-91230000D01*
X119949500Y-93279500D02*
X119949500Y-92250500D01*
X140711000Y-96266000D02*
X140711000Y-98039000D01*
X155956000Y-64262000D02*
X153416000Y-64262000D01*
X158242000Y-91948000D02*
X160020000Y-90170000D01*
X138677000Y-98300000D02*
X138675000Y-98300000D01*
X123952000Y-85647000D02*
X127254000Y-85647000D01*
X126238000Y-64262000D02*
X128778000Y-64262000D01*
X148336000Y-64262000D02*
X150876000Y-64262000D01*
X117794500Y-93279500D02*
X119949500Y-93279500D01*
X116586000Y-94488000D02*
X117794500Y-93279500D01*
X140711000Y-96266000D02*
X138677000Y-98300000D01*
X160020000Y-90170000D02*
X160020000Y-66548000D01*
X138176000Y-64262000D02*
X140716000Y-64262000D01*
X140716000Y-64262000D02*
X143256000Y-64262000D01*
X118110000Y-98552000D02*
X116586000Y-97028000D01*
X160020000Y-66548000D02*
X157734000Y-64262000D01*
X116078000Y-64262000D02*
X118618000Y-64262000D01*
X138675000Y-98300000D02*
X138423000Y-98552000D01*
X150876000Y-64262000D02*
X153416000Y-64262000D01*
X158242000Y-98044000D02*
X158242000Y-91948000D01*
D19*
X127331000Y-85724000D02*
X127254000Y-85647000D01*
D18*
X143256000Y-64262000D02*
X145796000Y-64262000D01*
X157734000Y-64262000D02*
X155956000Y-64262000D01*
X148336000Y-64262000D02*
X145796000Y-64262000D01*
X157480000Y-98806000D02*
X158242000Y-98044000D01*
X140711000Y-98039000D02*
X141478000Y-98806000D01*
X121158000Y-64262000D02*
X123698000Y-64262000D01*
X123698000Y-64262000D02*
X126238000Y-64262000D01*
X123952000Y-85647000D02*
X123952000Y-83644500D01*
X131318000Y-64262000D02*
X138176000Y-64262000D01*
X113538000Y-64262000D02*
X116078000Y-64262000D01*
X141478000Y-98806000D02*
X157480000Y-98806000D01*
D19*
X131736000Y-85724000D02*
X127331000Y-85724000D01*
D18*
X118618000Y-64262000D02*
X121158000Y-64262000D01*
X123952000Y-83644500D02*
X121841500Y-81534000D01*
X138423000Y-98552000D02*
X118110000Y-98552000D01*
X128778000Y-64262000D02*
X131318000Y-64262000D01*
X116586000Y-97028000D02*
X116586000Y-94488000D01*
%TO.N,REF-*%
X126238000Y-96012000D02*
X129855500Y-96012000D01*
D19*
X129794000Y-87884000D02*
X129794000Y-94742000D01*
X130048000Y-87630000D02*
X129794000Y-87884000D01*
X129855500Y-94803500D02*
X129855500Y-96012000D01*
X129794000Y-94742000D02*
X129855500Y-94803500D01*
X131736000Y-87630000D02*
X130048000Y-87630000D01*
%TO.N,CH8*%
X131318000Y-80226000D02*
X131736000Y-80644000D01*
X131318000Y-72898000D02*
X131318000Y-80226000D01*
%TO.N,CH9*%
X128778000Y-72898000D02*
X128778000Y-79502000D01*
X130556000Y-81280000D02*
X131736000Y-81280000D01*
X128778000Y-79502000D02*
X130556000Y-81280000D01*
%TO.N,CH10*%
X126238000Y-77738000D02*
X126238000Y-72898000D01*
X130414000Y-81914000D02*
X126238000Y-77738000D01*
X131736000Y-81914000D02*
X130414000Y-81914000D01*
%TO.N,CH11*%
X123698000Y-76072000D02*
X123698000Y-72898000D01*
X130176000Y-82550000D02*
X123698000Y-76072000D01*
X131736000Y-82550000D02*
X130176000Y-82550000D01*
%TO.N,CH12*%
X123025000Y-76275000D02*
X122100000Y-76275000D01*
X121158000Y-75333000D02*
X121158000Y-72898000D01*
X122100000Y-76275000D02*
X121158000Y-75333000D01*
X131736000Y-83184000D02*
X129934000Y-83184000D01*
X129934000Y-83184000D02*
X123025000Y-76275000D01*
%TO.N,CH13*%
X120300000Y-76875000D02*
X118618000Y-75193000D01*
X122800000Y-76875000D02*
X120300000Y-76875000D01*
X118618000Y-75193000D02*
X118618000Y-72898000D01*
X131736000Y-83820000D02*
X129745000Y-83820000D01*
X129745000Y-83820000D02*
X122800000Y-76875000D01*
%TO.N,CH14*%
X122475000Y-77375000D02*
X119425000Y-77375000D01*
X116078000Y-74028000D02*
X116078000Y-72898000D01*
X131736000Y-84454000D02*
X129554000Y-84454000D01*
X119425000Y-77375000D02*
X116078000Y-74028000D01*
X129554000Y-84454000D02*
X122475000Y-77375000D01*
%TO.N,CH15*%
X131736000Y-85090000D02*
X129313000Y-85090000D01*
X126646000Y-82421000D02*
X122350000Y-78125000D01*
X126646000Y-82423000D02*
X126646000Y-82421000D01*
X129313000Y-85090000D02*
X126646000Y-82423000D01*
X118575000Y-78125000D02*
X113538000Y-73088000D01*
X113538000Y-73088000D02*
X113538000Y-72898000D01*
X122350000Y-78125000D02*
X118575000Y-78125000D01*
%TO.N,COM*%
X128950000Y-86550000D02*
X129140000Y-86360000D01*
X129140000Y-86360000D02*
X131736000Y-86360000D01*
%TO.N,REF+*%
X129032000Y-89662000D02*
X125730000Y-92964000D01*
D18*
X119949500Y-96204500D02*
X123120500Y-96204500D01*
D19*
X123313000Y-94111000D02*
X123313000Y-96012000D01*
X129032000Y-87630000D02*
X129032000Y-89662000D01*
D18*
X123120500Y-96204500D02*
X123313000Y-96012000D01*
D19*
X129668000Y-86994000D02*
X129032000Y-87630000D01*
X125730000Y-92964000D02*
X124460000Y-92964000D01*
X124460000Y-92964000D02*
X123313000Y-94111000D01*
X131736000Y-86994000D02*
X129668000Y-86994000D01*
%TO.N,CS*%
X138991081Y-88264000D02*
X137160000Y-88264000D01*
X145791000Y-96266000D02*
X145791000Y-95063919D01*
X145791000Y-95063919D02*
X138991081Y-88264000D01*
%TO.N,MISO*%
X140505000Y-87630000D02*
X148331000Y-95456000D01*
X148331000Y-95456000D02*
X148331000Y-96266000D01*
X137160000Y-87630000D02*
X140505000Y-87630000D01*
%TO.N,SCK*%
X150871000Y-96266000D02*
X150871000Y-95946000D01*
X141919000Y-86994000D02*
X137160000Y-86994000D01*
X150871000Y-95946000D02*
X141919000Y-86994000D01*
%TO.N,MOSI*%
X153411000Y-95736000D02*
X143399000Y-85724000D01*
X153411000Y-96266000D02*
X153411000Y-95736000D01*
X143399000Y-85724000D02*
X137160000Y-85724000D01*
%TO.N,CH0*%
X155941000Y-72898000D02*
X143749000Y-85090000D01*
X143749000Y-85090000D02*
X137160000Y-85090000D01*
%TO.N,CH1*%
X153401000Y-74474000D02*
X143421000Y-84454000D01*
X153401000Y-72898000D02*
X153401000Y-74474000D01*
X143421000Y-84454000D02*
X137160000Y-84454000D01*
%TO.N,CH2*%
X150861000Y-72898000D02*
X150861000Y-75989000D01*
X150861000Y-75989000D02*
X143030000Y-83820000D01*
X143030000Y-83820000D02*
X137160000Y-83820000D01*
%TO.N,CH3*%
X148321000Y-77529000D02*
X142666000Y-83184000D01*
X142666000Y-83184000D02*
X137160000Y-83184000D01*
X148321000Y-72898000D02*
X148321000Y-77529000D01*
%TO.N,CH4*%
X145781000Y-72898000D02*
X145781000Y-79069000D01*
X142300000Y-82550000D02*
X137160000Y-82550000D01*
X145781000Y-79069000D02*
X142300000Y-82550000D01*
%TO.N,CH5*%
X143241000Y-80634000D02*
X141961000Y-81914000D01*
X143241000Y-72898000D02*
X143241000Y-80634000D01*
X141961000Y-81914000D02*
X137160000Y-81914000D01*
%TO.N,CH6*%
X140701000Y-72898000D02*
X140701000Y-80624000D01*
X140701000Y-80624000D02*
X140045000Y-81280000D01*
X140045000Y-81280000D02*
X137160000Y-81280000D01*
%TO.N,CH7*%
X138161000Y-72898000D02*
X138161000Y-79643000D01*
X138161000Y-79643000D02*
X137160000Y-80644000D01*
%TO.N,F0*%
X155951000Y-86111000D02*
X155956000Y-86106000D01*
X155951000Y-96266000D02*
X155951000Y-86111000D01*
D18*
%TO.N,GND*%
X127254000Y-90170000D02*
X127254000Y-88597000D01*
D19*
X131736000Y-88900000D02*
X131736000Y-90314000D01*
X137160000Y-88900000D02*
X137160000Y-90335000D01*
D18*
X134713000Y-96012000D02*
X134750000Y-95975000D01*
X123698000Y-90424000D02*
X123952000Y-90170000D01*
D19*
X137160000Y-90335000D02*
X137525000Y-90700000D01*
D18*
X123952000Y-90170000D02*
X123952000Y-88597000D01*
X118110000Y-89662000D02*
X118872000Y-90424000D01*
X118110000Y-88584500D02*
X118110000Y-89662000D01*
X127000000Y-90424000D02*
X127254000Y-90170000D01*
X132780500Y-96012000D02*
X134713000Y-96012000D01*
D19*
X131736000Y-88264000D02*
X131736000Y-88900000D01*
X131736000Y-90314000D02*
X131325000Y-90725000D01*
D18*
%TO.N,Net-(D1-K)*%
X118110000Y-83390500D02*
X119966500Y-81534000D01*
X118110000Y-85659500D02*
X118110000Y-83390500D01*
D19*
%TO.N,Net-(J1-Pin_1)*%
X108458000Y-90434000D02*
X108458000Y-87894000D01*
X108458000Y-82814000D02*
X113274000Y-82814000D01*
X108458000Y-85354000D02*
X108458000Y-82814000D01*
X113274000Y-82814000D02*
X113284000Y-82804000D01*
X108458000Y-87894000D02*
X108458000Y-85354000D01*
%TO.N,Net-(J5-Pin_2)*%
X148075000Y-86025000D02*
X150534000Y-83566000D01*
X137160000Y-86360000D02*
X142585000Y-86360000D01*
X142585000Y-86360000D02*
X143075000Y-86850000D01*
X150534000Y-83566000D02*
X155956000Y-83566000D01*
%TD*%
M02*
