M48
; DRILL file {KiCad 7.0.9} date Sun Dec 10 22:34:16 2023
; FORMAT={-:-/ absolute / metric / decimal}
; #@! TF.CreationDate,2023-12-10T22:34:16+01:00
; #@! TF.GenerationSoftware,Kicad,Pcbnew,7.0.9
; #@! TF.FileFunction,MixedPlating,1,2
FMAT,2
METRIC
; #@! TA.AperFunction,Plated,PTH,ViaDrill
T1C0.400
; #@! TA.AperFunction,Plated,PTH,ComponentDrill
T2C1.000
; #@! TA.AperFunction,NonPlated,NPTH,ComponentDrill
T3C2.200
%
G90
G05
T1
X118.872Y-90.424
X123.698Y-90.424
X127.0Y-90.424
X128.95Y-86.55
X131.325Y-90.725
X134.75Y-95.975
X137.525Y-90.7
X143.075Y-86.85
X148.075Y-86.025
T2
X108.458Y-82.814
X108.458Y-85.354
X108.458Y-87.894
X108.458Y-90.434
X113.284Y-82.804
X113.284Y-85.344
X113.284Y-87.884
X113.538Y-64.262
X113.538Y-68.58
X113.538Y-72.898
X116.078Y-64.262
X116.078Y-68.58
X116.078Y-72.898
X118.618Y-64.262
X118.618Y-68.58
X118.618Y-72.898
X121.158Y-64.262
X121.158Y-68.58
X121.158Y-72.898
X123.698Y-64.262
X123.698Y-68.58
X123.698Y-72.898
X126.238Y-64.262
X126.238Y-68.58
X126.238Y-72.898
X128.778Y-64.262
X128.778Y-68.58
X128.778Y-72.898
X131.318Y-64.262
X131.318Y-68.58
X131.318Y-72.898
X138.161Y-72.898
X138.176Y-64.262
X138.176Y-68.58
X140.701Y-72.898
X140.711Y-96.266
X140.716Y-64.262
X140.716Y-68.58
X143.241Y-72.898
X143.251Y-96.266
X143.256Y-64.262
X143.256Y-68.58
X145.781Y-72.898
X145.791Y-96.266
X145.796Y-64.262
X145.796Y-68.58
X148.321Y-72.898
X148.331Y-96.266
X148.336Y-64.262
X148.336Y-68.58
X150.861Y-72.898
X150.871Y-96.266
X150.876Y-64.262
X150.876Y-68.58
X153.401Y-72.898
X153.411Y-96.266
X153.416Y-64.262
X153.416Y-68.58
X155.941Y-72.898
X155.951Y-96.266
X155.956Y-64.262
X155.956Y-68.58
X155.956Y-81.026
X155.956Y-83.566
X155.956Y-86.106
T3
X106.934Y-62.992
X106.934Y-97.536
X162.052Y-62.992
X162.052Y-97.536
T0
M30
