%TF.GenerationSoftware,KiCad,Pcbnew,7.0.9*%
%TF.CreationDate,2023-12-10T22:34:59+01:00*%
%TF.ProjectId,LTC2439-Evaluation-board,4c544332-3433-4392-9d45-76616c756174,rev?*%
%TF.SameCoordinates,Original*%
%TF.FileFunction,Copper,L2,Bot*%
%TF.FilePolarity,Positive*%
%FSLAX46Y46*%
G04 Gerber Fmt 4.6, Leading zero omitted, Abs format (unit mm)*
G04 Created by KiCad (PCBNEW 7.0.9) date 2023-12-10 22:34:59*
%MOMM*%
%LPD*%
G01*
G04 APERTURE LIST*
%TA.AperFunction,ComponentPad*%
%ADD10R,1.700000X1.700000*%
%TD*%
%TA.AperFunction,ComponentPad*%
%ADD11O,1.700000X1.700000*%
%TD*%
%TA.AperFunction,ViaPad*%
%ADD12C,0.800000*%
%TD*%
%TA.AperFunction,Conductor*%
%ADD13C,0.300000*%
%TD*%
G04 APERTURE END LIST*
D10*
%TO.P,J4,1,Pin_1*%
%TO.N,VCC*%
X131318000Y-64262000D03*
D11*
%TO.P,J4,2,Pin_2*%
X128778000Y-64262000D03*
%TO.P,J4,3,Pin_3*%
X126238000Y-64262000D03*
%TO.P,J4,4,Pin_4*%
X123698000Y-64262000D03*
%TO.P,J4,5,Pin_5*%
X121158000Y-64262000D03*
%TO.P,J4,6,Pin_6*%
X118618000Y-64262000D03*
%TO.P,J4,7,Pin_7*%
X116078000Y-64262000D03*
%TO.P,J4,8,Pin_8*%
X113538000Y-64262000D03*
%TD*%
D10*
%TO.P,J3,1,Pin_1*%
%TO.N,CH0*%
X155941000Y-72898000D03*
D11*
%TO.P,J3,2,Pin_2*%
%TO.N,CH1*%
X153401000Y-72898000D03*
%TO.P,J3,3,Pin_3*%
%TO.N,CH2*%
X150861000Y-72898000D03*
%TO.P,J3,4,Pin_4*%
%TO.N,CH3*%
X148321000Y-72898000D03*
%TO.P,J3,5,Pin_5*%
%TO.N,CH4*%
X145781000Y-72898000D03*
%TO.P,J3,6,Pin_6*%
%TO.N,CH5*%
X143241000Y-72898000D03*
%TO.P,J3,7,Pin_7*%
%TO.N,CH6*%
X140701000Y-72898000D03*
%TO.P,J3,8,Pin_8*%
%TO.N,CH7*%
X138161000Y-72898000D03*
%TD*%
D10*
%TO.P,J10,1,Pin_1*%
%TO.N,Net-(J1-Pin_1)*%
X113284000Y-82804000D03*
D11*
%TO.P,J10,2,Pin_2*%
%TO.N,COM*%
X113284000Y-85344000D03*
%TO.P,J10,3,Pin_3*%
%TO.N,GND*%
X113284000Y-87884000D03*
%TD*%
D10*
%TO.P,J1,1,Pin_1*%
%TO.N,Net-(J1-Pin_1)*%
X108458000Y-82814000D03*
D11*
%TO.P,J1,2,Pin_2*%
X108458000Y-85354000D03*
%TO.P,J1,3,Pin_3*%
X108458000Y-87894000D03*
%TO.P,J1,4,Pin_4*%
X108458000Y-90434000D03*
%TD*%
%TO.P,J9,7,Pin_7*%
%TO.N,F0*%
X155951000Y-96266000D03*
%TO.P,J9,6,Pin_6*%
%TO.N,MOSI*%
X153411000Y-96266000D03*
%TO.P,J9,5,Pin_5*%
%TO.N,SCK*%
X150871000Y-96266000D03*
%TO.P,J9,4,Pin_4*%
%TO.N,MISO*%
X148331000Y-96266000D03*
%TO.P,J9,3,Pin_3*%
%TO.N,CS*%
X145791000Y-96266000D03*
%TO.P,J9,2,Pin_2*%
%TO.N,GND*%
X143251000Y-96266000D03*
D10*
%TO.P,J9,1,Pin_1*%
%TO.N,VCC*%
X140711000Y-96266000D03*
%TD*%
%TO.P,J6,1,Pin_1*%
%TO.N,VCC*%
X138176000Y-64262000D03*
D11*
%TO.P,J6,2,Pin_2*%
X140716000Y-64262000D03*
%TO.P,J6,3,Pin_3*%
X143256000Y-64262000D03*
%TO.P,J6,4,Pin_4*%
X145796000Y-64262000D03*
%TO.P,J6,5,Pin_5*%
X148336000Y-64262000D03*
%TO.P,J6,6,Pin_6*%
X150876000Y-64262000D03*
%TO.P,J6,7,Pin_7*%
X153416000Y-64262000D03*
%TO.P,J6,8,Pin_8*%
X155956000Y-64262000D03*
%TD*%
D10*
%TO.P,J7,1,Pin_1*%
%TO.N,GND*%
X131318000Y-68580000D03*
D11*
%TO.P,J7,2,Pin_2*%
X128778000Y-68580000D03*
%TO.P,J7,3,Pin_3*%
X126238000Y-68580000D03*
%TO.P,J7,4,Pin_4*%
X123698000Y-68580000D03*
%TO.P,J7,5,Pin_5*%
X121158000Y-68580000D03*
%TO.P,J7,6,Pin_6*%
X118618000Y-68580000D03*
%TO.P,J7,7,Pin_7*%
X116078000Y-68580000D03*
%TO.P,J7,8,Pin_8*%
X113538000Y-68580000D03*
%TD*%
D10*
%TO.P,J2,1,Pin_1*%
%TO.N,CH8*%
X131318000Y-72898000D03*
D11*
%TO.P,J2,2,Pin_2*%
%TO.N,CH9*%
X128778000Y-72898000D03*
%TO.P,J2,3,Pin_3*%
%TO.N,CH10*%
X126238000Y-72898000D03*
%TO.P,J2,4,Pin_4*%
%TO.N,CH11*%
X123698000Y-72898000D03*
%TO.P,J2,5,Pin_5*%
%TO.N,CH12*%
X121158000Y-72898000D03*
%TO.P,J2,6,Pin_6*%
%TO.N,CH13*%
X118618000Y-72898000D03*
%TO.P,J2,7,Pin_7*%
%TO.N,CH14*%
X116078000Y-72898000D03*
%TO.P,J2,8,Pin_8*%
%TO.N,CH15*%
X113538000Y-72898000D03*
%TD*%
D10*
%TO.P,J5,1,Pin_1*%
%TO.N,F0*%
X155956000Y-86106000D03*
D11*
%TO.P,J5,2,Pin_2*%
%TO.N,Net-(J5-Pin_2)*%
X155956000Y-83566000D03*
%TO.P,J5,3,Pin_3*%
%TO.N,GND*%
X155956000Y-81026000D03*
%TD*%
D10*
%TO.P,J8,1,Pin_1*%
%TO.N,GND*%
X138176000Y-68580000D03*
D11*
%TO.P,J8,2,Pin_2*%
X140716000Y-68580000D03*
%TO.P,J8,3,Pin_3*%
X143256000Y-68580000D03*
%TO.P,J8,4,Pin_4*%
X145796000Y-68580000D03*
%TO.P,J8,5,Pin_5*%
X148336000Y-68580000D03*
%TO.P,J8,6,Pin_6*%
X150876000Y-68580000D03*
%TO.P,J8,7,Pin_7*%
X153416000Y-68580000D03*
%TO.P,J8,8,Pin_8*%
X155956000Y-68580000D03*
%TD*%
D12*
%TO.N,COM*%
X128950000Y-86550000D03*
%TO.N,GND*%
X137525000Y-90700000D03*
X118872000Y-90424000D03*
X134750000Y-95975000D03*
X123698000Y-90424000D03*
X127000000Y-90424000D03*
X131325000Y-90725000D03*
%TO.N,Net-(J5-Pin_2)*%
X148075000Y-86025000D03*
X143075000Y-86850000D03*
%TD*%
D13*
%TO.N,COM*%
X128950000Y-86575000D02*
X128950000Y-86550000D01*
X116125000Y-86875000D02*
X116325000Y-87075000D01*
X114594000Y-85344000D02*
X116125000Y-86875000D01*
X128450000Y-87075000D02*
X128950000Y-86575000D01*
X116325000Y-87075000D02*
X128450000Y-87075000D01*
X113284000Y-85344000D02*
X114594000Y-85344000D01*
%TO.N,Net-(J5-Pin_2)*%
X143075000Y-86850000D02*
X147250000Y-86850000D01*
X147250000Y-86850000D02*
X148075000Y-86025000D01*
%TD*%
%TA.AperFunction,Conductor*%
%TO.N,GND*%
G36*
X115618507Y-68370156D02*
G01*
X115578000Y-68508111D01*
X115578000Y-68651889D01*
X115618507Y-68789844D01*
X115644314Y-68830000D01*
X113971686Y-68830000D01*
X113997493Y-68789844D01*
X114038000Y-68651889D01*
X114038000Y-68508111D01*
X113997493Y-68370156D01*
X113971686Y-68330000D01*
X115644314Y-68330000D01*
X115618507Y-68370156D01*
G37*
%TD.AperFunction*%
%TA.AperFunction,Conductor*%
G36*
X118158507Y-68370156D02*
G01*
X118118000Y-68508111D01*
X118118000Y-68651889D01*
X118158507Y-68789844D01*
X118184314Y-68830000D01*
X116511686Y-68830000D01*
X116537493Y-68789844D01*
X116578000Y-68651889D01*
X116578000Y-68508111D01*
X116537493Y-68370156D01*
X116511686Y-68330000D01*
X118184314Y-68330000D01*
X118158507Y-68370156D01*
G37*
%TD.AperFunction*%
%TA.AperFunction,Conductor*%
G36*
X120698507Y-68370156D02*
G01*
X120658000Y-68508111D01*
X120658000Y-68651889D01*
X120698507Y-68789844D01*
X120724314Y-68830000D01*
X119051686Y-68830000D01*
X119077493Y-68789844D01*
X119118000Y-68651889D01*
X119118000Y-68508111D01*
X119077493Y-68370156D01*
X119051686Y-68330000D01*
X120724314Y-68330000D01*
X120698507Y-68370156D01*
G37*
%TD.AperFunction*%
%TA.AperFunction,Conductor*%
G36*
X123238507Y-68370156D02*
G01*
X123198000Y-68508111D01*
X123198000Y-68651889D01*
X123238507Y-68789844D01*
X123264314Y-68830000D01*
X121591686Y-68830000D01*
X121617493Y-68789844D01*
X121658000Y-68651889D01*
X121658000Y-68508111D01*
X121617493Y-68370156D01*
X121591686Y-68330000D01*
X123264314Y-68330000D01*
X123238507Y-68370156D01*
G37*
%TD.AperFunction*%
%TA.AperFunction,Conductor*%
G36*
X125778507Y-68370156D02*
G01*
X125738000Y-68508111D01*
X125738000Y-68651889D01*
X125778507Y-68789844D01*
X125804314Y-68830000D01*
X124131686Y-68830000D01*
X124157493Y-68789844D01*
X124198000Y-68651889D01*
X124198000Y-68508111D01*
X124157493Y-68370156D01*
X124131686Y-68330000D01*
X125804314Y-68330000D01*
X125778507Y-68370156D01*
G37*
%TD.AperFunction*%
%TA.AperFunction,Conductor*%
G36*
X128318507Y-68370156D02*
G01*
X128278000Y-68508111D01*
X128278000Y-68651889D01*
X128318507Y-68789844D01*
X128344314Y-68830000D01*
X126671686Y-68830000D01*
X126697493Y-68789844D01*
X126738000Y-68651889D01*
X126738000Y-68508111D01*
X126697493Y-68370156D01*
X126671686Y-68330000D01*
X128344314Y-68330000D01*
X128318507Y-68370156D01*
G37*
%TD.AperFunction*%
%TA.AperFunction,Conductor*%
G36*
X130858507Y-68370156D02*
G01*
X130818000Y-68508111D01*
X130818000Y-68651889D01*
X130858507Y-68789844D01*
X130884314Y-68830000D01*
X129211686Y-68830000D01*
X129237493Y-68789844D01*
X129278000Y-68651889D01*
X129278000Y-68508111D01*
X129237493Y-68370156D01*
X129211686Y-68330000D01*
X130884314Y-68330000D01*
X130858507Y-68370156D01*
G37*
%TD.AperFunction*%
%TA.AperFunction,Conductor*%
G36*
X140256507Y-68370156D02*
G01*
X140216000Y-68508111D01*
X140216000Y-68651889D01*
X140256507Y-68789844D01*
X140282314Y-68830000D01*
X138609686Y-68830000D01*
X138635493Y-68789844D01*
X138676000Y-68651889D01*
X138676000Y-68508111D01*
X138635493Y-68370156D01*
X138609686Y-68330000D01*
X140282314Y-68330000D01*
X140256507Y-68370156D01*
G37*
%TD.AperFunction*%
%TA.AperFunction,Conductor*%
G36*
X142796507Y-68370156D02*
G01*
X142756000Y-68508111D01*
X142756000Y-68651889D01*
X142796507Y-68789844D01*
X142822314Y-68830000D01*
X141149686Y-68830000D01*
X141175493Y-68789844D01*
X141216000Y-68651889D01*
X141216000Y-68508111D01*
X141175493Y-68370156D01*
X141149686Y-68330000D01*
X142822314Y-68330000D01*
X142796507Y-68370156D01*
G37*
%TD.AperFunction*%
%TA.AperFunction,Conductor*%
G36*
X145336507Y-68370156D02*
G01*
X145296000Y-68508111D01*
X145296000Y-68651889D01*
X145336507Y-68789844D01*
X145362314Y-68830000D01*
X143689686Y-68830000D01*
X143715493Y-68789844D01*
X143756000Y-68651889D01*
X143756000Y-68508111D01*
X143715493Y-68370156D01*
X143689686Y-68330000D01*
X145362314Y-68330000D01*
X145336507Y-68370156D01*
G37*
%TD.AperFunction*%
%TA.AperFunction,Conductor*%
G36*
X147876507Y-68370156D02*
G01*
X147836000Y-68508111D01*
X147836000Y-68651889D01*
X147876507Y-68789844D01*
X147902314Y-68830000D01*
X146229686Y-68830000D01*
X146255493Y-68789844D01*
X146296000Y-68651889D01*
X146296000Y-68508111D01*
X146255493Y-68370156D01*
X146229686Y-68330000D01*
X147902314Y-68330000D01*
X147876507Y-68370156D01*
G37*
%TD.AperFunction*%
%TA.AperFunction,Conductor*%
G36*
X150416507Y-68370156D02*
G01*
X150376000Y-68508111D01*
X150376000Y-68651889D01*
X150416507Y-68789844D01*
X150442314Y-68830000D01*
X148769686Y-68830000D01*
X148795493Y-68789844D01*
X148836000Y-68651889D01*
X148836000Y-68508111D01*
X148795493Y-68370156D01*
X148769686Y-68330000D01*
X150442314Y-68330000D01*
X150416507Y-68370156D01*
G37*
%TD.AperFunction*%
%TA.AperFunction,Conductor*%
G36*
X152956507Y-68370156D02*
G01*
X152916000Y-68508111D01*
X152916000Y-68651889D01*
X152956507Y-68789844D01*
X152982314Y-68830000D01*
X151309686Y-68830000D01*
X151335493Y-68789844D01*
X151376000Y-68651889D01*
X151376000Y-68508111D01*
X151335493Y-68370156D01*
X151309686Y-68330000D01*
X152982314Y-68330000D01*
X152956507Y-68370156D01*
G37*
%TD.AperFunction*%
%TA.AperFunction,Conductor*%
G36*
X155496507Y-68370156D02*
G01*
X155456000Y-68508111D01*
X155456000Y-68651889D01*
X155496507Y-68789844D01*
X155522314Y-68830000D01*
X153849686Y-68830000D01*
X153875493Y-68789844D01*
X153916000Y-68651889D01*
X153916000Y-68508111D01*
X153875493Y-68370156D01*
X153849686Y-68330000D01*
X155522314Y-68330000D01*
X155496507Y-68370156D01*
G37*
%TD.AperFunction*%
%TA.AperFunction,Conductor*%
G36*
X162053735Y-60444598D02*
G01*
X162186676Y-60452063D01*
X162333762Y-60460323D01*
X162340652Y-60461099D01*
X162574332Y-60500803D01*
X162615434Y-60507787D01*
X162622218Y-60509335D01*
X162890040Y-60586493D01*
X162896607Y-60588792D01*
X163025352Y-60642119D01*
X163154110Y-60695452D01*
X163160359Y-60698462D01*
X163335162Y-60795072D01*
X163404301Y-60833284D01*
X163410193Y-60836986D01*
X163637497Y-60998267D01*
X163642937Y-61002605D01*
X163850756Y-61188323D01*
X163855676Y-61193243D01*
X164041394Y-61401062D01*
X164045732Y-61406502D01*
X164207013Y-61633806D01*
X164210715Y-61639698D01*
X164345533Y-61883632D01*
X164348552Y-61889901D01*
X164455207Y-62147392D01*
X164457506Y-62153959D01*
X164534664Y-62421781D01*
X164536212Y-62428565D01*
X164582898Y-62703333D01*
X164583677Y-62710247D01*
X164599402Y-62990264D01*
X164599500Y-62993741D01*
X164599500Y-97534258D01*
X164599402Y-97537735D01*
X164583677Y-97817752D01*
X164582898Y-97824666D01*
X164536212Y-98099434D01*
X164534664Y-98106218D01*
X164457506Y-98374040D01*
X164455207Y-98380607D01*
X164348552Y-98638098D01*
X164345533Y-98644367D01*
X164210715Y-98888301D01*
X164207013Y-98894193D01*
X164045732Y-99121497D01*
X164041394Y-99126937D01*
X163855676Y-99334756D01*
X163850756Y-99339676D01*
X163642937Y-99525394D01*
X163637497Y-99529732D01*
X163410193Y-99691013D01*
X163404301Y-99694715D01*
X163160367Y-99829533D01*
X163154098Y-99832552D01*
X162896607Y-99939207D01*
X162890040Y-99941506D01*
X162622218Y-100018664D01*
X162615434Y-100020212D01*
X162340666Y-100066898D01*
X162333752Y-100067677D01*
X162053735Y-100083402D01*
X162050258Y-100083500D01*
X106935742Y-100083500D01*
X106932265Y-100083402D01*
X106652248Y-100067677D01*
X106645333Y-100066898D01*
X106370565Y-100020212D01*
X106363781Y-100018664D01*
X106095959Y-99941506D01*
X106089392Y-99939207D01*
X105867948Y-99847483D01*
X105831897Y-99832550D01*
X105825632Y-99829533D01*
X105581698Y-99694715D01*
X105575806Y-99691013D01*
X105348502Y-99529732D01*
X105343062Y-99525394D01*
X105135243Y-99339676D01*
X105130323Y-99334756D01*
X104944605Y-99126937D01*
X104940267Y-99121497D01*
X104778986Y-98894193D01*
X104775284Y-98888301D01*
X104689394Y-98732895D01*
X104640462Y-98644359D01*
X104637452Y-98638110D01*
X104571818Y-98479653D01*
X104530792Y-98380607D01*
X104528493Y-98374040D01*
X104451335Y-98106218D01*
X104449787Y-98099434D01*
X104438348Y-98032110D01*
X104403099Y-97824652D01*
X104402323Y-97817762D01*
X104386693Y-97539429D01*
X104386598Y-97537735D01*
X104386549Y-97536000D01*
X105328551Y-97536000D01*
X105348317Y-97787151D01*
X105407126Y-98032110D01*
X105503533Y-98264859D01*
X105635160Y-98479653D01*
X105635161Y-98479656D01*
X105635164Y-98479659D01*
X105798776Y-98671224D01*
X105947066Y-98797875D01*
X105990343Y-98834838D01*
X105990346Y-98834839D01*
X106205140Y-98966466D01*
X106437889Y-99062873D01*
X106682852Y-99121683D01*
X106838950Y-99133968D01*
X106871116Y-99136500D01*
X106871118Y-99136500D01*
X106996884Y-99136500D01*
X107026518Y-99134167D01*
X107185148Y-99121683D01*
X107430111Y-99062873D01*
X107662859Y-98966466D01*
X107877659Y-98834836D01*
X108069224Y-98671224D01*
X108232836Y-98479659D01*
X108364466Y-98264859D01*
X108460873Y-98032111D01*
X108519683Y-97787148D01*
X108539449Y-97536000D01*
X108519683Y-97284852D01*
X108489914Y-97160856D01*
X139560500Y-97160856D01*
X139560502Y-97160882D01*
X139563413Y-97185987D01*
X139563415Y-97185991D01*
X139608793Y-97288764D01*
X139608794Y-97288765D01*
X139688235Y-97368206D01*
X139791009Y-97413585D01*
X139816135Y-97416500D01*
X141605864Y-97416499D01*
X141605879Y-97416497D01*
X141605882Y-97416497D01*
X141630987Y-97413586D01*
X141630988Y-97413585D01*
X141630991Y-97413585D01*
X141733765Y-97368206D01*
X141813206Y-97288765D01*
X141858585Y-97185991D01*
X141861500Y-97160865D01*
X141861499Y-97028516D01*
X141881183Y-96961480D01*
X141933987Y-96915725D01*
X142003145Y-96905781D01*
X142066701Y-96934805D01*
X142087073Y-96957395D01*
X142212890Y-97137078D01*
X142379917Y-97304105D01*
X142573421Y-97439600D01*
X142787507Y-97539429D01*
X142787516Y-97539433D01*
X143001000Y-97596634D01*
X143001000Y-96701501D01*
X143108685Y-96750680D01*
X143215237Y-96766000D01*
X143286763Y-96766000D01*
X143393315Y-96750680D01*
X143501000Y-96701501D01*
X143501000Y-97596633D01*
X143714483Y-97539433D01*
X143714492Y-97539429D01*
X143721846Y-97536000D01*
X160446551Y-97536000D01*
X160466317Y-97787151D01*
X160525126Y-98032110D01*
X160621533Y-98264859D01*
X160753160Y-98479653D01*
X160753161Y-98479656D01*
X160753164Y-98479659D01*
X160916776Y-98671224D01*
X161065066Y-98797875D01*
X161108343Y-98834838D01*
X161108346Y-98834839D01*
X161323140Y-98966466D01*
X161555889Y-99062873D01*
X161800852Y-99121683D01*
X161956950Y-99133968D01*
X161989116Y-99136500D01*
X161989118Y-99136500D01*
X162114884Y-99136500D01*
X162144518Y-99134167D01*
X162303148Y-99121683D01*
X162548111Y-99062873D01*
X162780859Y-98966466D01*
X162995659Y-98834836D01*
X163187224Y-98671224D01*
X163350836Y-98479659D01*
X163482466Y-98264859D01*
X163578873Y-98032111D01*
X163637683Y-97787148D01*
X163657449Y-97536000D01*
X163637683Y-97284852D01*
X163578873Y-97039889D01*
X163523324Y-96905781D01*
X163482466Y-96807140D01*
X163350839Y-96592346D01*
X163350838Y-96592343D01*
X163251338Y-96475844D01*
X163187224Y-96400776D01*
X163029422Y-96266000D01*
X162995656Y-96237161D01*
X162995653Y-96237160D01*
X162780859Y-96105533D01*
X162548110Y-96009126D01*
X162303150Y-95950317D01*
X162114884Y-95935500D01*
X162114882Y-95935500D01*
X161989118Y-95935500D01*
X161989116Y-95935500D01*
X161800849Y-95950317D01*
X161555889Y-96009126D01*
X161323140Y-96105533D01*
X161108346Y-96237160D01*
X161108343Y-96237161D01*
X160916776Y-96400776D01*
X160753161Y-96592343D01*
X160753160Y-96592346D01*
X160621533Y-96807140D01*
X160525126Y-97039889D01*
X160466317Y-97284848D01*
X160446551Y-97536000D01*
X143721846Y-97536000D01*
X143928578Y-97439600D01*
X144122082Y-97304105D01*
X144289105Y-97137082D01*
X144424600Y-96943578D01*
X144518294Y-96742651D01*
X144564466Y-96690212D01*
X144631660Y-96671060D01*
X144698541Y-96691276D01*
X144741676Y-96739785D01*
X144808632Y-96874253D01*
X144933716Y-97039889D01*
X144937128Y-97044407D01*
X145094698Y-97188052D01*
X145275981Y-97300298D01*
X145474802Y-97377321D01*
X145684390Y-97416500D01*
X145684392Y-97416500D01*
X145897608Y-97416500D01*
X145897610Y-97416500D01*
X146107198Y-97377321D01*
X146306019Y-97300298D01*
X146487302Y-97188052D01*
X146644872Y-97044407D01*
X146773366Y-96874255D01*
X146773367Y-96874253D01*
X146868403Y-96683394D01*
X146868403Y-96683393D01*
X146868405Y-96683389D01*
X146926756Y-96478310D01*
X146937529Y-96362047D01*
X146963315Y-96297111D01*
X147005622Y-96266804D01*
X147114130Y-96266804D01*
X147150503Y-96287668D01*
X147182693Y-96349681D01*
X147184471Y-96362048D01*
X147195244Y-96478310D01*
X147253596Y-96683392D01*
X147253596Y-96683394D01*
X147348632Y-96874253D01*
X147473716Y-97039889D01*
X147477128Y-97044407D01*
X147634698Y-97188052D01*
X147815981Y-97300298D01*
X148014802Y-97377321D01*
X148224390Y-97416500D01*
X148224392Y-97416500D01*
X148437608Y-97416500D01*
X148437610Y-97416500D01*
X148647198Y-97377321D01*
X148846019Y-97300298D01*
X149027302Y-97188052D01*
X149184872Y-97044407D01*
X149313366Y-96874255D01*
X149313367Y-96874253D01*
X149408403Y-96683394D01*
X149408403Y-96683393D01*
X149408405Y-96683389D01*
X149466756Y-96478310D01*
X149477529Y-96362047D01*
X149503315Y-96297111D01*
X149545622Y-96266804D01*
X149654130Y-96266804D01*
X149690503Y-96287668D01*
X149722693Y-96349681D01*
X149724471Y-96362048D01*
X149735244Y-96478310D01*
X149793596Y-96683392D01*
X149793596Y-96683394D01*
X149888632Y-96874253D01*
X150013716Y-97039889D01*
X150017128Y-97044407D01*
X150174698Y-97188052D01*
X150355981Y-97300298D01*
X150554802Y-97377321D01*
X150764390Y-97416500D01*
X150764392Y-97416500D01*
X150977608Y-97416500D01*
X150977610Y-97416500D01*
X151187198Y-97377321D01*
X151386019Y-97300298D01*
X151567302Y-97188052D01*
X151724872Y-97044407D01*
X151853366Y-96874255D01*
X151853367Y-96874253D01*
X151948403Y-96683394D01*
X151948403Y-96683393D01*
X151948405Y-96683389D01*
X152006756Y-96478310D01*
X152017529Y-96362047D01*
X152043315Y-96297111D01*
X152085622Y-96266804D01*
X152194130Y-96266804D01*
X152230503Y-96287668D01*
X152262693Y-96349681D01*
X152264471Y-96362048D01*
X152275244Y-96478310D01*
X152333596Y-96683392D01*
X152333596Y-96683394D01*
X152428632Y-96874253D01*
X152553716Y-97039889D01*
X152557128Y-97044407D01*
X152714698Y-97188052D01*
X152895981Y-97300298D01*
X153094802Y-97377321D01*
X153304390Y-97416500D01*
X153304392Y-97416500D01*
X153517608Y-97416500D01*
X153517610Y-97416500D01*
X153727198Y-97377321D01*
X153926019Y-97300298D01*
X154107302Y-97188052D01*
X154264872Y-97044407D01*
X154393366Y-96874255D01*
X154393367Y-96874253D01*
X154488403Y-96683394D01*
X154488403Y-96683393D01*
X154488405Y-96683389D01*
X154546756Y-96478310D01*
X154557529Y-96362047D01*
X154583315Y-96297111D01*
X154625622Y-96266804D01*
X154734130Y-96266804D01*
X154770503Y-96287668D01*
X154802693Y-96349681D01*
X154804471Y-96362048D01*
X154815244Y-96478310D01*
X154873596Y-96683392D01*
X154873596Y-96683394D01*
X154968632Y-96874253D01*
X155093716Y-97039889D01*
X155097128Y-97044407D01*
X155254698Y-97188052D01*
X155435981Y-97300298D01*
X155634802Y-97377321D01*
X155844390Y-97416500D01*
X155844392Y-97416500D01*
X156057608Y-97416500D01*
X156057610Y-97416500D01*
X156267198Y-97377321D01*
X156466019Y-97300298D01*
X156647302Y-97188052D01*
X156804872Y-97044407D01*
X156933366Y-96874255D01*
X156933367Y-96874253D01*
X157028403Y-96683394D01*
X157028403Y-96683393D01*
X157028405Y-96683389D01*
X157086756Y-96478310D01*
X157106429Y-96266000D01*
X157086756Y-96053690D01*
X157028405Y-95848611D01*
X157028403Y-95848606D01*
X157028403Y-95848605D01*
X156933367Y-95657746D01*
X156804872Y-95487593D01*
X156647302Y-95343948D01*
X156466019Y-95231702D01*
X156466017Y-95231701D01*
X156366608Y-95193190D01*
X156267198Y-95154679D01*
X156057610Y-95115500D01*
X155844390Y-95115500D01*
X155634802Y-95154679D01*
X155634799Y-95154679D01*
X155634799Y-95154680D01*
X155435982Y-95231701D01*
X155435980Y-95231702D01*
X155254699Y-95343947D01*
X155097127Y-95487593D01*
X154968632Y-95657746D01*
X154873596Y-95848605D01*
X154873596Y-95848607D01*
X154815244Y-96053689D01*
X154804471Y-96169951D01*
X154778685Y-96234888D01*
X154734130Y-96266804D01*
X154625622Y-96266804D01*
X154627869Y-96265194D01*
X154591497Y-96244331D01*
X154559307Y-96182318D01*
X154557529Y-96169951D01*
X154556849Y-96162613D01*
X154546756Y-96053690D01*
X154488405Y-95848611D01*
X154488403Y-95848606D01*
X154488403Y-95848605D01*
X154393367Y-95657746D01*
X154264872Y-95487593D01*
X154107302Y-95343948D01*
X153926019Y-95231702D01*
X153926017Y-95231701D01*
X153826608Y-95193190D01*
X153727198Y-95154679D01*
X153517610Y-95115500D01*
X153304390Y-95115500D01*
X153094802Y-95154679D01*
X153094799Y-95154679D01*
X153094799Y-95154680D01*
X152895982Y-95231701D01*
X152895980Y-95231702D01*
X152714699Y-95343947D01*
X152557127Y-95487593D01*
X152428632Y-95657746D01*
X152333596Y-95848605D01*
X152333596Y-95848607D01*
X152275244Y-96053689D01*
X152264471Y-96169951D01*
X152238685Y-96234888D01*
X152194130Y-96266804D01*
X152085622Y-96266804D01*
X152087869Y-96265194D01*
X152051497Y-96244331D01*
X152019307Y-96182318D01*
X152017529Y-96169951D01*
X152016849Y-96162613D01*
X152006756Y-96053690D01*
X151948405Y-95848611D01*
X151948403Y-95848606D01*
X151948403Y-95848605D01*
X151853367Y-95657746D01*
X151724872Y-95487593D01*
X151567302Y-95343948D01*
X151386019Y-95231702D01*
X151386017Y-95231701D01*
X151286608Y-95193190D01*
X151187198Y-95154679D01*
X150977610Y-95115500D01*
X150764390Y-95115500D01*
X150554802Y-95154679D01*
X150554799Y-95154679D01*
X150554799Y-95154680D01*
X150355982Y-95231701D01*
X150355980Y-95231702D01*
X150174699Y-95343947D01*
X150017127Y-95487593D01*
X149888632Y-95657746D01*
X149793596Y-95848605D01*
X149793596Y-95848607D01*
X149735244Y-96053689D01*
X149724471Y-96169951D01*
X149698685Y-96234888D01*
X149654130Y-96266804D01*
X149545622Y-96266804D01*
X149547869Y-96265194D01*
X149511497Y-96244331D01*
X149479307Y-96182318D01*
X149477529Y-96169951D01*
X149476849Y-96162613D01*
X149466756Y-96053690D01*
X149408405Y-95848611D01*
X149408403Y-95848606D01*
X149408403Y-95848605D01*
X149313367Y-95657746D01*
X149184872Y-95487593D01*
X149027302Y-95343948D01*
X148846019Y-95231702D01*
X148846017Y-95231701D01*
X148746608Y-95193190D01*
X148647198Y-95154679D01*
X148437610Y-95115500D01*
X148224390Y-95115500D01*
X148014802Y-95154679D01*
X148014799Y-95154679D01*
X148014799Y-95154680D01*
X147815982Y-95231701D01*
X147815980Y-95231702D01*
X147634699Y-95343947D01*
X147477127Y-95487593D01*
X147348632Y-95657746D01*
X147253596Y-95848605D01*
X147253596Y-95848607D01*
X147195244Y-96053689D01*
X147184471Y-96169951D01*
X147158685Y-96234888D01*
X147114130Y-96266804D01*
X147005622Y-96266804D01*
X147007869Y-96265194D01*
X146971497Y-96244331D01*
X146939307Y-96182318D01*
X146937529Y-96169951D01*
X146936849Y-96162613D01*
X146926756Y-96053690D01*
X146868405Y-95848611D01*
X146868403Y-95848606D01*
X146868403Y-95848605D01*
X146773367Y-95657746D01*
X146644872Y-95487593D01*
X146487302Y-95343948D01*
X146306019Y-95231702D01*
X146306017Y-95231701D01*
X146206608Y-95193190D01*
X146107198Y-95154679D01*
X145897610Y-95115500D01*
X145684390Y-95115500D01*
X145474802Y-95154679D01*
X145474799Y-95154679D01*
X145474799Y-95154680D01*
X145275982Y-95231701D01*
X145275980Y-95231702D01*
X145094699Y-95343947D01*
X144937127Y-95487593D01*
X144808634Y-95657744D01*
X144741676Y-95792215D01*
X144694173Y-95843452D01*
X144626510Y-95860873D01*
X144560170Y-95838947D01*
X144518294Y-95789348D01*
X144424600Y-95588422D01*
X144424599Y-95588420D01*
X144289113Y-95394926D01*
X144289108Y-95394920D01*
X144122082Y-95227894D01*
X143928578Y-95092399D01*
X143714492Y-94992570D01*
X143714486Y-94992567D01*
X143501000Y-94935364D01*
X143501000Y-95830498D01*
X143393315Y-95781320D01*
X143286763Y-95766000D01*
X143215237Y-95766000D01*
X143108685Y-95781320D01*
X143001000Y-95830498D01*
X143001000Y-94935364D01*
X143000999Y-94935364D01*
X142787513Y-94992567D01*
X142787507Y-94992570D01*
X142573422Y-95092399D01*
X142573420Y-95092400D01*
X142379926Y-95227886D01*
X142379920Y-95227891D01*
X142212891Y-95394920D01*
X142212890Y-95394922D01*
X142087074Y-95574606D01*
X142032497Y-95618230D01*
X141962998Y-95625423D01*
X141900644Y-95593901D01*
X141865230Y-95533671D01*
X141861499Y-95503482D01*
X141861499Y-95371143D01*
X141861499Y-95371136D01*
X141861497Y-95371117D01*
X141858586Y-95346012D01*
X141858585Y-95346010D01*
X141858585Y-95346009D01*
X141813206Y-95243235D01*
X141733765Y-95163794D01*
X141713124Y-95154680D01*
X141630992Y-95118415D01*
X141605865Y-95115500D01*
X139816143Y-95115500D01*
X139816117Y-95115502D01*
X139791012Y-95118413D01*
X139791008Y-95118415D01*
X139688235Y-95163793D01*
X139608794Y-95243234D01*
X139563415Y-95346006D01*
X139563415Y-95346008D01*
X139560500Y-95371131D01*
X139560500Y-97160856D01*
X108489914Y-97160856D01*
X108460873Y-97039889D01*
X108405324Y-96905781D01*
X108364466Y-96807140D01*
X108232839Y-96592346D01*
X108232838Y-96592343D01*
X108133338Y-96475844D01*
X108069224Y-96400776D01*
X107911422Y-96266000D01*
X107877656Y-96237161D01*
X107877653Y-96237160D01*
X107662859Y-96105533D01*
X107430110Y-96009126D01*
X107185150Y-95950317D01*
X106996884Y-95935500D01*
X106996882Y-95935500D01*
X106871118Y-95935500D01*
X106871116Y-95935500D01*
X106682849Y-95950317D01*
X106437889Y-96009126D01*
X106205140Y-96105533D01*
X105990346Y-96237160D01*
X105990343Y-96237161D01*
X105798776Y-96400776D01*
X105635161Y-96592343D01*
X105635160Y-96592346D01*
X105503533Y-96807140D01*
X105407126Y-97039889D01*
X105348317Y-97284848D01*
X105328551Y-97536000D01*
X104386549Y-97536000D01*
X104386500Y-97534258D01*
X104386500Y-90434000D01*
X107302571Y-90434000D01*
X107322244Y-90646310D01*
X107380596Y-90851392D01*
X107380596Y-90851394D01*
X107475632Y-91042253D01*
X107475634Y-91042255D01*
X107604128Y-91212407D01*
X107761698Y-91356052D01*
X107942981Y-91468298D01*
X108141802Y-91545321D01*
X108351390Y-91584500D01*
X108351392Y-91584500D01*
X108564608Y-91584500D01*
X108564610Y-91584500D01*
X108774198Y-91545321D01*
X108973019Y-91468298D01*
X109154302Y-91356052D01*
X109311872Y-91212407D01*
X109440366Y-91042255D01*
X109535405Y-90851389D01*
X109593756Y-90646310D01*
X109613429Y-90434000D01*
X109593756Y-90221690D01*
X109535405Y-90016611D01*
X109535403Y-90016606D01*
X109535403Y-90016605D01*
X109440367Y-89825746D01*
X109311872Y-89655593D01*
X109154302Y-89511948D01*
X108973019Y-89399702D01*
X108973017Y-89399701D01*
X108873608Y-89361190D01*
X108774198Y-89322679D01*
X108577385Y-89285888D01*
X108515106Y-89254221D01*
X108479833Y-89193908D01*
X108482767Y-89124100D01*
X108522976Y-89066960D01*
X108577384Y-89042111D01*
X108774198Y-89005321D01*
X108973019Y-88928298D01*
X109154302Y-88816052D01*
X109311872Y-88672407D01*
X109440366Y-88502255D01*
X109440367Y-88502253D01*
X109535403Y-88311394D01*
X109535403Y-88311393D01*
X109535405Y-88311389D01*
X109585877Y-88134000D01*
X111953364Y-88134000D01*
X112010567Y-88347486D01*
X112010570Y-88347492D01*
X112110399Y-88561578D01*
X112245894Y-88755082D01*
X112412917Y-88922105D01*
X112606421Y-89057600D01*
X112820507Y-89157429D01*
X112820516Y-89157433D01*
X113034000Y-89214634D01*
X113034000Y-88319501D01*
X113141685Y-88368680D01*
X113248237Y-88384000D01*
X113319763Y-88384000D01*
X113426315Y-88368680D01*
X113534000Y-88319501D01*
X113534000Y-89214633D01*
X113747483Y-89157433D01*
X113747492Y-89157429D01*
X113961578Y-89057600D01*
X114155082Y-88922105D01*
X114322105Y-88755082D01*
X114457600Y-88561578D01*
X114557429Y-88347492D01*
X114557432Y-88347486D01*
X114614636Y-88134000D01*
X113717686Y-88134000D01*
X113743493Y-88093844D01*
X113784000Y-87955889D01*
X113784000Y-87812111D01*
X113743493Y-87674156D01*
X113717686Y-87634000D01*
X114614636Y-87634000D01*
X114614635Y-87633999D01*
X114557432Y-87420513D01*
X114557429Y-87420507D01*
X114457600Y-87206422D01*
X114457599Y-87206420D01*
X114322113Y-87012926D01*
X114322108Y-87012920D01*
X114155082Y-86845894D01*
X113961578Y-86710399D01*
X113762426Y-86617533D01*
X113709987Y-86571360D01*
X113690835Y-86504167D01*
X113711051Y-86437286D01*
X113764216Y-86391951D01*
X113770005Y-86389537D01*
X113799019Y-86378298D01*
X113980302Y-86266052D01*
X114137872Y-86122407D01*
X114266366Y-85952255D01*
X114288868Y-85907063D01*
X114336368Y-85855827D01*
X114404031Y-85838404D01*
X114470372Y-85860328D01*
X114487549Y-85874653D01*
X115756091Y-87143194D01*
X115756101Y-87143205D01*
X115758433Y-87145537D01*
X115758434Y-87145538D01*
X115986098Y-87373201D01*
X115990726Y-87378380D01*
X116015121Y-87408970D01*
X116015121Y-87408971D01*
X116064271Y-87442480D01*
X116112118Y-87477793D01*
X116119654Y-87481776D01*
X116127319Y-87485467D01*
X116127327Y-87485472D01*
X116184177Y-87503007D01*
X116240297Y-87522645D01*
X116240299Y-87522645D01*
X116240301Y-87522646D01*
X116240302Y-87522646D01*
X116248698Y-87524234D01*
X116257095Y-87525500D01*
X116257098Y-87525500D01*
X116316559Y-87525500D01*
X116376009Y-87527725D01*
X116376009Y-87527724D01*
X116376010Y-87527725D01*
X116376010Y-87527724D01*
X116385242Y-87526685D01*
X116385335Y-87527513D01*
X116400639Y-87525500D01*
X128421217Y-87525500D01*
X128428155Y-87525889D01*
X128460050Y-87529483D01*
X128467034Y-87530270D01*
X128467034Y-87530269D01*
X128467035Y-87530270D01*
X128525479Y-87519211D01*
X128584287Y-87510348D01*
X128584290Y-87510346D01*
X128592447Y-87507830D01*
X128600469Y-87505023D01*
X128600472Y-87505023D01*
X128653072Y-87477222D01*
X128706642Y-87451425D01*
X128706642Y-87451424D01*
X128706644Y-87451424D01*
X128713695Y-87446616D01*
X128720538Y-87441566D01*
X128762599Y-87399504D01*
X128762797Y-87399320D01*
X128806194Y-87359055D01*
X128806196Y-87359050D01*
X128811987Y-87351790D01*
X128812643Y-87352313D01*
X128822032Y-87340070D01*
X128875287Y-87286817D01*
X128936611Y-87253333D01*
X128962967Y-87250500D01*
X129035056Y-87250500D01*
X129200225Y-87209790D01*
X129322646Y-87145538D01*
X129350849Y-87130736D01*
X129350850Y-87130734D01*
X129350852Y-87130734D01*
X129478183Y-87017929D01*
X129574818Y-86877930D01*
X129585410Y-86850000D01*
X142369355Y-86850000D01*
X142389859Y-87018869D01*
X142389860Y-87018874D01*
X142450182Y-87177931D01*
X142502403Y-87253585D01*
X142546817Y-87317929D01*
X142649581Y-87408970D01*
X142674150Y-87430736D01*
X142824773Y-87509789D01*
X142824775Y-87509790D01*
X142989944Y-87550500D01*
X143160056Y-87550500D01*
X143325225Y-87509790D01*
X143475852Y-87430734D01*
X143564962Y-87351790D01*
X143587656Y-87331685D01*
X143650889Y-87301963D01*
X143669883Y-87300500D01*
X147221217Y-87300500D01*
X147228155Y-87300889D01*
X147260050Y-87304483D01*
X147267034Y-87305270D01*
X147267034Y-87305269D01*
X147267035Y-87305270D01*
X147325479Y-87294211D01*
X147384287Y-87285348D01*
X147384290Y-87285346D01*
X147392447Y-87282830D01*
X147400469Y-87280023D01*
X147400472Y-87280023D01*
X147453072Y-87252222D01*
X147506642Y-87226425D01*
X147506642Y-87226424D01*
X147506644Y-87226424D01*
X147513695Y-87221616D01*
X147520538Y-87216566D01*
X147562599Y-87174504D01*
X147606194Y-87134055D01*
X147606196Y-87134050D01*
X147611987Y-87126790D01*
X147612643Y-87127313D01*
X147622032Y-87115070D01*
X147975284Y-86761819D01*
X148036607Y-86728334D01*
X148062965Y-86725500D01*
X148160056Y-86725500D01*
X148325225Y-86684790D01*
X148451184Y-86618681D01*
X148475849Y-86605736D01*
X148475850Y-86605734D01*
X148475852Y-86605734D01*
X148603183Y-86492929D01*
X148699818Y-86352930D01*
X148760140Y-86193872D01*
X148780645Y-86025000D01*
X148760140Y-85856128D01*
X148699818Y-85697070D01*
X148603183Y-85557071D01*
X148475852Y-85444266D01*
X148475849Y-85444263D01*
X148325226Y-85365210D01*
X148160056Y-85324500D01*
X147989944Y-85324500D01*
X147824773Y-85365210D01*
X147674150Y-85444263D01*
X147546816Y-85557072D01*
X147450182Y-85697068D01*
X147389860Y-85856125D01*
X147389859Y-85856130D01*
X147369355Y-86025000D01*
X147369355Y-86025002D01*
X147369500Y-86026198D01*
X147369355Y-86027069D01*
X147369355Y-86032500D01*
X147368451Y-86032500D01*
X147358031Y-86095120D01*
X147334083Y-86128812D01*
X147099714Y-86363182D01*
X147038394Y-86396666D01*
X147012035Y-86399500D01*
X143669883Y-86399500D01*
X143602844Y-86379815D01*
X143587656Y-86368315D01*
X143475852Y-86269266D01*
X143475850Y-86269264D01*
X143325226Y-86190210D01*
X143160056Y-86149500D01*
X142989944Y-86149500D01*
X142824773Y-86190210D01*
X142674150Y-86269263D01*
X142579709Y-86352931D01*
X142547882Y-86381128D01*
X142546816Y-86382072D01*
X142450182Y-86522068D01*
X142389860Y-86681125D01*
X142389859Y-86681130D01*
X142369355Y-86850000D01*
X129585410Y-86850000D01*
X129635140Y-86718872D01*
X129655645Y-86550000D01*
X129635140Y-86381128D01*
X129574818Y-86222070D01*
X129552826Y-86190210D01*
X129524726Y-86149500D01*
X129478183Y-86082071D01*
X129350852Y-85969266D01*
X129350849Y-85969263D01*
X129200226Y-85890210D01*
X129035056Y-85849500D01*
X128864944Y-85849500D01*
X128699773Y-85890210D01*
X128549150Y-85969263D01*
X128421816Y-86082072D01*
X128325182Y-86222068D01*
X128264860Y-86381125D01*
X128264859Y-86381131D01*
X128248551Y-86515446D01*
X128220929Y-86579624D01*
X128162995Y-86618681D01*
X128125455Y-86624500D01*
X116562966Y-86624500D01*
X116495927Y-86604815D01*
X116475285Y-86588181D01*
X114932908Y-85045805D01*
X114928271Y-85040617D01*
X114903878Y-85010029D01*
X114854728Y-84976519D01*
X114806882Y-84941207D01*
X114799297Y-84937198D01*
X114791677Y-84933529D01*
X114767161Y-84925967D01*
X114734822Y-84915992D01*
X114714154Y-84908760D01*
X114678695Y-84896352D01*
X114670326Y-84894768D01*
X114661904Y-84893500D01*
X114661902Y-84893500D01*
X114602426Y-84893500D01*
X114542990Y-84891275D01*
X114533756Y-84892316D01*
X114533662Y-84891486D01*
X114518364Y-84893500D01*
X114421695Y-84893500D01*
X114354656Y-84873815D01*
X114310696Y-84824774D01*
X114266366Y-84735745D01*
X114137872Y-84565593D01*
X113980302Y-84421948D01*
X113799019Y-84309702D01*
X113799017Y-84309701D01*
X113699608Y-84271190D01*
X113600198Y-84232679D01*
X113427456Y-84200387D01*
X113365176Y-84168719D01*
X113329903Y-84108407D01*
X113332837Y-84038599D01*
X113373046Y-83981459D01*
X113437764Y-83955128D01*
X113450233Y-83954499D01*
X114178864Y-83954499D01*
X114178879Y-83954497D01*
X114178882Y-83954497D01*
X114203987Y-83951586D01*
X114203988Y-83951585D01*
X114203991Y-83951585D01*
X114306765Y-83906206D01*
X114386206Y-83826765D01*
X114431585Y-83723991D01*
X114434500Y-83698865D01*
X114434499Y-81909136D01*
X114434497Y-81909117D01*
X114431586Y-81884012D01*
X114431585Y-81884010D01*
X114431585Y-81884009D01*
X114386206Y-81781235D01*
X114306765Y-81701794D01*
X114306763Y-81701793D01*
X114203992Y-81656415D01*
X114178865Y-81653500D01*
X112389143Y-81653500D01*
X112389117Y-81653502D01*
X112364012Y-81656413D01*
X112364008Y-81656415D01*
X112261235Y-81701793D01*
X112181794Y-81781234D01*
X112136415Y-81884006D01*
X112136415Y-81884008D01*
X112133500Y-81909131D01*
X112133500Y-83698856D01*
X112133502Y-83698882D01*
X112136413Y-83723987D01*
X112136415Y-83723991D01*
X112181793Y-83826764D01*
X112181794Y-83826765D01*
X112261235Y-83906206D01*
X112364009Y-83951585D01*
X112389135Y-83954500D01*
X113117758Y-83954499D01*
X113184795Y-83974183D01*
X113230550Y-84026987D01*
X113240494Y-84096146D01*
X113211469Y-84159702D01*
X113152691Y-84197476D01*
X113140542Y-84200388D01*
X113123895Y-84203500D01*
X112967802Y-84232679D01*
X112967800Y-84232679D01*
X112967798Y-84232680D01*
X112768982Y-84309701D01*
X112768980Y-84309702D01*
X112587699Y-84421947D01*
X112430127Y-84565593D01*
X112301632Y-84735746D01*
X112206596Y-84926605D01*
X112206596Y-84926607D01*
X112148244Y-85131689D01*
X112128571Y-85343999D01*
X112128571Y-85344000D01*
X112148244Y-85556310D01*
X112206596Y-85761392D01*
X112206596Y-85761394D01*
X112301632Y-85952253D01*
X112430127Y-86122406D01*
X112430128Y-86122407D01*
X112587698Y-86266052D01*
X112768981Y-86378298D01*
X112797961Y-86389525D01*
X112853362Y-86432095D01*
X112876954Y-86497861D01*
X112861244Y-86565942D01*
X112811222Y-86614722D01*
X112805573Y-86617533D01*
X112606422Y-86710399D01*
X112606420Y-86710400D01*
X112412926Y-86845886D01*
X112412920Y-86845891D01*
X112245891Y-87012920D01*
X112245886Y-87012926D01*
X112110400Y-87206420D01*
X112110399Y-87206422D01*
X112010570Y-87420507D01*
X112010567Y-87420513D01*
X111953364Y-87633999D01*
X111953364Y-87634000D01*
X112850314Y-87634000D01*
X112824507Y-87674156D01*
X112784000Y-87812111D01*
X112784000Y-87955889D01*
X112824507Y-88093844D01*
X112850314Y-88134000D01*
X111953364Y-88134000D01*
X109585877Y-88134000D01*
X109593756Y-88106310D01*
X109613429Y-87894000D01*
X109593756Y-87681690D01*
X109535405Y-87476611D01*
X109535403Y-87476606D01*
X109535403Y-87476605D01*
X109440367Y-87285746D01*
X109311872Y-87115593D01*
X109213586Y-87025993D01*
X109154302Y-86971948D01*
X108973019Y-86859702D01*
X108973017Y-86859701D01*
X108873608Y-86821190D01*
X108774198Y-86782679D01*
X108577385Y-86745888D01*
X108515106Y-86714221D01*
X108479833Y-86653908D01*
X108482767Y-86584100D01*
X108522976Y-86526960D01*
X108577384Y-86502111D01*
X108774198Y-86465321D01*
X108973019Y-86388298D01*
X109154302Y-86276052D01*
X109311872Y-86132407D01*
X109440366Y-85962255D01*
X109491119Y-85860328D01*
X109535403Y-85771394D01*
X109535403Y-85771393D01*
X109535405Y-85771389D01*
X109593756Y-85566310D01*
X109613429Y-85354000D01*
X109593756Y-85141690D01*
X109535405Y-84936611D01*
X109535403Y-84936606D01*
X109535403Y-84936605D01*
X109440367Y-84745746D01*
X109311872Y-84575593D01*
X109300903Y-84565593D01*
X109154302Y-84431948D01*
X108973019Y-84319702D01*
X108973017Y-84319701D01*
X108873608Y-84281190D01*
X108774198Y-84242679D01*
X108601456Y-84210387D01*
X108539176Y-84178719D01*
X108503903Y-84118407D01*
X108506837Y-84048599D01*
X108547046Y-83991459D01*
X108611764Y-83965128D01*
X108624233Y-83964499D01*
X109352864Y-83964499D01*
X109352879Y-83964497D01*
X109352882Y-83964497D01*
X109377987Y-83961586D01*
X109377988Y-83961585D01*
X109377991Y-83961585D01*
X109480765Y-83916206D01*
X109560206Y-83836765D01*
X109605585Y-83733991D01*
X109608500Y-83708865D01*
X109608499Y-81919136D01*
X109607340Y-81909143D01*
X109605586Y-81894012D01*
X109605585Y-81894010D01*
X109605585Y-81894009D01*
X109560206Y-81791235D01*
X109480765Y-81711794D01*
X109480763Y-81711793D01*
X109377992Y-81666415D01*
X109352865Y-81663500D01*
X107563143Y-81663500D01*
X107563117Y-81663502D01*
X107538012Y-81666413D01*
X107538008Y-81666415D01*
X107435235Y-81711793D01*
X107355794Y-81791234D01*
X107310415Y-81894006D01*
X107310415Y-81894008D01*
X107307500Y-81919131D01*
X107307500Y-83708856D01*
X107307502Y-83708882D01*
X107310413Y-83733987D01*
X107310415Y-83733991D01*
X107355793Y-83836764D01*
X107355794Y-83836765D01*
X107435235Y-83916206D01*
X107538009Y-83961585D01*
X107563135Y-83964500D01*
X108291758Y-83964499D01*
X108358795Y-83984183D01*
X108404550Y-84036987D01*
X108414494Y-84106146D01*
X108385469Y-84169702D01*
X108326691Y-84207476D01*
X108314542Y-84210388D01*
X108258116Y-84220935D01*
X108141802Y-84242679D01*
X108141800Y-84242679D01*
X108141798Y-84242680D01*
X107942982Y-84319701D01*
X107942980Y-84319702D01*
X107761699Y-84431947D01*
X107604127Y-84575593D01*
X107475632Y-84745746D01*
X107380596Y-84936605D01*
X107380596Y-84936607D01*
X107322244Y-85141689D01*
X107305305Y-85324500D01*
X107302571Y-85354000D01*
X107322244Y-85566310D01*
X107359448Y-85697068D01*
X107380596Y-85771392D01*
X107380596Y-85771394D01*
X107475632Y-85962253D01*
X107596576Y-86122407D01*
X107604128Y-86132407D01*
X107761698Y-86276052D01*
X107942981Y-86388298D01*
X108141802Y-86465321D01*
X108338613Y-86502111D01*
X108400893Y-86533779D01*
X108436166Y-86594092D01*
X108433232Y-86663900D01*
X108393023Y-86721040D01*
X108338613Y-86745888D01*
X108141802Y-86782679D01*
X108141799Y-86782679D01*
X108141799Y-86782680D01*
X107942982Y-86859701D01*
X107942980Y-86859702D01*
X107761699Y-86971947D01*
X107604127Y-87115593D01*
X107475632Y-87285746D01*
X107380596Y-87476605D01*
X107380596Y-87476607D01*
X107322244Y-87681689D01*
X107302571Y-87893999D01*
X107302571Y-87894000D01*
X107322244Y-88106310D01*
X107380596Y-88311392D01*
X107380596Y-88311394D01*
X107475632Y-88502253D01*
X107475634Y-88502255D01*
X107604128Y-88672407D01*
X107761698Y-88816052D01*
X107942981Y-88928298D01*
X108141802Y-89005321D01*
X108338613Y-89042111D01*
X108400893Y-89073779D01*
X108436166Y-89134092D01*
X108433232Y-89203900D01*
X108393023Y-89261040D01*
X108338613Y-89285888D01*
X108141802Y-89322679D01*
X108141799Y-89322679D01*
X108141799Y-89322680D01*
X107942982Y-89399701D01*
X107942980Y-89399702D01*
X107761699Y-89511947D01*
X107604127Y-89655593D01*
X107475632Y-89825746D01*
X107380596Y-90016605D01*
X107380596Y-90016607D01*
X107322244Y-90221689D01*
X107302571Y-90433999D01*
X107302571Y-90434000D01*
X104386500Y-90434000D01*
X104386500Y-81276000D01*
X154625364Y-81276000D01*
X154682567Y-81489486D01*
X154682570Y-81489492D01*
X154782399Y-81703578D01*
X154917894Y-81897082D01*
X155084917Y-82064105D01*
X155278421Y-82199600D01*
X155477573Y-82292466D01*
X155530012Y-82338638D01*
X155549164Y-82405832D01*
X155528948Y-82472713D01*
X155475783Y-82518048D01*
X155469968Y-82520472D01*
X155462771Y-82523260D01*
X155440982Y-82531701D01*
X155440980Y-82531702D01*
X155259699Y-82643947D01*
X155102127Y-82787593D01*
X154973632Y-82957746D01*
X154878596Y-83148605D01*
X154878596Y-83148607D01*
X154878595Y-83148611D01*
X154820244Y-83353690D01*
X154800571Y-83566000D01*
X154820244Y-83778310D01*
X154872391Y-83961586D01*
X154878596Y-83983392D01*
X154878596Y-83983394D01*
X154973632Y-84174253D01*
X155083471Y-84319702D01*
X155102128Y-84344407D01*
X155259698Y-84488052D01*
X155440981Y-84600298D01*
X155639802Y-84677321D01*
X155812544Y-84709612D01*
X155874823Y-84741279D01*
X155910096Y-84801591D01*
X155907162Y-84871400D01*
X155866953Y-84928540D01*
X155802235Y-84954871D01*
X155789757Y-84955500D01*
X155061143Y-84955500D01*
X155061117Y-84955502D01*
X155036012Y-84958413D01*
X155036008Y-84958415D01*
X154933235Y-85003793D01*
X154853794Y-85083234D01*
X154808415Y-85186006D01*
X154808415Y-85186008D01*
X154805500Y-85211131D01*
X154805500Y-87000856D01*
X154805502Y-87000882D01*
X154808413Y-87025987D01*
X154808415Y-87025991D01*
X154853793Y-87128764D01*
X154853794Y-87128765D01*
X154933235Y-87208206D01*
X155036009Y-87253585D01*
X155061135Y-87256500D01*
X156850864Y-87256499D01*
X156850879Y-87256497D01*
X156850882Y-87256497D01*
X156875987Y-87253586D01*
X156875988Y-87253585D01*
X156875991Y-87253585D01*
X156978765Y-87208206D01*
X157058206Y-87128765D01*
X157103585Y-87025991D01*
X157106500Y-87000865D01*
X157106499Y-85211136D01*
X157106497Y-85211117D01*
X157103586Y-85186012D01*
X157103585Y-85186010D01*
X157103585Y-85186009D01*
X157058206Y-85083235D01*
X156978765Y-85003794D01*
X156916993Y-84976519D01*
X156875992Y-84958415D01*
X156850868Y-84955500D01*
X156122243Y-84955500D01*
X156055204Y-84935815D01*
X156009449Y-84883011D01*
X155999505Y-84813853D01*
X156028530Y-84750297D01*
X156087308Y-84712523D01*
X156099441Y-84709614D01*
X156272198Y-84677321D01*
X156471019Y-84600298D01*
X156652302Y-84488052D01*
X156809872Y-84344407D01*
X156938366Y-84174255D01*
X157033405Y-83983389D01*
X157091756Y-83778310D01*
X157111429Y-83566000D01*
X157091756Y-83353690D01*
X157033405Y-83148611D01*
X157033403Y-83148606D01*
X157033403Y-83148605D01*
X156938367Y-82957746D01*
X156809872Y-82787593D01*
X156652302Y-82643948D01*
X156471019Y-82531702D01*
X156471014Y-82531700D01*
X156464129Y-82529032D01*
X156442037Y-82520474D01*
X156386636Y-82477903D01*
X156363045Y-82412136D01*
X156378756Y-82344056D01*
X156428779Y-82295276D01*
X156434426Y-82292466D01*
X156633578Y-82199599D01*
X156827082Y-82064105D01*
X156994105Y-81897082D01*
X157129600Y-81703578D01*
X157229429Y-81489492D01*
X157229432Y-81489486D01*
X157286636Y-81276000D01*
X156389686Y-81276000D01*
X156415493Y-81235844D01*
X156456000Y-81097889D01*
X156456000Y-80954111D01*
X156415493Y-80816156D01*
X156389686Y-80776000D01*
X157286636Y-80776000D01*
X157286635Y-80775999D01*
X157229432Y-80562513D01*
X157229429Y-80562507D01*
X157129600Y-80348422D01*
X157129599Y-80348420D01*
X156994113Y-80154926D01*
X156994108Y-80154920D01*
X156827082Y-79987894D01*
X156633578Y-79852399D01*
X156419492Y-79752570D01*
X156419486Y-79752567D01*
X156206000Y-79695364D01*
X156206000Y-80590498D01*
X156098315Y-80541320D01*
X155991763Y-80526000D01*
X155920237Y-80526000D01*
X155813685Y-80541320D01*
X155706000Y-80590498D01*
X155706000Y-79695364D01*
X155705999Y-79695364D01*
X155492513Y-79752567D01*
X155492507Y-79752570D01*
X155278422Y-79852399D01*
X155278420Y-79852400D01*
X155084926Y-79987886D01*
X155084920Y-79987891D01*
X154917891Y-80154920D01*
X154917886Y-80154926D01*
X154782400Y-80348420D01*
X154782399Y-80348422D01*
X154682570Y-80562507D01*
X154682567Y-80562513D01*
X154625364Y-80775999D01*
X154625364Y-80776000D01*
X155522314Y-80776000D01*
X155496507Y-80816156D01*
X155456000Y-80954111D01*
X155456000Y-81097889D01*
X155496507Y-81235844D01*
X155522314Y-81276000D01*
X154625364Y-81276000D01*
X104386500Y-81276000D01*
X104386500Y-72898000D01*
X112382571Y-72898000D01*
X112402244Y-73110310D01*
X112460596Y-73315392D01*
X112460596Y-73315394D01*
X112555632Y-73506253D01*
X112555634Y-73506255D01*
X112684128Y-73676407D01*
X112841698Y-73820052D01*
X113022981Y-73932298D01*
X113221802Y-74009321D01*
X113431390Y-74048500D01*
X113431392Y-74048500D01*
X113644608Y-74048500D01*
X113644610Y-74048500D01*
X113854198Y-74009321D01*
X114053019Y-73932298D01*
X114234302Y-73820052D01*
X114391872Y-73676407D01*
X114520366Y-73506255D01*
X114615405Y-73315389D01*
X114673756Y-73110310D01*
X114684529Y-72994047D01*
X114710315Y-72929111D01*
X114752622Y-72898804D01*
X114861130Y-72898804D01*
X114897503Y-72919668D01*
X114929693Y-72981681D01*
X114931471Y-72994048D01*
X114942244Y-73110310D01*
X115000596Y-73315392D01*
X115000596Y-73315394D01*
X115095632Y-73506253D01*
X115095634Y-73506255D01*
X115224128Y-73676407D01*
X115381698Y-73820052D01*
X115562981Y-73932298D01*
X115761802Y-74009321D01*
X115971390Y-74048500D01*
X115971392Y-74048500D01*
X116184608Y-74048500D01*
X116184610Y-74048500D01*
X116394198Y-74009321D01*
X116593019Y-73932298D01*
X116774302Y-73820052D01*
X116931872Y-73676407D01*
X117060366Y-73506255D01*
X117155405Y-73315389D01*
X117213756Y-73110310D01*
X117224529Y-72994047D01*
X117250315Y-72929111D01*
X117292622Y-72898804D01*
X117401130Y-72898804D01*
X117437503Y-72919668D01*
X117469693Y-72981681D01*
X117471471Y-72994048D01*
X117482244Y-73110310D01*
X117540596Y-73315392D01*
X117540596Y-73315394D01*
X117635632Y-73506253D01*
X117635634Y-73506255D01*
X117764128Y-73676407D01*
X117921698Y-73820052D01*
X118102981Y-73932298D01*
X118301802Y-74009321D01*
X118511390Y-74048500D01*
X118511392Y-74048500D01*
X118724608Y-74048500D01*
X118724610Y-74048500D01*
X118934198Y-74009321D01*
X119133019Y-73932298D01*
X119314302Y-73820052D01*
X119471872Y-73676407D01*
X119600366Y-73506255D01*
X119695405Y-73315389D01*
X119753756Y-73110310D01*
X119764529Y-72994047D01*
X119790315Y-72929111D01*
X119832622Y-72898804D01*
X119941130Y-72898804D01*
X119977503Y-72919668D01*
X120009693Y-72981681D01*
X120011471Y-72994048D01*
X120022244Y-73110310D01*
X120080596Y-73315392D01*
X120080596Y-73315394D01*
X120175632Y-73506253D01*
X120175634Y-73506255D01*
X120304128Y-73676407D01*
X120461698Y-73820052D01*
X120642981Y-73932298D01*
X120841802Y-74009321D01*
X121051390Y-74048500D01*
X121051392Y-74048500D01*
X121264608Y-74048500D01*
X121264610Y-74048500D01*
X121474198Y-74009321D01*
X121673019Y-73932298D01*
X121854302Y-73820052D01*
X122011872Y-73676407D01*
X122140366Y-73506255D01*
X122235405Y-73315389D01*
X122293756Y-73110310D01*
X122304529Y-72994047D01*
X122330315Y-72929111D01*
X122372622Y-72898804D01*
X122481130Y-72898804D01*
X122517503Y-72919668D01*
X122549693Y-72981681D01*
X122551471Y-72994048D01*
X122562244Y-73110310D01*
X122620596Y-73315392D01*
X122620596Y-73315394D01*
X122715632Y-73506253D01*
X122715634Y-73506255D01*
X122844128Y-73676407D01*
X123001698Y-73820052D01*
X123182981Y-73932298D01*
X123381802Y-74009321D01*
X123591390Y-74048500D01*
X123591392Y-74048500D01*
X123804608Y-74048500D01*
X123804610Y-74048500D01*
X124014198Y-74009321D01*
X124213019Y-73932298D01*
X124394302Y-73820052D01*
X124551872Y-73676407D01*
X124680366Y-73506255D01*
X124775405Y-73315389D01*
X124833756Y-73110310D01*
X124844529Y-72994047D01*
X124870315Y-72929111D01*
X124912622Y-72898804D01*
X125021130Y-72898804D01*
X125057503Y-72919668D01*
X125089693Y-72981681D01*
X125091471Y-72994048D01*
X125102244Y-73110310D01*
X125160596Y-73315392D01*
X125160596Y-73315394D01*
X125255632Y-73506253D01*
X125255634Y-73506255D01*
X125384128Y-73676407D01*
X125541698Y-73820052D01*
X125722981Y-73932298D01*
X125921802Y-74009321D01*
X126131390Y-74048500D01*
X126131392Y-74048500D01*
X126344608Y-74048500D01*
X126344610Y-74048500D01*
X126554198Y-74009321D01*
X126753019Y-73932298D01*
X126934302Y-73820052D01*
X127091872Y-73676407D01*
X127220366Y-73506255D01*
X127315405Y-73315389D01*
X127373756Y-73110310D01*
X127384529Y-72994047D01*
X127410315Y-72929111D01*
X127452622Y-72898804D01*
X127561130Y-72898804D01*
X127597503Y-72919668D01*
X127629693Y-72981681D01*
X127631471Y-72994048D01*
X127642244Y-73110310D01*
X127700596Y-73315392D01*
X127700596Y-73315394D01*
X127795632Y-73506253D01*
X127795634Y-73506255D01*
X127924128Y-73676407D01*
X128081698Y-73820052D01*
X128262981Y-73932298D01*
X128461802Y-74009321D01*
X128671390Y-74048500D01*
X128671392Y-74048500D01*
X128884608Y-74048500D01*
X128884610Y-74048500D01*
X129094198Y-74009321D01*
X129293019Y-73932298D01*
X129474302Y-73820052D01*
X129631872Y-73676407D01*
X129760366Y-73506255D01*
X129855405Y-73315389D01*
X129913756Y-73110310D01*
X129920029Y-73042605D01*
X129945814Y-72977669D01*
X130002614Y-72936981D01*
X130072395Y-72933461D01*
X130133002Y-72968225D01*
X130165193Y-73030238D01*
X130167500Y-73054047D01*
X130167500Y-73792856D01*
X130167502Y-73792882D01*
X130170413Y-73817987D01*
X130170415Y-73817991D01*
X130215793Y-73920764D01*
X130215794Y-73920765D01*
X130295235Y-74000206D01*
X130398009Y-74045585D01*
X130423135Y-74048500D01*
X132212864Y-74048499D01*
X132212879Y-74048497D01*
X132212882Y-74048497D01*
X132237987Y-74045586D01*
X132237988Y-74045585D01*
X132237991Y-74045585D01*
X132340765Y-74000206D01*
X132420206Y-73920765D01*
X132465585Y-73817991D01*
X132468500Y-73792865D01*
X132468499Y-72898000D01*
X137005571Y-72898000D01*
X137025244Y-73110310D01*
X137083596Y-73315392D01*
X137083596Y-73315394D01*
X137178632Y-73506253D01*
X137178634Y-73506255D01*
X137307128Y-73676407D01*
X137464698Y-73820052D01*
X137645981Y-73932298D01*
X137844802Y-74009321D01*
X138054390Y-74048500D01*
X138054392Y-74048500D01*
X138267608Y-74048500D01*
X138267610Y-74048500D01*
X138477198Y-74009321D01*
X138676019Y-73932298D01*
X138857302Y-73820052D01*
X139014872Y-73676407D01*
X139143366Y-73506255D01*
X139238405Y-73315389D01*
X139296756Y-73110310D01*
X139307529Y-72994047D01*
X139333315Y-72929111D01*
X139375622Y-72898804D01*
X139484130Y-72898804D01*
X139520503Y-72919668D01*
X139552693Y-72981681D01*
X139554471Y-72994048D01*
X139565244Y-73110310D01*
X139623596Y-73315392D01*
X139623596Y-73315394D01*
X139718632Y-73506253D01*
X139718634Y-73506255D01*
X139847128Y-73676407D01*
X140004698Y-73820052D01*
X140185981Y-73932298D01*
X140384802Y-74009321D01*
X140594390Y-74048500D01*
X140594392Y-74048500D01*
X140807608Y-74048500D01*
X140807610Y-74048500D01*
X141017198Y-74009321D01*
X141216019Y-73932298D01*
X141397302Y-73820052D01*
X141554872Y-73676407D01*
X141683366Y-73506255D01*
X141778405Y-73315389D01*
X141836756Y-73110310D01*
X141847529Y-72994047D01*
X141873315Y-72929111D01*
X141915622Y-72898804D01*
X142024130Y-72898804D01*
X142060503Y-72919668D01*
X142092693Y-72981681D01*
X142094471Y-72994048D01*
X142105244Y-73110310D01*
X142163596Y-73315392D01*
X142163596Y-73315394D01*
X142258632Y-73506253D01*
X142258634Y-73506255D01*
X142387128Y-73676407D01*
X142544698Y-73820052D01*
X142725981Y-73932298D01*
X142924802Y-74009321D01*
X143134390Y-74048500D01*
X143134392Y-74048500D01*
X143347608Y-74048500D01*
X143347610Y-74048500D01*
X143557198Y-74009321D01*
X143756019Y-73932298D01*
X143937302Y-73820052D01*
X144094872Y-73676407D01*
X144223366Y-73506255D01*
X144318405Y-73315389D01*
X144376756Y-73110310D01*
X144387529Y-72994047D01*
X144413315Y-72929111D01*
X144455622Y-72898804D01*
X144564130Y-72898804D01*
X144600503Y-72919668D01*
X144632693Y-72981681D01*
X144634471Y-72994048D01*
X144645244Y-73110310D01*
X144703596Y-73315392D01*
X144703596Y-73315394D01*
X144798632Y-73506253D01*
X144798634Y-73506255D01*
X144927128Y-73676407D01*
X145084698Y-73820052D01*
X145265981Y-73932298D01*
X145464802Y-74009321D01*
X145674390Y-74048500D01*
X145674392Y-74048500D01*
X145887608Y-74048500D01*
X145887610Y-74048500D01*
X146097198Y-74009321D01*
X146296019Y-73932298D01*
X146477302Y-73820052D01*
X146634872Y-73676407D01*
X146763366Y-73506255D01*
X146858405Y-73315389D01*
X146916756Y-73110310D01*
X146927529Y-72994047D01*
X146953315Y-72929111D01*
X146995622Y-72898804D01*
X147104130Y-72898804D01*
X147140503Y-72919668D01*
X147172693Y-72981681D01*
X147174471Y-72994048D01*
X147185244Y-73110310D01*
X147243596Y-73315392D01*
X147243596Y-73315394D01*
X147338632Y-73506253D01*
X147338634Y-73506255D01*
X147467128Y-73676407D01*
X147624698Y-73820052D01*
X147805981Y-73932298D01*
X148004802Y-74009321D01*
X148214390Y-74048500D01*
X148214392Y-74048500D01*
X148427608Y-74048500D01*
X148427610Y-74048500D01*
X148637198Y-74009321D01*
X148836019Y-73932298D01*
X149017302Y-73820052D01*
X149174872Y-73676407D01*
X149303366Y-73506255D01*
X149398405Y-73315389D01*
X149456756Y-73110310D01*
X149467529Y-72994047D01*
X149493315Y-72929111D01*
X149535622Y-72898804D01*
X149644130Y-72898804D01*
X149680503Y-72919668D01*
X149712693Y-72981681D01*
X149714471Y-72994048D01*
X149725244Y-73110310D01*
X149783596Y-73315392D01*
X149783596Y-73315394D01*
X149878632Y-73506253D01*
X149878634Y-73506255D01*
X150007128Y-73676407D01*
X150164698Y-73820052D01*
X150345981Y-73932298D01*
X150544802Y-74009321D01*
X150754390Y-74048500D01*
X150754392Y-74048500D01*
X150967608Y-74048500D01*
X150967610Y-74048500D01*
X151177198Y-74009321D01*
X151376019Y-73932298D01*
X151557302Y-73820052D01*
X151714872Y-73676407D01*
X151843366Y-73506255D01*
X151938405Y-73315389D01*
X151996756Y-73110310D01*
X152007529Y-72994047D01*
X152033315Y-72929111D01*
X152075622Y-72898804D01*
X152184130Y-72898804D01*
X152220503Y-72919668D01*
X152252693Y-72981681D01*
X152254471Y-72994048D01*
X152265244Y-73110310D01*
X152323596Y-73315392D01*
X152323596Y-73315394D01*
X152418632Y-73506253D01*
X152418634Y-73506255D01*
X152547128Y-73676407D01*
X152704698Y-73820052D01*
X152885981Y-73932298D01*
X153084802Y-74009321D01*
X153294390Y-74048500D01*
X153294392Y-74048500D01*
X153507608Y-74048500D01*
X153507610Y-74048500D01*
X153717198Y-74009321D01*
X153916019Y-73932298D01*
X154097302Y-73820052D01*
X154254872Y-73676407D01*
X154383366Y-73506255D01*
X154478405Y-73315389D01*
X154536756Y-73110310D01*
X154543029Y-73042605D01*
X154568814Y-72977669D01*
X154625614Y-72936981D01*
X154695395Y-72933461D01*
X154756002Y-72968225D01*
X154788193Y-73030238D01*
X154790500Y-73054047D01*
X154790500Y-73792856D01*
X154790502Y-73792882D01*
X154793413Y-73817987D01*
X154793415Y-73817991D01*
X154838793Y-73920764D01*
X154838794Y-73920765D01*
X154918235Y-74000206D01*
X155021009Y-74045585D01*
X155046135Y-74048500D01*
X156835864Y-74048499D01*
X156835879Y-74048497D01*
X156835882Y-74048497D01*
X156860987Y-74045586D01*
X156860988Y-74045585D01*
X156860991Y-74045585D01*
X156963765Y-74000206D01*
X157043206Y-73920765D01*
X157088585Y-73817991D01*
X157091500Y-73792865D01*
X157091499Y-72003136D01*
X157091497Y-72003117D01*
X157088586Y-71978012D01*
X157088585Y-71978010D01*
X157088585Y-71978009D01*
X157043206Y-71875235D01*
X156963765Y-71795794D01*
X156943124Y-71786680D01*
X156860992Y-71750415D01*
X156835865Y-71747500D01*
X155046143Y-71747500D01*
X155046117Y-71747502D01*
X155021012Y-71750413D01*
X155021008Y-71750415D01*
X154918235Y-71795793D01*
X154838794Y-71875234D01*
X154793415Y-71978006D01*
X154793415Y-71978008D01*
X154790500Y-72003131D01*
X154790500Y-72741951D01*
X154770815Y-72808990D01*
X154718011Y-72854745D01*
X154648853Y-72864689D01*
X154585297Y-72835664D01*
X154547523Y-72776886D01*
X154543029Y-72753391D01*
X154536756Y-72685689D01*
X154522273Y-72634789D01*
X154478405Y-72480611D01*
X154478403Y-72480606D01*
X154478403Y-72480605D01*
X154383367Y-72289746D01*
X154254872Y-72119593D01*
X154127133Y-72003143D01*
X154097302Y-71975948D01*
X153916019Y-71863702D01*
X153916017Y-71863701D01*
X153816608Y-71825190D01*
X153717198Y-71786679D01*
X153507610Y-71747500D01*
X153294390Y-71747500D01*
X153084802Y-71786679D01*
X153084799Y-71786679D01*
X153084799Y-71786680D01*
X152885982Y-71863701D01*
X152885980Y-71863702D01*
X152704699Y-71975947D01*
X152547127Y-72119593D01*
X152418632Y-72289746D01*
X152323596Y-72480605D01*
X152323596Y-72480607D01*
X152265244Y-72685689D01*
X152254471Y-72801951D01*
X152228685Y-72866888D01*
X152184130Y-72898804D01*
X152075622Y-72898804D01*
X152077869Y-72897194D01*
X152041497Y-72876331D01*
X152009307Y-72814318D01*
X152007529Y-72801951D01*
X152001969Y-72741951D01*
X151996756Y-72685690D01*
X151938405Y-72480611D01*
X151938403Y-72480606D01*
X151938403Y-72480605D01*
X151843367Y-72289746D01*
X151714872Y-72119593D01*
X151587133Y-72003143D01*
X151557302Y-71975948D01*
X151376019Y-71863702D01*
X151376017Y-71863701D01*
X151276608Y-71825190D01*
X151177198Y-71786679D01*
X150967610Y-71747500D01*
X150754390Y-71747500D01*
X150544802Y-71786679D01*
X150544799Y-71786679D01*
X150544799Y-71786680D01*
X150345982Y-71863701D01*
X150345980Y-71863702D01*
X150164699Y-71975947D01*
X150007127Y-72119593D01*
X149878632Y-72289746D01*
X149783596Y-72480605D01*
X149783596Y-72480607D01*
X149725244Y-72685689D01*
X149714471Y-72801951D01*
X149688685Y-72866888D01*
X149644130Y-72898804D01*
X149535622Y-72898804D01*
X149537869Y-72897194D01*
X149501497Y-72876331D01*
X149469307Y-72814318D01*
X149467529Y-72801951D01*
X149461969Y-72741951D01*
X149456756Y-72685690D01*
X149398405Y-72480611D01*
X149398403Y-72480606D01*
X149398403Y-72480605D01*
X149303367Y-72289746D01*
X149174872Y-72119593D01*
X149047133Y-72003143D01*
X149017302Y-71975948D01*
X148836019Y-71863702D01*
X148836017Y-71863701D01*
X148736608Y-71825190D01*
X148637198Y-71786679D01*
X148427610Y-71747500D01*
X148214390Y-71747500D01*
X148004802Y-71786679D01*
X148004799Y-71786679D01*
X148004799Y-71786680D01*
X147805982Y-71863701D01*
X147805980Y-71863702D01*
X147624699Y-71975947D01*
X147467127Y-72119593D01*
X147338632Y-72289746D01*
X147243596Y-72480605D01*
X147243596Y-72480607D01*
X147185244Y-72685689D01*
X147174471Y-72801951D01*
X147148685Y-72866888D01*
X147104130Y-72898804D01*
X146995622Y-72898804D01*
X146997869Y-72897194D01*
X146961497Y-72876331D01*
X146929307Y-72814318D01*
X146927529Y-72801951D01*
X146921969Y-72741951D01*
X146916756Y-72685690D01*
X146858405Y-72480611D01*
X146858403Y-72480606D01*
X146858403Y-72480605D01*
X146763367Y-72289746D01*
X146634872Y-72119593D01*
X146507133Y-72003143D01*
X146477302Y-71975948D01*
X146296019Y-71863702D01*
X146296017Y-71863701D01*
X146196608Y-71825190D01*
X146097198Y-71786679D01*
X145887610Y-71747500D01*
X145674390Y-71747500D01*
X145464802Y-71786679D01*
X145464799Y-71786679D01*
X145464799Y-71786680D01*
X145265982Y-71863701D01*
X145265980Y-71863702D01*
X145084699Y-71975947D01*
X144927127Y-72119593D01*
X144798632Y-72289746D01*
X144703596Y-72480605D01*
X144703596Y-72480607D01*
X144645244Y-72685689D01*
X144634471Y-72801951D01*
X144608685Y-72866888D01*
X144564130Y-72898804D01*
X144455622Y-72898804D01*
X144457869Y-72897194D01*
X144421497Y-72876331D01*
X144389307Y-72814318D01*
X144387529Y-72801951D01*
X144381969Y-72741951D01*
X144376756Y-72685690D01*
X144318405Y-72480611D01*
X144318403Y-72480606D01*
X144318403Y-72480605D01*
X144223367Y-72289746D01*
X144094872Y-72119593D01*
X143967133Y-72003143D01*
X143937302Y-71975948D01*
X143756019Y-71863702D01*
X143756017Y-71863701D01*
X143656608Y-71825190D01*
X143557198Y-71786679D01*
X143347610Y-71747500D01*
X143134390Y-71747500D01*
X142924802Y-71786679D01*
X142924799Y-71786679D01*
X142924799Y-71786680D01*
X142725982Y-71863701D01*
X142725980Y-71863702D01*
X142544699Y-71975947D01*
X142387127Y-72119593D01*
X142258632Y-72289746D01*
X142163596Y-72480605D01*
X142163596Y-72480607D01*
X142105244Y-72685689D01*
X142094471Y-72801951D01*
X142068685Y-72866888D01*
X142024130Y-72898804D01*
X141915622Y-72898804D01*
X141917869Y-72897194D01*
X141881497Y-72876331D01*
X141849307Y-72814318D01*
X141847529Y-72801951D01*
X141841969Y-72741951D01*
X141836756Y-72685690D01*
X141778405Y-72480611D01*
X141778403Y-72480606D01*
X141778403Y-72480605D01*
X141683367Y-72289746D01*
X141554872Y-72119593D01*
X141427133Y-72003143D01*
X141397302Y-71975948D01*
X141216019Y-71863702D01*
X141216017Y-71863701D01*
X141116608Y-71825190D01*
X141017198Y-71786679D01*
X140807610Y-71747500D01*
X140594390Y-71747500D01*
X140384802Y-71786679D01*
X140384799Y-71786679D01*
X140384799Y-71786680D01*
X140185982Y-71863701D01*
X140185980Y-71863702D01*
X140004699Y-71975947D01*
X139847127Y-72119593D01*
X139718632Y-72289746D01*
X139623596Y-72480605D01*
X139623596Y-72480607D01*
X139565244Y-72685689D01*
X139554471Y-72801951D01*
X139528685Y-72866888D01*
X139484130Y-72898804D01*
X139375622Y-72898804D01*
X139377869Y-72897194D01*
X139341497Y-72876331D01*
X139309307Y-72814318D01*
X139307529Y-72801951D01*
X139301969Y-72741951D01*
X139296756Y-72685690D01*
X139238405Y-72480611D01*
X139238403Y-72480606D01*
X139238403Y-72480605D01*
X139143367Y-72289746D01*
X139014872Y-72119593D01*
X138887133Y-72003143D01*
X138857302Y-71975948D01*
X138676019Y-71863702D01*
X138676017Y-71863701D01*
X138576608Y-71825190D01*
X138477198Y-71786679D01*
X138267610Y-71747500D01*
X138054390Y-71747500D01*
X137844802Y-71786679D01*
X137844799Y-71786679D01*
X137844799Y-71786680D01*
X137645982Y-71863701D01*
X137645980Y-71863702D01*
X137464699Y-71975947D01*
X137307127Y-72119593D01*
X137178632Y-72289746D01*
X137083596Y-72480605D01*
X137083596Y-72480607D01*
X137025244Y-72685689D01*
X137005571Y-72897999D01*
X137005571Y-72898000D01*
X132468499Y-72898000D01*
X132468499Y-72003136D01*
X132468497Y-72003117D01*
X132465586Y-71978012D01*
X132465585Y-71978010D01*
X132465585Y-71978009D01*
X132420206Y-71875235D01*
X132340765Y-71795794D01*
X132320124Y-71786680D01*
X132237992Y-71750415D01*
X132212865Y-71747500D01*
X130423143Y-71747500D01*
X130423117Y-71747502D01*
X130398012Y-71750413D01*
X130398008Y-71750415D01*
X130295235Y-71795793D01*
X130215794Y-71875234D01*
X130170415Y-71978006D01*
X130170415Y-71978008D01*
X130167500Y-72003131D01*
X130167500Y-72741951D01*
X130147815Y-72808990D01*
X130095011Y-72854745D01*
X130025853Y-72864689D01*
X129962297Y-72835664D01*
X129924523Y-72776886D01*
X129920029Y-72753391D01*
X129913756Y-72685689D01*
X129899273Y-72634789D01*
X129855405Y-72480611D01*
X129855403Y-72480606D01*
X129855403Y-72480605D01*
X129760367Y-72289746D01*
X129631872Y-72119593D01*
X129504133Y-72003143D01*
X129474302Y-71975948D01*
X129293019Y-71863702D01*
X129293017Y-71863701D01*
X129193608Y-71825190D01*
X129094198Y-71786679D01*
X128884610Y-71747500D01*
X128671390Y-71747500D01*
X128461802Y-71786679D01*
X128461799Y-71786679D01*
X128461799Y-71786680D01*
X128262982Y-71863701D01*
X128262980Y-71863702D01*
X128081699Y-71975947D01*
X127924127Y-72119593D01*
X127795632Y-72289746D01*
X127700596Y-72480605D01*
X127700596Y-72480607D01*
X127642244Y-72685689D01*
X127631471Y-72801951D01*
X127605685Y-72866888D01*
X127561130Y-72898804D01*
X127452622Y-72898804D01*
X127454869Y-72897194D01*
X127418497Y-72876331D01*
X127386307Y-72814318D01*
X127384529Y-72801951D01*
X127378969Y-72741951D01*
X127373756Y-72685690D01*
X127315405Y-72480611D01*
X127315403Y-72480606D01*
X127315403Y-72480605D01*
X127220367Y-72289746D01*
X127091872Y-72119593D01*
X126964133Y-72003143D01*
X126934302Y-71975948D01*
X126753019Y-71863702D01*
X126753017Y-71863701D01*
X126653608Y-71825190D01*
X126554198Y-71786679D01*
X126344610Y-71747500D01*
X126131390Y-71747500D01*
X125921802Y-71786679D01*
X125921799Y-71786679D01*
X125921799Y-71786680D01*
X125722982Y-71863701D01*
X125722980Y-71863702D01*
X125541699Y-71975947D01*
X125384127Y-72119593D01*
X125255632Y-72289746D01*
X125160596Y-72480605D01*
X125160596Y-72480607D01*
X125102244Y-72685689D01*
X125091471Y-72801951D01*
X125065685Y-72866888D01*
X125021130Y-72898804D01*
X124912622Y-72898804D01*
X124914869Y-72897194D01*
X124878497Y-72876331D01*
X124846307Y-72814318D01*
X124844529Y-72801951D01*
X124838969Y-72741951D01*
X124833756Y-72685690D01*
X124775405Y-72480611D01*
X124775403Y-72480606D01*
X124775403Y-72480605D01*
X124680367Y-72289746D01*
X124551872Y-72119593D01*
X124424133Y-72003143D01*
X124394302Y-71975948D01*
X124213019Y-71863702D01*
X124213017Y-71863701D01*
X124113608Y-71825190D01*
X124014198Y-71786679D01*
X123804610Y-71747500D01*
X123591390Y-71747500D01*
X123381802Y-71786679D01*
X123381799Y-71786679D01*
X123381799Y-71786680D01*
X123182982Y-71863701D01*
X123182980Y-71863702D01*
X123001699Y-71975947D01*
X122844127Y-72119593D01*
X122715632Y-72289746D01*
X122620596Y-72480605D01*
X122620596Y-72480607D01*
X122562244Y-72685689D01*
X122551471Y-72801951D01*
X122525685Y-72866888D01*
X122481130Y-72898804D01*
X122372622Y-72898804D01*
X122374869Y-72897194D01*
X122338497Y-72876331D01*
X122306307Y-72814318D01*
X122304529Y-72801951D01*
X122298969Y-72741951D01*
X122293756Y-72685690D01*
X122235405Y-72480611D01*
X122235403Y-72480606D01*
X122235403Y-72480605D01*
X122140367Y-72289746D01*
X122011872Y-72119593D01*
X121884133Y-72003143D01*
X121854302Y-71975948D01*
X121673019Y-71863702D01*
X121673017Y-71863701D01*
X121573608Y-71825190D01*
X121474198Y-71786679D01*
X121264610Y-71747500D01*
X121051390Y-71747500D01*
X120841802Y-71786679D01*
X120841799Y-71786679D01*
X120841799Y-71786680D01*
X120642982Y-71863701D01*
X120642980Y-71863702D01*
X120461699Y-71975947D01*
X120304127Y-72119593D01*
X120175632Y-72289746D01*
X120080596Y-72480605D01*
X120080596Y-72480607D01*
X120022244Y-72685689D01*
X120011471Y-72801951D01*
X119985685Y-72866888D01*
X119941130Y-72898804D01*
X119832622Y-72898804D01*
X119834869Y-72897194D01*
X119798497Y-72876331D01*
X119766307Y-72814318D01*
X119764529Y-72801951D01*
X119758969Y-72741951D01*
X119753756Y-72685690D01*
X119695405Y-72480611D01*
X119695403Y-72480606D01*
X119695403Y-72480605D01*
X119600367Y-72289746D01*
X119471872Y-72119593D01*
X119344133Y-72003143D01*
X119314302Y-71975948D01*
X119133019Y-71863702D01*
X119133017Y-71863701D01*
X119033608Y-71825190D01*
X118934198Y-71786679D01*
X118724610Y-71747500D01*
X118511390Y-71747500D01*
X118301802Y-71786679D01*
X118301799Y-71786679D01*
X118301799Y-71786680D01*
X118102982Y-71863701D01*
X118102980Y-71863702D01*
X117921699Y-71975947D01*
X117764127Y-72119593D01*
X117635632Y-72289746D01*
X117540596Y-72480605D01*
X117540596Y-72480607D01*
X117482244Y-72685689D01*
X117471471Y-72801951D01*
X117445685Y-72866888D01*
X117401130Y-72898804D01*
X117292622Y-72898804D01*
X117294869Y-72897194D01*
X117258497Y-72876331D01*
X117226307Y-72814318D01*
X117224529Y-72801951D01*
X117218969Y-72741951D01*
X117213756Y-72685690D01*
X117155405Y-72480611D01*
X117155403Y-72480606D01*
X117155403Y-72480605D01*
X117060367Y-72289746D01*
X116931872Y-72119593D01*
X116804133Y-72003143D01*
X116774302Y-71975948D01*
X116593019Y-71863702D01*
X116593017Y-71863701D01*
X116493608Y-71825190D01*
X116394198Y-71786679D01*
X116184610Y-71747500D01*
X115971390Y-71747500D01*
X115761802Y-71786679D01*
X115761799Y-71786679D01*
X115761799Y-71786680D01*
X115562982Y-71863701D01*
X115562980Y-71863702D01*
X115381699Y-71975947D01*
X115224127Y-72119593D01*
X115095632Y-72289746D01*
X115000596Y-72480605D01*
X115000596Y-72480607D01*
X114942244Y-72685689D01*
X114931471Y-72801951D01*
X114905685Y-72866888D01*
X114861130Y-72898804D01*
X114752622Y-72898804D01*
X114754869Y-72897194D01*
X114718497Y-72876331D01*
X114686307Y-72814318D01*
X114684529Y-72801951D01*
X114678969Y-72741951D01*
X114673756Y-72685690D01*
X114615405Y-72480611D01*
X114615403Y-72480606D01*
X114615403Y-72480605D01*
X114520367Y-72289746D01*
X114391872Y-72119593D01*
X114264133Y-72003143D01*
X114234302Y-71975948D01*
X114053019Y-71863702D01*
X114053017Y-71863701D01*
X113953608Y-71825190D01*
X113854198Y-71786679D01*
X113644610Y-71747500D01*
X113431390Y-71747500D01*
X113221802Y-71786679D01*
X113221799Y-71786679D01*
X113221799Y-71786680D01*
X113022982Y-71863701D01*
X113022980Y-71863702D01*
X112841699Y-71975947D01*
X112684127Y-72119593D01*
X112555632Y-72289746D01*
X112460596Y-72480605D01*
X112460596Y-72480607D01*
X112402244Y-72685689D01*
X112382571Y-72897999D01*
X112382571Y-72898000D01*
X104386500Y-72898000D01*
X104386500Y-68830000D01*
X112207364Y-68830000D01*
X112264567Y-69043486D01*
X112264570Y-69043492D01*
X112364399Y-69257578D01*
X112499894Y-69451082D01*
X112666917Y-69618105D01*
X112860421Y-69753600D01*
X113074507Y-69853429D01*
X113074516Y-69853433D01*
X113288000Y-69910634D01*
X113288000Y-69015501D01*
X113395685Y-69064680D01*
X113502237Y-69080000D01*
X113573763Y-69080000D01*
X113680315Y-69064680D01*
X113788000Y-69015501D01*
X113788000Y-69910633D01*
X114001483Y-69853433D01*
X114001492Y-69853429D01*
X114215578Y-69753600D01*
X114409082Y-69618105D01*
X114576105Y-69451082D01*
X114706425Y-69264968D01*
X114761002Y-69221344D01*
X114830501Y-69214151D01*
X114892855Y-69245673D01*
X114909575Y-69264968D01*
X115039894Y-69451082D01*
X115206917Y-69618105D01*
X115400421Y-69753600D01*
X115614507Y-69853429D01*
X115614516Y-69853433D01*
X115828000Y-69910634D01*
X115828000Y-69015501D01*
X115935685Y-69064680D01*
X116042237Y-69080000D01*
X116113763Y-69080000D01*
X116220315Y-69064680D01*
X116328000Y-69015501D01*
X116328000Y-69910633D01*
X116541483Y-69853433D01*
X116541492Y-69853429D01*
X116755578Y-69753600D01*
X116949082Y-69618105D01*
X117116105Y-69451082D01*
X117246425Y-69264968D01*
X117301002Y-69221344D01*
X117370501Y-69214151D01*
X117432855Y-69245673D01*
X117449575Y-69264968D01*
X117579894Y-69451082D01*
X117746917Y-69618105D01*
X117940421Y-69753600D01*
X118154507Y-69853429D01*
X118154516Y-69853433D01*
X118368000Y-69910634D01*
X118368000Y-69015501D01*
X118475685Y-69064680D01*
X118582237Y-69080000D01*
X118653763Y-69080000D01*
X118760315Y-69064680D01*
X118868000Y-69015501D01*
X118868000Y-69910633D01*
X119081483Y-69853433D01*
X119081492Y-69853429D01*
X119295578Y-69753600D01*
X119489082Y-69618105D01*
X119656105Y-69451082D01*
X119786425Y-69264968D01*
X119841002Y-69221344D01*
X119910501Y-69214151D01*
X119972855Y-69245673D01*
X119989575Y-69264968D01*
X120119894Y-69451082D01*
X120286917Y-69618105D01*
X120480421Y-69753600D01*
X120694507Y-69853429D01*
X120694516Y-69853433D01*
X120908000Y-69910634D01*
X120908000Y-69015501D01*
X121015685Y-69064680D01*
X121122237Y-69080000D01*
X121193763Y-69080000D01*
X121300315Y-69064680D01*
X121408000Y-69015501D01*
X121408000Y-69910633D01*
X121621483Y-69853433D01*
X121621492Y-69853429D01*
X121835578Y-69753600D01*
X122029082Y-69618105D01*
X122196105Y-69451082D01*
X122326425Y-69264968D01*
X122381002Y-69221344D01*
X122450501Y-69214151D01*
X122512855Y-69245673D01*
X122529575Y-69264968D01*
X122659894Y-69451082D01*
X122826917Y-69618105D01*
X123020421Y-69753600D01*
X123234507Y-69853429D01*
X123234516Y-69853433D01*
X123448000Y-69910634D01*
X123448000Y-69015501D01*
X123555685Y-69064680D01*
X123662237Y-69080000D01*
X123733763Y-69080000D01*
X123840315Y-69064680D01*
X123948000Y-69015501D01*
X123948000Y-69910633D01*
X124161483Y-69853433D01*
X124161492Y-69853429D01*
X124375578Y-69753600D01*
X124569082Y-69618105D01*
X124736105Y-69451082D01*
X124866425Y-69264968D01*
X124921002Y-69221344D01*
X124990501Y-69214151D01*
X125052855Y-69245673D01*
X125069575Y-69264968D01*
X125199894Y-69451082D01*
X125366917Y-69618105D01*
X125560421Y-69753600D01*
X125774507Y-69853429D01*
X125774516Y-69853433D01*
X125988000Y-69910634D01*
X125988000Y-69015501D01*
X126095685Y-69064680D01*
X126202237Y-69080000D01*
X126273763Y-69080000D01*
X126380315Y-69064680D01*
X126488000Y-69015501D01*
X126488000Y-69910633D01*
X126701483Y-69853433D01*
X126701492Y-69853429D01*
X126915578Y-69753600D01*
X127109082Y-69618105D01*
X127276105Y-69451082D01*
X127406425Y-69264968D01*
X127461002Y-69221344D01*
X127530501Y-69214151D01*
X127592855Y-69245673D01*
X127609575Y-69264968D01*
X127739894Y-69451082D01*
X127906917Y-69618105D01*
X128100421Y-69753600D01*
X128314507Y-69853429D01*
X128314516Y-69853433D01*
X128528000Y-69910634D01*
X128528000Y-69015501D01*
X128635685Y-69064680D01*
X128742237Y-69080000D01*
X128813763Y-69080000D01*
X128920315Y-69064680D01*
X129028000Y-69015501D01*
X129028000Y-69910633D01*
X129241483Y-69853433D01*
X129241492Y-69853429D01*
X129455578Y-69753600D01*
X129649078Y-69618108D01*
X129771521Y-69495665D01*
X129832844Y-69462180D01*
X129902536Y-69467164D01*
X129958470Y-69509035D01*
X129975385Y-69540013D01*
X130024645Y-69672086D01*
X130024649Y-69672093D01*
X130110809Y-69787187D01*
X130110812Y-69787190D01*
X130225906Y-69873350D01*
X130225913Y-69873354D01*
X130360620Y-69923596D01*
X130360627Y-69923598D01*
X130420155Y-69929999D01*
X130420172Y-69930000D01*
X131068000Y-69930000D01*
X131068000Y-69015501D01*
X131175685Y-69064680D01*
X131282237Y-69080000D01*
X131353763Y-69080000D01*
X131460315Y-69064680D01*
X131568000Y-69015501D01*
X131568000Y-69930000D01*
X132215828Y-69930000D01*
X132215844Y-69929999D01*
X132275372Y-69923598D01*
X132275379Y-69923596D01*
X132410086Y-69873354D01*
X132410093Y-69873350D01*
X132525187Y-69787190D01*
X132525190Y-69787187D01*
X132611350Y-69672093D01*
X132611354Y-69672086D01*
X132661596Y-69537379D01*
X132661598Y-69537372D01*
X132667999Y-69477844D01*
X136826000Y-69477844D01*
X136832401Y-69537372D01*
X136832403Y-69537379D01*
X136882645Y-69672086D01*
X136882649Y-69672093D01*
X136968809Y-69787187D01*
X136968812Y-69787190D01*
X137083906Y-69873350D01*
X137083913Y-69873354D01*
X137218620Y-69923596D01*
X137218627Y-69923598D01*
X137278155Y-69929999D01*
X137278172Y-69930000D01*
X137926000Y-69930000D01*
X137926000Y-69015501D01*
X138033685Y-69064680D01*
X138140237Y-69080000D01*
X138211763Y-69080000D01*
X138318315Y-69064680D01*
X138426000Y-69015501D01*
X138426000Y-69930000D01*
X139073828Y-69930000D01*
X139073844Y-69929999D01*
X139133372Y-69923598D01*
X139133379Y-69923596D01*
X139268086Y-69873354D01*
X139268093Y-69873350D01*
X139383187Y-69787190D01*
X139383190Y-69787187D01*
X139469350Y-69672093D01*
X139469354Y-69672086D01*
X139518614Y-69540013D01*
X139560485Y-69484079D01*
X139625949Y-69459662D01*
X139694222Y-69474513D01*
X139722477Y-69495665D01*
X139844917Y-69618105D01*
X140038421Y-69753600D01*
X140252507Y-69853429D01*
X140252516Y-69853433D01*
X140466000Y-69910634D01*
X140466000Y-69015501D01*
X140573685Y-69064680D01*
X140680237Y-69080000D01*
X140751763Y-69080000D01*
X140858315Y-69064680D01*
X140966000Y-69015501D01*
X140966000Y-69910633D01*
X141179483Y-69853433D01*
X141179492Y-69853429D01*
X141393578Y-69753600D01*
X141587082Y-69618105D01*
X141754105Y-69451082D01*
X141884425Y-69264968D01*
X141939002Y-69221344D01*
X142008501Y-69214151D01*
X142070855Y-69245673D01*
X142087575Y-69264968D01*
X142217894Y-69451082D01*
X142384917Y-69618105D01*
X142578421Y-69753600D01*
X142792507Y-69853429D01*
X142792516Y-69853433D01*
X143006000Y-69910634D01*
X143006000Y-69015501D01*
X143113685Y-69064680D01*
X143220237Y-69080000D01*
X143291763Y-69080000D01*
X143398315Y-69064680D01*
X143506000Y-69015501D01*
X143506000Y-69910633D01*
X143719483Y-69853433D01*
X143719492Y-69853429D01*
X143933578Y-69753600D01*
X144127082Y-69618105D01*
X144294105Y-69451082D01*
X144424425Y-69264968D01*
X144479002Y-69221344D01*
X144548501Y-69214151D01*
X144610855Y-69245673D01*
X144627575Y-69264968D01*
X144757894Y-69451082D01*
X144924917Y-69618105D01*
X145118421Y-69753600D01*
X145332507Y-69853429D01*
X145332516Y-69853433D01*
X145546000Y-69910634D01*
X145546000Y-69015501D01*
X145653685Y-69064680D01*
X145760237Y-69080000D01*
X145831763Y-69080000D01*
X145938315Y-69064680D01*
X146046000Y-69015501D01*
X146046000Y-69910633D01*
X146259483Y-69853433D01*
X146259492Y-69853429D01*
X146473578Y-69753600D01*
X146667082Y-69618105D01*
X146834105Y-69451082D01*
X146964425Y-69264968D01*
X147019002Y-69221344D01*
X147088501Y-69214151D01*
X147150855Y-69245673D01*
X147167575Y-69264968D01*
X147297894Y-69451082D01*
X147464917Y-69618105D01*
X147658421Y-69753600D01*
X147872507Y-69853429D01*
X147872516Y-69853433D01*
X148086000Y-69910634D01*
X148086000Y-69015501D01*
X148193685Y-69064680D01*
X148300237Y-69080000D01*
X148371763Y-69080000D01*
X148478315Y-69064680D01*
X148586000Y-69015501D01*
X148586000Y-69910633D01*
X148799483Y-69853433D01*
X148799492Y-69853429D01*
X149013578Y-69753600D01*
X149207082Y-69618105D01*
X149374105Y-69451082D01*
X149504425Y-69264968D01*
X149559002Y-69221344D01*
X149628501Y-69214151D01*
X149690855Y-69245673D01*
X149707575Y-69264968D01*
X149837894Y-69451082D01*
X150004917Y-69618105D01*
X150198421Y-69753600D01*
X150412507Y-69853429D01*
X150412516Y-69853433D01*
X150626000Y-69910634D01*
X150626000Y-69015501D01*
X150733685Y-69064680D01*
X150840237Y-69080000D01*
X150911763Y-69080000D01*
X151018315Y-69064680D01*
X151126000Y-69015501D01*
X151126000Y-69910633D01*
X151339483Y-69853433D01*
X151339492Y-69853429D01*
X151553578Y-69753600D01*
X151747082Y-69618105D01*
X151914105Y-69451082D01*
X152044425Y-69264968D01*
X152099002Y-69221344D01*
X152168501Y-69214151D01*
X152230855Y-69245673D01*
X152247575Y-69264968D01*
X152377894Y-69451082D01*
X152544917Y-69618105D01*
X152738421Y-69753600D01*
X152952507Y-69853429D01*
X152952516Y-69853433D01*
X153166000Y-69910634D01*
X153166000Y-69015501D01*
X153273685Y-69064680D01*
X153380237Y-69080000D01*
X153451763Y-69080000D01*
X153558315Y-69064680D01*
X153666000Y-69015501D01*
X153666000Y-69910633D01*
X153879483Y-69853433D01*
X153879492Y-69853429D01*
X154093578Y-69753600D01*
X154287082Y-69618105D01*
X154454105Y-69451082D01*
X154584425Y-69264968D01*
X154639002Y-69221344D01*
X154708501Y-69214151D01*
X154770855Y-69245673D01*
X154787575Y-69264968D01*
X154917894Y-69451082D01*
X155084917Y-69618105D01*
X155278421Y-69753600D01*
X155492507Y-69853429D01*
X155492516Y-69853433D01*
X155706000Y-69910634D01*
X155706000Y-69015501D01*
X155813685Y-69064680D01*
X155920237Y-69080000D01*
X155991763Y-69080000D01*
X156098315Y-69064680D01*
X156206000Y-69015501D01*
X156206000Y-69910633D01*
X156419483Y-69853433D01*
X156419492Y-69853429D01*
X156633578Y-69753600D01*
X156827082Y-69618105D01*
X156994105Y-69451082D01*
X157129600Y-69257578D01*
X157229429Y-69043492D01*
X157229432Y-69043486D01*
X157286636Y-68830000D01*
X156389686Y-68830000D01*
X156415493Y-68789844D01*
X156456000Y-68651889D01*
X156456000Y-68508111D01*
X156415493Y-68370156D01*
X156389686Y-68330000D01*
X157286636Y-68330000D01*
X157286635Y-68329999D01*
X157229432Y-68116513D01*
X157229429Y-68116507D01*
X157129600Y-67902422D01*
X157129599Y-67902420D01*
X156994113Y-67708926D01*
X156994108Y-67708920D01*
X156827082Y-67541894D01*
X156633578Y-67406399D01*
X156419492Y-67306570D01*
X156419486Y-67306567D01*
X156206000Y-67249364D01*
X156206000Y-68144498D01*
X156098315Y-68095320D01*
X155991763Y-68080000D01*
X155920237Y-68080000D01*
X155813685Y-68095320D01*
X155706000Y-68144498D01*
X155706000Y-67249364D01*
X155705999Y-67249364D01*
X155492513Y-67306567D01*
X155492507Y-67306570D01*
X155278422Y-67406399D01*
X155278420Y-67406400D01*
X155084926Y-67541886D01*
X155084920Y-67541891D01*
X154917891Y-67708920D01*
X154917890Y-67708922D01*
X154787575Y-67895031D01*
X154732998Y-67938655D01*
X154663499Y-67945848D01*
X154601145Y-67914326D01*
X154584425Y-67895031D01*
X154454109Y-67708922D01*
X154454108Y-67708920D01*
X154287082Y-67541894D01*
X154093578Y-67406399D01*
X153879492Y-67306570D01*
X153879486Y-67306567D01*
X153666000Y-67249364D01*
X153666000Y-68144498D01*
X153558315Y-68095320D01*
X153451763Y-68080000D01*
X153380237Y-68080000D01*
X153273685Y-68095320D01*
X153166000Y-68144498D01*
X153166000Y-67249364D01*
X153165999Y-67249364D01*
X152952513Y-67306567D01*
X152952507Y-67306570D01*
X152738422Y-67406399D01*
X152738420Y-67406400D01*
X152544926Y-67541886D01*
X152544920Y-67541891D01*
X152377891Y-67708920D01*
X152377890Y-67708922D01*
X152247575Y-67895031D01*
X152192998Y-67938655D01*
X152123499Y-67945848D01*
X152061145Y-67914326D01*
X152044425Y-67895031D01*
X151914109Y-67708922D01*
X151914108Y-67708920D01*
X151747082Y-67541894D01*
X151553578Y-67406399D01*
X151339492Y-67306570D01*
X151339486Y-67306567D01*
X151126000Y-67249364D01*
X151126000Y-68144498D01*
X151018315Y-68095320D01*
X150911763Y-68080000D01*
X150840237Y-68080000D01*
X150733685Y-68095320D01*
X150626000Y-68144498D01*
X150626000Y-67249364D01*
X150625999Y-67249364D01*
X150412513Y-67306567D01*
X150412507Y-67306570D01*
X150198422Y-67406399D01*
X150198420Y-67406400D01*
X150004926Y-67541886D01*
X150004920Y-67541891D01*
X149837891Y-67708920D01*
X149837890Y-67708922D01*
X149707575Y-67895031D01*
X149652998Y-67938655D01*
X149583499Y-67945848D01*
X149521145Y-67914326D01*
X149504425Y-67895031D01*
X149374109Y-67708922D01*
X149374108Y-67708920D01*
X149207082Y-67541894D01*
X149013578Y-67406399D01*
X148799492Y-67306570D01*
X148799486Y-67306567D01*
X148586000Y-67249364D01*
X148586000Y-68144498D01*
X148478315Y-68095320D01*
X148371763Y-68080000D01*
X148300237Y-68080000D01*
X148193685Y-68095320D01*
X148086000Y-68144498D01*
X148086000Y-67249364D01*
X148085999Y-67249364D01*
X147872513Y-67306567D01*
X147872507Y-67306570D01*
X147658422Y-67406399D01*
X147658420Y-67406400D01*
X147464926Y-67541886D01*
X147464920Y-67541891D01*
X147297891Y-67708920D01*
X147297890Y-67708922D01*
X147167575Y-67895031D01*
X147112998Y-67938655D01*
X147043499Y-67945848D01*
X146981145Y-67914326D01*
X146964425Y-67895031D01*
X146834109Y-67708922D01*
X146834108Y-67708920D01*
X146667082Y-67541894D01*
X146473578Y-67406399D01*
X146259492Y-67306570D01*
X146259486Y-67306567D01*
X146046000Y-67249364D01*
X146046000Y-68144498D01*
X145938315Y-68095320D01*
X145831763Y-68080000D01*
X145760237Y-68080000D01*
X145653685Y-68095320D01*
X145546000Y-68144498D01*
X145546000Y-67249364D01*
X145545999Y-67249364D01*
X145332513Y-67306567D01*
X145332507Y-67306570D01*
X145118422Y-67406399D01*
X145118420Y-67406400D01*
X144924926Y-67541886D01*
X144924920Y-67541891D01*
X144757891Y-67708920D01*
X144757890Y-67708922D01*
X144627575Y-67895031D01*
X144572998Y-67938655D01*
X144503499Y-67945848D01*
X144441145Y-67914326D01*
X144424425Y-67895031D01*
X144294109Y-67708922D01*
X144294108Y-67708920D01*
X144127082Y-67541894D01*
X143933578Y-67406399D01*
X143719492Y-67306570D01*
X143719486Y-67306567D01*
X143506000Y-67249364D01*
X143506000Y-68144498D01*
X143398315Y-68095320D01*
X143291763Y-68080000D01*
X143220237Y-68080000D01*
X143113685Y-68095320D01*
X143006000Y-68144498D01*
X143006000Y-67249364D01*
X143005999Y-67249364D01*
X142792513Y-67306567D01*
X142792507Y-67306570D01*
X142578422Y-67406399D01*
X142578420Y-67406400D01*
X142384926Y-67541886D01*
X142384920Y-67541891D01*
X142217891Y-67708920D01*
X142217890Y-67708922D01*
X142087575Y-67895031D01*
X142032998Y-67938655D01*
X141963499Y-67945848D01*
X141901145Y-67914326D01*
X141884425Y-67895031D01*
X141754109Y-67708922D01*
X141754108Y-67708920D01*
X141587082Y-67541894D01*
X141393578Y-67406399D01*
X141179492Y-67306570D01*
X141179486Y-67306567D01*
X140966000Y-67249364D01*
X140966000Y-68144498D01*
X140858315Y-68095320D01*
X140751763Y-68080000D01*
X140680237Y-68080000D01*
X140573685Y-68095320D01*
X140466000Y-68144498D01*
X140466000Y-67249364D01*
X140465999Y-67249364D01*
X140252513Y-67306567D01*
X140252507Y-67306570D01*
X140038422Y-67406399D01*
X140038420Y-67406400D01*
X139844926Y-67541886D01*
X139722477Y-67664335D01*
X139661154Y-67697819D01*
X139591462Y-67692835D01*
X139535529Y-67650963D01*
X139518614Y-67619986D01*
X139469354Y-67487913D01*
X139469350Y-67487906D01*
X139383190Y-67372812D01*
X139383187Y-67372809D01*
X139268093Y-67286649D01*
X139268086Y-67286645D01*
X139133379Y-67236403D01*
X139133372Y-67236401D01*
X139073844Y-67230000D01*
X138426000Y-67230000D01*
X138426000Y-68144498D01*
X138318315Y-68095320D01*
X138211763Y-68080000D01*
X138140237Y-68080000D01*
X138033685Y-68095320D01*
X137926000Y-68144498D01*
X137926000Y-67230000D01*
X137278155Y-67230000D01*
X137218627Y-67236401D01*
X137218620Y-67236403D01*
X137083913Y-67286645D01*
X137083906Y-67286649D01*
X136968812Y-67372809D01*
X136968809Y-67372812D01*
X136882649Y-67487906D01*
X136882645Y-67487913D01*
X136832403Y-67622620D01*
X136832401Y-67622627D01*
X136826000Y-67682155D01*
X136826000Y-68330000D01*
X137742314Y-68330000D01*
X137716507Y-68370156D01*
X137676000Y-68508111D01*
X137676000Y-68651889D01*
X137716507Y-68789844D01*
X137742314Y-68830000D01*
X136826000Y-68830000D01*
X136826000Y-69477844D01*
X132667999Y-69477844D01*
X132668000Y-69477827D01*
X132668000Y-68830000D01*
X131751686Y-68830000D01*
X131777493Y-68789844D01*
X131818000Y-68651889D01*
X131818000Y-68508111D01*
X131777493Y-68370156D01*
X131751686Y-68330000D01*
X132668000Y-68330000D01*
X132668000Y-67682172D01*
X132667999Y-67682155D01*
X132661598Y-67622627D01*
X132661596Y-67622620D01*
X132611354Y-67487913D01*
X132611350Y-67487906D01*
X132525190Y-67372812D01*
X132525187Y-67372809D01*
X132410093Y-67286649D01*
X132410086Y-67286645D01*
X132275379Y-67236403D01*
X132275372Y-67236401D01*
X132215844Y-67230000D01*
X131568000Y-67230000D01*
X131568000Y-68144498D01*
X131460315Y-68095320D01*
X131353763Y-68080000D01*
X131282237Y-68080000D01*
X131175685Y-68095320D01*
X131068000Y-68144498D01*
X131068000Y-67230000D01*
X130420155Y-67230000D01*
X130360627Y-67236401D01*
X130360620Y-67236403D01*
X130225913Y-67286645D01*
X130225906Y-67286649D01*
X130110812Y-67372809D01*
X130110809Y-67372812D01*
X130024649Y-67487906D01*
X130024646Y-67487911D01*
X129975385Y-67619987D01*
X129933513Y-67675920D01*
X129868049Y-67700337D01*
X129799776Y-67685485D01*
X129771522Y-67664334D01*
X129649082Y-67541894D01*
X129455578Y-67406399D01*
X129241492Y-67306570D01*
X129241486Y-67306567D01*
X129028000Y-67249364D01*
X129028000Y-68144498D01*
X128920315Y-68095320D01*
X128813763Y-68080000D01*
X128742237Y-68080000D01*
X128635685Y-68095320D01*
X128528000Y-68144498D01*
X128528000Y-67249364D01*
X128527999Y-67249364D01*
X128314513Y-67306567D01*
X128314507Y-67306570D01*
X128100422Y-67406399D01*
X128100420Y-67406400D01*
X127906926Y-67541886D01*
X127906920Y-67541891D01*
X127739891Y-67708920D01*
X127739890Y-67708922D01*
X127609575Y-67895031D01*
X127554998Y-67938655D01*
X127485499Y-67945848D01*
X127423145Y-67914326D01*
X127406425Y-67895031D01*
X127276109Y-67708922D01*
X127276108Y-67708920D01*
X127109082Y-67541894D01*
X126915578Y-67406399D01*
X126701492Y-67306570D01*
X126701486Y-67306567D01*
X126488000Y-67249364D01*
X126488000Y-68144498D01*
X126380315Y-68095320D01*
X126273763Y-68080000D01*
X126202237Y-68080000D01*
X126095685Y-68095320D01*
X125988000Y-68144498D01*
X125988000Y-67249364D01*
X125987999Y-67249364D01*
X125774513Y-67306567D01*
X125774507Y-67306570D01*
X125560422Y-67406399D01*
X125560420Y-67406400D01*
X125366926Y-67541886D01*
X125366920Y-67541891D01*
X125199891Y-67708920D01*
X125199890Y-67708922D01*
X125069575Y-67895031D01*
X125014998Y-67938655D01*
X124945499Y-67945848D01*
X124883145Y-67914326D01*
X124866425Y-67895031D01*
X124736109Y-67708922D01*
X124736108Y-67708920D01*
X124569082Y-67541894D01*
X124375578Y-67406399D01*
X124161492Y-67306570D01*
X124161486Y-67306567D01*
X123948000Y-67249364D01*
X123948000Y-68144498D01*
X123840315Y-68095320D01*
X123733763Y-68080000D01*
X123662237Y-68080000D01*
X123555685Y-68095320D01*
X123448000Y-68144498D01*
X123448000Y-67249364D01*
X123447999Y-67249364D01*
X123234513Y-67306567D01*
X123234507Y-67306570D01*
X123020422Y-67406399D01*
X123020420Y-67406400D01*
X122826926Y-67541886D01*
X122826920Y-67541891D01*
X122659891Y-67708920D01*
X122659890Y-67708922D01*
X122529575Y-67895031D01*
X122474998Y-67938655D01*
X122405499Y-67945848D01*
X122343145Y-67914326D01*
X122326425Y-67895031D01*
X122196109Y-67708922D01*
X122196108Y-67708920D01*
X122029082Y-67541894D01*
X121835578Y-67406399D01*
X121621492Y-67306570D01*
X121621486Y-67306567D01*
X121408000Y-67249364D01*
X121408000Y-68144498D01*
X121300315Y-68095320D01*
X121193763Y-68080000D01*
X121122237Y-68080000D01*
X121015685Y-68095320D01*
X120908000Y-68144498D01*
X120908000Y-67249364D01*
X120907999Y-67249364D01*
X120694513Y-67306567D01*
X120694507Y-67306570D01*
X120480422Y-67406399D01*
X120480420Y-67406400D01*
X120286926Y-67541886D01*
X120286920Y-67541891D01*
X120119891Y-67708920D01*
X120119890Y-67708922D01*
X119989575Y-67895031D01*
X119934998Y-67938655D01*
X119865499Y-67945848D01*
X119803145Y-67914326D01*
X119786425Y-67895031D01*
X119656109Y-67708922D01*
X119656108Y-67708920D01*
X119489082Y-67541894D01*
X119295578Y-67406399D01*
X119081492Y-67306570D01*
X119081486Y-67306567D01*
X118868000Y-67249364D01*
X118868000Y-68144498D01*
X118760315Y-68095320D01*
X118653763Y-68080000D01*
X118582237Y-68080000D01*
X118475685Y-68095320D01*
X118368000Y-68144498D01*
X118368000Y-67249364D01*
X118367999Y-67249364D01*
X118154513Y-67306567D01*
X118154507Y-67306570D01*
X117940422Y-67406399D01*
X117940420Y-67406400D01*
X117746926Y-67541886D01*
X117746920Y-67541891D01*
X117579891Y-67708920D01*
X117579890Y-67708922D01*
X117449575Y-67895031D01*
X117394998Y-67938655D01*
X117325499Y-67945848D01*
X117263145Y-67914326D01*
X117246425Y-67895031D01*
X117116109Y-67708922D01*
X117116108Y-67708920D01*
X116949082Y-67541894D01*
X116755578Y-67406399D01*
X116541492Y-67306570D01*
X116541486Y-67306567D01*
X116328000Y-67249364D01*
X116328000Y-68144498D01*
X116220315Y-68095320D01*
X116113763Y-68080000D01*
X116042237Y-68080000D01*
X115935685Y-68095320D01*
X115828000Y-68144498D01*
X115828000Y-67249364D01*
X115827999Y-67249364D01*
X115614513Y-67306567D01*
X115614507Y-67306570D01*
X115400422Y-67406399D01*
X115400420Y-67406400D01*
X115206926Y-67541886D01*
X115206920Y-67541891D01*
X115039891Y-67708920D01*
X115039890Y-67708922D01*
X114909575Y-67895031D01*
X114854998Y-67938655D01*
X114785499Y-67945848D01*
X114723145Y-67914326D01*
X114706425Y-67895031D01*
X114576109Y-67708922D01*
X114576108Y-67708920D01*
X114409082Y-67541894D01*
X114215578Y-67406399D01*
X114001492Y-67306570D01*
X114001486Y-67306567D01*
X113788000Y-67249364D01*
X113788000Y-68144498D01*
X113680315Y-68095320D01*
X113573763Y-68080000D01*
X113502237Y-68080000D01*
X113395685Y-68095320D01*
X113288000Y-68144498D01*
X113288000Y-67249364D01*
X113287999Y-67249364D01*
X113074513Y-67306567D01*
X113074507Y-67306570D01*
X112860422Y-67406399D01*
X112860420Y-67406400D01*
X112666926Y-67541886D01*
X112666920Y-67541891D01*
X112499891Y-67708920D01*
X112499886Y-67708926D01*
X112364400Y-67902420D01*
X112364399Y-67902422D01*
X112264570Y-68116507D01*
X112264567Y-68116513D01*
X112207364Y-68329999D01*
X112207364Y-68330000D01*
X113104314Y-68330000D01*
X113078507Y-68370156D01*
X113038000Y-68508111D01*
X113038000Y-68651889D01*
X113078507Y-68789844D01*
X113104314Y-68830000D01*
X112207364Y-68830000D01*
X104386500Y-68830000D01*
X104386500Y-62993741D01*
X104386549Y-62992000D01*
X105328551Y-62992000D01*
X105348317Y-63243151D01*
X105407126Y-63488110D01*
X105503533Y-63720859D01*
X105635160Y-63935653D01*
X105635161Y-63935656D01*
X105635164Y-63935659D01*
X105798776Y-64127224D01*
X105915058Y-64226538D01*
X105990343Y-64290838D01*
X105990345Y-64290838D01*
X105997642Y-64295310D01*
X106205140Y-64422466D01*
X106330304Y-64474310D01*
X106437889Y-64518873D01*
X106682852Y-64577683D01*
X106838950Y-64589968D01*
X106871116Y-64592500D01*
X106871118Y-64592500D01*
X106996884Y-64592500D01*
X107026518Y-64590167D01*
X107185148Y-64577683D01*
X107430111Y-64518873D01*
X107662859Y-64422466D01*
X107877659Y-64290836D01*
X107911422Y-64262000D01*
X112382571Y-64262000D01*
X112402244Y-64474310D01*
X112414923Y-64518873D01*
X112460596Y-64679392D01*
X112460596Y-64679394D01*
X112555632Y-64870253D01*
X112555634Y-64870255D01*
X112684128Y-65040407D01*
X112841698Y-65184052D01*
X113022981Y-65296298D01*
X113221802Y-65373321D01*
X113431390Y-65412500D01*
X113431392Y-65412500D01*
X113644608Y-65412500D01*
X113644610Y-65412500D01*
X113854198Y-65373321D01*
X114053019Y-65296298D01*
X114234302Y-65184052D01*
X114391872Y-65040407D01*
X114520366Y-64870255D01*
X114615405Y-64679389D01*
X114673756Y-64474310D01*
X114684529Y-64358047D01*
X114710315Y-64293111D01*
X114752622Y-64262804D01*
X114861130Y-64262804D01*
X114897503Y-64283668D01*
X114929693Y-64345681D01*
X114931470Y-64358047D01*
X114942244Y-64474310D01*
X114954923Y-64518873D01*
X115000596Y-64679392D01*
X115000596Y-64679394D01*
X115095632Y-64870253D01*
X115095634Y-64870255D01*
X115224128Y-65040407D01*
X115381698Y-65184052D01*
X115562981Y-65296298D01*
X115761802Y-65373321D01*
X115971390Y-65412500D01*
X115971392Y-65412500D01*
X116184608Y-65412500D01*
X116184610Y-65412500D01*
X116394198Y-65373321D01*
X116593019Y-65296298D01*
X116774302Y-65184052D01*
X116931872Y-65040407D01*
X117060366Y-64870255D01*
X117155405Y-64679389D01*
X117213756Y-64474310D01*
X117224529Y-64358047D01*
X117250315Y-64293111D01*
X117292622Y-64262804D01*
X117401130Y-64262804D01*
X117437503Y-64283668D01*
X117469693Y-64345681D01*
X117471470Y-64358047D01*
X117482244Y-64474310D01*
X117494923Y-64518873D01*
X117540596Y-64679392D01*
X117540596Y-64679394D01*
X117635632Y-64870253D01*
X117635634Y-64870255D01*
X117764128Y-65040407D01*
X117921698Y-65184052D01*
X118102981Y-65296298D01*
X118301802Y-65373321D01*
X118511390Y-65412500D01*
X118511392Y-65412500D01*
X118724608Y-65412500D01*
X118724610Y-65412500D01*
X118934198Y-65373321D01*
X119133019Y-65296298D01*
X119314302Y-65184052D01*
X119471872Y-65040407D01*
X119600366Y-64870255D01*
X119695405Y-64679389D01*
X119753756Y-64474310D01*
X119764529Y-64358047D01*
X119790315Y-64293111D01*
X119832622Y-64262804D01*
X119941130Y-64262804D01*
X119977503Y-64283668D01*
X120009693Y-64345681D01*
X120011470Y-64358047D01*
X120022244Y-64474310D01*
X120034923Y-64518873D01*
X120080596Y-64679392D01*
X120080596Y-64679394D01*
X120175632Y-64870253D01*
X120175634Y-64870255D01*
X120304128Y-65040407D01*
X120461698Y-65184052D01*
X120642981Y-65296298D01*
X120841802Y-65373321D01*
X121051390Y-65412500D01*
X121051392Y-65412500D01*
X121264608Y-65412500D01*
X121264610Y-65412500D01*
X121474198Y-65373321D01*
X121673019Y-65296298D01*
X121854302Y-65184052D01*
X122011872Y-65040407D01*
X122140366Y-64870255D01*
X122235405Y-64679389D01*
X122293756Y-64474310D01*
X122304529Y-64358047D01*
X122330315Y-64293111D01*
X122372622Y-64262804D01*
X122481130Y-64262804D01*
X122517503Y-64283668D01*
X122549693Y-64345681D01*
X122551470Y-64358047D01*
X122562244Y-64474310D01*
X122574923Y-64518873D01*
X122620596Y-64679392D01*
X122620596Y-64679394D01*
X122715632Y-64870253D01*
X122715634Y-64870255D01*
X122844128Y-65040407D01*
X123001698Y-65184052D01*
X123182981Y-65296298D01*
X123381802Y-65373321D01*
X123591390Y-65412500D01*
X123591392Y-65412500D01*
X123804608Y-65412500D01*
X123804610Y-65412500D01*
X124014198Y-65373321D01*
X124213019Y-65296298D01*
X124394302Y-65184052D01*
X124551872Y-65040407D01*
X124680366Y-64870255D01*
X124775405Y-64679389D01*
X124833756Y-64474310D01*
X124844529Y-64358047D01*
X124870315Y-64293111D01*
X124912622Y-64262804D01*
X125021130Y-64262804D01*
X125057503Y-64283668D01*
X125089693Y-64345681D01*
X125091470Y-64358047D01*
X125102244Y-64474310D01*
X125114923Y-64518873D01*
X125160596Y-64679392D01*
X125160596Y-64679394D01*
X125255632Y-64870253D01*
X125255634Y-64870255D01*
X125384128Y-65040407D01*
X125541698Y-65184052D01*
X125722981Y-65296298D01*
X125921802Y-65373321D01*
X126131390Y-65412500D01*
X126131392Y-65412500D01*
X126344608Y-65412500D01*
X126344610Y-65412500D01*
X126554198Y-65373321D01*
X126753019Y-65296298D01*
X126934302Y-65184052D01*
X127091872Y-65040407D01*
X127220366Y-64870255D01*
X127315405Y-64679389D01*
X127373756Y-64474310D01*
X127384529Y-64358047D01*
X127410315Y-64293111D01*
X127452622Y-64262804D01*
X127561130Y-64262804D01*
X127597503Y-64283668D01*
X127629693Y-64345681D01*
X127631470Y-64358047D01*
X127642244Y-64474310D01*
X127654923Y-64518873D01*
X127700596Y-64679392D01*
X127700596Y-64679394D01*
X127795632Y-64870253D01*
X127795634Y-64870255D01*
X127924128Y-65040407D01*
X128081698Y-65184052D01*
X128262981Y-65296298D01*
X128461802Y-65373321D01*
X128671390Y-65412500D01*
X128671392Y-65412500D01*
X128884608Y-65412500D01*
X128884610Y-65412500D01*
X129094198Y-65373321D01*
X129293019Y-65296298D01*
X129474302Y-65184052D01*
X129631872Y-65040407D01*
X129760366Y-64870255D01*
X129855405Y-64679389D01*
X129913756Y-64474310D01*
X129920029Y-64406605D01*
X129945814Y-64341669D01*
X130002614Y-64300981D01*
X130072395Y-64297461D01*
X130133002Y-64332225D01*
X130165193Y-64394238D01*
X130167500Y-64418047D01*
X130167500Y-65156856D01*
X130167502Y-65156882D01*
X130170413Y-65181987D01*
X130170415Y-65181991D01*
X130215793Y-65284764D01*
X130215794Y-65284765D01*
X130295235Y-65364206D01*
X130398009Y-65409585D01*
X130423135Y-65412500D01*
X132212864Y-65412499D01*
X132212879Y-65412497D01*
X132212882Y-65412497D01*
X132237987Y-65409586D01*
X132237988Y-65409585D01*
X132237991Y-65409585D01*
X132340765Y-65364206D01*
X132420206Y-65284765D01*
X132465585Y-65181991D01*
X132468500Y-65156865D01*
X132468500Y-65156856D01*
X137025500Y-65156856D01*
X137025502Y-65156882D01*
X137028413Y-65181987D01*
X137028415Y-65181991D01*
X137073793Y-65284764D01*
X137073794Y-65284765D01*
X137153235Y-65364206D01*
X137256009Y-65409585D01*
X137281135Y-65412500D01*
X139070864Y-65412499D01*
X139070879Y-65412497D01*
X139070882Y-65412497D01*
X139095987Y-65409586D01*
X139095988Y-65409585D01*
X139095991Y-65409585D01*
X139198765Y-65364206D01*
X139278206Y-65284765D01*
X139323585Y-65181991D01*
X139326500Y-65156865D01*
X139326499Y-64418046D01*
X139346183Y-64351009D01*
X139398987Y-64305254D01*
X139468146Y-64295310D01*
X139531702Y-64324335D01*
X139569476Y-64383113D01*
X139573970Y-64406606D01*
X139575440Y-64422466D01*
X139580244Y-64474310D01*
X139592923Y-64518873D01*
X139638596Y-64679392D01*
X139638596Y-64679394D01*
X139733632Y-64870253D01*
X139733634Y-64870255D01*
X139862128Y-65040407D01*
X140019698Y-65184052D01*
X140200981Y-65296298D01*
X140399802Y-65373321D01*
X140609390Y-65412500D01*
X140609392Y-65412500D01*
X140822608Y-65412500D01*
X140822610Y-65412500D01*
X141032198Y-65373321D01*
X141231019Y-65296298D01*
X141412302Y-65184052D01*
X141569872Y-65040407D01*
X141698366Y-64870255D01*
X141793405Y-64679389D01*
X141851756Y-64474310D01*
X141862529Y-64358047D01*
X141888315Y-64293111D01*
X141930622Y-64262804D01*
X142039130Y-64262804D01*
X142075503Y-64283668D01*
X142107693Y-64345681D01*
X142109470Y-64358047D01*
X142120244Y-64474310D01*
X142132923Y-64518873D01*
X142178596Y-64679392D01*
X142178596Y-64679394D01*
X142273632Y-64870253D01*
X142273634Y-64870255D01*
X142402128Y-65040407D01*
X142559698Y-65184052D01*
X142740981Y-65296298D01*
X142939802Y-65373321D01*
X143149390Y-65412500D01*
X143149392Y-65412500D01*
X143362608Y-65412500D01*
X143362610Y-65412500D01*
X143572198Y-65373321D01*
X143771019Y-65296298D01*
X143952302Y-65184052D01*
X144109872Y-65040407D01*
X144238366Y-64870255D01*
X144333405Y-64679389D01*
X144391756Y-64474310D01*
X144402529Y-64358047D01*
X144428315Y-64293111D01*
X144470622Y-64262804D01*
X144579130Y-64262804D01*
X144615503Y-64283668D01*
X144647693Y-64345681D01*
X144649470Y-64358047D01*
X144660244Y-64474310D01*
X144672923Y-64518873D01*
X144718596Y-64679392D01*
X144718596Y-64679394D01*
X144813632Y-64870253D01*
X144813634Y-64870255D01*
X144942128Y-65040407D01*
X145099698Y-65184052D01*
X145280981Y-65296298D01*
X145479802Y-65373321D01*
X145689390Y-65412500D01*
X145689392Y-65412500D01*
X145902608Y-65412500D01*
X145902610Y-65412500D01*
X146112198Y-65373321D01*
X146311019Y-65296298D01*
X146492302Y-65184052D01*
X146649872Y-65040407D01*
X146778366Y-64870255D01*
X146873405Y-64679389D01*
X146931756Y-64474310D01*
X146942529Y-64358047D01*
X146968315Y-64293111D01*
X147010622Y-64262804D01*
X147119130Y-64262804D01*
X147155503Y-64283668D01*
X147187693Y-64345681D01*
X147189470Y-64358047D01*
X147200244Y-64474310D01*
X147212923Y-64518873D01*
X147258596Y-64679392D01*
X147258596Y-64679394D01*
X147353632Y-64870253D01*
X147353634Y-64870255D01*
X147482128Y-65040407D01*
X147639698Y-65184052D01*
X147820981Y-65296298D01*
X148019802Y-65373321D01*
X148229390Y-65412500D01*
X148229392Y-65412500D01*
X148442608Y-65412500D01*
X148442610Y-65412500D01*
X148652198Y-65373321D01*
X148851019Y-65296298D01*
X149032302Y-65184052D01*
X149189872Y-65040407D01*
X149318366Y-64870255D01*
X149413405Y-64679389D01*
X149471756Y-64474310D01*
X149482529Y-64358047D01*
X149508315Y-64293111D01*
X149550622Y-64262804D01*
X149659130Y-64262804D01*
X149695503Y-64283668D01*
X149727693Y-64345681D01*
X149729470Y-64358047D01*
X149740244Y-64474310D01*
X149752923Y-64518873D01*
X149798596Y-64679392D01*
X149798596Y-64679394D01*
X149893632Y-64870253D01*
X149893634Y-64870255D01*
X150022128Y-65040407D01*
X150179698Y-65184052D01*
X150360981Y-65296298D01*
X150559802Y-65373321D01*
X150769390Y-65412500D01*
X150769392Y-65412500D01*
X150982608Y-65412500D01*
X150982610Y-65412500D01*
X151192198Y-65373321D01*
X151391019Y-65296298D01*
X151572302Y-65184052D01*
X151729872Y-65040407D01*
X151858366Y-64870255D01*
X151953405Y-64679389D01*
X152011756Y-64474310D01*
X152022529Y-64358047D01*
X152048315Y-64293111D01*
X152090622Y-64262804D01*
X152199130Y-64262804D01*
X152235503Y-64283668D01*
X152267693Y-64345681D01*
X152269470Y-64358047D01*
X152280244Y-64474310D01*
X152292923Y-64518873D01*
X152338596Y-64679392D01*
X152338596Y-64679394D01*
X152433632Y-64870253D01*
X152433634Y-64870255D01*
X152562128Y-65040407D01*
X152719698Y-65184052D01*
X152900981Y-65296298D01*
X153099802Y-65373321D01*
X153309390Y-65412500D01*
X153309392Y-65412500D01*
X153522608Y-65412500D01*
X153522610Y-65412500D01*
X153732198Y-65373321D01*
X153931019Y-65296298D01*
X154112302Y-65184052D01*
X154269872Y-65040407D01*
X154398366Y-64870255D01*
X154493405Y-64679389D01*
X154551756Y-64474310D01*
X154562529Y-64358047D01*
X154588315Y-64293111D01*
X154630622Y-64262804D01*
X154739130Y-64262804D01*
X154775503Y-64283668D01*
X154807693Y-64345681D01*
X154809470Y-64358047D01*
X154820244Y-64474310D01*
X154832923Y-64518873D01*
X154878596Y-64679392D01*
X154878596Y-64679394D01*
X154973632Y-64870253D01*
X154973634Y-64870255D01*
X155102128Y-65040407D01*
X155259698Y-65184052D01*
X155440981Y-65296298D01*
X155639802Y-65373321D01*
X155849390Y-65412500D01*
X155849392Y-65412500D01*
X156062608Y-65412500D01*
X156062610Y-65412500D01*
X156272198Y-65373321D01*
X156471019Y-65296298D01*
X156652302Y-65184052D01*
X156809872Y-65040407D01*
X156938366Y-64870255D01*
X157033405Y-64679389D01*
X157091756Y-64474310D01*
X157111429Y-64262000D01*
X157091756Y-64049690D01*
X157033405Y-63844611D01*
X157033403Y-63844606D01*
X157033403Y-63844605D01*
X156938367Y-63653746D01*
X156809872Y-63483593D01*
X156682133Y-63367143D01*
X156652302Y-63339948D01*
X156471019Y-63227702D01*
X156471017Y-63227701D01*
X156371608Y-63189190D01*
X156272198Y-63150679D01*
X156062610Y-63111500D01*
X155849390Y-63111500D01*
X155639802Y-63150679D01*
X155639799Y-63150679D01*
X155639799Y-63150680D01*
X155440982Y-63227701D01*
X155440980Y-63227702D01*
X155259699Y-63339947D01*
X155102127Y-63483593D01*
X154973632Y-63653746D01*
X154878596Y-63844605D01*
X154878596Y-63844607D01*
X154820244Y-64049689D01*
X154809471Y-64165951D01*
X154783685Y-64230888D01*
X154739130Y-64262804D01*
X154630622Y-64262804D01*
X154632869Y-64261194D01*
X154596497Y-64240331D01*
X154564307Y-64178318D01*
X154562529Y-64165951D01*
X154558940Y-64127223D01*
X154551756Y-64049690D01*
X154493405Y-63844611D01*
X154493403Y-63844606D01*
X154493403Y-63844605D01*
X154398367Y-63653746D01*
X154269872Y-63483593D01*
X154142133Y-63367143D01*
X154112302Y-63339948D01*
X153931019Y-63227702D01*
X153931017Y-63227701D01*
X153831608Y-63189190D01*
X153732198Y-63150679D01*
X153522610Y-63111500D01*
X153309390Y-63111500D01*
X153099802Y-63150679D01*
X153099799Y-63150679D01*
X153099799Y-63150680D01*
X152900982Y-63227701D01*
X152900980Y-63227702D01*
X152719699Y-63339947D01*
X152562127Y-63483593D01*
X152433632Y-63653746D01*
X152338596Y-63844605D01*
X152338596Y-63844607D01*
X152280244Y-64049689D01*
X152269471Y-64165951D01*
X152243685Y-64230888D01*
X152199130Y-64262804D01*
X152090622Y-64262804D01*
X152092869Y-64261194D01*
X152056497Y-64240331D01*
X152024307Y-64178318D01*
X152022529Y-64165951D01*
X152018940Y-64127223D01*
X152011756Y-64049690D01*
X151953405Y-63844611D01*
X151953403Y-63844606D01*
X151953403Y-63844605D01*
X151858367Y-63653746D01*
X151729872Y-63483593D01*
X151602133Y-63367143D01*
X151572302Y-63339948D01*
X151391019Y-63227702D01*
X151391017Y-63227701D01*
X151291608Y-63189190D01*
X151192198Y-63150679D01*
X150982610Y-63111500D01*
X150769390Y-63111500D01*
X150559802Y-63150679D01*
X150559799Y-63150679D01*
X150559799Y-63150680D01*
X150360982Y-63227701D01*
X150360980Y-63227702D01*
X150179699Y-63339947D01*
X150022127Y-63483593D01*
X149893632Y-63653746D01*
X149798596Y-63844605D01*
X149798596Y-63844607D01*
X149740244Y-64049689D01*
X149729471Y-64165951D01*
X149703685Y-64230888D01*
X149659130Y-64262804D01*
X149550622Y-64262804D01*
X149552869Y-64261194D01*
X149516497Y-64240331D01*
X149484307Y-64178318D01*
X149482529Y-64165951D01*
X149478940Y-64127223D01*
X149471756Y-64049690D01*
X149413405Y-63844611D01*
X149413403Y-63844606D01*
X149413403Y-63844605D01*
X149318367Y-63653746D01*
X149189872Y-63483593D01*
X149062133Y-63367143D01*
X149032302Y-63339948D01*
X148851019Y-63227702D01*
X148851017Y-63227701D01*
X148751608Y-63189190D01*
X148652198Y-63150679D01*
X148442610Y-63111500D01*
X148229390Y-63111500D01*
X148019802Y-63150679D01*
X148019799Y-63150679D01*
X148019799Y-63150680D01*
X147820982Y-63227701D01*
X147820980Y-63227702D01*
X147639699Y-63339947D01*
X147482127Y-63483593D01*
X147353632Y-63653746D01*
X147258596Y-63844605D01*
X147258596Y-63844607D01*
X147200244Y-64049689D01*
X147189471Y-64165951D01*
X147163685Y-64230888D01*
X147119130Y-64262804D01*
X147010622Y-64262804D01*
X147012869Y-64261194D01*
X146976497Y-64240331D01*
X146944307Y-64178318D01*
X146942529Y-64165951D01*
X146938940Y-64127223D01*
X146931756Y-64049690D01*
X146873405Y-63844611D01*
X146873403Y-63844606D01*
X146873403Y-63844605D01*
X146778367Y-63653746D01*
X146649872Y-63483593D01*
X146522133Y-63367143D01*
X146492302Y-63339948D01*
X146311019Y-63227702D01*
X146311017Y-63227701D01*
X146211608Y-63189190D01*
X146112198Y-63150679D01*
X145902610Y-63111500D01*
X145689390Y-63111500D01*
X145479802Y-63150679D01*
X145479799Y-63150679D01*
X145479799Y-63150680D01*
X145280982Y-63227701D01*
X145280980Y-63227702D01*
X145099699Y-63339947D01*
X144942127Y-63483593D01*
X144813632Y-63653746D01*
X144718596Y-63844605D01*
X144718596Y-63844607D01*
X144660244Y-64049689D01*
X144649471Y-64165951D01*
X144623685Y-64230888D01*
X144579130Y-64262804D01*
X144470622Y-64262804D01*
X144472869Y-64261194D01*
X144436497Y-64240331D01*
X144404307Y-64178318D01*
X144402529Y-64165951D01*
X144398940Y-64127223D01*
X144391756Y-64049690D01*
X144333405Y-63844611D01*
X144333403Y-63844606D01*
X144333403Y-63844605D01*
X144238367Y-63653746D01*
X144109872Y-63483593D01*
X143982133Y-63367143D01*
X143952302Y-63339948D01*
X143771019Y-63227702D01*
X143771017Y-63227701D01*
X143671608Y-63189190D01*
X143572198Y-63150679D01*
X143362610Y-63111500D01*
X143149390Y-63111500D01*
X142939802Y-63150679D01*
X142939799Y-63150679D01*
X142939799Y-63150680D01*
X142740982Y-63227701D01*
X142740980Y-63227702D01*
X142559699Y-63339947D01*
X142402127Y-63483593D01*
X142273632Y-63653746D01*
X142178596Y-63844605D01*
X142178596Y-63844607D01*
X142120244Y-64049689D01*
X142109471Y-64165951D01*
X142083685Y-64230888D01*
X142039130Y-64262804D01*
X141930622Y-64262804D01*
X141932869Y-64261194D01*
X141896497Y-64240331D01*
X141864307Y-64178318D01*
X141862529Y-64165951D01*
X141858940Y-64127223D01*
X141851756Y-64049690D01*
X141793405Y-63844611D01*
X141793403Y-63844606D01*
X141793403Y-63844605D01*
X141698367Y-63653746D01*
X141569872Y-63483593D01*
X141442133Y-63367143D01*
X141412302Y-63339948D01*
X141231019Y-63227702D01*
X141231017Y-63227701D01*
X141131608Y-63189190D01*
X141032198Y-63150679D01*
X140822610Y-63111500D01*
X140609390Y-63111500D01*
X140399802Y-63150679D01*
X140399799Y-63150679D01*
X140399799Y-63150680D01*
X140200982Y-63227701D01*
X140200980Y-63227702D01*
X140019699Y-63339947D01*
X139862127Y-63483593D01*
X139733632Y-63653746D01*
X139638596Y-63844605D01*
X139638596Y-63844607D01*
X139580244Y-64049689D01*
X139573970Y-64117394D01*
X139548183Y-64182331D01*
X139491383Y-64223018D01*
X139421602Y-64226538D01*
X139360995Y-64191772D01*
X139328806Y-64129759D01*
X139326499Y-64105952D01*
X139326499Y-63367143D01*
X139326499Y-63367136D01*
X139326497Y-63367117D01*
X139323586Y-63342012D01*
X139323585Y-63342010D01*
X139323585Y-63342009D01*
X139278206Y-63239235D01*
X139198765Y-63159794D01*
X139178124Y-63150680D01*
X139095992Y-63114415D01*
X139070865Y-63111500D01*
X137281143Y-63111500D01*
X137281117Y-63111502D01*
X137256012Y-63114413D01*
X137256008Y-63114415D01*
X137153235Y-63159793D01*
X137073794Y-63239234D01*
X137028415Y-63342006D01*
X137028415Y-63342008D01*
X137025500Y-63367131D01*
X137025500Y-65156856D01*
X132468500Y-65156856D01*
X132468499Y-63367136D01*
X132468497Y-63367117D01*
X132465586Y-63342012D01*
X132465585Y-63342010D01*
X132465585Y-63342009D01*
X132420206Y-63239235D01*
X132340765Y-63159794D01*
X132320124Y-63150680D01*
X132237992Y-63114415D01*
X132212865Y-63111500D01*
X130423143Y-63111500D01*
X130423117Y-63111502D01*
X130398012Y-63114413D01*
X130398008Y-63114415D01*
X130295235Y-63159793D01*
X130215794Y-63239234D01*
X130170415Y-63342006D01*
X130170415Y-63342008D01*
X130167500Y-63367131D01*
X130167500Y-64105951D01*
X130147815Y-64172990D01*
X130095011Y-64218745D01*
X130025853Y-64228689D01*
X129962297Y-64199664D01*
X129924523Y-64140886D01*
X129920029Y-64117391D01*
X129913756Y-64049689D01*
X129899273Y-63998789D01*
X129855405Y-63844611D01*
X129855403Y-63844606D01*
X129855403Y-63844605D01*
X129760367Y-63653746D01*
X129631872Y-63483593D01*
X129504133Y-63367143D01*
X129474302Y-63339948D01*
X129293019Y-63227702D01*
X129293017Y-63227701D01*
X129193608Y-63189190D01*
X129094198Y-63150679D01*
X128884610Y-63111500D01*
X128671390Y-63111500D01*
X128461802Y-63150679D01*
X128461799Y-63150679D01*
X128461799Y-63150680D01*
X128262982Y-63227701D01*
X128262980Y-63227702D01*
X128081699Y-63339947D01*
X127924127Y-63483593D01*
X127795632Y-63653746D01*
X127700596Y-63844605D01*
X127700596Y-63844607D01*
X127642244Y-64049689D01*
X127631471Y-64165951D01*
X127605685Y-64230888D01*
X127561130Y-64262804D01*
X127452622Y-64262804D01*
X127454869Y-64261194D01*
X127418497Y-64240331D01*
X127386307Y-64178318D01*
X127384529Y-64165951D01*
X127380940Y-64127223D01*
X127373756Y-64049690D01*
X127315405Y-63844611D01*
X127315403Y-63844606D01*
X127315403Y-63844605D01*
X127220367Y-63653746D01*
X127091872Y-63483593D01*
X126964133Y-63367143D01*
X126934302Y-63339948D01*
X126753019Y-63227702D01*
X126753017Y-63227701D01*
X126653608Y-63189190D01*
X126554198Y-63150679D01*
X126344610Y-63111500D01*
X126131390Y-63111500D01*
X125921802Y-63150679D01*
X125921799Y-63150679D01*
X125921799Y-63150680D01*
X125722982Y-63227701D01*
X125722980Y-63227702D01*
X125541699Y-63339947D01*
X125384127Y-63483593D01*
X125255632Y-63653746D01*
X125160596Y-63844605D01*
X125160596Y-63844607D01*
X125102244Y-64049689D01*
X125091471Y-64165951D01*
X125065685Y-64230888D01*
X125021130Y-64262804D01*
X124912622Y-64262804D01*
X124914869Y-64261194D01*
X124878497Y-64240331D01*
X124846307Y-64178318D01*
X124844529Y-64165951D01*
X124840940Y-64127223D01*
X124833756Y-64049690D01*
X124775405Y-63844611D01*
X124775403Y-63844606D01*
X124775403Y-63844605D01*
X124680367Y-63653746D01*
X124551872Y-63483593D01*
X124424133Y-63367143D01*
X124394302Y-63339948D01*
X124213019Y-63227702D01*
X124213017Y-63227701D01*
X124113608Y-63189190D01*
X124014198Y-63150679D01*
X123804610Y-63111500D01*
X123591390Y-63111500D01*
X123381802Y-63150679D01*
X123381799Y-63150679D01*
X123381799Y-63150680D01*
X123182982Y-63227701D01*
X123182980Y-63227702D01*
X123001699Y-63339947D01*
X122844127Y-63483593D01*
X122715632Y-63653746D01*
X122620596Y-63844605D01*
X122620596Y-63844607D01*
X122562244Y-64049689D01*
X122551471Y-64165951D01*
X122525685Y-64230888D01*
X122481130Y-64262804D01*
X122372622Y-64262804D01*
X122374869Y-64261194D01*
X122338497Y-64240331D01*
X122306307Y-64178318D01*
X122304529Y-64165951D01*
X122300940Y-64127223D01*
X122293756Y-64049690D01*
X122235405Y-63844611D01*
X122235403Y-63844606D01*
X122235403Y-63844605D01*
X122140367Y-63653746D01*
X122011872Y-63483593D01*
X121884133Y-63367143D01*
X121854302Y-63339948D01*
X121673019Y-63227702D01*
X121673017Y-63227701D01*
X121573608Y-63189190D01*
X121474198Y-63150679D01*
X121264610Y-63111500D01*
X121051390Y-63111500D01*
X120841802Y-63150679D01*
X120841799Y-63150679D01*
X120841799Y-63150680D01*
X120642982Y-63227701D01*
X120642980Y-63227702D01*
X120461699Y-63339947D01*
X120304127Y-63483593D01*
X120175632Y-63653746D01*
X120080596Y-63844605D01*
X120080596Y-63844607D01*
X120022244Y-64049689D01*
X120011471Y-64165951D01*
X119985685Y-64230888D01*
X119941130Y-64262804D01*
X119832622Y-64262804D01*
X119834869Y-64261194D01*
X119798497Y-64240331D01*
X119766307Y-64178318D01*
X119764529Y-64165951D01*
X119760940Y-64127223D01*
X119753756Y-64049690D01*
X119695405Y-63844611D01*
X119695403Y-63844606D01*
X119695403Y-63844605D01*
X119600367Y-63653746D01*
X119471872Y-63483593D01*
X119344133Y-63367143D01*
X119314302Y-63339948D01*
X119133019Y-63227702D01*
X119133017Y-63227701D01*
X119033608Y-63189190D01*
X118934198Y-63150679D01*
X118724610Y-63111500D01*
X118511390Y-63111500D01*
X118301802Y-63150679D01*
X118301799Y-63150679D01*
X118301799Y-63150680D01*
X118102982Y-63227701D01*
X118102980Y-63227702D01*
X117921699Y-63339947D01*
X117764127Y-63483593D01*
X117635632Y-63653746D01*
X117540596Y-63844605D01*
X117540596Y-63844607D01*
X117482244Y-64049689D01*
X117471471Y-64165951D01*
X117445685Y-64230888D01*
X117401130Y-64262804D01*
X117292622Y-64262804D01*
X117294869Y-64261194D01*
X117258497Y-64240331D01*
X117226307Y-64178318D01*
X117224529Y-64165951D01*
X117220940Y-64127223D01*
X117213756Y-64049690D01*
X117155405Y-63844611D01*
X117155403Y-63844606D01*
X117155403Y-63844605D01*
X117060367Y-63653746D01*
X116931872Y-63483593D01*
X116804133Y-63367143D01*
X116774302Y-63339948D01*
X116593019Y-63227702D01*
X116593017Y-63227701D01*
X116493608Y-63189190D01*
X116394198Y-63150679D01*
X116184610Y-63111500D01*
X115971390Y-63111500D01*
X115761802Y-63150679D01*
X115761799Y-63150679D01*
X115761799Y-63150680D01*
X115562982Y-63227701D01*
X115562980Y-63227702D01*
X115381699Y-63339947D01*
X115224127Y-63483593D01*
X115095632Y-63653746D01*
X115000596Y-63844605D01*
X115000596Y-63844607D01*
X114942244Y-64049689D01*
X114931471Y-64165951D01*
X114905685Y-64230888D01*
X114861130Y-64262804D01*
X114752622Y-64262804D01*
X114754869Y-64261194D01*
X114718497Y-64240331D01*
X114686307Y-64178318D01*
X114684529Y-64165951D01*
X114680940Y-64127223D01*
X114673756Y-64049690D01*
X114615405Y-63844611D01*
X114615403Y-63844606D01*
X114615403Y-63844605D01*
X114520367Y-63653746D01*
X114391872Y-63483593D01*
X114264133Y-63367143D01*
X114234302Y-63339948D01*
X114053019Y-63227702D01*
X114053017Y-63227701D01*
X113953608Y-63189190D01*
X113854198Y-63150679D01*
X113644610Y-63111500D01*
X113431390Y-63111500D01*
X113221802Y-63150679D01*
X113221799Y-63150679D01*
X113221799Y-63150680D01*
X113022982Y-63227701D01*
X113022980Y-63227702D01*
X112841699Y-63339947D01*
X112684127Y-63483593D01*
X112555632Y-63653746D01*
X112460596Y-63844605D01*
X112460596Y-63844607D01*
X112402244Y-64049689D01*
X112395060Y-64127224D01*
X112382571Y-64262000D01*
X107911422Y-64262000D01*
X108069224Y-64127224D01*
X108232836Y-63935659D01*
X108364466Y-63720859D01*
X108460873Y-63488111D01*
X108519683Y-63243148D01*
X108539449Y-62992000D01*
X160446551Y-62992000D01*
X160466317Y-63243151D01*
X160525126Y-63488110D01*
X160621533Y-63720859D01*
X160753160Y-63935653D01*
X160753161Y-63935656D01*
X160753164Y-63935659D01*
X160916776Y-64127224D01*
X161033058Y-64226538D01*
X161108343Y-64290838D01*
X161108345Y-64290838D01*
X161115642Y-64295310D01*
X161323140Y-64422466D01*
X161448304Y-64474310D01*
X161555889Y-64518873D01*
X161800852Y-64577683D01*
X161956950Y-64589968D01*
X161989116Y-64592500D01*
X161989118Y-64592500D01*
X162114884Y-64592500D01*
X162144518Y-64590167D01*
X162303148Y-64577683D01*
X162548111Y-64518873D01*
X162780859Y-64422466D01*
X162995659Y-64290836D01*
X163187224Y-64127224D01*
X163350836Y-63935659D01*
X163482466Y-63720859D01*
X163578873Y-63488111D01*
X163637683Y-63243148D01*
X163657449Y-62992000D01*
X163637683Y-62740852D01*
X163578873Y-62495889D01*
X163482466Y-62263141D01*
X163482466Y-62263140D01*
X163350839Y-62048346D01*
X163350838Y-62048343D01*
X163215515Y-61889901D01*
X163187224Y-61856776D01*
X163060571Y-61748604D01*
X162995656Y-61693161D01*
X162995653Y-61693160D01*
X162780859Y-61561533D01*
X162548110Y-61465126D01*
X162303150Y-61406317D01*
X162114884Y-61391500D01*
X162114882Y-61391500D01*
X161989118Y-61391500D01*
X161989116Y-61391500D01*
X161800849Y-61406317D01*
X161555889Y-61465126D01*
X161323140Y-61561533D01*
X161108346Y-61693160D01*
X161108343Y-61693161D01*
X160916776Y-61856776D01*
X160753161Y-62048343D01*
X160753160Y-62048346D01*
X160621533Y-62263140D01*
X160525126Y-62495889D01*
X160466317Y-62740848D01*
X160446551Y-62992000D01*
X108539449Y-62992000D01*
X108519683Y-62740852D01*
X108460873Y-62495889D01*
X108364466Y-62263141D01*
X108364466Y-62263140D01*
X108232839Y-62048346D01*
X108232838Y-62048343D01*
X108097515Y-61889901D01*
X108069224Y-61856776D01*
X107942571Y-61748604D01*
X107877656Y-61693161D01*
X107877653Y-61693160D01*
X107662859Y-61561533D01*
X107430110Y-61465126D01*
X107185150Y-61406317D01*
X106996884Y-61391500D01*
X106996882Y-61391500D01*
X106871118Y-61391500D01*
X106871116Y-61391500D01*
X106682849Y-61406317D01*
X106437889Y-61465126D01*
X106205140Y-61561533D01*
X105990346Y-61693160D01*
X105990343Y-61693161D01*
X105798776Y-61856776D01*
X105635161Y-62048343D01*
X105635160Y-62048346D01*
X105503533Y-62263140D01*
X105407126Y-62495889D01*
X105348317Y-62740848D01*
X105328551Y-62992000D01*
X104386549Y-62992000D01*
X104386598Y-62990264D01*
X104396290Y-62817673D01*
X104402323Y-62710235D01*
X104403099Y-62703349D01*
X104449787Y-62428564D01*
X104451335Y-62421781D01*
X104528494Y-62153953D01*
X104530792Y-62147392D01*
X104571820Y-62048341D01*
X104637455Y-61889882D01*
X104640458Y-61883647D01*
X104775286Y-61639693D01*
X104778982Y-61633812D01*
X104940271Y-61406496D01*
X104944599Y-61401069D01*
X105130325Y-61193240D01*
X105135243Y-61188323D01*
X105343069Y-61002599D01*
X105348496Y-60998271D01*
X105575812Y-60836982D01*
X105581693Y-60833286D01*
X105825647Y-60698458D01*
X105831882Y-60695455D01*
X106026194Y-60614968D01*
X106089392Y-60588792D01*
X106095953Y-60586494D01*
X106363785Y-60509334D01*
X106370565Y-60507787D01*
X106645349Y-60461099D01*
X106652235Y-60460323D01*
X106805307Y-60451727D01*
X106932265Y-60444598D01*
X106935742Y-60444500D01*
X106999892Y-60444500D01*
X161986108Y-60444500D01*
X162050258Y-60444500D01*
X162053735Y-60444598D01*
G37*
%TD.AperFunction*%
%TD*%
M02*
