%TF.GenerationSoftware,KiCad,Pcbnew,7.0.9*%
%TF.CreationDate,2023-12-10T23:23:11+01:00*%
%TF.ProjectId,LED Driver,4c454420-4472-4697-9665-722e6b696361,rev?*%
%TF.SameCoordinates,Original*%
%TF.FileFunction,Paste,Top*%
%TF.FilePolarity,Positive*%
%FSLAX46Y46*%
G04 Gerber Fmt 4.6, Leading zero omitted, Abs format (unit mm)*
G04 Created by KiCad (PCBNEW 7.0.9) date 2023-12-10 23:23:11*
%MOMM*%
%LPD*%
G01*
G04 APERTURE LIST*
G04 Aperture macros list*
%AMRoundRect*
0 Rectangle with rounded corners*
0 $1 Rounding radius*
0 $2 $3 $4 $5 $6 $7 $8 $9 X,Y pos of 4 corners*
0 Add a 4 corners polygon primitive as box body*
4,1,4,$2,$3,$4,$5,$6,$7,$8,$9,$2,$3,0*
0 Add four circle primitives for the rounded corners*
1,1,$1+$1,$2,$3*
1,1,$1+$1,$4,$5*
1,1,$1+$1,$6,$7*
1,1,$1+$1,$8,$9*
0 Add four rect primitives between the rounded corners*
20,1,$1+$1,$2,$3,$4,$5,0*
20,1,$1+$1,$4,$5,$6,$7,0*
20,1,$1+$1,$6,$7,$8,$9,0*
20,1,$1+$1,$8,$9,$2,$3,0*%
G04 Aperture macros list end*
%ADD10R,5.700000X2.200000*%
%ADD11RoundRect,0.131400X0.473600X0.233600X-0.473600X0.233600X-0.473600X-0.233600X0.473600X-0.233600X0*%
%ADD12RoundRect,0.250000X-0.625000X0.312500X-0.625000X-0.312500X0.625000X-0.312500X0.625000X0.312500X0*%
%ADD13RoundRect,0.250000X-0.650000X0.325000X-0.650000X-0.325000X0.650000X-0.325000X0.650000X0.325000X0*%
%ADD14RoundRect,0.250000X0.312500X0.625000X-0.312500X0.625000X-0.312500X-0.625000X0.312500X-0.625000X0*%
%ADD15R,1.400000X0.300000*%
%ADD16R,1.600000X2.000000*%
%ADD17RoundRect,0.243750X-0.456250X0.243750X-0.456250X-0.243750X0.456250X-0.243750X0.456250X0.243750X0*%
%ADD18RoundRect,0.250000X0.650000X-0.325000X0.650000X0.325000X-0.650000X0.325000X-0.650000X-0.325000X0*%
G04 APERTURE END LIST*
D10*
%TO.C,L1*%
X101100000Y-40600000D03*
X101100000Y-44600000D03*
%TD*%
D11*
%TO.C,D1*%
X107032000Y-43180000D03*
X110392000Y-43180000D03*
%TD*%
D12*
%TO.C,R1*%
X110744000Y-47813500D03*
X110744000Y-50738500D03*
%TD*%
%TO.C,R6*%
X87630000Y-46797500D03*
X87630000Y-49722500D03*
%TD*%
%TO.C,R7*%
X86350000Y-52687500D03*
X86350000Y-55612500D03*
%TD*%
D13*
%TO.C,C1*%
X98806000Y-52373000D03*
X98806000Y-55323000D03*
%TD*%
D14*
%TO.C,R4*%
X91886500Y-52578000D03*
X88961500Y-52578000D03*
%TD*%
D12*
%TO.C,R5*%
X106934000Y-54290500D03*
X106934000Y-57215500D03*
%TD*%
D13*
%TO.C,C4*%
X106934000Y-47801000D03*
X106934000Y-50751000D03*
%TD*%
%TO.C,C3*%
X110744000Y-54278000D03*
X110744000Y-57228000D03*
%TD*%
D15*
%TO.C,IC1*%
X98892000Y-47768000D03*
X98892000Y-48268000D03*
X98892000Y-48768000D03*
X98892000Y-49268000D03*
X98892000Y-49768000D03*
X103292000Y-49768000D03*
X103292000Y-49268000D03*
X103292000Y-48768000D03*
X103292000Y-48268000D03*
X103292000Y-47768000D03*
D16*
X101092000Y-48768000D03*
%TD*%
D12*
%TO.C,R3*%
X114808000Y-49591500D03*
X114808000Y-52516500D03*
%TD*%
D17*
%TO.C,D2*%
X94742000Y-52499500D03*
X94742000Y-50624500D03*
%TD*%
D13*
%TO.C,C5*%
X119100000Y-43229000D03*
X119100000Y-46179000D03*
%TD*%
D18*
%TO.C,C2*%
X94996000Y-48211000D03*
X94996000Y-45261000D03*
%TD*%
D12*
%TO.C,R2*%
X114808000Y-43241500D03*
X114808000Y-46166500D03*
%TD*%
M02*
