%TF.GenerationSoftware,KiCad,Pcbnew,7.0.9*%
%TF.CreationDate,2023-12-10T23:23:11+01:00*%
%TF.ProjectId,LED Driver,4c454420-4472-4697-9665-722e6b696361,rev?*%
%TF.SameCoordinates,Original*%
%TF.FileFunction,Legend,Top*%
%TF.FilePolarity,Positive*%
%FSLAX46Y46*%
G04 Gerber Fmt 4.6, Leading zero omitted, Abs format (unit mm)*
G04 Created by KiCad (PCBNEW 7.0.9) date 2023-12-10 23:23:11*
%MOMM*%
%LPD*%
G01*
G04 APERTURE LIST*
%ADD10C,0.125000*%
%ADD11C,0.150000*%
%ADD12C,0.254000*%
%ADD13C,0.127000*%
%ADD14C,0.200000*%
%ADD15C,0.120000*%
G04 APERTURE END LIST*
D10*
X90752712Y-50636547D02*
X91019378Y-50636547D01*
X91133664Y-51055595D02*
X90752712Y-51055595D01*
X90752712Y-51055595D02*
X90752712Y-50255595D01*
X90752712Y-50255595D02*
X91133664Y-50255595D01*
X91476522Y-51055595D02*
X91476522Y-50522261D01*
X91476522Y-50674642D02*
X91514617Y-50598452D01*
X91514617Y-50598452D02*
X91552712Y-50560357D01*
X91552712Y-50560357D02*
X91628903Y-50522261D01*
X91628903Y-50522261D02*
X91705093Y-50522261D01*
X91971760Y-51055595D02*
X91971760Y-50522261D01*
X91971760Y-50674642D02*
X92009855Y-50598452D01*
X92009855Y-50598452D02*
X92047950Y-50560357D01*
X92047950Y-50560357D02*
X92124141Y-50522261D01*
X92124141Y-50522261D02*
X92200331Y-50522261D01*
X92581283Y-51055595D02*
X92505093Y-51017500D01*
X92505093Y-51017500D02*
X92466998Y-50979404D01*
X92466998Y-50979404D02*
X92428902Y-50903214D01*
X92428902Y-50903214D02*
X92428902Y-50674642D01*
X92428902Y-50674642D02*
X92466998Y-50598452D01*
X92466998Y-50598452D02*
X92505093Y-50560357D01*
X92505093Y-50560357D02*
X92581283Y-50522261D01*
X92581283Y-50522261D02*
X92695569Y-50522261D01*
X92695569Y-50522261D02*
X92771760Y-50560357D01*
X92771760Y-50560357D02*
X92809855Y-50598452D01*
X92809855Y-50598452D02*
X92847950Y-50674642D01*
X92847950Y-50674642D02*
X92847950Y-50903214D01*
X92847950Y-50903214D02*
X92809855Y-50979404D01*
X92809855Y-50979404D02*
X92771760Y-51017500D01*
X92771760Y-51017500D02*
X92695569Y-51055595D01*
X92695569Y-51055595D02*
X92581283Y-51055595D01*
X93190808Y-51055595D02*
X93190808Y-50522261D01*
X93190808Y-50674642D02*
X93228903Y-50598452D01*
X93228903Y-50598452D02*
X93266998Y-50560357D01*
X93266998Y-50560357D02*
X93343189Y-50522261D01*
X93343189Y-50522261D02*
X93419379Y-50522261D01*
D11*
X75000000Y-53600000D02*
X72400000Y-53600000D01*
X74850000Y-48500000D02*
X72450000Y-48500000D01*
X130000000Y-55550000D02*
X132000000Y-55550000D01*
X75000000Y-43000000D02*
X72400000Y-43000000D01*
X132000000Y-44950000D02*
X129950000Y-44950000D01*
X72400000Y-53600000D02*
X72400000Y-43000000D01*
X130000000Y-50500000D02*
X132000000Y-50500000D01*
X132000000Y-55550000D02*
X132000000Y-44950000D01*
X74230180Y-44443922D02*
X73230180Y-44777255D01*
X73230180Y-44777255D02*
X74230180Y-45110588D01*
X73325419Y-46015350D02*
X73277800Y-45967731D01*
X73277800Y-45967731D02*
X73230180Y-45824874D01*
X73230180Y-45824874D02*
X73230180Y-45729636D01*
X73230180Y-45729636D02*
X73277800Y-45586779D01*
X73277800Y-45586779D02*
X73373038Y-45491541D01*
X73373038Y-45491541D02*
X73468276Y-45443922D01*
X73468276Y-45443922D02*
X73658752Y-45396303D01*
X73658752Y-45396303D02*
X73801609Y-45396303D01*
X73801609Y-45396303D02*
X73992085Y-45443922D01*
X73992085Y-45443922D02*
X74087323Y-45491541D01*
X74087323Y-45491541D02*
X74182561Y-45586779D01*
X74182561Y-45586779D02*
X74230180Y-45729636D01*
X74230180Y-45729636D02*
X74230180Y-45824874D01*
X74230180Y-45824874D02*
X74182561Y-45967731D01*
X74182561Y-45967731D02*
X74134942Y-46015350D01*
X73325419Y-47015350D02*
X73277800Y-46967731D01*
X73277800Y-46967731D02*
X73230180Y-46824874D01*
X73230180Y-46824874D02*
X73230180Y-46729636D01*
X73230180Y-46729636D02*
X73277800Y-46586779D01*
X73277800Y-46586779D02*
X73373038Y-46491541D01*
X73373038Y-46491541D02*
X73468276Y-46443922D01*
X73468276Y-46443922D02*
X73658752Y-46396303D01*
X73658752Y-46396303D02*
X73801609Y-46396303D01*
X73801609Y-46396303D02*
X73992085Y-46443922D01*
X73992085Y-46443922D02*
X74087323Y-46491541D01*
X74087323Y-46491541D02*
X74182561Y-46586779D01*
X74182561Y-46586779D02*
X74230180Y-46729636D01*
X74230180Y-46729636D02*
X74230180Y-46824874D01*
X74230180Y-46824874D02*
X74182561Y-46967731D01*
X74182561Y-46967731D02*
X74134942Y-47015350D01*
X97686779Y-62819819D02*
X97686779Y-61819819D01*
X97686779Y-61819819D02*
X98067731Y-61819819D01*
X98067731Y-61819819D02*
X98162969Y-61867438D01*
X98162969Y-61867438D02*
X98210588Y-61915057D01*
X98210588Y-61915057D02*
X98258207Y-62010295D01*
X98258207Y-62010295D02*
X98258207Y-62153152D01*
X98258207Y-62153152D02*
X98210588Y-62248390D01*
X98210588Y-62248390D02*
X98162969Y-62296009D01*
X98162969Y-62296009D02*
X98067731Y-62343628D01*
X98067731Y-62343628D02*
X97686779Y-62343628D01*
X98591541Y-61819819D02*
X98829636Y-62819819D01*
X98829636Y-62819819D02*
X99020112Y-62105533D01*
X99020112Y-62105533D02*
X99210588Y-62819819D01*
X99210588Y-62819819D02*
X99448684Y-61819819D01*
X99829636Y-62819819D02*
X99829636Y-61819819D01*
X99829636Y-61819819D02*
X100162969Y-62534104D01*
X100162969Y-62534104D02*
X100496302Y-61819819D01*
X100496302Y-61819819D02*
X100496302Y-62819819D01*
X122912969Y-43699819D02*
X122436779Y-43699819D01*
X122436779Y-43699819D02*
X122436779Y-42699819D01*
X123246303Y-43176009D02*
X123579636Y-43176009D01*
X123722493Y-43699819D02*
X123246303Y-43699819D01*
X123246303Y-43699819D02*
X123246303Y-42699819D01*
X123246303Y-42699819D02*
X123722493Y-42699819D01*
X124151065Y-43699819D02*
X124151065Y-42699819D01*
X124151065Y-42699819D02*
X124389160Y-42699819D01*
X124389160Y-42699819D02*
X124532017Y-42747438D01*
X124532017Y-42747438D02*
X124627255Y-42842676D01*
X124627255Y-42842676D02*
X124674874Y-42937914D01*
X124674874Y-42937914D02*
X124722493Y-43128390D01*
X124722493Y-43128390D02*
X124722493Y-43271247D01*
X124722493Y-43271247D02*
X124674874Y-43461723D01*
X124674874Y-43461723D02*
X124627255Y-43556961D01*
X124627255Y-43556961D02*
X124532017Y-43652200D01*
X124532017Y-43652200D02*
X124389160Y-43699819D01*
X124389160Y-43699819D02*
X124151065Y-43699819D01*
X125865351Y-43652200D02*
X126008208Y-43699819D01*
X126008208Y-43699819D02*
X126246303Y-43699819D01*
X126246303Y-43699819D02*
X126341541Y-43652200D01*
X126341541Y-43652200D02*
X126389160Y-43604580D01*
X126389160Y-43604580D02*
X126436779Y-43509342D01*
X126436779Y-43509342D02*
X126436779Y-43414104D01*
X126436779Y-43414104D02*
X126389160Y-43318866D01*
X126389160Y-43318866D02*
X126341541Y-43271247D01*
X126341541Y-43271247D02*
X126246303Y-43223628D01*
X126246303Y-43223628D02*
X126055827Y-43176009D01*
X126055827Y-43176009D02*
X125960589Y-43128390D01*
X125960589Y-43128390D02*
X125912970Y-43080771D01*
X125912970Y-43080771D02*
X125865351Y-42985533D01*
X125865351Y-42985533D02*
X125865351Y-42890295D01*
X125865351Y-42890295D02*
X125912970Y-42795057D01*
X125912970Y-42795057D02*
X125960589Y-42747438D01*
X125960589Y-42747438D02*
X126055827Y-42699819D01*
X126055827Y-42699819D02*
X126293922Y-42699819D01*
X126293922Y-42699819D02*
X126436779Y-42747438D01*
X126722494Y-42699819D02*
X127293922Y-42699819D01*
X127008208Y-43699819D02*
X127008208Y-42699819D01*
X128198684Y-43699819D02*
X127865351Y-43223628D01*
X127627256Y-43699819D02*
X127627256Y-42699819D01*
X127627256Y-42699819D02*
X128008208Y-42699819D01*
X128008208Y-42699819D02*
X128103446Y-42747438D01*
X128103446Y-42747438D02*
X128151065Y-42795057D01*
X128151065Y-42795057D02*
X128198684Y-42890295D01*
X128198684Y-42890295D02*
X128198684Y-43033152D01*
X128198684Y-43033152D02*
X128151065Y-43128390D01*
X128151065Y-43128390D02*
X128103446Y-43176009D01*
X128103446Y-43176009D02*
X128008208Y-43223628D01*
X128008208Y-43223628D02*
X127627256Y-43223628D01*
X128627256Y-43699819D02*
X128627256Y-42699819D01*
X129103446Y-43699819D02*
X129103446Y-42699819D01*
X129103446Y-42699819D02*
X129484398Y-42699819D01*
X129484398Y-42699819D02*
X129579636Y-42747438D01*
X129579636Y-42747438D02*
X129627255Y-42795057D01*
X129627255Y-42795057D02*
X129674874Y-42890295D01*
X129674874Y-42890295D02*
X129674874Y-43033152D01*
X129674874Y-43033152D02*
X129627255Y-43128390D01*
X129627255Y-43128390D02*
X129579636Y-43176009D01*
X129579636Y-43176009D02*
X129484398Y-43223628D01*
X129484398Y-43223628D02*
X129103446Y-43223628D01*
X131469819Y-48787030D02*
X131469819Y-49263220D01*
X131469819Y-49263220D02*
X130469819Y-49263220D01*
X130946009Y-48453696D02*
X130946009Y-48120363D01*
X131469819Y-47977506D02*
X131469819Y-48453696D01*
X131469819Y-48453696D02*
X130469819Y-48453696D01*
X130469819Y-48453696D02*
X130469819Y-47977506D01*
X131469819Y-47548934D02*
X130469819Y-47548934D01*
X130469819Y-47548934D02*
X130469819Y-47310839D01*
X130469819Y-47310839D02*
X130517438Y-47167982D01*
X130517438Y-47167982D02*
X130612676Y-47072744D01*
X130612676Y-47072744D02*
X130707914Y-47025125D01*
X130707914Y-47025125D02*
X130898390Y-46977506D01*
X130898390Y-46977506D02*
X131041247Y-46977506D01*
X131041247Y-46977506D02*
X131231723Y-47025125D01*
X131231723Y-47025125D02*
X131326961Y-47072744D01*
X131326961Y-47072744D02*
X131422200Y-47167982D01*
X131422200Y-47167982D02*
X131469819Y-47310839D01*
X131469819Y-47310839D02*
X131469819Y-47548934D01*
X131088866Y-46548934D02*
X131088866Y-45787030D01*
X131469819Y-46167982D02*
X130707914Y-46167982D01*
X87920112Y-38996009D02*
X87586779Y-38996009D01*
X87586779Y-39519819D02*
X87586779Y-38519819D01*
X87586779Y-38519819D02*
X88062969Y-38519819D01*
X88396303Y-39234104D02*
X88872493Y-39234104D01*
X88301065Y-39519819D02*
X88634398Y-38519819D01*
X88634398Y-38519819D02*
X88967731Y-39519819D01*
X89301065Y-38519819D02*
X89301065Y-39329342D01*
X89301065Y-39329342D02*
X89348684Y-39424580D01*
X89348684Y-39424580D02*
X89396303Y-39472200D01*
X89396303Y-39472200D02*
X89491541Y-39519819D01*
X89491541Y-39519819D02*
X89682017Y-39519819D01*
X89682017Y-39519819D02*
X89777255Y-39472200D01*
X89777255Y-39472200D02*
X89824874Y-39424580D01*
X89824874Y-39424580D02*
X89872493Y-39329342D01*
X89872493Y-39329342D02*
X89872493Y-38519819D01*
X90824874Y-39519819D02*
X90348684Y-39519819D01*
X90348684Y-39519819D02*
X90348684Y-38519819D01*
X91015351Y-38519819D02*
X91586779Y-38519819D01*
X91301065Y-39519819D02*
X91301065Y-38519819D01*
X79060588Y-58917438D02*
X78965350Y-58869819D01*
X78965350Y-58869819D02*
X78822493Y-58869819D01*
X78822493Y-58869819D02*
X78679636Y-58917438D01*
X78679636Y-58917438D02*
X78584398Y-59012676D01*
X78584398Y-59012676D02*
X78536779Y-59107914D01*
X78536779Y-59107914D02*
X78489160Y-59298390D01*
X78489160Y-59298390D02*
X78489160Y-59441247D01*
X78489160Y-59441247D02*
X78536779Y-59631723D01*
X78536779Y-59631723D02*
X78584398Y-59726961D01*
X78584398Y-59726961D02*
X78679636Y-59822200D01*
X78679636Y-59822200D02*
X78822493Y-59869819D01*
X78822493Y-59869819D02*
X78917731Y-59869819D01*
X78917731Y-59869819D02*
X79060588Y-59822200D01*
X79060588Y-59822200D02*
X79108207Y-59774580D01*
X79108207Y-59774580D02*
X79108207Y-59441247D01*
X79108207Y-59441247D02*
X78917731Y-59441247D01*
X79536779Y-59869819D02*
X79536779Y-58869819D01*
X79536779Y-58869819D02*
X80108207Y-59869819D01*
X80108207Y-59869819D02*
X80108207Y-58869819D01*
X80584398Y-59869819D02*
X80584398Y-58869819D01*
X80584398Y-58869819D02*
X80822493Y-58869819D01*
X80822493Y-58869819D02*
X80965350Y-58917438D01*
X80965350Y-58917438D02*
X81060588Y-59012676D01*
X81060588Y-59012676D02*
X81108207Y-59107914D01*
X81108207Y-59107914D02*
X81155826Y-59298390D01*
X81155826Y-59298390D02*
X81155826Y-59441247D01*
X81155826Y-59441247D02*
X81108207Y-59631723D01*
X81108207Y-59631723D02*
X81060588Y-59726961D01*
X81060588Y-59726961D02*
X80965350Y-59822200D01*
X80965350Y-59822200D02*
X80822493Y-59869819D01*
X80822493Y-59869819D02*
X80584398Y-59869819D01*
X74082561Y-50360588D02*
X74130180Y-50265350D01*
X74130180Y-50265350D02*
X74130180Y-50122493D01*
X74130180Y-50122493D02*
X74082561Y-49979636D01*
X74082561Y-49979636D02*
X73987323Y-49884398D01*
X73987323Y-49884398D02*
X73892085Y-49836779D01*
X73892085Y-49836779D02*
X73701609Y-49789160D01*
X73701609Y-49789160D02*
X73558752Y-49789160D01*
X73558752Y-49789160D02*
X73368276Y-49836779D01*
X73368276Y-49836779D02*
X73273038Y-49884398D01*
X73273038Y-49884398D02*
X73177800Y-49979636D01*
X73177800Y-49979636D02*
X73130180Y-50122493D01*
X73130180Y-50122493D02*
X73130180Y-50217731D01*
X73130180Y-50217731D02*
X73177800Y-50360588D01*
X73177800Y-50360588D02*
X73225419Y-50408207D01*
X73225419Y-50408207D02*
X73558752Y-50408207D01*
X73558752Y-50408207D02*
X73558752Y-50217731D01*
X73130180Y-50836779D02*
X74130180Y-50836779D01*
X74130180Y-50836779D02*
X73130180Y-51408207D01*
X73130180Y-51408207D02*
X74130180Y-51408207D01*
X73130180Y-51884398D02*
X74130180Y-51884398D01*
X74130180Y-51884398D02*
X74130180Y-52122493D01*
X74130180Y-52122493D02*
X74082561Y-52265350D01*
X74082561Y-52265350D02*
X73987323Y-52360588D01*
X73987323Y-52360588D02*
X73892085Y-52408207D01*
X73892085Y-52408207D02*
X73701609Y-52455826D01*
X73701609Y-52455826D02*
X73558752Y-52455826D01*
X73558752Y-52455826D02*
X73368276Y-52408207D01*
X73368276Y-52408207D02*
X73273038Y-52360588D01*
X73273038Y-52360588D02*
X73177800Y-52265350D01*
X73177800Y-52265350D02*
X73130180Y-52122493D01*
X73130180Y-52122493D02*
X73130180Y-51884398D01*
X131469819Y-54187030D02*
X131469819Y-54663220D01*
X131469819Y-54663220D02*
X130469819Y-54663220D01*
X130946009Y-53853696D02*
X130946009Y-53520363D01*
X131469819Y-53377506D02*
X131469819Y-53853696D01*
X131469819Y-53853696D02*
X130469819Y-53853696D01*
X130469819Y-53853696D02*
X130469819Y-53377506D01*
X131469819Y-52948934D02*
X130469819Y-52948934D01*
X130469819Y-52948934D02*
X130469819Y-52710839D01*
X130469819Y-52710839D02*
X130517438Y-52567982D01*
X130517438Y-52567982D02*
X130612676Y-52472744D01*
X130612676Y-52472744D02*
X130707914Y-52425125D01*
X130707914Y-52425125D02*
X130898390Y-52377506D01*
X130898390Y-52377506D02*
X131041247Y-52377506D01*
X131041247Y-52377506D02*
X131231723Y-52425125D01*
X131231723Y-52425125D02*
X131326961Y-52472744D01*
X131326961Y-52472744D02*
X131422200Y-52567982D01*
X131422200Y-52567982D02*
X131469819Y-52710839D01*
X131469819Y-52710839D02*
X131469819Y-52948934D01*
X131088866Y-51948934D02*
X131088866Y-51187030D01*
X76936779Y-41719819D02*
X76936779Y-40719819D01*
X76936779Y-40719819D02*
X77317731Y-40719819D01*
X77317731Y-40719819D02*
X77412969Y-40767438D01*
X77412969Y-40767438D02*
X77460588Y-40815057D01*
X77460588Y-40815057D02*
X77508207Y-40910295D01*
X77508207Y-40910295D02*
X77508207Y-41053152D01*
X77508207Y-41053152D02*
X77460588Y-41148390D01*
X77460588Y-41148390D02*
X77412969Y-41196009D01*
X77412969Y-41196009D02*
X77317731Y-41243628D01*
X77317731Y-41243628D02*
X76936779Y-41243628D01*
X78127255Y-40719819D02*
X78317731Y-40719819D01*
X78317731Y-40719819D02*
X78412969Y-40767438D01*
X78412969Y-40767438D02*
X78508207Y-40862676D01*
X78508207Y-40862676D02*
X78555826Y-41053152D01*
X78555826Y-41053152D02*
X78555826Y-41386485D01*
X78555826Y-41386485D02*
X78508207Y-41576961D01*
X78508207Y-41576961D02*
X78412969Y-41672200D01*
X78412969Y-41672200D02*
X78317731Y-41719819D01*
X78317731Y-41719819D02*
X78127255Y-41719819D01*
X78127255Y-41719819D02*
X78032017Y-41672200D01*
X78032017Y-41672200D02*
X77936779Y-41576961D01*
X77936779Y-41576961D02*
X77889160Y-41386485D01*
X77889160Y-41386485D02*
X77889160Y-41053152D01*
X77889160Y-41053152D02*
X77936779Y-40862676D01*
X77936779Y-40862676D02*
X78032017Y-40767438D01*
X78032017Y-40767438D02*
X78127255Y-40719819D01*
X78889160Y-40719819D02*
X79127255Y-41719819D01*
X79127255Y-41719819D02*
X79317731Y-41005533D01*
X79317731Y-41005533D02*
X79508207Y-41719819D01*
X79508207Y-41719819D02*
X79746303Y-40719819D01*
X80127255Y-41196009D02*
X80460588Y-41196009D01*
X80603445Y-41719819D02*
X80127255Y-41719819D01*
X80127255Y-41719819D02*
X80127255Y-40719819D01*
X80127255Y-40719819D02*
X80603445Y-40719819D01*
X81603445Y-41719819D02*
X81270112Y-41243628D01*
X81032017Y-41719819D02*
X81032017Y-40719819D01*
X81032017Y-40719819D02*
X81412969Y-40719819D01*
X81412969Y-40719819D02*
X81508207Y-40767438D01*
X81508207Y-40767438D02*
X81555826Y-40815057D01*
X81555826Y-40815057D02*
X81603445Y-40910295D01*
X81603445Y-40910295D02*
X81603445Y-41053152D01*
X81603445Y-41053152D02*
X81555826Y-41148390D01*
X81555826Y-41148390D02*
X81508207Y-41196009D01*
X81508207Y-41196009D02*
X81412969Y-41243628D01*
X81412969Y-41243628D02*
X81032017Y-41243628D01*
X96592969Y-41489819D02*
X96116779Y-41489819D01*
X96116779Y-41489819D02*
X96116779Y-40489819D01*
X97450112Y-41489819D02*
X96878684Y-41489819D01*
X97164398Y-41489819D02*
X97164398Y-40489819D01*
X97164398Y-40489819D02*
X97069160Y-40632676D01*
X97069160Y-40632676D02*
X96973922Y-40727914D01*
X96973922Y-40727914D02*
X96878684Y-40775533D01*
X107973905Y-41856819D02*
X107973905Y-40856819D01*
X107973905Y-40856819D02*
X108212000Y-40856819D01*
X108212000Y-40856819D02*
X108354857Y-40904438D01*
X108354857Y-40904438D02*
X108450095Y-40999676D01*
X108450095Y-40999676D02*
X108497714Y-41094914D01*
X108497714Y-41094914D02*
X108545333Y-41285390D01*
X108545333Y-41285390D02*
X108545333Y-41428247D01*
X108545333Y-41428247D02*
X108497714Y-41618723D01*
X108497714Y-41618723D02*
X108450095Y-41713961D01*
X108450095Y-41713961D02*
X108354857Y-41809200D01*
X108354857Y-41809200D02*
X108212000Y-41856819D01*
X108212000Y-41856819D02*
X107973905Y-41856819D01*
X109497714Y-41856819D02*
X108926286Y-41856819D01*
X109212000Y-41856819D02*
X109212000Y-40856819D01*
X109212000Y-40856819D02*
X109116762Y-40999676D01*
X109116762Y-40999676D02*
X109021524Y-41094914D01*
X109021524Y-41094914D02*
X108926286Y-41142533D01*
X109420819Y-49315666D02*
X108944628Y-49648999D01*
X109420819Y-49887094D02*
X108420819Y-49887094D01*
X108420819Y-49887094D02*
X108420819Y-49506142D01*
X108420819Y-49506142D02*
X108468438Y-49410904D01*
X108468438Y-49410904D02*
X108516057Y-49363285D01*
X108516057Y-49363285D02*
X108611295Y-49315666D01*
X108611295Y-49315666D02*
X108754152Y-49315666D01*
X108754152Y-49315666D02*
X108849390Y-49363285D01*
X108849390Y-49363285D02*
X108897009Y-49410904D01*
X108897009Y-49410904D02*
X108944628Y-49506142D01*
X108944628Y-49506142D02*
X108944628Y-49887094D01*
X109420819Y-48363285D02*
X109420819Y-48934713D01*
X109420819Y-48648999D02*
X108420819Y-48648999D01*
X108420819Y-48648999D02*
X108563676Y-48744237D01*
X108563676Y-48744237D02*
X108658914Y-48839475D01*
X108658914Y-48839475D02*
X108706533Y-48934713D01*
X86254819Y-48466666D02*
X85778628Y-48799999D01*
X86254819Y-49038094D02*
X85254819Y-49038094D01*
X85254819Y-49038094D02*
X85254819Y-48657142D01*
X85254819Y-48657142D02*
X85302438Y-48561904D01*
X85302438Y-48561904D02*
X85350057Y-48514285D01*
X85350057Y-48514285D02*
X85445295Y-48466666D01*
X85445295Y-48466666D02*
X85588152Y-48466666D01*
X85588152Y-48466666D02*
X85683390Y-48514285D01*
X85683390Y-48514285D02*
X85731009Y-48561904D01*
X85731009Y-48561904D02*
X85778628Y-48657142D01*
X85778628Y-48657142D02*
X85778628Y-49038094D01*
X85254819Y-47609523D02*
X85254819Y-47799999D01*
X85254819Y-47799999D02*
X85302438Y-47895237D01*
X85302438Y-47895237D02*
X85350057Y-47942856D01*
X85350057Y-47942856D02*
X85492914Y-48038094D01*
X85492914Y-48038094D02*
X85683390Y-48085713D01*
X85683390Y-48085713D02*
X86064342Y-48085713D01*
X86064342Y-48085713D02*
X86159580Y-48038094D01*
X86159580Y-48038094D02*
X86207200Y-47990475D01*
X86207200Y-47990475D02*
X86254819Y-47895237D01*
X86254819Y-47895237D02*
X86254819Y-47704761D01*
X86254819Y-47704761D02*
X86207200Y-47609523D01*
X86207200Y-47609523D02*
X86159580Y-47561904D01*
X86159580Y-47561904D02*
X86064342Y-47514285D01*
X86064342Y-47514285D02*
X85826247Y-47514285D01*
X85826247Y-47514285D02*
X85731009Y-47561904D01*
X85731009Y-47561904D02*
X85683390Y-47609523D01*
X85683390Y-47609523D02*
X85635771Y-47704761D01*
X85635771Y-47704761D02*
X85635771Y-47895237D01*
X85635771Y-47895237D02*
X85683390Y-47990475D01*
X85683390Y-47990475D02*
X85731009Y-48038094D01*
X85731009Y-48038094D02*
X85826247Y-48085713D01*
X84954819Y-54166666D02*
X84478628Y-54499999D01*
X84954819Y-54738094D02*
X83954819Y-54738094D01*
X83954819Y-54738094D02*
X83954819Y-54357142D01*
X83954819Y-54357142D02*
X84002438Y-54261904D01*
X84002438Y-54261904D02*
X84050057Y-54214285D01*
X84050057Y-54214285D02*
X84145295Y-54166666D01*
X84145295Y-54166666D02*
X84288152Y-54166666D01*
X84288152Y-54166666D02*
X84383390Y-54214285D01*
X84383390Y-54214285D02*
X84431009Y-54261904D01*
X84431009Y-54261904D02*
X84478628Y-54357142D01*
X84478628Y-54357142D02*
X84478628Y-54738094D01*
X83954819Y-53833332D02*
X83954819Y-53166666D01*
X83954819Y-53166666D02*
X84954819Y-53595237D01*
X97133580Y-54014666D02*
X97181200Y-54062285D01*
X97181200Y-54062285D02*
X97228819Y-54205142D01*
X97228819Y-54205142D02*
X97228819Y-54300380D01*
X97228819Y-54300380D02*
X97181200Y-54443237D01*
X97181200Y-54443237D02*
X97085961Y-54538475D01*
X97085961Y-54538475D02*
X96990723Y-54586094D01*
X96990723Y-54586094D02*
X96800247Y-54633713D01*
X96800247Y-54633713D02*
X96657390Y-54633713D01*
X96657390Y-54633713D02*
X96466914Y-54586094D01*
X96466914Y-54586094D02*
X96371676Y-54538475D01*
X96371676Y-54538475D02*
X96276438Y-54443237D01*
X96276438Y-54443237D02*
X96228819Y-54300380D01*
X96228819Y-54300380D02*
X96228819Y-54205142D01*
X96228819Y-54205142D02*
X96276438Y-54062285D01*
X96276438Y-54062285D02*
X96324057Y-54014666D01*
X97228819Y-53062285D02*
X97228819Y-53633713D01*
X97228819Y-53347999D02*
X96228819Y-53347999D01*
X96228819Y-53347999D02*
X96371676Y-53443237D01*
X96371676Y-53443237D02*
X96466914Y-53538475D01*
X96466914Y-53538475D02*
X96514533Y-53633713D01*
X90257333Y-54852819D02*
X89924000Y-54376628D01*
X89685905Y-54852819D02*
X89685905Y-53852819D01*
X89685905Y-53852819D02*
X90066857Y-53852819D01*
X90066857Y-53852819D02*
X90162095Y-53900438D01*
X90162095Y-53900438D02*
X90209714Y-53948057D01*
X90209714Y-53948057D02*
X90257333Y-54043295D01*
X90257333Y-54043295D02*
X90257333Y-54186152D01*
X90257333Y-54186152D02*
X90209714Y-54281390D01*
X90209714Y-54281390D02*
X90162095Y-54329009D01*
X90162095Y-54329009D02*
X90066857Y-54376628D01*
X90066857Y-54376628D02*
X89685905Y-54376628D01*
X91114476Y-54186152D02*
X91114476Y-54852819D01*
X90876381Y-53805200D02*
X90638286Y-54519485D01*
X90638286Y-54519485D02*
X91257333Y-54519485D01*
X105864819Y-55919666D02*
X105388628Y-56252999D01*
X105864819Y-56491094D02*
X104864819Y-56491094D01*
X104864819Y-56491094D02*
X104864819Y-56110142D01*
X104864819Y-56110142D02*
X104912438Y-56014904D01*
X104912438Y-56014904D02*
X104960057Y-55967285D01*
X104960057Y-55967285D02*
X105055295Y-55919666D01*
X105055295Y-55919666D02*
X105198152Y-55919666D01*
X105198152Y-55919666D02*
X105293390Y-55967285D01*
X105293390Y-55967285D02*
X105341009Y-56014904D01*
X105341009Y-56014904D02*
X105388628Y-56110142D01*
X105388628Y-56110142D02*
X105388628Y-56491094D01*
X104864819Y-55014904D02*
X104864819Y-55491094D01*
X104864819Y-55491094D02*
X105341009Y-55538713D01*
X105341009Y-55538713D02*
X105293390Y-55491094D01*
X105293390Y-55491094D02*
X105245771Y-55395856D01*
X105245771Y-55395856D02*
X105245771Y-55157761D01*
X105245771Y-55157761D02*
X105293390Y-55062523D01*
X105293390Y-55062523D02*
X105341009Y-55014904D01*
X105341009Y-55014904D02*
X105436247Y-54967285D01*
X105436247Y-54967285D02*
X105674342Y-54967285D01*
X105674342Y-54967285D02*
X105769580Y-55014904D01*
X105769580Y-55014904D02*
X105817200Y-55062523D01*
X105817200Y-55062523D02*
X105864819Y-55157761D01*
X105864819Y-55157761D02*
X105864819Y-55395856D01*
X105864819Y-55395856D02*
X105817200Y-55491094D01*
X105817200Y-55491094D02*
X105769580Y-55538713D01*
X105515580Y-48934666D02*
X105563200Y-48982285D01*
X105563200Y-48982285D02*
X105610819Y-49125142D01*
X105610819Y-49125142D02*
X105610819Y-49220380D01*
X105610819Y-49220380D02*
X105563200Y-49363237D01*
X105563200Y-49363237D02*
X105467961Y-49458475D01*
X105467961Y-49458475D02*
X105372723Y-49506094D01*
X105372723Y-49506094D02*
X105182247Y-49553713D01*
X105182247Y-49553713D02*
X105039390Y-49553713D01*
X105039390Y-49553713D02*
X104848914Y-49506094D01*
X104848914Y-49506094D02*
X104753676Y-49458475D01*
X104753676Y-49458475D02*
X104658438Y-49363237D01*
X104658438Y-49363237D02*
X104610819Y-49220380D01*
X104610819Y-49220380D02*
X104610819Y-49125142D01*
X104610819Y-49125142D02*
X104658438Y-48982285D01*
X104658438Y-48982285D02*
X104706057Y-48934666D01*
X104944152Y-48077523D02*
X105610819Y-48077523D01*
X104563200Y-48315618D02*
X105277485Y-48553713D01*
X105277485Y-48553713D02*
X105277485Y-47934666D01*
X109325580Y-55919666D02*
X109373200Y-55967285D01*
X109373200Y-55967285D02*
X109420819Y-56110142D01*
X109420819Y-56110142D02*
X109420819Y-56205380D01*
X109420819Y-56205380D02*
X109373200Y-56348237D01*
X109373200Y-56348237D02*
X109277961Y-56443475D01*
X109277961Y-56443475D02*
X109182723Y-56491094D01*
X109182723Y-56491094D02*
X108992247Y-56538713D01*
X108992247Y-56538713D02*
X108849390Y-56538713D01*
X108849390Y-56538713D02*
X108658914Y-56491094D01*
X108658914Y-56491094D02*
X108563676Y-56443475D01*
X108563676Y-56443475D02*
X108468438Y-56348237D01*
X108468438Y-56348237D02*
X108420819Y-56205380D01*
X108420819Y-56205380D02*
X108420819Y-56110142D01*
X108420819Y-56110142D02*
X108468438Y-55967285D01*
X108468438Y-55967285D02*
X108516057Y-55919666D01*
X108420819Y-55586332D02*
X108420819Y-54967285D01*
X108420819Y-54967285D02*
X108801771Y-55300618D01*
X108801771Y-55300618D02*
X108801771Y-55157761D01*
X108801771Y-55157761D02*
X108849390Y-55062523D01*
X108849390Y-55062523D02*
X108897009Y-55014904D01*
X108897009Y-55014904D02*
X108992247Y-54967285D01*
X108992247Y-54967285D02*
X109230342Y-54967285D01*
X109230342Y-54967285D02*
X109325580Y-55014904D01*
X109325580Y-55014904D02*
X109373200Y-55062523D01*
X109373200Y-55062523D02*
X109420819Y-55157761D01*
X109420819Y-55157761D02*
X109420819Y-55443475D01*
X109420819Y-55443475D02*
X109373200Y-55538713D01*
X109373200Y-55538713D02*
X109325580Y-55586332D01*
D12*
X101040237Y-52194318D02*
X101040237Y-50924318D01*
X102370714Y-52073365D02*
X102310238Y-52133842D01*
X102310238Y-52133842D02*
X102128809Y-52194318D01*
X102128809Y-52194318D02*
X102007857Y-52194318D01*
X102007857Y-52194318D02*
X101826428Y-52133842D01*
X101826428Y-52133842D02*
X101705476Y-52012889D01*
X101705476Y-52012889D02*
X101644999Y-51891937D01*
X101644999Y-51891937D02*
X101584523Y-51650032D01*
X101584523Y-51650032D02*
X101584523Y-51468603D01*
X101584523Y-51468603D02*
X101644999Y-51226699D01*
X101644999Y-51226699D02*
X101705476Y-51105746D01*
X101705476Y-51105746D02*
X101826428Y-50984794D01*
X101826428Y-50984794D02*
X102007857Y-50924318D01*
X102007857Y-50924318D02*
X102128809Y-50924318D01*
X102128809Y-50924318D02*
X102310238Y-50984794D01*
X102310238Y-50984794D02*
X102370714Y-51045270D01*
X103580238Y-52194318D02*
X102854523Y-52194318D01*
X103217380Y-52194318D02*
X103217380Y-50924318D01*
X103217380Y-50924318D02*
X103096428Y-51105746D01*
X103096428Y-51105746D02*
X102975476Y-51226699D01*
X102975476Y-51226699D02*
X102854523Y-51287175D01*
D11*
X113484819Y-51220666D02*
X113008628Y-51553999D01*
X113484819Y-51792094D02*
X112484819Y-51792094D01*
X112484819Y-51792094D02*
X112484819Y-51411142D01*
X112484819Y-51411142D02*
X112532438Y-51315904D01*
X112532438Y-51315904D02*
X112580057Y-51268285D01*
X112580057Y-51268285D02*
X112675295Y-51220666D01*
X112675295Y-51220666D02*
X112818152Y-51220666D01*
X112818152Y-51220666D02*
X112913390Y-51268285D01*
X112913390Y-51268285D02*
X112961009Y-51315904D01*
X112961009Y-51315904D02*
X113008628Y-51411142D01*
X113008628Y-51411142D02*
X113008628Y-51792094D01*
X112484819Y-50887332D02*
X112484819Y-50268285D01*
X112484819Y-50268285D02*
X112865771Y-50601618D01*
X112865771Y-50601618D02*
X112865771Y-50458761D01*
X112865771Y-50458761D02*
X112913390Y-50363523D01*
X112913390Y-50363523D02*
X112961009Y-50315904D01*
X112961009Y-50315904D02*
X113056247Y-50268285D01*
X113056247Y-50268285D02*
X113294342Y-50268285D01*
X113294342Y-50268285D02*
X113389580Y-50315904D01*
X113389580Y-50315904D02*
X113437200Y-50363523D01*
X113437200Y-50363523D02*
X113484819Y-50458761D01*
X113484819Y-50458761D02*
X113484819Y-50744475D01*
X113484819Y-50744475D02*
X113437200Y-50839713D01*
X113437200Y-50839713D02*
X113389580Y-50887332D01*
X96846819Y-52300094D02*
X95846819Y-52300094D01*
X95846819Y-52300094D02*
X95846819Y-52061999D01*
X95846819Y-52061999D02*
X95894438Y-51919142D01*
X95894438Y-51919142D02*
X95989676Y-51823904D01*
X95989676Y-51823904D02*
X96084914Y-51776285D01*
X96084914Y-51776285D02*
X96275390Y-51728666D01*
X96275390Y-51728666D02*
X96418247Y-51728666D01*
X96418247Y-51728666D02*
X96608723Y-51776285D01*
X96608723Y-51776285D02*
X96703961Y-51823904D01*
X96703961Y-51823904D02*
X96799200Y-51919142D01*
X96799200Y-51919142D02*
X96846819Y-52061999D01*
X96846819Y-52061999D02*
X96846819Y-52300094D01*
X95942057Y-51347713D02*
X95894438Y-51300094D01*
X95894438Y-51300094D02*
X95846819Y-51204856D01*
X95846819Y-51204856D02*
X95846819Y-50966761D01*
X95846819Y-50966761D02*
X95894438Y-50871523D01*
X95894438Y-50871523D02*
X95942057Y-50823904D01*
X95942057Y-50823904D02*
X96037295Y-50776285D01*
X96037295Y-50776285D02*
X96132533Y-50776285D01*
X96132533Y-50776285D02*
X96275390Y-50823904D01*
X96275390Y-50823904D02*
X96846819Y-51395332D01*
X96846819Y-51395332D02*
X96846819Y-50776285D01*
X117427580Y-44870666D02*
X117475200Y-44918285D01*
X117475200Y-44918285D02*
X117522819Y-45061142D01*
X117522819Y-45061142D02*
X117522819Y-45156380D01*
X117522819Y-45156380D02*
X117475200Y-45299237D01*
X117475200Y-45299237D02*
X117379961Y-45394475D01*
X117379961Y-45394475D02*
X117284723Y-45442094D01*
X117284723Y-45442094D02*
X117094247Y-45489713D01*
X117094247Y-45489713D02*
X116951390Y-45489713D01*
X116951390Y-45489713D02*
X116760914Y-45442094D01*
X116760914Y-45442094D02*
X116665676Y-45394475D01*
X116665676Y-45394475D02*
X116570438Y-45299237D01*
X116570438Y-45299237D02*
X116522819Y-45156380D01*
X116522819Y-45156380D02*
X116522819Y-45061142D01*
X116522819Y-45061142D02*
X116570438Y-44918285D01*
X116570438Y-44918285D02*
X116618057Y-44870666D01*
X116522819Y-43965904D02*
X116522819Y-44442094D01*
X116522819Y-44442094D02*
X116999009Y-44489713D01*
X116999009Y-44489713D02*
X116951390Y-44442094D01*
X116951390Y-44442094D02*
X116903771Y-44346856D01*
X116903771Y-44346856D02*
X116903771Y-44108761D01*
X116903771Y-44108761D02*
X116951390Y-44013523D01*
X116951390Y-44013523D02*
X116999009Y-43965904D01*
X116999009Y-43965904D02*
X117094247Y-43918285D01*
X117094247Y-43918285D02*
X117332342Y-43918285D01*
X117332342Y-43918285D02*
X117427580Y-43965904D01*
X117427580Y-43965904D02*
X117475200Y-44013523D01*
X117475200Y-44013523D02*
X117522819Y-44108761D01*
X117522819Y-44108761D02*
X117522819Y-44346856D01*
X117522819Y-44346856D02*
X117475200Y-44442094D01*
X117475200Y-44442094D02*
X117427580Y-44489713D01*
X93505580Y-46902666D02*
X93553200Y-46950285D01*
X93553200Y-46950285D02*
X93600819Y-47093142D01*
X93600819Y-47093142D02*
X93600819Y-47188380D01*
X93600819Y-47188380D02*
X93553200Y-47331237D01*
X93553200Y-47331237D02*
X93457961Y-47426475D01*
X93457961Y-47426475D02*
X93362723Y-47474094D01*
X93362723Y-47474094D02*
X93172247Y-47521713D01*
X93172247Y-47521713D02*
X93029390Y-47521713D01*
X93029390Y-47521713D02*
X92838914Y-47474094D01*
X92838914Y-47474094D02*
X92743676Y-47426475D01*
X92743676Y-47426475D02*
X92648438Y-47331237D01*
X92648438Y-47331237D02*
X92600819Y-47188380D01*
X92600819Y-47188380D02*
X92600819Y-47093142D01*
X92600819Y-47093142D02*
X92648438Y-46950285D01*
X92648438Y-46950285D02*
X92696057Y-46902666D01*
X92696057Y-46521713D02*
X92648438Y-46474094D01*
X92648438Y-46474094D02*
X92600819Y-46378856D01*
X92600819Y-46378856D02*
X92600819Y-46140761D01*
X92600819Y-46140761D02*
X92648438Y-46045523D01*
X92648438Y-46045523D02*
X92696057Y-45997904D01*
X92696057Y-45997904D02*
X92791295Y-45950285D01*
X92791295Y-45950285D02*
X92886533Y-45950285D01*
X92886533Y-45950285D02*
X93029390Y-45997904D01*
X93029390Y-45997904D02*
X93600819Y-46569332D01*
X93600819Y-46569332D02*
X93600819Y-45950285D01*
X113484819Y-44870666D02*
X113008628Y-45203999D01*
X113484819Y-45442094D02*
X112484819Y-45442094D01*
X112484819Y-45442094D02*
X112484819Y-45061142D01*
X112484819Y-45061142D02*
X112532438Y-44965904D01*
X112532438Y-44965904D02*
X112580057Y-44918285D01*
X112580057Y-44918285D02*
X112675295Y-44870666D01*
X112675295Y-44870666D02*
X112818152Y-44870666D01*
X112818152Y-44870666D02*
X112913390Y-44918285D01*
X112913390Y-44918285D02*
X112961009Y-44965904D01*
X112961009Y-44965904D02*
X113008628Y-45061142D01*
X113008628Y-45061142D02*
X113008628Y-45442094D01*
X112580057Y-44489713D02*
X112532438Y-44442094D01*
X112532438Y-44442094D02*
X112484819Y-44346856D01*
X112484819Y-44346856D02*
X112484819Y-44108761D01*
X112484819Y-44108761D02*
X112532438Y-44013523D01*
X112532438Y-44013523D02*
X112580057Y-43965904D01*
X112580057Y-43965904D02*
X112675295Y-43918285D01*
X112675295Y-43918285D02*
X112770533Y-43918285D01*
X112770533Y-43918285D02*
X112913390Y-43965904D01*
X112913390Y-43965904D02*
X113484819Y-44537332D01*
X113484819Y-44537332D02*
X113484819Y-43918285D01*
D13*
%TO.C,L1*%
X104100000Y-41900000D02*
X104100000Y-43300000D01*
X98100000Y-41900000D02*
X98100000Y-43300000D01*
%TO.C,D1*%
X110062000Y-42330000D02*
X107362000Y-42330000D01*
X107362000Y-44030000D02*
X110062000Y-44030000D01*
D14*
X111812000Y-43180000D02*
G75*
G03*
X111812000Y-43180000I-100000J0D01*
G01*
D15*
%TO.C,R1*%
X111654000Y-48548936D02*
X111654000Y-50003064D01*
X109834000Y-48548936D02*
X109834000Y-50003064D01*
%TO.C,J2*%
X77145000Y-58080000D02*
X77145000Y-56750000D01*
X78475000Y-58080000D02*
X77145000Y-58080000D01*
X79745000Y-58080000D02*
X82345000Y-58080000D01*
X79745000Y-58080000D02*
X79745000Y-55420000D01*
X82345000Y-58080000D02*
X82345000Y-55420000D01*
X79745000Y-55420000D02*
X82345000Y-55420000D01*
%TO.C,R6*%
X88540000Y-47532936D02*
X88540000Y-48987064D01*
X86720000Y-47532936D02*
X86720000Y-48987064D01*
%TO.C,R7*%
X87260000Y-53422936D02*
X87260000Y-54877064D01*
X85440000Y-53422936D02*
X85440000Y-54877064D01*
%TO.C,C1*%
X99716000Y-53136748D02*
X99716000Y-54559252D01*
X97896000Y-53136748D02*
X97896000Y-54559252D01*
D13*
%TO.C,LED_STRIP_0*%
X129800000Y-44946000D02*
X129800000Y-45546000D01*
X121600000Y-44946000D02*
X129800000Y-44946000D01*
X121600000Y-44946000D02*
X121600000Y-45546000D01*
X129800000Y-45546000D02*
X129800000Y-55546000D01*
X121600000Y-45546000D02*
X129800000Y-45546000D01*
X129800000Y-55546000D02*
X121600000Y-55546000D01*
X121600000Y-55546000D02*
X121600000Y-45546000D01*
D14*
X125800000Y-44196000D02*
G75*
G03*
X125800000Y-44196000I-100000J0D01*
G01*
D15*
%TO.C,J1*%
X96455000Y-61020000D02*
X96455000Y-59690000D01*
X97785000Y-61020000D02*
X96455000Y-61020000D01*
X99055000Y-61020000D02*
X101655000Y-61020000D01*
X99055000Y-61020000D02*
X99055000Y-58360000D01*
X101655000Y-61020000D02*
X101655000Y-58360000D01*
X99055000Y-58360000D02*
X101655000Y-58360000D01*
%TO.C,R4*%
X91151064Y-53488000D02*
X89696936Y-53488000D01*
X91151064Y-51668000D02*
X89696936Y-51668000D01*
%TO.C,R5*%
X107844000Y-55025936D02*
X107844000Y-56480064D01*
X106024000Y-55025936D02*
X106024000Y-56480064D01*
%TO.C,J3*%
X86803000Y-43240000D02*
X86803000Y-41910000D01*
X88133000Y-43240000D02*
X86803000Y-43240000D01*
X89403000Y-43240000D02*
X92003000Y-43240000D01*
X89403000Y-43240000D02*
X89403000Y-40580000D01*
X92003000Y-43240000D02*
X92003000Y-40580000D01*
X89403000Y-40580000D02*
X92003000Y-40580000D01*
%TO.C,C4*%
X107844000Y-48564748D02*
X107844000Y-49987252D01*
X106024000Y-48564748D02*
X106024000Y-49987252D01*
%TO.C,C3*%
X111654000Y-55041748D02*
X111654000Y-56464252D01*
X109834000Y-55041748D02*
X109834000Y-56464252D01*
D14*
%TO.C,IC1*%
X98192000Y-47268000D02*
X99592000Y-47268000D01*
D13*
%TO.C,J4*%
X83400000Y-43000000D02*
X83400000Y-43600000D01*
X75200000Y-43000000D02*
X83400000Y-43000000D01*
X75200000Y-43000000D02*
X75200000Y-43600000D01*
X83400000Y-43600000D02*
X83400000Y-53600000D01*
X75200000Y-43600000D02*
X83400000Y-43600000D01*
X83400000Y-53600000D02*
X75200000Y-53600000D01*
X75200000Y-53600000D02*
X75200000Y-43600000D01*
D14*
X79400000Y-42250000D02*
G75*
G03*
X79400000Y-42250000I-100000J0D01*
G01*
D15*
%TO.C,R3*%
X115718000Y-50326936D02*
X115718000Y-51781064D01*
X113898000Y-50326936D02*
X113898000Y-51781064D01*
%TO.C,D2*%
X95702000Y-52562000D02*
X95702000Y-49877000D01*
X93782000Y-49877000D02*
X93782000Y-52562000D01*
X95702000Y-49877000D02*
X93782000Y-49877000D01*
%TO.C,C5*%
X120010000Y-43992748D02*
X120010000Y-45415252D01*
X118190000Y-43992748D02*
X118190000Y-45415252D01*
%TO.C,C2*%
X94086000Y-47447252D02*
X94086000Y-46024748D01*
X95906000Y-47447252D02*
X95906000Y-46024748D01*
%TO.C,R2*%
X115718000Y-43976936D02*
X115718000Y-45431064D01*
X113898000Y-43976936D02*
X113898000Y-45431064D01*
%TD*%
M02*
