%TF.GenerationSoftware,KiCad,Pcbnew,7.0.9*%
%TF.CreationDate,2023-12-10T23:23:11+01:00*%
%TF.ProjectId,LED Driver,4c454420-4472-4697-9665-722e6b696361,rev?*%
%TF.SameCoordinates,Original*%
%TF.FileFunction,Legend,Bot*%
%TF.FilePolarity,Positive*%
%FSLAX46Y46*%
G04 Gerber Fmt 4.6, Leading zero omitted, Abs format (unit mm)*
G04 Created by KiCad (PCBNEW 7.0.9) date 2023-12-10 23:23:11*
%MOMM*%
%LPD*%
G01*
G04 APERTURE LIST*
%ADD10C,0.150000*%
G04 APERTURE END LIST*
D10*
X124780839Y-39104104D02*
X124304649Y-39104104D01*
X124876077Y-39389819D02*
X124542744Y-38389819D01*
X124542744Y-38389819D02*
X124209411Y-39389819D01*
X123733220Y-38818390D02*
X123828458Y-38770771D01*
X123828458Y-38770771D02*
X123876077Y-38723152D01*
X123876077Y-38723152D02*
X123923696Y-38627914D01*
X123923696Y-38627914D02*
X123923696Y-38580295D01*
X123923696Y-38580295D02*
X123876077Y-38485057D01*
X123876077Y-38485057D02*
X123828458Y-38437438D01*
X123828458Y-38437438D02*
X123733220Y-38389819D01*
X123733220Y-38389819D02*
X123542744Y-38389819D01*
X123542744Y-38389819D02*
X123447506Y-38437438D01*
X123447506Y-38437438D02*
X123399887Y-38485057D01*
X123399887Y-38485057D02*
X123352268Y-38580295D01*
X123352268Y-38580295D02*
X123352268Y-38627914D01*
X123352268Y-38627914D02*
X123399887Y-38723152D01*
X123399887Y-38723152D02*
X123447506Y-38770771D01*
X123447506Y-38770771D02*
X123542744Y-38818390D01*
X123542744Y-38818390D02*
X123733220Y-38818390D01*
X123733220Y-38818390D02*
X123828458Y-38866009D01*
X123828458Y-38866009D02*
X123876077Y-38913628D01*
X123876077Y-38913628D02*
X123923696Y-39008866D01*
X123923696Y-39008866D02*
X123923696Y-39199342D01*
X123923696Y-39199342D02*
X123876077Y-39294580D01*
X123876077Y-39294580D02*
X123828458Y-39342200D01*
X123828458Y-39342200D02*
X123733220Y-39389819D01*
X123733220Y-39389819D02*
X123542744Y-39389819D01*
X123542744Y-39389819D02*
X123447506Y-39342200D01*
X123447506Y-39342200D02*
X123399887Y-39294580D01*
X123399887Y-39294580D02*
X123352268Y-39199342D01*
X123352268Y-39199342D02*
X123352268Y-39008866D01*
X123352268Y-39008866D02*
X123399887Y-38913628D01*
X123399887Y-38913628D02*
X123447506Y-38866009D01*
X123447506Y-38866009D02*
X123542744Y-38818390D01*
X122447506Y-38389819D02*
X122923696Y-38389819D01*
X122923696Y-38389819D02*
X122971315Y-38866009D01*
X122971315Y-38866009D02*
X122923696Y-38818390D01*
X122923696Y-38818390D02*
X122828458Y-38770771D01*
X122828458Y-38770771D02*
X122590363Y-38770771D01*
X122590363Y-38770771D02*
X122495125Y-38818390D01*
X122495125Y-38818390D02*
X122447506Y-38866009D01*
X122447506Y-38866009D02*
X122399887Y-38961247D01*
X122399887Y-38961247D02*
X122399887Y-39199342D01*
X122399887Y-39199342D02*
X122447506Y-39294580D01*
X122447506Y-39294580D02*
X122495125Y-39342200D01*
X122495125Y-39342200D02*
X122590363Y-39389819D01*
X122590363Y-39389819D02*
X122828458Y-39389819D01*
X122828458Y-39389819D02*
X122923696Y-39342200D01*
X122923696Y-39342200D02*
X122971315Y-39294580D01*
X121447506Y-39389819D02*
X122018934Y-39389819D01*
X121733220Y-39389819D02*
X121733220Y-38389819D01*
X121733220Y-38389819D02*
X121828458Y-38532676D01*
X121828458Y-38532676D02*
X121923696Y-38627914D01*
X121923696Y-38627914D02*
X122018934Y-38675533D01*
X121114172Y-38389819D02*
X120495125Y-38389819D01*
X120495125Y-38389819D02*
X120828458Y-38770771D01*
X120828458Y-38770771D02*
X120685601Y-38770771D01*
X120685601Y-38770771D02*
X120590363Y-38818390D01*
X120590363Y-38818390D02*
X120542744Y-38866009D01*
X120542744Y-38866009D02*
X120495125Y-38961247D01*
X120495125Y-38961247D02*
X120495125Y-39199342D01*
X120495125Y-39199342D02*
X120542744Y-39294580D01*
X120542744Y-39294580D02*
X120590363Y-39342200D01*
X120590363Y-39342200D02*
X120685601Y-39389819D01*
X120685601Y-39389819D02*
X120971315Y-39389819D01*
X120971315Y-39389819D02*
X121066553Y-39342200D01*
X121066553Y-39342200D02*
X121114172Y-39294580D01*
X119304648Y-39008866D02*
X118542744Y-39008866D01*
X116828458Y-39389819D02*
X117304648Y-39389819D01*
X117304648Y-39389819D02*
X117304648Y-38389819D01*
X116495124Y-38866009D02*
X116161791Y-38866009D01*
X116018934Y-39389819D02*
X116495124Y-39389819D01*
X116495124Y-39389819D02*
X116495124Y-38389819D01*
X116495124Y-38389819D02*
X116018934Y-38389819D01*
X115590362Y-39389819D02*
X115590362Y-38389819D01*
X115590362Y-38389819D02*
X115352267Y-38389819D01*
X115352267Y-38389819D02*
X115209410Y-38437438D01*
X115209410Y-38437438D02*
X115114172Y-38532676D01*
X115114172Y-38532676D02*
X115066553Y-38627914D01*
X115066553Y-38627914D02*
X115018934Y-38818390D01*
X115018934Y-38818390D02*
X115018934Y-38961247D01*
X115018934Y-38961247D02*
X115066553Y-39151723D01*
X115066553Y-39151723D02*
X115114172Y-39246961D01*
X115114172Y-39246961D02*
X115209410Y-39342200D01*
X115209410Y-39342200D02*
X115352267Y-39389819D01*
X115352267Y-39389819D02*
X115590362Y-39389819D01*
X113828457Y-39389819D02*
X113828457Y-38389819D01*
X113828457Y-38389819D02*
X113590362Y-38389819D01*
X113590362Y-38389819D02*
X113447505Y-38437438D01*
X113447505Y-38437438D02*
X113352267Y-38532676D01*
X113352267Y-38532676D02*
X113304648Y-38627914D01*
X113304648Y-38627914D02*
X113257029Y-38818390D01*
X113257029Y-38818390D02*
X113257029Y-38961247D01*
X113257029Y-38961247D02*
X113304648Y-39151723D01*
X113304648Y-39151723D02*
X113352267Y-39246961D01*
X113352267Y-39246961D02*
X113447505Y-39342200D01*
X113447505Y-39342200D02*
X113590362Y-39389819D01*
X113590362Y-39389819D02*
X113828457Y-39389819D01*
X112257029Y-39389819D02*
X112590362Y-38913628D01*
X112828457Y-39389819D02*
X112828457Y-38389819D01*
X112828457Y-38389819D02*
X112447505Y-38389819D01*
X112447505Y-38389819D02*
X112352267Y-38437438D01*
X112352267Y-38437438D02*
X112304648Y-38485057D01*
X112304648Y-38485057D02*
X112257029Y-38580295D01*
X112257029Y-38580295D02*
X112257029Y-38723152D01*
X112257029Y-38723152D02*
X112304648Y-38818390D01*
X112304648Y-38818390D02*
X112352267Y-38866009D01*
X112352267Y-38866009D02*
X112447505Y-38913628D01*
X112447505Y-38913628D02*
X112828457Y-38913628D01*
X111828457Y-39389819D02*
X111828457Y-38389819D01*
X111495124Y-38389819D02*
X111161791Y-39389819D01*
X111161791Y-39389819D02*
X110828458Y-38389819D01*
X110495124Y-38866009D02*
X110161791Y-38866009D01*
X110018934Y-39389819D02*
X110495124Y-39389819D01*
X110495124Y-39389819D02*
X110495124Y-38389819D01*
X110495124Y-38389819D02*
X110018934Y-38389819D01*
X109018934Y-39389819D02*
X109352267Y-38913628D01*
X109590362Y-39389819D02*
X109590362Y-38389819D01*
X109590362Y-38389819D02*
X109209410Y-38389819D01*
X109209410Y-38389819D02*
X109114172Y-38437438D01*
X109114172Y-38437438D02*
X109066553Y-38485057D01*
X109066553Y-38485057D02*
X109018934Y-38580295D01*
X109018934Y-38580295D02*
X109018934Y-38723152D01*
X109018934Y-38723152D02*
X109066553Y-38818390D01*
X109066553Y-38818390D02*
X109114172Y-38866009D01*
X109114172Y-38866009D02*
X109209410Y-38913628D01*
X109209410Y-38913628D02*
X109590362Y-38913628D01*
X107495124Y-38866009D02*
X107352267Y-38913628D01*
X107352267Y-38913628D02*
X107304648Y-38961247D01*
X107304648Y-38961247D02*
X107257029Y-39056485D01*
X107257029Y-39056485D02*
X107257029Y-39199342D01*
X107257029Y-39199342D02*
X107304648Y-39294580D01*
X107304648Y-39294580D02*
X107352267Y-39342200D01*
X107352267Y-39342200D02*
X107447505Y-39389819D01*
X107447505Y-39389819D02*
X107828457Y-39389819D01*
X107828457Y-39389819D02*
X107828457Y-38389819D01*
X107828457Y-38389819D02*
X107495124Y-38389819D01*
X107495124Y-38389819D02*
X107399886Y-38437438D01*
X107399886Y-38437438D02*
X107352267Y-38485057D01*
X107352267Y-38485057D02*
X107304648Y-38580295D01*
X107304648Y-38580295D02*
X107304648Y-38675533D01*
X107304648Y-38675533D02*
X107352267Y-38770771D01*
X107352267Y-38770771D02*
X107399886Y-38818390D01*
X107399886Y-38818390D02*
X107495124Y-38866009D01*
X107495124Y-38866009D02*
X107828457Y-38866009D01*
X106637981Y-38389819D02*
X106447505Y-38389819D01*
X106447505Y-38389819D02*
X106352267Y-38437438D01*
X106352267Y-38437438D02*
X106257029Y-38532676D01*
X106257029Y-38532676D02*
X106209410Y-38723152D01*
X106209410Y-38723152D02*
X106209410Y-39056485D01*
X106209410Y-39056485D02*
X106257029Y-39246961D01*
X106257029Y-39246961D02*
X106352267Y-39342200D01*
X106352267Y-39342200D02*
X106447505Y-39389819D01*
X106447505Y-39389819D02*
X106637981Y-39389819D01*
X106637981Y-39389819D02*
X106733219Y-39342200D01*
X106733219Y-39342200D02*
X106828457Y-39246961D01*
X106828457Y-39246961D02*
X106876076Y-39056485D01*
X106876076Y-39056485D02*
X106876076Y-38723152D01*
X106876076Y-38723152D02*
X106828457Y-38532676D01*
X106828457Y-38532676D02*
X106733219Y-38437438D01*
X106733219Y-38437438D02*
X106637981Y-38389819D01*
X105828457Y-39104104D02*
X105352267Y-39104104D01*
X105923695Y-39389819D02*
X105590362Y-38389819D01*
X105590362Y-38389819D02*
X105257029Y-39389819D01*
X104352267Y-39389819D02*
X104685600Y-38913628D01*
X104923695Y-39389819D02*
X104923695Y-38389819D01*
X104923695Y-38389819D02*
X104542743Y-38389819D01*
X104542743Y-38389819D02*
X104447505Y-38437438D01*
X104447505Y-38437438D02*
X104399886Y-38485057D01*
X104399886Y-38485057D02*
X104352267Y-38580295D01*
X104352267Y-38580295D02*
X104352267Y-38723152D01*
X104352267Y-38723152D02*
X104399886Y-38818390D01*
X104399886Y-38818390D02*
X104447505Y-38866009D01*
X104447505Y-38866009D02*
X104542743Y-38913628D01*
X104542743Y-38913628D02*
X104923695Y-38913628D01*
X103923695Y-39389819D02*
X103923695Y-38389819D01*
X103923695Y-38389819D02*
X103685600Y-38389819D01*
X103685600Y-38389819D02*
X103542743Y-38437438D01*
X103542743Y-38437438D02*
X103447505Y-38532676D01*
X103447505Y-38532676D02*
X103399886Y-38627914D01*
X103399886Y-38627914D02*
X103352267Y-38818390D01*
X103352267Y-38818390D02*
X103352267Y-38961247D01*
X103352267Y-38961247D02*
X103399886Y-39151723D01*
X103399886Y-39151723D02*
X103447505Y-39246961D01*
X103447505Y-39246961D02*
X103542743Y-39342200D01*
X103542743Y-39342200D02*
X103685600Y-39389819D01*
X103685600Y-39389819D02*
X103923695Y-39389819D01*
X102161790Y-39008866D02*
X101399886Y-39008866D01*
X100161790Y-39389819D02*
X100161790Y-38389819D01*
X100161790Y-38389819D02*
X99923695Y-38389819D01*
X99923695Y-38389819D02*
X99780838Y-38437438D01*
X99780838Y-38437438D02*
X99685600Y-38532676D01*
X99685600Y-38532676D02*
X99637981Y-38627914D01*
X99637981Y-38627914D02*
X99590362Y-38818390D01*
X99590362Y-38818390D02*
X99590362Y-38961247D01*
X99590362Y-38961247D02*
X99637981Y-39151723D01*
X99637981Y-39151723D02*
X99685600Y-39246961D01*
X99685600Y-39246961D02*
X99780838Y-39342200D01*
X99780838Y-39342200D02*
X99923695Y-39389819D01*
X99923695Y-39389819D02*
X100161790Y-39389819D01*
X98733219Y-39389819D02*
X98733219Y-38866009D01*
X98733219Y-38866009D02*
X98780838Y-38770771D01*
X98780838Y-38770771D02*
X98876076Y-38723152D01*
X98876076Y-38723152D02*
X99066552Y-38723152D01*
X99066552Y-38723152D02*
X99161790Y-38770771D01*
X98733219Y-39342200D02*
X98828457Y-39389819D01*
X98828457Y-39389819D02*
X99066552Y-39389819D01*
X99066552Y-39389819D02*
X99161790Y-39342200D01*
X99161790Y-39342200D02*
X99209409Y-39246961D01*
X99209409Y-39246961D02*
X99209409Y-39151723D01*
X99209409Y-39151723D02*
X99161790Y-39056485D01*
X99161790Y-39056485D02*
X99066552Y-39008866D01*
X99066552Y-39008866D02*
X98828457Y-39008866D01*
X98828457Y-39008866D02*
X98733219Y-38961247D01*
X98257028Y-39389819D02*
X98257028Y-38723152D01*
X98257028Y-38913628D02*
X98209409Y-38818390D01*
X98209409Y-38818390D02*
X98161790Y-38770771D01*
X98161790Y-38770771D02*
X98066552Y-38723152D01*
X98066552Y-38723152D02*
X97971314Y-38723152D01*
X97637980Y-39389819D02*
X97637980Y-38723152D01*
X97637980Y-38389819D02*
X97685599Y-38437438D01*
X97685599Y-38437438D02*
X97637980Y-38485057D01*
X97637980Y-38485057D02*
X97590361Y-38437438D01*
X97590361Y-38437438D02*
X97637980Y-38389819D01*
X97637980Y-38389819D02*
X97637980Y-38485057D01*
X96733219Y-38723152D02*
X96733219Y-39389819D01*
X97161790Y-38723152D02*
X97161790Y-39246961D01*
X97161790Y-39246961D02*
X97114171Y-39342200D01*
X97114171Y-39342200D02*
X97018933Y-39389819D01*
X97018933Y-39389819D02*
X96876076Y-39389819D01*
X96876076Y-39389819D02*
X96780838Y-39342200D01*
X96780838Y-39342200D02*
X96733219Y-39294580D01*
X96304647Y-39342200D02*
X96209409Y-39389819D01*
X96209409Y-39389819D02*
X96018933Y-39389819D01*
X96018933Y-39389819D02*
X95923695Y-39342200D01*
X95923695Y-39342200D02*
X95876076Y-39246961D01*
X95876076Y-39246961D02*
X95876076Y-39199342D01*
X95876076Y-39199342D02*
X95923695Y-39104104D01*
X95923695Y-39104104D02*
X96018933Y-39056485D01*
X96018933Y-39056485D02*
X96161790Y-39056485D01*
X96161790Y-39056485D02*
X96257028Y-39008866D01*
X96257028Y-39008866D02*
X96304647Y-38913628D01*
X96304647Y-38913628D02*
X96304647Y-38866009D01*
X96304647Y-38866009D02*
X96257028Y-38770771D01*
X96257028Y-38770771D02*
X96161790Y-38723152D01*
X96161790Y-38723152D02*
X96018933Y-38723152D01*
X96018933Y-38723152D02*
X95923695Y-38770771D01*
X95542742Y-38723152D02*
X95018933Y-38723152D01*
X95018933Y-38723152D02*
X95542742Y-39389819D01*
X95542742Y-39389819D02*
X95018933Y-39389819D01*
X93876075Y-39389819D02*
X93876075Y-38389819D01*
X93304647Y-39389819D02*
X93733218Y-38818390D01*
X93304647Y-38389819D02*
X93876075Y-38961247D01*
X92876075Y-39389819D02*
X92876075Y-38723152D01*
X92876075Y-38913628D02*
X92828456Y-38818390D01*
X92828456Y-38818390D02*
X92780837Y-38770771D01*
X92780837Y-38770771D02*
X92685599Y-38723152D01*
X92685599Y-38723152D02*
X92590361Y-38723152D01*
X91828456Y-39389819D02*
X91828456Y-38866009D01*
X91828456Y-38866009D02*
X91876075Y-38770771D01*
X91876075Y-38770771D02*
X91971313Y-38723152D01*
X91971313Y-38723152D02*
X92161789Y-38723152D01*
X92161789Y-38723152D02*
X92257027Y-38770771D01*
X91828456Y-39342200D02*
X91923694Y-39389819D01*
X91923694Y-39389819D02*
X92161789Y-39389819D01*
X92161789Y-39389819D02*
X92257027Y-39342200D01*
X92257027Y-39342200D02*
X92304646Y-39246961D01*
X92304646Y-39246961D02*
X92304646Y-39151723D01*
X92304646Y-39151723D02*
X92257027Y-39056485D01*
X92257027Y-39056485D02*
X92161789Y-39008866D01*
X92161789Y-39008866D02*
X91923694Y-39008866D01*
X91923694Y-39008866D02*
X91828456Y-38961247D01*
X91447503Y-38723152D02*
X91257027Y-39389819D01*
X91257027Y-39389819D02*
X91066551Y-38913628D01*
X91066551Y-38913628D02*
X90876075Y-39389819D01*
X90876075Y-39389819D02*
X90685599Y-38723152D01*
X89876075Y-39342200D02*
X89971313Y-39389819D01*
X89971313Y-39389819D02*
X90161789Y-39389819D01*
X90161789Y-39389819D02*
X90257027Y-39342200D01*
X90257027Y-39342200D02*
X90304646Y-39294580D01*
X90304646Y-39294580D02*
X90352265Y-39199342D01*
X90352265Y-39199342D02*
X90352265Y-38913628D01*
X90352265Y-38913628D02*
X90304646Y-38818390D01*
X90304646Y-38818390D02*
X90257027Y-38770771D01*
X90257027Y-38770771D02*
X90161789Y-38723152D01*
X90161789Y-38723152D02*
X89971313Y-38723152D01*
X89971313Y-38723152D02*
X89876075Y-38770771D01*
X89542741Y-38723152D02*
X89018932Y-38723152D01*
X89018932Y-38723152D02*
X89542741Y-39389819D01*
X89542741Y-39389819D02*
X89018932Y-39389819D01*
X88733217Y-38723152D02*
X88495122Y-39389819D01*
X88257027Y-38723152D02*
X88495122Y-39389819D01*
X88495122Y-39389819D02*
X88590360Y-39627914D01*
X88590360Y-39627914D02*
X88637979Y-39675533D01*
X88637979Y-39675533D02*
X88733217Y-39723152D01*
X87876074Y-39389819D02*
X87876074Y-38389819D01*
X87780836Y-39008866D02*
X87495122Y-39389819D01*
X87495122Y-38723152D02*
X87876074Y-39104104D01*
X86304645Y-39008866D02*
X85542741Y-39008866D01*
X83780836Y-39389819D02*
X84352264Y-39389819D01*
X84066550Y-39389819D02*
X84066550Y-38389819D01*
X84066550Y-38389819D02*
X84161788Y-38532676D01*
X84161788Y-38532676D02*
X84257026Y-38627914D01*
X84257026Y-38627914D02*
X84352264Y-38675533D01*
X83399883Y-38485057D02*
X83352264Y-38437438D01*
X83352264Y-38437438D02*
X83257026Y-38389819D01*
X83257026Y-38389819D02*
X83018931Y-38389819D01*
X83018931Y-38389819D02*
X82923693Y-38437438D01*
X82923693Y-38437438D02*
X82876074Y-38485057D01*
X82876074Y-38485057D02*
X82828455Y-38580295D01*
X82828455Y-38580295D02*
X82828455Y-38675533D01*
X82828455Y-38675533D02*
X82876074Y-38818390D01*
X82876074Y-38818390D02*
X83447502Y-39389819D01*
X83447502Y-39389819D02*
X82828455Y-39389819D01*
X82399883Y-39294580D02*
X82352264Y-39342200D01*
X82352264Y-39342200D02*
X82399883Y-39389819D01*
X82399883Y-39389819D02*
X82447502Y-39342200D01*
X82447502Y-39342200D02*
X82399883Y-39294580D01*
X82399883Y-39294580D02*
X82399883Y-39389819D01*
X81971312Y-38485057D02*
X81923693Y-38437438D01*
X81923693Y-38437438D02*
X81828455Y-38389819D01*
X81828455Y-38389819D02*
X81590360Y-38389819D01*
X81590360Y-38389819D02*
X81495122Y-38437438D01*
X81495122Y-38437438D02*
X81447503Y-38485057D01*
X81447503Y-38485057D02*
X81399884Y-38580295D01*
X81399884Y-38580295D02*
X81399884Y-38675533D01*
X81399884Y-38675533D02*
X81447503Y-38818390D01*
X81447503Y-38818390D02*
X82018931Y-39389819D01*
X82018931Y-39389819D02*
X81399884Y-39389819D01*
X80780836Y-38389819D02*
X80685598Y-38389819D01*
X80685598Y-38389819D02*
X80590360Y-38437438D01*
X80590360Y-38437438D02*
X80542741Y-38485057D01*
X80542741Y-38485057D02*
X80495122Y-38580295D01*
X80495122Y-38580295D02*
X80447503Y-38770771D01*
X80447503Y-38770771D02*
X80447503Y-39008866D01*
X80447503Y-39008866D02*
X80495122Y-39199342D01*
X80495122Y-39199342D02*
X80542741Y-39294580D01*
X80542741Y-39294580D02*
X80590360Y-39342200D01*
X80590360Y-39342200D02*
X80685598Y-39389819D01*
X80685598Y-39389819D02*
X80780836Y-39389819D01*
X80780836Y-39389819D02*
X80876074Y-39342200D01*
X80876074Y-39342200D02*
X80923693Y-39294580D01*
X80923693Y-39294580D02*
X80971312Y-39199342D01*
X80971312Y-39199342D02*
X81018931Y-39008866D01*
X81018931Y-39008866D02*
X81018931Y-38770771D01*
X81018931Y-38770771D02*
X80971312Y-38580295D01*
X80971312Y-38580295D02*
X80923693Y-38485057D01*
X80923693Y-38485057D02*
X80876074Y-38437438D01*
X80876074Y-38437438D02*
X80780836Y-38389819D01*
X80066550Y-38485057D02*
X80018931Y-38437438D01*
X80018931Y-38437438D02*
X79923693Y-38389819D01*
X79923693Y-38389819D02*
X79685598Y-38389819D01*
X79685598Y-38389819D02*
X79590360Y-38437438D01*
X79590360Y-38437438D02*
X79542741Y-38485057D01*
X79542741Y-38485057D02*
X79495122Y-38580295D01*
X79495122Y-38580295D02*
X79495122Y-38675533D01*
X79495122Y-38675533D02*
X79542741Y-38818390D01*
X79542741Y-38818390D02*
X80114169Y-39389819D01*
X80114169Y-39389819D02*
X79495122Y-39389819D01*
X79161788Y-38389819D02*
X78542741Y-38389819D01*
X78542741Y-38389819D02*
X78876074Y-38770771D01*
X78876074Y-38770771D02*
X78733217Y-38770771D01*
X78733217Y-38770771D02*
X78637979Y-38818390D01*
X78637979Y-38818390D02*
X78590360Y-38866009D01*
X78590360Y-38866009D02*
X78542741Y-38961247D01*
X78542741Y-38961247D02*
X78542741Y-39199342D01*
X78542741Y-39199342D02*
X78590360Y-39294580D01*
X78590360Y-39294580D02*
X78637979Y-39342200D01*
X78637979Y-39342200D02*
X78733217Y-39389819D01*
X78733217Y-39389819D02*
X79018931Y-39389819D01*
X79018931Y-39389819D02*
X79114169Y-39342200D01*
X79114169Y-39342200D02*
X79161788Y-39294580D01*
M02*
