%TF.GenerationSoftware,KiCad,Pcbnew,7.0.9*%
%TF.CreationDate,2023-12-10T21:52:56+01:00*%
%TF.ProjectId,Led Panel,4c656420-5061-46e6-956c-2e6b69636164,rev?*%
%TF.SameCoordinates,Original*%
%TF.FileFunction,Copper,L1,Top*%
%TF.FilePolarity,Positive*%
%FSLAX46Y46*%
G04 Gerber Fmt 4.6, Leading zero omitted, Abs format (unit mm)*
G04 Created by KiCad (PCBNEW 7.0.9) date 2023-12-10 21:52:56*
%MOMM*%
%LPD*%
G01*
G04 APERTURE LIST*
%TA.AperFunction,SMDPad,CuDef*%
%ADD10R,2.100000X2.100000*%
%TD*%
%TA.AperFunction,SMDPad,CuDef*%
%ADD11R,1.000000X2.100000*%
%TD*%
%TA.AperFunction,ComponentPad*%
%ADD12R,1.800000X1.800000*%
%TD*%
%TA.AperFunction,ComponentPad*%
%ADD13C,1.800000*%
%TD*%
%TA.AperFunction,ViaPad*%
%ADD14C,0.800000*%
%TD*%
%TA.AperFunction,Conductor*%
%ADD15C,0.700000*%
%TD*%
G04 APERTURE END LIST*
D10*
%TO.P,LED48,1,A*%
%TO.N,Net-(LED47-K)*%
X179200000Y-106700000D03*
D11*
%TO.P,LED48,2,K*%
%TO.N,LED_5 -*%
X181150000Y-106700000D03*
%TD*%
D10*
%TO.P,LED47,1,A*%
%TO.N,Net-(LED46-K)*%
X163100000Y-106700000D03*
D11*
%TO.P,LED47,2,K*%
%TO.N,Net-(LED47-K)*%
X165050000Y-106700000D03*
%TD*%
D10*
%TO.P,LED46,1,A*%
%TO.N,Net-(LED45-K)*%
X147000000Y-106700000D03*
D11*
%TO.P,LED46,2,K*%
%TO.N,Net-(LED46-K)*%
X148950000Y-106700000D03*
%TD*%
D10*
%TO.P,LED45,1,A*%
%TO.N,Net-(LED44-K)*%
X130950000Y-106700000D03*
D11*
%TO.P,LED45,2,K*%
%TO.N,Net-(LED45-K)*%
X132900000Y-106700000D03*
%TD*%
D10*
%TO.P,LED44,1,A*%
%TO.N,Net-(LED43-K)*%
X114975000Y-106700000D03*
D11*
%TO.P,LED44,2,K*%
%TO.N,Net-(LED44-K)*%
X116925000Y-106700000D03*
%TD*%
D10*
%TO.P,LED43,1,A*%
%TO.N,Net-(LED42-K)*%
X98900000Y-106700000D03*
D11*
%TO.P,LED43,2,K*%
%TO.N,Net-(LED43-K)*%
X100850000Y-106700000D03*
%TD*%
D10*
%TO.P,LED42,1,A*%
%TO.N,Net-(LED41-K)*%
X82875000Y-106700000D03*
D11*
%TO.P,LED42,2,K*%
%TO.N,Net-(LED42-K)*%
X84825000Y-106700000D03*
%TD*%
D10*
%TO.P,LED41,1,A*%
%TO.N,LED_5 +*%
X66775000Y-106680000D03*
D11*
%TO.P,LED41,2,K*%
%TO.N,Net-(LED41-K)*%
X68725000Y-106680000D03*
%TD*%
D10*
%TO.P,LED40,1,A*%
%TO.N,Net-(LED39-K)*%
X179150000Y-91400000D03*
D11*
%TO.P,LED40,2,K*%
%TO.N,LED_4 -*%
X181100000Y-91400000D03*
%TD*%
D10*
%TO.P,LED39,1,A*%
%TO.N,Net-(LED38-K)*%
X163100000Y-91400000D03*
D11*
%TO.P,LED39,2,K*%
%TO.N,Net-(LED39-K)*%
X165050000Y-91400000D03*
%TD*%
D10*
%TO.P,LED38,1,A*%
%TO.N,Net-(LED37-K)*%
X147075000Y-91400000D03*
D11*
%TO.P,LED38,2,K*%
%TO.N,Net-(LED38-K)*%
X149025000Y-91400000D03*
%TD*%
D10*
%TO.P,LED37,1,A*%
%TO.N,Net-(LED36-K)*%
X130975000Y-91400000D03*
D11*
%TO.P,LED37,2,K*%
%TO.N,Net-(LED37-K)*%
X132925000Y-91400000D03*
%TD*%
D10*
%TO.P,LED36,1,A*%
%TO.N,Net-(LED35-K)*%
X114975000Y-91400000D03*
D11*
%TO.P,LED36,2,K*%
%TO.N,Net-(LED36-K)*%
X116925000Y-91400000D03*
%TD*%
D10*
%TO.P,LED35,1,A*%
%TO.N,Net-(LED34-K)*%
X98875000Y-91400000D03*
D11*
%TO.P,LED35,2,K*%
%TO.N,Net-(LED35-K)*%
X100825000Y-91400000D03*
%TD*%
D10*
%TO.P,LED34,1,A*%
%TO.N,Net-(LED33-K)*%
X82850000Y-91400000D03*
D11*
%TO.P,LED34,2,K*%
%TO.N,Net-(LED34-K)*%
X84800000Y-91400000D03*
%TD*%
D10*
%TO.P,LED33,1,A*%
%TO.N,LED_4 +*%
X66775000Y-91440000D03*
D11*
%TO.P,LED33,2,K*%
%TO.N,Net-(LED33-K)*%
X68725000Y-91440000D03*
%TD*%
D10*
%TO.P,LED32,1,A*%
%TO.N,Net-(LED31-K)*%
X179175000Y-76200000D03*
D11*
%TO.P,LED32,2,K*%
%TO.N,LED_3 -*%
X181125000Y-76200000D03*
%TD*%
D10*
%TO.P,LED31,1,A*%
%TO.N,Net-(LED30-K)*%
X163075000Y-76200000D03*
D11*
%TO.P,LED31,2,K*%
%TO.N,Net-(LED31-K)*%
X165025000Y-76200000D03*
%TD*%
D10*
%TO.P,LED30,1,A*%
%TO.N,Net-(LED29-K)*%
X147075000Y-76200000D03*
D11*
%TO.P,LED30,2,K*%
%TO.N,Net-(LED30-K)*%
X149025000Y-76200000D03*
%TD*%
D10*
%TO.P,LED29,1,A*%
%TO.N,Net-(LED28-K)*%
X130975000Y-76200000D03*
D11*
%TO.P,LED29,2,K*%
%TO.N,Net-(LED29-K)*%
X132925000Y-76200000D03*
%TD*%
D10*
%TO.P,LED28,1,A*%
%TO.N,Net-(LED27-K)*%
X114975000Y-76200000D03*
D11*
%TO.P,LED28,2,K*%
%TO.N,Net-(LED28-K)*%
X116925000Y-76200000D03*
%TD*%
D10*
%TO.P,LED27,1,A*%
%TO.N,Net-(LED26-K)*%
X98875000Y-76200000D03*
D11*
%TO.P,LED27,2,K*%
%TO.N,Net-(LED27-K)*%
X100825000Y-76200000D03*
%TD*%
D10*
%TO.P,LED26,1,A*%
%TO.N,Net-(LED25-K)*%
X82875000Y-76200000D03*
D11*
%TO.P,LED26,2,K*%
%TO.N,Net-(LED26-K)*%
X84825000Y-76200000D03*
%TD*%
D10*
%TO.P,LED25,1,A*%
%TO.N,LED_3 +*%
X66775000Y-76200000D03*
D11*
%TO.P,LED25,2,K*%
%TO.N,Net-(LED25-K)*%
X68725000Y-76200000D03*
%TD*%
D10*
%TO.P,LED24,1,A*%
%TO.N,Net-(LED23-K)*%
X179200000Y-61000000D03*
D11*
%TO.P,LED24,2,K*%
%TO.N,LED_2 -*%
X181150000Y-61000000D03*
%TD*%
D10*
%TO.P,LED23,1,A*%
%TO.N,Net-(LED22-K)*%
X163075000Y-61000000D03*
D11*
%TO.P,LED23,2,K*%
%TO.N,Net-(LED23-K)*%
X165025000Y-61000000D03*
%TD*%
D10*
%TO.P,LED22,1,A*%
%TO.N,Net-(LED21-K)*%
X147100000Y-61000000D03*
D11*
%TO.P,LED22,2,K*%
%TO.N,Net-(LED22-K)*%
X149050000Y-61000000D03*
%TD*%
D10*
%TO.P,LED21,1,A*%
%TO.N,Net-(LED20-K)*%
X131000000Y-61000000D03*
D11*
%TO.P,LED21,2,K*%
%TO.N,Net-(LED21-K)*%
X132950000Y-61000000D03*
%TD*%
D10*
%TO.P,LED20,1,A*%
%TO.N,Net-(LED19-K)*%
X114975000Y-61000000D03*
D11*
%TO.P,LED20,2,K*%
%TO.N,Net-(LED20-K)*%
X116925000Y-61000000D03*
%TD*%
D10*
%TO.P,LED19,1,A*%
%TO.N,Net-(LED18-K)*%
X98875000Y-61000000D03*
D11*
%TO.P,LED19,2,K*%
%TO.N,Net-(LED19-K)*%
X100825000Y-61000000D03*
%TD*%
D10*
%TO.P,LED18,1,A*%
%TO.N,Net-(LED17-K)*%
X82875000Y-61000000D03*
D11*
%TO.P,LED18,2,K*%
%TO.N,Net-(LED18-K)*%
X84825000Y-61000000D03*
%TD*%
D10*
%TO.P,LED17,1,A*%
%TO.N,LED_2 +*%
X66775000Y-61000000D03*
D11*
%TO.P,LED17,2,K*%
%TO.N,Net-(LED17-K)*%
X68725000Y-61000000D03*
%TD*%
D10*
%TO.P,LED16,1,A*%
%TO.N,Net-(LED15-K)*%
X179200000Y-45700000D03*
D11*
%TO.P,LED16,2,K*%
%TO.N,LED_1 -*%
X181150000Y-45700000D03*
%TD*%
D10*
%TO.P,LED15,1,A*%
%TO.N,Net-(LED14-K)*%
X163100000Y-45700000D03*
D11*
%TO.P,LED15,2,K*%
%TO.N,Net-(LED15-K)*%
X165050000Y-45700000D03*
%TD*%
D10*
%TO.P,LED14,1,A*%
%TO.N,Net-(LED13-K)*%
X147075000Y-45700000D03*
D11*
%TO.P,LED14,2,K*%
%TO.N,Net-(LED14-K)*%
X149025000Y-45700000D03*
%TD*%
D10*
%TO.P,LED13,1,A*%
%TO.N,Net-(LED12-K)*%
X130975000Y-45720000D03*
D11*
%TO.P,LED13,2,K*%
%TO.N,Net-(LED13-K)*%
X132925000Y-45720000D03*
%TD*%
D10*
%TO.P,LED12,1,A*%
%TO.N,Net-(LED11-K)*%
X115000000Y-45720000D03*
D11*
%TO.P,LED12,2,K*%
%TO.N,Net-(LED12-K)*%
X116950000Y-45720000D03*
%TD*%
D10*
%TO.P,LED11,1,A*%
%TO.N,Net-(LED10-K)*%
X98900000Y-45700000D03*
D11*
%TO.P,LED11,2,K*%
%TO.N,Net-(LED11-K)*%
X100850000Y-45700000D03*
%TD*%
D10*
%TO.P,LED10,1,A*%
%TO.N,Net-(LED10-A)*%
X82875000Y-45700000D03*
D11*
%TO.P,LED10,2,K*%
%TO.N,Net-(LED10-K)*%
X84825000Y-45700000D03*
%TD*%
D10*
%TO.P,LED9,1,A*%
%TO.N,LED_1 +*%
X66800000Y-45700000D03*
D11*
%TO.P,LED9,2,K*%
%TO.N,Net-(LED10-A)*%
X68750000Y-45700000D03*
%TD*%
D10*
%TO.P,LED7,1,A*%
%TO.N,Net-(LED6-K)*%
X163100000Y-30000000D03*
D11*
%TO.P,LED7,2,K*%
%TO.N,Net-(LED7-K)*%
X165050000Y-30000000D03*
%TD*%
D10*
%TO.P,LED6,1,A*%
%TO.N,Net-(LED5-K)*%
X147050000Y-30000000D03*
D11*
%TO.P,LED6,2,K*%
%TO.N,Net-(LED6-K)*%
X149000000Y-30000000D03*
%TD*%
D10*
%TO.P,LED5,1,A*%
%TO.N,Net-(LED4-K)*%
X131000000Y-30000000D03*
D11*
%TO.P,LED5,2,K*%
%TO.N,Net-(LED5-K)*%
X132950000Y-30000000D03*
%TD*%
D10*
%TO.P,LED4,1,A*%
%TO.N,Net-(LED3-K)*%
X114950000Y-30000000D03*
D11*
%TO.P,LED4,2,K*%
%TO.N,Net-(LED4-K)*%
X116900000Y-30000000D03*
%TD*%
D10*
%TO.P,LED3,1,A*%
%TO.N,Net-(LED2-K)*%
X98900000Y-30000000D03*
D11*
%TO.P,LED3,2,K*%
%TO.N,Net-(LED3-K)*%
X100850000Y-30000000D03*
%TD*%
D10*
%TO.P,LED2,1,A*%
%TO.N,Net-(LED1-K)*%
X82850000Y-30000000D03*
D11*
%TO.P,LED2,2,K*%
%TO.N,Net-(LED2-K)*%
X84800000Y-30000000D03*
%TD*%
D10*
%TO.P,LED8,1,A*%
%TO.N,Net-(LED7-K)*%
X179150000Y-30000000D03*
D11*
%TO.P,LED8,2,K*%
%TO.N,LED_0 -*%
X181100000Y-30000000D03*
%TD*%
D12*
%TO.P,J6,1,1*%
%TO.N,LED_5 +*%
X53340000Y-106680000D03*
D13*
%TO.P,J6,2,2*%
%TO.N,LED_5 -*%
X53340000Y-111680000D03*
%TD*%
D12*
%TO.P,J5,1,1*%
%TO.N,LED_4 +*%
X53340000Y-91440000D03*
D13*
%TO.P,J5,2,2*%
%TO.N,LED_4 -*%
X53340000Y-96440000D03*
%TD*%
D12*
%TO.P,J4,1,1*%
%TO.N,LED_3 +*%
X53340000Y-76200000D03*
D13*
%TO.P,J4,2,2*%
%TO.N,LED_3 -*%
X53340000Y-81200000D03*
%TD*%
D12*
%TO.P,J3,1,1*%
%TO.N,LED_2 +*%
X53340000Y-61040000D03*
D13*
%TO.P,J3,2,2*%
%TO.N,LED_2 -*%
X53340000Y-66040000D03*
%TD*%
D12*
%TO.P,J2,1,1*%
%TO.N,LED_1 +*%
X53300000Y-45720000D03*
D13*
%TO.P,J2,2,2*%
%TO.N,LED_1 -*%
X53300000Y-50720000D03*
%TD*%
D12*
%TO.P,J1,1,1*%
%TO.N,LED_0 +*%
X53300000Y-30000000D03*
D13*
%TO.P,J1,2,2*%
%TO.N,LED_0 -*%
X53300000Y-35000000D03*
%TD*%
D10*
%TO.P,LED1,1,A*%
%TO.N,LED_0 +*%
X66800000Y-30000000D03*
D11*
%TO.P,LED1,2,K*%
%TO.N,Net-(LED1-K)*%
X68750000Y-30000000D03*
%TD*%
D14*
%TO.N,LED_0 -*%
X185448000Y-30000000D03*
%TO.N,LED_1 -*%
X185420000Y-45700000D03*
%TO.N,LED_2 -*%
X185206000Y-61000000D03*
%TO.N,LED_3 -*%
X185166000Y-76200000D03*
%TO.N,LED_4 -*%
X185420000Y-91440000D03*
%TO.N,LED_5 -*%
X185420000Y-106680000D03*
%TD*%
D15*
%TO.N,LED_0 +*%
X53300000Y-30000000D02*
X66800000Y-30000000D01*
%TO.N,LED_0 -*%
X185448000Y-30000000D02*
X181100000Y-30000000D01*
%TO.N,Net-(LED1-K)*%
X68750000Y-30000000D02*
X82850000Y-30000000D01*
%TO.N,Net-(LED2-K)*%
X84800000Y-30000000D02*
X98900000Y-30000000D01*
%TO.N,Net-(LED3-K)*%
X100850000Y-30000000D02*
X114950000Y-30000000D01*
%TO.N,Net-(LED4-K)*%
X116900000Y-30000000D02*
X131000000Y-30000000D01*
%TO.N,Net-(LED5-K)*%
X132950000Y-30000000D02*
X147050000Y-30000000D01*
%TO.N,Net-(LED6-K)*%
X149000000Y-30000000D02*
X163100000Y-30000000D01*
%TO.N,Net-(LED7-K)*%
X165050000Y-30000000D02*
X179150000Y-30000000D01*
%TO.N,LED_1 +*%
X66780000Y-45720000D02*
X66800000Y-45700000D01*
X53300000Y-45720000D02*
X66780000Y-45720000D01*
%TO.N,LED_1 -*%
X185420000Y-45700000D02*
X181150000Y-45700000D01*
%TO.N,LED_2 +*%
X66735000Y-61040000D02*
X66775000Y-61000000D01*
X53340000Y-61040000D02*
X66735000Y-61040000D01*
%TO.N,LED_2 -*%
X185206000Y-61000000D02*
X181150000Y-61000000D01*
%TO.N,LED_3 +*%
X53340000Y-76200000D02*
X66775000Y-76200000D01*
%TO.N,LED_3 -*%
X185166000Y-76200000D02*
X181125000Y-76200000D01*
%TO.N,LED_4 +*%
X53340000Y-91440000D02*
X66775000Y-91440000D01*
%TO.N,LED_4 -*%
X185420000Y-91440000D02*
X185380000Y-91400000D01*
X185380000Y-91400000D02*
X181100000Y-91400000D01*
%TO.N,LED_5 +*%
X53340000Y-106680000D02*
X66775000Y-106680000D01*
%TO.N,LED_5 -*%
X185420000Y-106680000D02*
X185400000Y-106700000D01*
X185400000Y-106700000D02*
X181150000Y-106700000D01*
%TO.N,Net-(LED10-A)*%
X68750000Y-45700000D02*
X82875000Y-45700000D01*
%TO.N,Net-(LED10-K)*%
X84825000Y-45700000D02*
X98900000Y-45700000D01*
%TO.N,Net-(LED11-K)*%
X114980000Y-45700000D02*
X115000000Y-45720000D01*
X100850000Y-45700000D02*
X114980000Y-45700000D01*
%TO.N,Net-(LED12-K)*%
X116950000Y-45720000D02*
X130975000Y-45720000D01*
%TO.N,Net-(LED13-K)*%
X147055000Y-45720000D02*
X147075000Y-45700000D01*
X132925000Y-45720000D02*
X147055000Y-45720000D01*
%TO.N,Net-(LED14-K)*%
X149025000Y-45700000D02*
X163100000Y-45700000D01*
%TO.N,Net-(LED15-K)*%
X165050000Y-45700000D02*
X179200000Y-45700000D01*
%TO.N,Net-(LED17-K)*%
X68725000Y-61000000D02*
X82875000Y-61000000D01*
%TO.N,Net-(LED18-K)*%
X84825000Y-61000000D02*
X98875000Y-61000000D01*
%TO.N,Net-(LED19-K)*%
X100825000Y-61000000D02*
X114975000Y-61000000D01*
%TO.N,Net-(LED20-K)*%
X116925000Y-61000000D02*
X131000000Y-61000000D01*
%TO.N,Net-(LED21-K)*%
X132950000Y-61000000D02*
X147100000Y-61000000D01*
%TO.N,Net-(LED22-K)*%
X149050000Y-61000000D02*
X163075000Y-61000000D01*
%TO.N,Net-(LED23-K)*%
X165025000Y-61000000D02*
X179200000Y-61000000D01*
%TO.N,Net-(LED25-K)*%
X68725000Y-76200000D02*
X82875000Y-76200000D01*
%TO.N,Net-(LED26-K)*%
X84825000Y-76200000D02*
X98875000Y-76200000D01*
%TO.N,Net-(LED27-K)*%
X100825000Y-76200000D02*
X114975000Y-76200000D01*
%TO.N,Net-(LED28-K)*%
X116925000Y-76200000D02*
X130975000Y-76200000D01*
%TO.N,Net-(LED29-K)*%
X132925000Y-76200000D02*
X147075000Y-76200000D01*
%TO.N,Net-(LED30-K)*%
X149025000Y-76200000D02*
X163075000Y-76200000D01*
%TO.N,Net-(LED31-K)*%
X165025000Y-76200000D02*
X179175000Y-76200000D01*
%TO.N,Net-(LED33-K)*%
X82810000Y-91440000D02*
X82850000Y-91400000D01*
X68725000Y-91440000D02*
X82810000Y-91440000D01*
%TO.N,Net-(LED34-K)*%
X84800000Y-91400000D02*
X98875000Y-91400000D01*
%TO.N,Net-(LED35-K)*%
X100825000Y-91400000D02*
X114975000Y-91400000D01*
%TO.N,Net-(LED36-K)*%
X116925000Y-91400000D02*
X130975000Y-91400000D01*
%TO.N,Net-(LED37-K)*%
X132925000Y-91400000D02*
X147075000Y-91400000D01*
%TO.N,Net-(LED38-K)*%
X149025000Y-91400000D02*
X163100000Y-91400000D01*
%TO.N,Net-(LED39-K)*%
X165050000Y-91400000D02*
X179150000Y-91400000D01*
%TO.N,Net-(LED41-K)*%
X68725000Y-106680000D02*
X82155000Y-106680000D01*
X82155000Y-106680000D02*
X82175000Y-106700000D01*
X82175000Y-106700000D02*
X82875000Y-106700000D01*
%TO.N,Net-(LED42-K)*%
X84825000Y-106700000D02*
X98900000Y-106700000D01*
%TO.N,Net-(LED43-K)*%
X100850000Y-106700000D02*
X114975000Y-106700000D01*
%TO.N,Net-(LED44-K)*%
X116925000Y-106700000D02*
X130950000Y-106700000D01*
%TO.N,Net-(LED45-K)*%
X132900000Y-106700000D02*
X147000000Y-106700000D01*
%TO.N,Net-(LED46-K)*%
X148950000Y-106700000D02*
X163100000Y-106700000D01*
%TO.N,Net-(LED47-K)*%
X165050000Y-106700000D02*
X179200000Y-106700000D01*
%TD*%
M02*
