%TF.GenerationSoftware,KiCad,Pcbnew,7.0.9*%
%TF.CreationDate,2023-12-10T21:52:56+01:00*%
%TF.ProjectId,Led Panel,4c656420-5061-46e6-956c-2e6b69636164,rev?*%
%TF.SameCoordinates,Original*%
%TF.FileFunction,Soldermask,Top*%
%TF.FilePolarity,Negative*%
%FSLAX46Y46*%
G04 Gerber Fmt 4.6, Leading zero omitted, Abs format (unit mm)*
G04 Created by KiCad (PCBNEW 7.0.9) date 2023-12-10 21:52:56*
%MOMM*%
%LPD*%
G01*
G04 APERTURE LIST*
G04 Aperture macros list*
%AMRoundRect*
0 Rectangle with rounded corners*
0 $1 Rounding radius*
0 $2 $3 $4 $5 $6 $7 $8 $9 X,Y pos of 4 corners*
0 Add a 4 corners polygon primitive as box body*
4,1,4,$2,$3,$4,$5,$6,$7,$8,$9,$2,$3,0*
0 Add four circle primitives for the rounded corners*
1,1,$1+$1,$2,$3*
1,1,$1+$1,$4,$5*
1,1,$1+$1,$6,$7*
1,1,$1+$1,$8,$9*
0 Add four rect primitives between the rounded corners*
20,1,$1+$1,$2,$3,$4,$5,0*
20,1,$1+$1,$4,$5,$6,$7,0*
20,1,$1+$1,$6,$7,$8,$9,0*
20,1,$1+$1,$8,$9,$2,$3,0*%
G04 Aperture macros list end*
%ADD10R,2.100000X2.100000*%
%ADD11R,1.000000X2.100000*%
%ADD12RoundRect,0.102000X-0.900000X0.900000X-0.900000X-0.900000X0.900000X-0.900000X0.900000X0.900000X0*%
%ADD13C,2.004000*%
%ADD14C,3.200000*%
G04 APERTURE END LIST*
D10*
%TO.C,LED48*%
X179200000Y-106700000D03*
D11*
X181150000Y-106700000D03*
%TD*%
D10*
%TO.C,LED47*%
X163100000Y-106700000D03*
D11*
X165050000Y-106700000D03*
%TD*%
D10*
%TO.C,LED46*%
X147000000Y-106700000D03*
D11*
X148950000Y-106700000D03*
%TD*%
D10*
%TO.C,LED45*%
X130950000Y-106700000D03*
D11*
X132900000Y-106700000D03*
%TD*%
D10*
%TO.C,LED44*%
X114975000Y-106700000D03*
D11*
X116925000Y-106700000D03*
%TD*%
D10*
%TO.C,LED43*%
X98900000Y-106700000D03*
D11*
X100850000Y-106700000D03*
%TD*%
D10*
%TO.C,LED42*%
X82875000Y-106700000D03*
D11*
X84825000Y-106700000D03*
%TD*%
D10*
%TO.C,LED41*%
X66775000Y-106680000D03*
D11*
X68725000Y-106680000D03*
%TD*%
D10*
%TO.C,LED40*%
X179150000Y-91400000D03*
D11*
X181100000Y-91400000D03*
%TD*%
D10*
%TO.C,LED39*%
X163100000Y-91400000D03*
D11*
X165050000Y-91400000D03*
%TD*%
D10*
%TO.C,LED38*%
X147075000Y-91400000D03*
D11*
X149025000Y-91400000D03*
%TD*%
D10*
%TO.C,LED37*%
X130975000Y-91400000D03*
D11*
X132925000Y-91400000D03*
%TD*%
D10*
%TO.C,LED36*%
X114975000Y-91400000D03*
D11*
X116925000Y-91400000D03*
%TD*%
D10*
%TO.C,LED35*%
X98875000Y-91400000D03*
D11*
X100825000Y-91400000D03*
%TD*%
D10*
%TO.C,LED34*%
X82850000Y-91400000D03*
D11*
X84800000Y-91400000D03*
%TD*%
D10*
%TO.C,LED33*%
X66775000Y-91440000D03*
D11*
X68725000Y-91440000D03*
%TD*%
D10*
%TO.C,LED32*%
X179175000Y-76200000D03*
D11*
X181125000Y-76200000D03*
%TD*%
D10*
%TO.C,LED31*%
X163075000Y-76200000D03*
D11*
X165025000Y-76200000D03*
%TD*%
D10*
%TO.C,LED30*%
X147075000Y-76200000D03*
D11*
X149025000Y-76200000D03*
%TD*%
D10*
%TO.C,LED29*%
X130975000Y-76200000D03*
D11*
X132925000Y-76200000D03*
%TD*%
D10*
%TO.C,LED28*%
X114975000Y-76200000D03*
D11*
X116925000Y-76200000D03*
%TD*%
D10*
%TO.C,LED27*%
X98875000Y-76200000D03*
D11*
X100825000Y-76200000D03*
%TD*%
D10*
%TO.C,LED26*%
X82875000Y-76200000D03*
D11*
X84825000Y-76200000D03*
%TD*%
D10*
%TO.C,LED25*%
X66775000Y-76200000D03*
D11*
X68725000Y-76200000D03*
%TD*%
D10*
%TO.C,LED24*%
X179200000Y-61000000D03*
D11*
X181150000Y-61000000D03*
%TD*%
D10*
%TO.C,LED23*%
X163075000Y-61000000D03*
D11*
X165025000Y-61000000D03*
%TD*%
D10*
%TO.C,LED22*%
X147100000Y-61000000D03*
D11*
X149050000Y-61000000D03*
%TD*%
D10*
%TO.C,LED21*%
X131000000Y-61000000D03*
D11*
X132950000Y-61000000D03*
%TD*%
D10*
%TO.C,LED20*%
X114975000Y-61000000D03*
D11*
X116925000Y-61000000D03*
%TD*%
D10*
%TO.C,LED19*%
X98875000Y-61000000D03*
D11*
X100825000Y-61000000D03*
%TD*%
D10*
%TO.C,LED18*%
X82875000Y-61000000D03*
D11*
X84825000Y-61000000D03*
%TD*%
D10*
%TO.C,LED17*%
X66775000Y-61000000D03*
D11*
X68725000Y-61000000D03*
%TD*%
D10*
%TO.C,LED16*%
X179200000Y-45700000D03*
D11*
X181150000Y-45700000D03*
%TD*%
D10*
%TO.C,LED15*%
X163100000Y-45700000D03*
D11*
X165050000Y-45700000D03*
%TD*%
D10*
%TO.C,LED14*%
X147075000Y-45700000D03*
D11*
X149025000Y-45700000D03*
%TD*%
D10*
%TO.C,LED13*%
X130975000Y-45720000D03*
D11*
X132925000Y-45720000D03*
%TD*%
D10*
%TO.C,LED12*%
X115000000Y-45720000D03*
D11*
X116950000Y-45720000D03*
%TD*%
D10*
%TO.C,LED11*%
X98900000Y-45700000D03*
D11*
X100850000Y-45700000D03*
%TD*%
D10*
%TO.C,LED10*%
X82875000Y-45700000D03*
D11*
X84825000Y-45700000D03*
%TD*%
D10*
%TO.C,LED9*%
X66800000Y-45700000D03*
D11*
X68750000Y-45700000D03*
%TD*%
D10*
%TO.C,LED7*%
X163100000Y-30000000D03*
D11*
X165050000Y-30000000D03*
%TD*%
D10*
%TO.C,LED6*%
X147050000Y-30000000D03*
D11*
X149000000Y-30000000D03*
%TD*%
D10*
%TO.C,LED5*%
X131000000Y-30000000D03*
D11*
X132950000Y-30000000D03*
%TD*%
D10*
%TO.C,LED4*%
X114950000Y-30000000D03*
D11*
X116900000Y-30000000D03*
%TD*%
D10*
%TO.C,LED3*%
X98900000Y-30000000D03*
D11*
X100850000Y-30000000D03*
%TD*%
D10*
%TO.C,LED2*%
X82850000Y-30000000D03*
D11*
X84800000Y-30000000D03*
%TD*%
D10*
%TO.C,LED8*%
X179150000Y-30000000D03*
D11*
X181100000Y-30000000D03*
%TD*%
D12*
%TO.C,J6*%
X53340000Y-106680000D03*
D13*
X53340000Y-111680000D03*
%TD*%
D12*
%TO.C,J5*%
X53340000Y-91440000D03*
D13*
X53340000Y-96440000D03*
%TD*%
D12*
%TO.C,J4*%
X53340000Y-76200000D03*
D13*
X53340000Y-81200000D03*
%TD*%
D12*
%TO.C,J3*%
X53340000Y-61040000D03*
D13*
X53340000Y-66040000D03*
%TD*%
D12*
%TO.C,J2*%
X53300000Y-45720000D03*
D13*
X53300000Y-50720000D03*
%TD*%
D12*
%TO.C,J1*%
X53300000Y-30000000D03*
D13*
X53300000Y-35000000D03*
%TD*%
D14*
%TO.C,H3*%
X187960000Y-117602000D03*
%TD*%
%TO.C,H4*%
X46228000Y-117602000D03*
%TD*%
%TO.C,H1*%
X46228000Y-23622000D03*
%TD*%
%TO.C,H2*%
X188214000Y-23368000D03*
%TD*%
D10*
%TO.C,LED1*%
X66800000Y-30000000D03*
D11*
X68750000Y-30000000D03*
%TD*%
M02*
