%TF.GenerationSoftware,KiCad,Pcbnew,7.0.9*%
%TF.CreationDate,2023-12-10T21:52:56+01:00*%
%TF.ProjectId,Led Panel,4c656420-5061-46e6-956c-2e6b69636164,rev?*%
%TF.SameCoordinates,Original*%
%TF.FileFunction,Legend,Top*%
%TF.FilePolarity,Positive*%
%FSLAX46Y46*%
G04 Gerber Fmt 4.6, Leading zero omitted, Abs format (unit mm)*
G04 Created by KiCad (PCBNEW 7.0.9) date 2023-12-10 21:52:56*
%MOMM*%
%LPD*%
G01*
G04 APERTURE LIST*
%ADD10C,0.150000*%
%ADD11C,0.300000*%
%ADD12C,0.254000*%
%ADD13C,0.200000*%
%ADD14C,0.100000*%
%ADD15C,0.127000*%
G04 APERTURE END LIST*
D10*
X48768000Y-83820000D02*
X44958000Y-83820000D01*
X48768000Y-68580000D02*
X44958000Y-68580000D01*
X44958000Y-68580000D02*
X44958000Y-57912000D01*
X44958000Y-32258000D02*
X48768000Y-32258000D01*
X44958000Y-48006000D02*
X48768000Y-48006000D01*
X44958000Y-26924000D02*
X48768000Y-26924000D01*
X48768000Y-114300000D02*
X44958000Y-114300000D01*
X44958000Y-53340000D02*
X44958000Y-42672000D01*
X44958000Y-114300000D02*
X44958000Y-103632000D01*
X44958000Y-103632000D02*
X48768000Y-103632000D01*
X44958000Y-42672000D02*
X48768000Y-42672000D01*
X44958000Y-108966000D02*
X48768000Y-108966000D01*
X44958000Y-37592000D02*
X44958000Y-26924000D01*
X44958000Y-78486000D02*
X48768000Y-78486000D01*
X44958000Y-99060000D02*
X44958000Y-88392000D01*
X48768000Y-99060000D02*
X44958000Y-99060000D01*
X48768000Y-53340000D02*
X44958000Y-53340000D01*
X44958000Y-73152000D02*
X48768000Y-73152000D01*
X44958000Y-83820000D02*
X44958000Y-73152000D01*
X44958000Y-93726000D02*
X48768000Y-93726000D01*
X44958000Y-88392000D02*
X48768000Y-88392000D01*
X48768000Y-37592000D02*
X44958000Y-37592000D01*
X44958000Y-57912000D02*
X48768000Y-57912000D01*
X44958000Y-63246000D02*
X48768000Y-63246000D01*
D11*
X60681082Y-110769638D02*
X62014415Y-110769638D01*
X62014415Y-110769638D02*
X61157272Y-112769638D01*
X62585844Y-110769638D02*
X63823939Y-110769638D01*
X63823939Y-110769638D02*
X63157272Y-111531542D01*
X63157272Y-111531542D02*
X63442987Y-111531542D01*
X63442987Y-111531542D02*
X63633463Y-111626780D01*
X63633463Y-111626780D02*
X63728701Y-111722019D01*
X63728701Y-111722019D02*
X63823939Y-111912495D01*
X63823939Y-111912495D02*
X63823939Y-112388685D01*
X63823939Y-112388685D02*
X63728701Y-112579161D01*
X63728701Y-112579161D02*
X63633463Y-112674400D01*
X63633463Y-112674400D02*
X63442987Y-112769638D01*
X63442987Y-112769638D02*
X62871558Y-112769638D01*
X62871558Y-112769638D02*
X62681082Y-112674400D01*
X62681082Y-112674400D02*
X62585844Y-112579161D01*
X65062034Y-110769638D02*
X65252511Y-110769638D01*
X65252511Y-110769638D02*
X65442987Y-110864876D01*
X65442987Y-110864876D02*
X65538225Y-110960114D01*
X65538225Y-110960114D02*
X65633463Y-111150590D01*
X65633463Y-111150590D02*
X65728701Y-111531542D01*
X65728701Y-111531542D02*
X65728701Y-112007733D01*
X65728701Y-112007733D02*
X65633463Y-112388685D01*
X65633463Y-112388685D02*
X65538225Y-112579161D01*
X65538225Y-112579161D02*
X65442987Y-112674400D01*
X65442987Y-112674400D02*
X65252511Y-112769638D01*
X65252511Y-112769638D02*
X65062034Y-112769638D01*
X65062034Y-112769638D02*
X64871558Y-112674400D01*
X64871558Y-112674400D02*
X64776320Y-112579161D01*
X64776320Y-112579161D02*
X64681082Y-112388685D01*
X64681082Y-112388685D02*
X64585844Y-112007733D01*
X64585844Y-112007733D02*
X64585844Y-111531542D01*
X64585844Y-111531542D02*
X64681082Y-111150590D01*
X64681082Y-111150590D02*
X64776320Y-110960114D01*
X64776320Y-110960114D02*
X64871558Y-110864876D01*
X64871558Y-110864876D02*
X65062034Y-110769638D01*
X67157273Y-113436304D02*
X66681082Y-113436304D01*
X66681082Y-113436304D02*
X66681082Y-110579161D01*
X66681082Y-110579161D02*
X67157273Y-110579161D01*
X67919177Y-111436304D02*
X67919177Y-112769638D01*
X67919177Y-111626780D02*
X68014415Y-111531542D01*
X68014415Y-111531542D02*
X68204891Y-111436304D01*
X68204891Y-111436304D02*
X68490606Y-111436304D01*
X68490606Y-111436304D02*
X68681082Y-111531542D01*
X68681082Y-111531542D02*
X68776320Y-111722019D01*
X68776320Y-111722019D02*
X68776320Y-112769638D01*
X69728701Y-112769638D02*
X69728701Y-111436304D01*
X69728701Y-111626780D02*
X69823939Y-111531542D01*
X69823939Y-111531542D02*
X70014415Y-111436304D01*
X70014415Y-111436304D02*
X70300130Y-111436304D01*
X70300130Y-111436304D02*
X70490606Y-111531542D01*
X70490606Y-111531542D02*
X70585844Y-111722019D01*
X70585844Y-111722019D02*
X70585844Y-112769638D01*
X70585844Y-111722019D02*
X70681082Y-111531542D01*
X70681082Y-111531542D02*
X70871558Y-111436304D01*
X70871558Y-111436304D02*
X71157272Y-111436304D01*
X71157272Y-111436304D02*
X71347749Y-111531542D01*
X71347749Y-111531542D02*
X71442987Y-111722019D01*
X71442987Y-111722019D02*
X71442987Y-112769638D01*
X72204892Y-113436304D02*
X72681082Y-113436304D01*
X72681082Y-113436304D02*
X72681082Y-110579161D01*
X72681082Y-110579161D02*
X72204892Y-110579161D01*
X61474701Y-96037638D02*
X61093748Y-96037638D01*
X61093748Y-96037638D02*
X60903272Y-96132876D01*
X60903272Y-96132876D02*
X60808034Y-96228114D01*
X60808034Y-96228114D02*
X60617558Y-96513828D01*
X60617558Y-96513828D02*
X60522320Y-96894780D01*
X60522320Y-96894780D02*
X60522320Y-97656685D01*
X60522320Y-97656685D02*
X60617558Y-97847161D01*
X60617558Y-97847161D02*
X60712796Y-97942400D01*
X60712796Y-97942400D02*
X60903272Y-98037638D01*
X60903272Y-98037638D02*
X61284225Y-98037638D01*
X61284225Y-98037638D02*
X61474701Y-97942400D01*
X61474701Y-97942400D02*
X61569939Y-97847161D01*
X61569939Y-97847161D02*
X61665177Y-97656685D01*
X61665177Y-97656685D02*
X61665177Y-97180495D01*
X61665177Y-97180495D02*
X61569939Y-96990019D01*
X61569939Y-96990019D02*
X61474701Y-96894780D01*
X61474701Y-96894780D02*
X61284225Y-96799542D01*
X61284225Y-96799542D02*
X60903272Y-96799542D01*
X60903272Y-96799542D02*
X60712796Y-96894780D01*
X60712796Y-96894780D02*
X60617558Y-96990019D01*
X60617558Y-96990019D02*
X60522320Y-97180495D01*
X63379463Y-96037638D02*
X62998510Y-96037638D01*
X62998510Y-96037638D02*
X62808034Y-96132876D01*
X62808034Y-96132876D02*
X62712796Y-96228114D01*
X62712796Y-96228114D02*
X62522320Y-96513828D01*
X62522320Y-96513828D02*
X62427082Y-96894780D01*
X62427082Y-96894780D02*
X62427082Y-97656685D01*
X62427082Y-97656685D02*
X62522320Y-97847161D01*
X62522320Y-97847161D02*
X62617558Y-97942400D01*
X62617558Y-97942400D02*
X62808034Y-98037638D01*
X62808034Y-98037638D02*
X63188987Y-98037638D01*
X63188987Y-98037638D02*
X63379463Y-97942400D01*
X63379463Y-97942400D02*
X63474701Y-97847161D01*
X63474701Y-97847161D02*
X63569939Y-97656685D01*
X63569939Y-97656685D02*
X63569939Y-97180495D01*
X63569939Y-97180495D02*
X63474701Y-96990019D01*
X63474701Y-96990019D02*
X63379463Y-96894780D01*
X63379463Y-96894780D02*
X63188987Y-96799542D01*
X63188987Y-96799542D02*
X62808034Y-96799542D01*
X62808034Y-96799542D02*
X62617558Y-96894780D01*
X62617558Y-96894780D02*
X62522320Y-96990019D01*
X62522320Y-96990019D02*
X62427082Y-97180495D01*
X64808034Y-96037638D02*
X64998511Y-96037638D01*
X64998511Y-96037638D02*
X65188987Y-96132876D01*
X65188987Y-96132876D02*
X65284225Y-96228114D01*
X65284225Y-96228114D02*
X65379463Y-96418590D01*
X65379463Y-96418590D02*
X65474701Y-96799542D01*
X65474701Y-96799542D02*
X65474701Y-97275733D01*
X65474701Y-97275733D02*
X65379463Y-97656685D01*
X65379463Y-97656685D02*
X65284225Y-97847161D01*
X65284225Y-97847161D02*
X65188987Y-97942400D01*
X65188987Y-97942400D02*
X64998511Y-98037638D01*
X64998511Y-98037638D02*
X64808034Y-98037638D01*
X64808034Y-98037638D02*
X64617558Y-97942400D01*
X64617558Y-97942400D02*
X64522320Y-97847161D01*
X64522320Y-97847161D02*
X64427082Y-97656685D01*
X64427082Y-97656685D02*
X64331844Y-97275733D01*
X64331844Y-97275733D02*
X64331844Y-96799542D01*
X64331844Y-96799542D02*
X64427082Y-96418590D01*
X64427082Y-96418590D02*
X64522320Y-96228114D01*
X64522320Y-96228114D02*
X64617558Y-96132876D01*
X64617558Y-96132876D02*
X64808034Y-96037638D01*
X66903273Y-98704304D02*
X66427082Y-98704304D01*
X66427082Y-98704304D02*
X66427082Y-95847161D01*
X66427082Y-95847161D02*
X66903273Y-95847161D01*
X67665177Y-96704304D02*
X67665177Y-98037638D01*
X67665177Y-96894780D02*
X67760415Y-96799542D01*
X67760415Y-96799542D02*
X67950891Y-96704304D01*
X67950891Y-96704304D02*
X68236606Y-96704304D01*
X68236606Y-96704304D02*
X68427082Y-96799542D01*
X68427082Y-96799542D02*
X68522320Y-96990019D01*
X68522320Y-96990019D02*
X68522320Y-98037638D01*
X69474701Y-98037638D02*
X69474701Y-96704304D01*
X69474701Y-96894780D02*
X69569939Y-96799542D01*
X69569939Y-96799542D02*
X69760415Y-96704304D01*
X69760415Y-96704304D02*
X70046130Y-96704304D01*
X70046130Y-96704304D02*
X70236606Y-96799542D01*
X70236606Y-96799542D02*
X70331844Y-96990019D01*
X70331844Y-96990019D02*
X70331844Y-98037638D01*
X70331844Y-96990019D02*
X70427082Y-96799542D01*
X70427082Y-96799542D02*
X70617558Y-96704304D01*
X70617558Y-96704304D02*
X70903272Y-96704304D01*
X70903272Y-96704304D02*
X71093749Y-96799542D01*
X71093749Y-96799542D02*
X71188987Y-96990019D01*
X71188987Y-96990019D02*
X71188987Y-98037638D01*
X71950892Y-98704304D02*
X72427082Y-98704304D01*
X72427082Y-98704304D02*
X72427082Y-95847161D01*
X72427082Y-95847161D02*
X71950892Y-95847161D01*
X61982701Y-50984304D02*
X61982701Y-52317638D01*
X61506510Y-50222400D02*
X61030320Y-51650971D01*
X61030320Y-51650971D02*
X62268415Y-51650971D01*
X63887463Y-50317638D02*
X63506510Y-50317638D01*
X63506510Y-50317638D02*
X63316034Y-50412876D01*
X63316034Y-50412876D02*
X63220796Y-50508114D01*
X63220796Y-50508114D02*
X63030320Y-50793828D01*
X63030320Y-50793828D02*
X62935082Y-51174780D01*
X62935082Y-51174780D02*
X62935082Y-51936685D01*
X62935082Y-51936685D02*
X63030320Y-52127161D01*
X63030320Y-52127161D02*
X63125558Y-52222400D01*
X63125558Y-52222400D02*
X63316034Y-52317638D01*
X63316034Y-52317638D02*
X63696987Y-52317638D01*
X63696987Y-52317638D02*
X63887463Y-52222400D01*
X63887463Y-52222400D02*
X63982701Y-52127161D01*
X63982701Y-52127161D02*
X64077939Y-51936685D01*
X64077939Y-51936685D02*
X64077939Y-51460495D01*
X64077939Y-51460495D02*
X63982701Y-51270019D01*
X63982701Y-51270019D02*
X63887463Y-51174780D01*
X63887463Y-51174780D02*
X63696987Y-51079542D01*
X63696987Y-51079542D02*
X63316034Y-51079542D01*
X63316034Y-51079542D02*
X63125558Y-51174780D01*
X63125558Y-51174780D02*
X63030320Y-51270019D01*
X63030320Y-51270019D02*
X62935082Y-51460495D01*
X64744606Y-50317638D02*
X65982701Y-50317638D01*
X65982701Y-50317638D02*
X65316034Y-51079542D01*
X65316034Y-51079542D02*
X65601749Y-51079542D01*
X65601749Y-51079542D02*
X65792225Y-51174780D01*
X65792225Y-51174780D02*
X65887463Y-51270019D01*
X65887463Y-51270019D02*
X65982701Y-51460495D01*
X65982701Y-51460495D02*
X65982701Y-51936685D01*
X65982701Y-51936685D02*
X65887463Y-52127161D01*
X65887463Y-52127161D02*
X65792225Y-52222400D01*
X65792225Y-52222400D02*
X65601749Y-52317638D01*
X65601749Y-52317638D02*
X65030320Y-52317638D01*
X65030320Y-52317638D02*
X64839844Y-52222400D01*
X64839844Y-52222400D02*
X64744606Y-52127161D01*
X67411273Y-52984304D02*
X66935082Y-52984304D01*
X66935082Y-52984304D02*
X66935082Y-50127161D01*
X66935082Y-50127161D02*
X67411273Y-50127161D01*
X68173177Y-50984304D02*
X68173177Y-52317638D01*
X68173177Y-51174780D02*
X68268415Y-51079542D01*
X68268415Y-51079542D02*
X68458891Y-50984304D01*
X68458891Y-50984304D02*
X68744606Y-50984304D01*
X68744606Y-50984304D02*
X68935082Y-51079542D01*
X68935082Y-51079542D02*
X69030320Y-51270019D01*
X69030320Y-51270019D02*
X69030320Y-52317638D01*
X69982701Y-52317638D02*
X69982701Y-50984304D01*
X69982701Y-51174780D02*
X70077939Y-51079542D01*
X70077939Y-51079542D02*
X70268415Y-50984304D01*
X70268415Y-50984304D02*
X70554130Y-50984304D01*
X70554130Y-50984304D02*
X70744606Y-51079542D01*
X70744606Y-51079542D02*
X70839844Y-51270019D01*
X70839844Y-51270019D02*
X70839844Y-52317638D01*
X70839844Y-51270019D02*
X70935082Y-51079542D01*
X70935082Y-51079542D02*
X71125558Y-50984304D01*
X71125558Y-50984304D02*
X71411272Y-50984304D01*
X71411272Y-50984304D02*
X71601749Y-51079542D01*
X71601749Y-51079542D02*
X71696987Y-51270019D01*
X71696987Y-51270019D02*
X71696987Y-52317638D01*
X72458892Y-52984304D02*
X72935082Y-52984304D01*
X72935082Y-52984304D02*
X72935082Y-50127161D01*
X72935082Y-50127161D02*
X72458892Y-50127161D01*
X62077939Y-65303638D02*
X61125558Y-65303638D01*
X61125558Y-65303638D02*
X61030320Y-66256019D01*
X61030320Y-66256019D02*
X61125558Y-66160780D01*
X61125558Y-66160780D02*
X61316034Y-66065542D01*
X61316034Y-66065542D02*
X61792225Y-66065542D01*
X61792225Y-66065542D02*
X61982701Y-66160780D01*
X61982701Y-66160780D02*
X62077939Y-66256019D01*
X62077939Y-66256019D02*
X62173177Y-66446495D01*
X62173177Y-66446495D02*
X62173177Y-66922685D01*
X62173177Y-66922685D02*
X62077939Y-67113161D01*
X62077939Y-67113161D02*
X61982701Y-67208400D01*
X61982701Y-67208400D02*
X61792225Y-67303638D01*
X61792225Y-67303638D02*
X61316034Y-67303638D01*
X61316034Y-67303638D02*
X61125558Y-67208400D01*
X61125558Y-67208400D02*
X61030320Y-67113161D01*
X64077939Y-67303638D02*
X62935082Y-67303638D01*
X63506510Y-67303638D02*
X63506510Y-65303638D01*
X63506510Y-65303638D02*
X63316034Y-65589352D01*
X63316034Y-65589352D02*
X63125558Y-65779828D01*
X63125558Y-65779828D02*
X62935082Y-65875066D01*
X64744606Y-65303638D02*
X66077939Y-65303638D01*
X66077939Y-65303638D02*
X65220796Y-67303638D01*
X67411273Y-67970304D02*
X66935082Y-67970304D01*
X66935082Y-67970304D02*
X66935082Y-65113161D01*
X66935082Y-65113161D02*
X67411273Y-65113161D01*
X68173177Y-65970304D02*
X68173177Y-67303638D01*
X68173177Y-66160780D02*
X68268415Y-66065542D01*
X68268415Y-66065542D02*
X68458891Y-65970304D01*
X68458891Y-65970304D02*
X68744606Y-65970304D01*
X68744606Y-65970304D02*
X68935082Y-66065542D01*
X68935082Y-66065542D02*
X69030320Y-66256019D01*
X69030320Y-66256019D02*
X69030320Y-67303638D01*
X69982701Y-67303638D02*
X69982701Y-65970304D01*
X69982701Y-66160780D02*
X70077939Y-66065542D01*
X70077939Y-66065542D02*
X70268415Y-65970304D01*
X70268415Y-65970304D02*
X70554130Y-65970304D01*
X70554130Y-65970304D02*
X70744606Y-66065542D01*
X70744606Y-66065542D02*
X70839844Y-66256019D01*
X70839844Y-66256019D02*
X70839844Y-67303638D01*
X70839844Y-66256019D02*
X70935082Y-66065542D01*
X70935082Y-66065542D02*
X71125558Y-65970304D01*
X71125558Y-65970304D02*
X71411272Y-65970304D01*
X71411272Y-65970304D02*
X71601749Y-66065542D01*
X71601749Y-66065542D02*
X71696987Y-66256019D01*
X71696987Y-66256019D02*
X71696987Y-67303638D01*
X72458892Y-67970304D02*
X72935082Y-67970304D01*
X72935082Y-67970304D02*
X72935082Y-65113161D01*
X72935082Y-65113161D02*
X72458892Y-65113161D01*
D10*
X46564779Y-51050866D02*
X47326684Y-51050866D01*
X46564779Y-29714866D02*
X47326684Y-29714866D01*
X46945731Y-30095819D02*
X46945731Y-29333914D01*
X46564779Y-66290866D02*
X47326684Y-66290866D01*
X46564779Y-45462866D02*
X47326684Y-45462866D01*
X46945731Y-45843819D02*
X46945731Y-45081914D01*
X46564779Y-81530866D02*
X47326684Y-81530866D01*
D11*
X61982701Y-80289638D02*
X61601748Y-80289638D01*
X61601748Y-80289638D02*
X61411272Y-80384876D01*
X61411272Y-80384876D02*
X61316034Y-80480114D01*
X61316034Y-80480114D02*
X61125558Y-80765828D01*
X61125558Y-80765828D02*
X61030320Y-81146780D01*
X61030320Y-81146780D02*
X61030320Y-81908685D01*
X61030320Y-81908685D02*
X61125558Y-82099161D01*
X61125558Y-82099161D02*
X61220796Y-82194400D01*
X61220796Y-82194400D02*
X61411272Y-82289638D01*
X61411272Y-82289638D02*
X61792225Y-82289638D01*
X61792225Y-82289638D02*
X61982701Y-82194400D01*
X61982701Y-82194400D02*
X62077939Y-82099161D01*
X62077939Y-82099161D02*
X62173177Y-81908685D01*
X62173177Y-81908685D02*
X62173177Y-81432495D01*
X62173177Y-81432495D02*
X62077939Y-81242019D01*
X62077939Y-81242019D02*
X61982701Y-81146780D01*
X61982701Y-81146780D02*
X61792225Y-81051542D01*
X61792225Y-81051542D02*
X61411272Y-81051542D01*
X61411272Y-81051542D02*
X61220796Y-81146780D01*
X61220796Y-81146780D02*
X61125558Y-81242019D01*
X61125558Y-81242019D02*
X61030320Y-81432495D01*
X62935082Y-80480114D02*
X63030320Y-80384876D01*
X63030320Y-80384876D02*
X63220796Y-80289638D01*
X63220796Y-80289638D02*
X63696987Y-80289638D01*
X63696987Y-80289638D02*
X63887463Y-80384876D01*
X63887463Y-80384876D02*
X63982701Y-80480114D01*
X63982701Y-80480114D02*
X64077939Y-80670590D01*
X64077939Y-80670590D02*
X64077939Y-80861066D01*
X64077939Y-80861066D02*
X63982701Y-81146780D01*
X63982701Y-81146780D02*
X62839844Y-82289638D01*
X62839844Y-82289638D02*
X64077939Y-82289638D01*
X65030320Y-82289638D02*
X65411272Y-82289638D01*
X65411272Y-82289638D02*
X65601749Y-82194400D01*
X65601749Y-82194400D02*
X65696987Y-82099161D01*
X65696987Y-82099161D02*
X65887463Y-81813447D01*
X65887463Y-81813447D02*
X65982701Y-81432495D01*
X65982701Y-81432495D02*
X65982701Y-80670590D01*
X65982701Y-80670590D02*
X65887463Y-80480114D01*
X65887463Y-80480114D02*
X65792225Y-80384876D01*
X65792225Y-80384876D02*
X65601749Y-80289638D01*
X65601749Y-80289638D02*
X65220796Y-80289638D01*
X65220796Y-80289638D02*
X65030320Y-80384876D01*
X65030320Y-80384876D02*
X64935082Y-80480114D01*
X64935082Y-80480114D02*
X64839844Y-80670590D01*
X64839844Y-80670590D02*
X64839844Y-81146780D01*
X64839844Y-81146780D02*
X64935082Y-81337257D01*
X64935082Y-81337257D02*
X65030320Y-81432495D01*
X65030320Y-81432495D02*
X65220796Y-81527733D01*
X65220796Y-81527733D02*
X65601749Y-81527733D01*
X65601749Y-81527733D02*
X65792225Y-81432495D01*
X65792225Y-81432495D02*
X65887463Y-81337257D01*
X65887463Y-81337257D02*
X65982701Y-81146780D01*
X67411273Y-82956304D02*
X66935082Y-82956304D01*
X66935082Y-82956304D02*
X66935082Y-80099161D01*
X66935082Y-80099161D02*
X67411273Y-80099161D01*
X68173177Y-80956304D02*
X68173177Y-82289638D01*
X68173177Y-81146780D02*
X68268415Y-81051542D01*
X68268415Y-81051542D02*
X68458891Y-80956304D01*
X68458891Y-80956304D02*
X68744606Y-80956304D01*
X68744606Y-80956304D02*
X68935082Y-81051542D01*
X68935082Y-81051542D02*
X69030320Y-81242019D01*
X69030320Y-81242019D02*
X69030320Y-82289638D01*
X69982701Y-82289638D02*
X69982701Y-80956304D01*
X69982701Y-81146780D02*
X70077939Y-81051542D01*
X70077939Y-81051542D02*
X70268415Y-80956304D01*
X70268415Y-80956304D02*
X70554130Y-80956304D01*
X70554130Y-80956304D02*
X70744606Y-81051542D01*
X70744606Y-81051542D02*
X70839844Y-81242019D01*
X70839844Y-81242019D02*
X70839844Y-82289638D01*
X70839844Y-81242019D02*
X70935082Y-81051542D01*
X70935082Y-81051542D02*
X71125558Y-80956304D01*
X71125558Y-80956304D02*
X71411272Y-80956304D01*
X71411272Y-80956304D02*
X71601749Y-81051542D01*
X71601749Y-81051542D02*
X71696987Y-81242019D01*
X71696987Y-81242019D02*
X71696987Y-82289638D01*
X72458892Y-82956304D02*
X72935082Y-82956304D01*
X72935082Y-82956304D02*
X72935082Y-80099161D01*
X72935082Y-80099161D02*
X72458892Y-80099161D01*
D10*
X46564779Y-35302866D02*
X47326684Y-35302866D01*
X46564779Y-96770866D02*
X47326684Y-96770866D01*
X46564779Y-60702866D02*
X47326684Y-60702866D01*
X46945731Y-61083819D02*
X46945731Y-60321914D01*
X46564779Y-91182866D02*
X47326684Y-91182866D01*
X46945731Y-91563819D02*
X46945731Y-90801914D01*
X46564779Y-75942866D02*
X47326684Y-75942866D01*
X46945731Y-76323819D02*
X46945731Y-75561914D01*
D11*
X62236701Y-34982304D02*
X62236701Y-36315638D01*
X61760510Y-34220400D02*
X61284320Y-35648971D01*
X61284320Y-35648971D02*
X62522415Y-35648971D01*
X64236701Y-34315638D02*
X63284320Y-34315638D01*
X63284320Y-34315638D02*
X63189082Y-35268019D01*
X63189082Y-35268019D02*
X63284320Y-35172780D01*
X63284320Y-35172780D02*
X63474796Y-35077542D01*
X63474796Y-35077542D02*
X63950987Y-35077542D01*
X63950987Y-35077542D02*
X64141463Y-35172780D01*
X64141463Y-35172780D02*
X64236701Y-35268019D01*
X64236701Y-35268019D02*
X64331939Y-35458495D01*
X64331939Y-35458495D02*
X64331939Y-35934685D01*
X64331939Y-35934685D02*
X64236701Y-36125161D01*
X64236701Y-36125161D02*
X64141463Y-36220400D01*
X64141463Y-36220400D02*
X63950987Y-36315638D01*
X63950987Y-36315638D02*
X63474796Y-36315638D01*
X63474796Y-36315638D02*
X63284320Y-36220400D01*
X63284320Y-36220400D02*
X63189082Y-36125161D01*
X65570034Y-34315638D02*
X65760511Y-34315638D01*
X65760511Y-34315638D02*
X65950987Y-34410876D01*
X65950987Y-34410876D02*
X66046225Y-34506114D01*
X66046225Y-34506114D02*
X66141463Y-34696590D01*
X66141463Y-34696590D02*
X66236701Y-35077542D01*
X66236701Y-35077542D02*
X66236701Y-35553733D01*
X66236701Y-35553733D02*
X66141463Y-35934685D01*
X66141463Y-35934685D02*
X66046225Y-36125161D01*
X66046225Y-36125161D02*
X65950987Y-36220400D01*
X65950987Y-36220400D02*
X65760511Y-36315638D01*
X65760511Y-36315638D02*
X65570034Y-36315638D01*
X65570034Y-36315638D02*
X65379558Y-36220400D01*
X65379558Y-36220400D02*
X65284320Y-36125161D01*
X65284320Y-36125161D02*
X65189082Y-35934685D01*
X65189082Y-35934685D02*
X65093844Y-35553733D01*
X65093844Y-35553733D02*
X65093844Y-35077542D01*
X65093844Y-35077542D02*
X65189082Y-34696590D01*
X65189082Y-34696590D02*
X65284320Y-34506114D01*
X65284320Y-34506114D02*
X65379558Y-34410876D01*
X65379558Y-34410876D02*
X65570034Y-34315638D01*
X67665273Y-36982304D02*
X67189082Y-36982304D01*
X67189082Y-36982304D02*
X67189082Y-34125161D01*
X67189082Y-34125161D02*
X67665273Y-34125161D01*
X68427177Y-34982304D02*
X68427177Y-36315638D01*
X68427177Y-35172780D02*
X68522415Y-35077542D01*
X68522415Y-35077542D02*
X68712891Y-34982304D01*
X68712891Y-34982304D02*
X68998606Y-34982304D01*
X68998606Y-34982304D02*
X69189082Y-35077542D01*
X69189082Y-35077542D02*
X69284320Y-35268019D01*
X69284320Y-35268019D02*
X69284320Y-36315638D01*
X70236701Y-36315638D02*
X70236701Y-34982304D01*
X70236701Y-35172780D02*
X70331939Y-35077542D01*
X70331939Y-35077542D02*
X70522415Y-34982304D01*
X70522415Y-34982304D02*
X70808130Y-34982304D01*
X70808130Y-34982304D02*
X70998606Y-35077542D01*
X70998606Y-35077542D02*
X71093844Y-35268019D01*
X71093844Y-35268019D02*
X71093844Y-36315638D01*
X71093844Y-35268019D02*
X71189082Y-35077542D01*
X71189082Y-35077542D02*
X71379558Y-34982304D01*
X71379558Y-34982304D02*
X71665272Y-34982304D01*
X71665272Y-34982304D02*
X71855749Y-35077542D01*
X71855749Y-35077542D02*
X71950987Y-35268019D01*
X71950987Y-35268019D02*
X71950987Y-36315638D01*
X72712892Y-36982304D02*
X73189082Y-36982304D01*
X73189082Y-36982304D02*
X73189082Y-34125161D01*
X73189082Y-34125161D02*
X72712892Y-34125161D01*
D10*
X46564779Y-106422866D02*
X47326684Y-106422866D01*
X46945731Y-106803819D02*
X46945731Y-106041914D01*
X46564779Y-112010866D02*
X47326684Y-112010866D01*
D12*
X176974047Y-103874318D02*
X176369285Y-103874318D01*
X176369285Y-103874318D02*
X176369285Y-102604318D01*
X177397380Y-103209080D02*
X177820714Y-103209080D01*
X178002142Y-103874318D02*
X177397380Y-103874318D01*
X177397380Y-103874318D02*
X177397380Y-102604318D01*
X177397380Y-102604318D02*
X178002142Y-102604318D01*
X178546428Y-103874318D02*
X178546428Y-102604318D01*
X178546428Y-102604318D02*
X178848809Y-102604318D01*
X178848809Y-102604318D02*
X179030238Y-102664794D01*
X179030238Y-102664794D02*
X179151190Y-102785746D01*
X179151190Y-102785746D02*
X179211667Y-102906699D01*
X179211667Y-102906699D02*
X179272143Y-103148603D01*
X179272143Y-103148603D02*
X179272143Y-103330032D01*
X179272143Y-103330032D02*
X179211667Y-103571937D01*
X179211667Y-103571937D02*
X179151190Y-103692889D01*
X179151190Y-103692889D02*
X179030238Y-103813842D01*
X179030238Y-103813842D02*
X178848809Y-103874318D01*
X178848809Y-103874318D02*
X178546428Y-103874318D01*
X180360714Y-103027651D02*
X180360714Y-103874318D01*
X180058333Y-102543842D02*
X179755952Y-103450984D01*
X179755952Y-103450984D02*
X180542143Y-103450984D01*
X181207381Y-103148603D02*
X181086429Y-103088127D01*
X181086429Y-103088127D02*
X181025952Y-103027651D01*
X181025952Y-103027651D02*
X180965476Y-102906699D01*
X180965476Y-102906699D02*
X180965476Y-102846222D01*
X180965476Y-102846222D02*
X181025952Y-102725270D01*
X181025952Y-102725270D02*
X181086429Y-102664794D01*
X181086429Y-102664794D02*
X181207381Y-102604318D01*
X181207381Y-102604318D02*
X181449286Y-102604318D01*
X181449286Y-102604318D02*
X181570238Y-102664794D01*
X181570238Y-102664794D02*
X181630714Y-102725270D01*
X181630714Y-102725270D02*
X181691191Y-102846222D01*
X181691191Y-102846222D02*
X181691191Y-102906699D01*
X181691191Y-102906699D02*
X181630714Y-103027651D01*
X181630714Y-103027651D02*
X181570238Y-103088127D01*
X181570238Y-103088127D02*
X181449286Y-103148603D01*
X181449286Y-103148603D02*
X181207381Y-103148603D01*
X181207381Y-103148603D02*
X181086429Y-103209080D01*
X181086429Y-103209080D02*
X181025952Y-103269556D01*
X181025952Y-103269556D02*
X180965476Y-103390508D01*
X180965476Y-103390508D02*
X180965476Y-103632413D01*
X180965476Y-103632413D02*
X181025952Y-103753365D01*
X181025952Y-103753365D02*
X181086429Y-103813842D01*
X181086429Y-103813842D02*
X181207381Y-103874318D01*
X181207381Y-103874318D02*
X181449286Y-103874318D01*
X181449286Y-103874318D02*
X181570238Y-103813842D01*
X181570238Y-103813842D02*
X181630714Y-103753365D01*
X181630714Y-103753365D02*
X181691191Y-103632413D01*
X181691191Y-103632413D02*
X181691191Y-103390508D01*
X181691191Y-103390508D02*
X181630714Y-103269556D01*
X181630714Y-103269556D02*
X181570238Y-103209080D01*
X181570238Y-103209080D02*
X181449286Y-103148603D01*
X160874047Y-103874318D02*
X160269285Y-103874318D01*
X160269285Y-103874318D02*
X160269285Y-102604318D01*
X161297380Y-103209080D02*
X161720714Y-103209080D01*
X161902142Y-103874318D02*
X161297380Y-103874318D01*
X161297380Y-103874318D02*
X161297380Y-102604318D01*
X161297380Y-102604318D02*
X161902142Y-102604318D01*
X162446428Y-103874318D02*
X162446428Y-102604318D01*
X162446428Y-102604318D02*
X162748809Y-102604318D01*
X162748809Y-102604318D02*
X162930238Y-102664794D01*
X162930238Y-102664794D02*
X163051190Y-102785746D01*
X163051190Y-102785746D02*
X163111667Y-102906699D01*
X163111667Y-102906699D02*
X163172143Y-103148603D01*
X163172143Y-103148603D02*
X163172143Y-103330032D01*
X163172143Y-103330032D02*
X163111667Y-103571937D01*
X163111667Y-103571937D02*
X163051190Y-103692889D01*
X163051190Y-103692889D02*
X162930238Y-103813842D01*
X162930238Y-103813842D02*
X162748809Y-103874318D01*
X162748809Y-103874318D02*
X162446428Y-103874318D01*
X164260714Y-103027651D02*
X164260714Y-103874318D01*
X163958333Y-102543842D02*
X163655952Y-103450984D01*
X163655952Y-103450984D02*
X164442143Y-103450984D01*
X164805000Y-102604318D02*
X165651667Y-102604318D01*
X165651667Y-102604318D02*
X165107381Y-103874318D01*
X144774047Y-103874318D02*
X144169285Y-103874318D01*
X144169285Y-103874318D02*
X144169285Y-102604318D01*
X145197380Y-103209080D02*
X145620714Y-103209080D01*
X145802142Y-103874318D02*
X145197380Y-103874318D01*
X145197380Y-103874318D02*
X145197380Y-102604318D01*
X145197380Y-102604318D02*
X145802142Y-102604318D01*
X146346428Y-103874318D02*
X146346428Y-102604318D01*
X146346428Y-102604318D02*
X146648809Y-102604318D01*
X146648809Y-102604318D02*
X146830238Y-102664794D01*
X146830238Y-102664794D02*
X146951190Y-102785746D01*
X146951190Y-102785746D02*
X147011667Y-102906699D01*
X147011667Y-102906699D02*
X147072143Y-103148603D01*
X147072143Y-103148603D02*
X147072143Y-103330032D01*
X147072143Y-103330032D02*
X147011667Y-103571937D01*
X147011667Y-103571937D02*
X146951190Y-103692889D01*
X146951190Y-103692889D02*
X146830238Y-103813842D01*
X146830238Y-103813842D02*
X146648809Y-103874318D01*
X146648809Y-103874318D02*
X146346428Y-103874318D01*
X148160714Y-103027651D02*
X148160714Y-103874318D01*
X147858333Y-102543842D02*
X147555952Y-103450984D01*
X147555952Y-103450984D02*
X148342143Y-103450984D01*
X149370238Y-102604318D02*
X149128333Y-102604318D01*
X149128333Y-102604318D02*
X149007381Y-102664794D01*
X149007381Y-102664794D02*
X148946905Y-102725270D01*
X148946905Y-102725270D02*
X148825952Y-102906699D01*
X148825952Y-102906699D02*
X148765476Y-103148603D01*
X148765476Y-103148603D02*
X148765476Y-103632413D01*
X148765476Y-103632413D02*
X148825952Y-103753365D01*
X148825952Y-103753365D02*
X148886429Y-103813842D01*
X148886429Y-103813842D02*
X149007381Y-103874318D01*
X149007381Y-103874318D02*
X149249286Y-103874318D01*
X149249286Y-103874318D02*
X149370238Y-103813842D01*
X149370238Y-103813842D02*
X149430714Y-103753365D01*
X149430714Y-103753365D02*
X149491191Y-103632413D01*
X149491191Y-103632413D02*
X149491191Y-103330032D01*
X149491191Y-103330032D02*
X149430714Y-103209080D01*
X149430714Y-103209080D02*
X149370238Y-103148603D01*
X149370238Y-103148603D02*
X149249286Y-103088127D01*
X149249286Y-103088127D02*
X149007381Y-103088127D01*
X149007381Y-103088127D02*
X148886429Y-103148603D01*
X148886429Y-103148603D02*
X148825952Y-103209080D01*
X148825952Y-103209080D02*
X148765476Y-103330032D01*
X128724047Y-103874318D02*
X128119285Y-103874318D01*
X128119285Y-103874318D02*
X128119285Y-102604318D01*
X129147380Y-103209080D02*
X129570714Y-103209080D01*
X129752142Y-103874318D02*
X129147380Y-103874318D01*
X129147380Y-103874318D02*
X129147380Y-102604318D01*
X129147380Y-102604318D02*
X129752142Y-102604318D01*
X130296428Y-103874318D02*
X130296428Y-102604318D01*
X130296428Y-102604318D02*
X130598809Y-102604318D01*
X130598809Y-102604318D02*
X130780238Y-102664794D01*
X130780238Y-102664794D02*
X130901190Y-102785746D01*
X130901190Y-102785746D02*
X130961667Y-102906699D01*
X130961667Y-102906699D02*
X131022143Y-103148603D01*
X131022143Y-103148603D02*
X131022143Y-103330032D01*
X131022143Y-103330032D02*
X130961667Y-103571937D01*
X130961667Y-103571937D02*
X130901190Y-103692889D01*
X130901190Y-103692889D02*
X130780238Y-103813842D01*
X130780238Y-103813842D02*
X130598809Y-103874318D01*
X130598809Y-103874318D02*
X130296428Y-103874318D01*
X132110714Y-103027651D02*
X132110714Y-103874318D01*
X131808333Y-102543842D02*
X131505952Y-103450984D01*
X131505952Y-103450984D02*
X132292143Y-103450984D01*
X133380714Y-102604318D02*
X132775952Y-102604318D01*
X132775952Y-102604318D02*
X132715476Y-103209080D01*
X132715476Y-103209080D02*
X132775952Y-103148603D01*
X132775952Y-103148603D02*
X132896905Y-103088127D01*
X132896905Y-103088127D02*
X133199286Y-103088127D01*
X133199286Y-103088127D02*
X133320238Y-103148603D01*
X133320238Y-103148603D02*
X133380714Y-103209080D01*
X133380714Y-103209080D02*
X133441191Y-103330032D01*
X133441191Y-103330032D02*
X133441191Y-103632413D01*
X133441191Y-103632413D02*
X133380714Y-103753365D01*
X133380714Y-103753365D02*
X133320238Y-103813842D01*
X133320238Y-103813842D02*
X133199286Y-103874318D01*
X133199286Y-103874318D02*
X132896905Y-103874318D01*
X132896905Y-103874318D02*
X132775952Y-103813842D01*
X132775952Y-103813842D02*
X132715476Y-103753365D01*
X112749047Y-103874318D02*
X112144285Y-103874318D01*
X112144285Y-103874318D02*
X112144285Y-102604318D01*
X113172380Y-103209080D02*
X113595714Y-103209080D01*
X113777142Y-103874318D02*
X113172380Y-103874318D01*
X113172380Y-103874318D02*
X113172380Y-102604318D01*
X113172380Y-102604318D02*
X113777142Y-102604318D01*
X114321428Y-103874318D02*
X114321428Y-102604318D01*
X114321428Y-102604318D02*
X114623809Y-102604318D01*
X114623809Y-102604318D02*
X114805238Y-102664794D01*
X114805238Y-102664794D02*
X114926190Y-102785746D01*
X114926190Y-102785746D02*
X114986667Y-102906699D01*
X114986667Y-102906699D02*
X115047143Y-103148603D01*
X115047143Y-103148603D02*
X115047143Y-103330032D01*
X115047143Y-103330032D02*
X114986667Y-103571937D01*
X114986667Y-103571937D02*
X114926190Y-103692889D01*
X114926190Y-103692889D02*
X114805238Y-103813842D01*
X114805238Y-103813842D02*
X114623809Y-103874318D01*
X114623809Y-103874318D02*
X114321428Y-103874318D01*
X116135714Y-103027651D02*
X116135714Y-103874318D01*
X115833333Y-102543842D02*
X115530952Y-103450984D01*
X115530952Y-103450984D02*
X116317143Y-103450984D01*
X117345238Y-103027651D02*
X117345238Y-103874318D01*
X117042857Y-102543842D02*
X116740476Y-103450984D01*
X116740476Y-103450984D02*
X117526667Y-103450984D01*
X96674047Y-103874318D02*
X96069285Y-103874318D01*
X96069285Y-103874318D02*
X96069285Y-102604318D01*
X97097380Y-103209080D02*
X97520714Y-103209080D01*
X97702142Y-103874318D02*
X97097380Y-103874318D01*
X97097380Y-103874318D02*
X97097380Y-102604318D01*
X97097380Y-102604318D02*
X97702142Y-102604318D01*
X98246428Y-103874318D02*
X98246428Y-102604318D01*
X98246428Y-102604318D02*
X98548809Y-102604318D01*
X98548809Y-102604318D02*
X98730238Y-102664794D01*
X98730238Y-102664794D02*
X98851190Y-102785746D01*
X98851190Y-102785746D02*
X98911667Y-102906699D01*
X98911667Y-102906699D02*
X98972143Y-103148603D01*
X98972143Y-103148603D02*
X98972143Y-103330032D01*
X98972143Y-103330032D02*
X98911667Y-103571937D01*
X98911667Y-103571937D02*
X98851190Y-103692889D01*
X98851190Y-103692889D02*
X98730238Y-103813842D01*
X98730238Y-103813842D02*
X98548809Y-103874318D01*
X98548809Y-103874318D02*
X98246428Y-103874318D01*
X100060714Y-103027651D02*
X100060714Y-103874318D01*
X99758333Y-102543842D02*
X99455952Y-103450984D01*
X99455952Y-103450984D02*
X100242143Y-103450984D01*
X100605000Y-102604318D02*
X101391191Y-102604318D01*
X101391191Y-102604318D02*
X100967857Y-103088127D01*
X100967857Y-103088127D02*
X101149286Y-103088127D01*
X101149286Y-103088127D02*
X101270238Y-103148603D01*
X101270238Y-103148603D02*
X101330714Y-103209080D01*
X101330714Y-103209080D02*
X101391191Y-103330032D01*
X101391191Y-103330032D02*
X101391191Y-103632413D01*
X101391191Y-103632413D02*
X101330714Y-103753365D01*
X101330714Y-103753365D02*
X101270238Y-103813842D01*
X101270238Y-103813842D02*
X101149286Y-103874318D01*
X101149286Y-103874318D02*
X100786429Y-103874318D01*
X100786429Y-103874318D02*
X100665476Y-103813842D01*
X100665476Y-103813842D02*
X100605000Y-103753365D01*
X80649047Y-103874318D02*
X80044285Y-103874318D01*
X80044285Y-103874318D02*
X80044285Y-102604318D01*
X81072380Y-103209080D02*
X81495714Y-103209080D01*
X81677142Y-103874318D02*
X81072380Y-103874318D01*
X81072380Y-103874318D02*
X81072380Y-102604318D01*
X81072380Y-102604318D02*
X81677142Y-102604318D01*
X82221428Y-103874318D02*
X82221428Y-102604318D01*
X82221428Y-102604318D02*
X82523809Y-102604318D01*
X82523809Y-102604318D02*
X82705238Y-102664794D01*
X82705238Y-102664794D02*
X82826190Y-102785746D01*
X82826190Y-102785746D02*
X82886667Y-102906699D01*
X82886667Y-102906699D02*
X82947143Y-103148603D01*
X82947143Y-103148603D02*
X82947143Y-103330032D01*
X82947143Y-103330032D02*
X82886667Y-103571937D01*
X82886667Y-103571937D02*
X82826190Y-103692889D01*
X82826190Y-103692889D02*
X82705238Y-103813842D01*
X82705238Y-103813842D02*
X82523809Y-103874318D01*
X82523809Y-103874318D02*
X82221428Y-103874318D01*
X84035714Y-103027651D02*
X84035714Y-103874318D01*
X83733333Y-102543842D02*
X83430952Y-103450984D01*
X83430952Y-103450984D02*
X84217143Y-103450984D01*
X84640476Y-102725270D02*
X84700952Y-102664794D01*
X84700952Y-102664794D02*
X84821905Y-102604318D01*
X84821905Y-102604318D02*
X85124286Y-102604318D01*
X85124286Y-102604318D02*
X85245238Y-102664794D01*
X85245238Y-102664794D02*
X85305714Y-102725270D01*
X85305714Y-102725270D02*
X85366191Y-102846222D01*
X85366191Y-102846222D02*
X85366191Y-102967175D01*
X85366191Y-102967175D02*
X85305714Y-103148603D01*
X85305714Y-103148603D02*
X84580000Y-103874318D01*
X84580000Y-103874318D02*
X85366191Y-103874318D01*
X64549047Y-103854318D02*
X63944285Y-103854318D01*
X63944285Y-103854318D02*
X63944285Y-102584318D01*
X64972380Y-103189080D02*
X65395714Y-103189080D01*
X65577142Y-103854318D02*
X64972380Y-103854318D01*
X64972380Y-103854318D02*
X64972380Y-102584318D01*
X64972380Y-102584318D02*
X65577142Y-102584318D01*
X66121428Y-103854318D02*
X66121428Y-102584318D01*
X66121428Y-102584318D02*
X66423809Y-102584318D01*
X66423809Y-102584318D02*
X66605238Y-102644794D01*
X66605238Y-102644794D02*
X66726190Y-102765746D01*
X66726190Y-102765746D02*
X66786667Y-102886699D01*
X66786667Y-102886699D02*
X66847143Y-103128603D01*
X66847143Y-103128603D02*
X66847143Y-103310032D01*
X66847143Y-103310032D02*
X66786667Y-103551937D01*
X66786667Y-103551937D02*
X66726190Y-103672889D01*
X66726190Y-103672889D02*
X66605238Y-103793842D01*
X66605238Y-103793842D02*
X66423809Y-103854318D01*
X66423809Y-103854318D02*
X66121428Y-103854318D01*
X67935714Y-103007651D02*
X67935714Y-103854318D01*
X67633333Y-102523842D02*
X67330952Y-103430984D01*
X67330952Y-103430984D02*
X68117143Y-103430984D01*
X69266191Y-103854318D02*
X68540476Y-103854318D01*
X68903333Y-103854318D02*
X68903333Y-102584318D01*
X68903333Y-102584318D02*
X68782381Y-102765746D01*
X68782381Y-102765746D02*
X68661429Y-102886699D01*
X68661429Y-102886699D02*
X68540476Y-102947175D01*
X176924047Y-88574318D02*
X176319285Y-88574318D01*
X176319285Y-88574318D02*
X176319285Y-87304318D01*
X177347380Y-87909080D02*
X177770714Y-87909080D01*
X177952142Y-88574318D02*
X177347380Y-88574318D01*
X177347380Y-88574318D02*
X177347380Y-87304318D01*
X177347380Y-87304318D02*
X177952142Y-87304318D01*
X178496428Y-88574318D02*
X178496428Y-87304318D01*
X178496428Y-87304318D02*
X178798809Y-87304318D01*
X178798809Y-87304318D02*
X178980238Y-87364794D01*
X178980238Y-87364794D02*
X179101190Y-87485746D01*
X179101190Y-87485746D02*
X179161667Y-87606699D01*
X179161667Y-87606699D02*
X179222143Y-87848603D01*
X179222143Y-87848603D02*
X179222143Y-88030032D01*
X179222143Y-88030032D02*
X179161667Y-88271937D01*
X179161667Y-88271937D02*
X179101190Y-88392889D01*
X179101190Y-88392889D02*
X178980238Y-88513842D01*
X178980238Y-88513842D02*
X178798809Y-88574318D01*
X178798809Y-88574318D02*
X178496428Y-88574318D01*
X180310714Y-87727651D02*
X180310714Y-88574318D01*
X180008333Y-87243842D02*
X179705952Y-88150984D01*
X179705952Y-88150984D02*
X180492143Y-88150984D01*
X181217857Y-87304318D02*
X181338810Y-87304318D01*
X181338810Y-87304318D02*
X181459762Y-87364794D01*
X181459762Y-87364794D02*
X181520238Y-87425270D01*
X181520238Y-87425270D02*
X181580714Y-87546222D01*
X181580714Y-87546222D02*
X181641191Y-87788127D01*
X181641191Y-87788127D02*
X181641191Y-88090508D01*
X181641191Y-88090508D02*
X181580714Y-88332413D01*
X181580714Y-88332413D02*
X181520238Y-88453365D01*
X181520238Y-88453365D02*
X181459762Y-88513842D01*
X181459762Y-88513842D02*
X181338810Y-88574318D01*
X181338810Y-88574318D02*
X181217857Y-88574318D01*
X181217857Y-88574318D02*
X181096905Y-88513842D01*
X181096905Y-88513842D02*
X181036429Y-88453365D01*
X181036429Y-88453365D02*
X180975952Y-88332413D01*
X180975952Y-88332413D02*
X180915476Y-88090508D01*
X180915476Y-88090508D02*
X180915476Y-87788127D01*
X180915476Y-87788127D02*
X180975952Y-87546222D01*
X180975952Y-87546222D02*
X181036429Y-87425270D01*
X181036429Y-87425270D02*
X181096905Y-87364794D01*
X181096905Y-87364794D02*
X181217857Y-87304318D01*
X160874047Y-88574318D02*
X160269285Y-88574318D01*
X160269285Y-88574318D02*
X160269285Y-87304318D01*
X161297380Y-87909080D02*
X161720714Y-87909080D01*
X161902142Y-88574318D02*
X161297380Y-88574318D01*
X161297380Y-88574318D02*
X161297380Y-87304318D01*
X161297380Y-87304318D02*
X161902142Y-87304318D01*
X162446428Y-88574318D02*
X162446428Y-87304318D01*
X162446428Y-87304318D02*
X162748809Y-87304318D01*
X162748809Y-87304318D02*
X162930238Y-87364794D01*
X162930238Y-87364794D02*
X163051190Y-87485746D01*
X163051190Y-87485746D02*
X163111667Y-87606699D01*
X163111667Y-87606699D02*
X163172143Y-87848603D01*
X163172143Y-87848603D02*
X163172143Y-88030032D01*
X163172143Y-88030032D02*
X163111667Y-88271937D01*
X163111667Y-88271937D02*
X163051190Y-88392889D01*
X163051190Y-88392889D02*
X162930238Y-88513842D01*
X162930238Y-88513842D02*
X162748809Y-88574318D01*
X162748809Y-88574318D02*
X162446428Y-88574318D01*
X163595476Y-87304318D02*
X164381667Y-87304318D01*
X164381667Y-87304318D02*
X163958333Y-87788127D01*
X163958333Y-87788127D02*
X164139762Y-87788127D01*
X164139762Y-87788127D02*
X164260714Y-87848603D01*
X164260714Y-87848603D02*
X164321190Y-87909080D01*
X164321190Y-87909080D02*
X164381667Y-88030032D01*
X164381667Y-88030032D02*
X164381667Y-88332413D01*
X164381667Y-88332413D02*
X164321190Y-88453365D01*
X164321190Y-88453365D02*
X164260714Y-88513842D01*
X164260714Y-88513842D02*
X164139762Y-88574318D01*
X164139762Y-88574318D02*
X163776905Y-88574318D01*
X163776905Y-88574318D02*
X163655952Y-88513842D01*
X163655952Y-88513842D02*
X163595476Y-88453365D01*
X164986429Y-88574318D02*
X165228333Y-88574318D01*
X165228333Y-88574318D02*
X165349286Y-88513842D01*
X165349286Y-88513842D02*
X165409762Y-88453365D01*
X165409762Y-88453365D02*
X165530714Y-88271937D01*
X165530714Y-88271937D02*
X165591191Y-88030032D01*
X165591191Y-88030032D02*
X165591191Y-87546222D01*
X165591191Y-87546222D02*
X165530714Y-87425270D01*
X165530714Y-87425270D02*
X165470238Y-87364794D01*
X165470238Y-87364794D02*
X165349286Y-87304318D01*
X165349286Y-87304318D02*
X165107381Y-87304318D01*
X165107381Y-87304318D02*
X164986429Y-87364794D01*
X164986429Y-87364794D02*
X164925952Y-87425270D01*
X164925952Y-87425270D02*
X164865476Y-87546222D01*
X164865476Y-87546222D02*
X164865476Y-87848603D01*
X164865476Y-87848603D02*
X164925952Y-87969556D01*
X164925952Y-87969556D02*
X164986429Y-88030032D01*
X164986429Y-88030032D02*
X165107381Y-88090508D01*
X165107381Y-88090508D02*
X165349286Y-88090508D01*
X165349286Y-88090508D02*
X165470238Y-88030032D01*
X165470238Y-88030032D02*
X165530714Y-87969556D01*
X165530714Y-87969556D02*
X165591191Y-87848603D01*
X144849047Y-88574318D02*
X144244285Y-88574318D01*
X144244285Y-88574318D02*
X144244285Y-87304318D01*
X145272380Y-87909080D02*
X145695714Y-87909080D01*
X145877142Y-88574318D02*
X145272380Y-88574318D01*
X145272380Y-88574318D02*
X145272380Y-87304318D01*
X145272380Y-87304318D02*
X145877142Y-87304318D01*
X146421428Y-88574318D02*
X146421428Y-87304318D01*
X146421428Y-87304318D02*
X146723809Y-87304318D01*
X146723809Y-87304318D02*
X146905238Y-87364794D01*
X146905238Y-87364794D02*
X147026190Y-87485746D01*
X147026190Y-87485746D02*
X147086667Y-87606699D01*
X147086667Y-87606699D02*
X147147143Y-87848603D01*
X147147143Y-87848603D02*
X147147143Y-88030032D01*
X147147143Y-88030032D02*
X147086667Y-88271937D01*
X147086667Y-88271937D02*
X147026190Y-88392889D01*
X147026190Y-88392889D02*
X146905238Y-88513842D01*
X146905238Y-88513842D02*
X146723809Y-88574318D01*
X146723809Y-88574318D02*
X146421428Y-88574318D01*
X147570476Y-87304318D02*
X148356667Y-87304318D01*
X148356667Y-87304318D02*
X147933333Y-87788127D01*
X147933333Y-87788127D02*
X148114762Y-87788127D01*
X148114762Y-87788127D02*
X148235714Y-87848603D01*
X148235714Y-87848603D02*
X148296190Y-87909080D01*
X148296190Y-87909080D02*
X148356667Y-88030032D01*
X148356667Y-88030032D02*
X148356667Y-88332413D01*
X148356667Y-88332413D02*
X148296190Y-88453365D01*
X148296190Y-88453365D02*
X148235714Y-88513842D01*
X148235714Y-88513842D02*
X148114762Y-88574318D01*
X148114762Y-88574318D02*
X147751905Y-88574318D01*
X147751905Y-88574318D02*
X147630952Y-88513842D01*
X147630952Y-88513842D02*
X147570476Y-88453365D01*
X149082381Y-87848603D02*
X148961429Y-87788127D01*
X148961429Y-87788127D02*
X148900952Y-87727651D01*
X148900952Y-87727651D02*
X148840476Y-87606699D01*
X148840476Y-87606699D02*
X148840476Y-87546222D01*
X148840476Y-87546222D02*
X148900952Y-87425270D01*
X148900952Y-87425270D02*
X148961429Y-87364794D01*
X148961429Y-87364794D02*
X149082381Y-87304318D01*
X149082381Y-87304318D02*
X149324286Y-87304318D01*
X149324286Y-87304318D02*
X149445238Y-87364794D01*
X149445238Y-87364794D02*
X149505714Y-87425270D01*
X149505714Y-87425270D02*
X149566191Y-87546222D01*
X149566191Y-87546222D02*
X149566191Y-87606699D01*
X149566191Y-87606699D02*
X149505714Y-87727651D01*
X149505714Y-87727651D02*
X149445238Y-87788127D01*
X149445238Y-87788127D02*
X149324286Y-87848603D01*
X149324286Y-87848603D02*
X149082381Y-87848603D01*
X149082381Y-87848603D02*
X148961429Y-87909080D01*
X148961429Y-87909080D02*
X148900952Y-87969556D01*
X148900952Y-87969556D02*
X148840476Y-88090508D01*
X148840476Y-88090508D02*
X148840476Y-88332413D01*
X148840476Y-88332413D02*
X148900952Y-88453365D01*
X148900952Y-88453365D02*
X148961429Y-88513842D01*
X148961429Y-88513842D02*
X149082381Y-88574318D01*
X149082381Y-88574318D02*
X149324286Y-88574318D01*
X149324286Y-88574318D02*
X149445238Y-88513842D01*
X149445238Y-88513842D02*
X149505714Y-88453365D01*
X149505714Y-88453365D02*
X149566191Y-88332413D01*
X149566191Y-88332413D02*
X149566191Y-88090508D01*
X149566191Y-88090508D02*
X149505714Y-87969556D01*
X149505714Y-87969556D02*
X149445238Y-87909080D01*
X149445238Y-87909080D02*
X149324286Y-87848603D01*
X128749047Y-88574318D02*
X128144285Y-88574318D01*
X128144285Y-88574318D02*
X128144285Y-87304318D01*
X129172380Y-87909080D02*
X129595714Y-87909080D01*
X129777142Y-88574318D02*
X129172380Y-88574318D01*
X129172380Y-88574318D02*
X129172380Y-87304318D01*
X129172380Y-87304318D02*
X129777142Y-87304318D01*
X130321428Y-88574318D02*
X130321428Y-87304318D01*
X130321428Y-87304318D02*
X130623809Y-87304318D01*
X130623809Y-87304318D02*
X130805238Y-87364794D01*
X130805238Y-87364794D02*
X130926190Y-87485746D01*
X130926190Y-87485746D02*
X130986667Y-87606699D01*
X130986667Y-87606699D02*
X131047143Y-87848603D01*
X131047143Y-87848603D02*
X131047143Y-88030032D01*
X131047143Y-88030032D02*
X130986667Y-88271937D01*
X130986667Y-88271937D02*
X130926190Y-88392889D01*
X130926190Y-88392889D02*
X130805238Y-88513842D01*
X130805238Y-88513842D02*
X130623809Y-88574318D01*
X130623809Y-88574318D02*
X130321428Y-88574318D01*
X131470476Y-87304318D02*
X132256667Y-87304318D01*
X132256667Y-87304318D02*
X131833333Y-87788127D01*
X131833333Y-87788127D02*
X132014762Y-87788127D01*
X132014762Y-87788127D02*
X132135714Y-87848603D01*
X132135714Y-87848603D02*
X132196190Y-87909080D01*
X132196190Y-87909080D02*
X132256667Y-88030032D01*
X132256667Y-88030032D02*
X132256667Y-88332413D01*
X132256667Y-88332413D02*
X132196190Y-88453365D01*
X132196190Y-88453365D02*
X132135714Y-88513842D01*
X132135714Y-88513842D02*
X132014762Y-88574318D01*
X132014762Y-88574318D02*
X131651905Y-88574318D01*
X131651905Y-88574318D02*
X131530952Y-88513842D01*
X131530952Y-88513842D02*
X131470476Y-88453365D01*
X132680000Y-87304318D02*
X133526667Y-87304318D01*
X133526667Y-87304318D02*
X132982381Y-88574318D01*
X112749047Y-88574318D02*
X112144285Y-88574318D01*
X112144285Y-88574318D02*
X112144285Y-87304318D01*
X113172380Y-87909080D02*
X113595714Y-87909080D01*
X113777142Y-88574318D02*
X113172380Y-88574318D01*
X113172380Y-88574318D02*
X113172380Y-87304318D01*
X113172380Y-87304318D02*
X113777142Y-87304318D01*
X114321428Y-88574318D02*
X114321428Y-87304318D01*
X114321428Y-87304318D02*
X114623809Y-87304318D01*
X114623809Y-87304318D02*
X114805238Y-87364794D01*
X114805238Y-87364794D02*
X114926190Y-87485746D01*
X114926190Y-87485746D02*
X114986667Y-87606699D01*
X114986667Y-87606699D02*
X115047143Y-87848603D01*
X115047143Y-87848603D02*
X115047143Y-88030032D01*
X115047143Y-88030032D02*
X114986667Y-88271937D01*
X114986667Y-88271937D02*
X114926190Y-88392889D01*
X114926190Y-88392889D02*
X114805238Y-88513842D01*
X114805238Y-88513842D02*
X114623809Y-88574318D01*
X114623809Y-88574318D02*
X114321428Y-88574318D01*
X115470476Y-87304318D02*
X116256667Y-87304318D01*
X116256667Y-87304318D02*
X115833333Y-87788127D01*
X115833333Y-87788127D02*
X116014762Y-87788127D01*
X116014762Y-87788127D02*
X116135714Y-87848603D01*
X116135714Y-87848603D02*
X116196190Y-87909080D01*
X116196190Y-87909080D02*
X116256667Y-88030032D01*
X116256667Y-88030032D02*
X116256667Y-88332413D01*
X116256667Y-88332413D02*
X116196190Y-88453365D01*
X116196190Y-88453365D02*
X116135714Y-88513842D01*
X116135714Y-88513842D02*
X116014762Y-88574318D01*
X116014762Y-88574318D02*
X115651905Y-88574318D01*
X115651905Y-88574318D02*
X115530952Y-88513842D01*
X115530952Y-88513842D02*
X115470476Y-88453365D01*
X117345238Y-87304318D02*
X117103333Y-87304318D01*
X117103333Y-87304318D02*
X116982381Y-87364794D01*
X116982381Y-87364794D02*
X116921905Y-87425270D01*
X116921905Y-87425270D02*
X116800952Y-87606699D01*
X116800952Y-87606699D02*
X116740476Y-87848603D01*
X116740476Y-87848603D02*
X116740476Y-88332413D01*
X116740476Y-88332413D02*
X116800952Y-88453365D01*
X116800952Y-88453365D02*
X116861429Y-88513842D01*
X116861429Y-88513842D02*
X116982381Y-88574318D01*
X116982381Y-88574318D02*
X117224286Y-88574318D01*
X117224286Y-88574318D02*
X117345238Y-88513842D01*
X117345238Y-88513842D02*
X117405714Y-88453365D01*
X117405714Y-88453365D02*
X117466191Y-88332413D01*
X117466191Y-88332413D02*
X117466191Y-88030032D01*
X117466191Y-88030032D02*
X117405714Y-87909080D01*
X117405714Y-87909080D02*
X117345238Y-87848603D01*
X117345238Y-87848603D02*
X117224286Y-87788127D01*
X117224286Y-87788127D02*
X116982381Y-87788127D01*
X116982381Y-87788127D02*
X116861429Y-87848603D01*
X116861429Y-87848603D02*
X116800952Y-87909080D01*
X116800952Y-87909080D02*
X116740476Y-88030032D01*
X96649047Y-88574318D02*
X96044285Y-88574318D01*
X96044285Y-88574318D02*
X96044285Y-87304318D01*
X97072380Y-87909080D02*
X97495714Y-87909080D01*
X97677142Y-88574318D02*
X97072380Y-88574318D01*
X97072380Y-88574318D02*
X97072380Y-87304318D01*
X97072380Y-87304318D02*
X97677142Y-87304318D01*
X98221428Y-88574318D02*
X98221428Y-87304318D01*
X98221428Y-87304318D02*
X98523809Y-87304318D01*
X98523809Y-87304318D02*
X98705238Y-87364794D01*
X98705238Y-87364794D02*
X98826190Y-87485746D01*
X98826190Y-87485746D02*
X98886667Y-87606699D01*
X98886667Y-87606699D02*
X98947143Y-87848603D01*
X98947143Y-87848603D02*
X98947143Y-88030032D01*
X98947143Y-88030032D02*
X98886667Y-88271937D01*
X98886667Y-88271937D02*
X98826190Y-88392889D01*
X98826190Y-88392889D02*
X98705238Y-88513842D01*
X98705238Y-88513842D02*
X98523809Y-88574318D01*
X98523809Y-88574318D02*
X98221428Y-88574318D01*
X99370476Y-87304318D02*
X100156667Y-87304318D01*
X100156667Y-87304318D02*
X99733333Y-87788127D01*
X99733333Y-87788127D02*
X99914762Y-87788127D01*
X99914762Y-87788127D02*
X100035714Y-87848603D01*
X100035714Y-87848603D02*
X100096190Y-87909080D01*
X100096190Y-87909080D02*
X100156667Y-88030032D01*
X100156667Y-88030032D02*
X100156667Y-88332413D01*
X100156667Y-88332413D02*
X100096190Y-88453365D01*
X100096190Y-88453365D02*
X100035714Y-88513842D01*
X100035714Y-88513842D02*
X99914762Y-88574318D01*
X99914762Y-88574318D02*
X99551905Y-88574318D01*
X99551905Y-88574318D02*
X99430952Y-88513842D01*
X99430952Y-88513842D02*
X99370476Y-88453365D01*
X101305714Y-87304318D02*
X100700952Y-87304318D01*
X100700952Y-87304318D02*
X100640476Y-87909080D01*
X100640476Y-87909080D02*
X100700952Y-87848603D01*
X100700952Y-87848603D02*
X100821905Y-87788127D01*
X100821905Y-87788127D02*
X101124286Y-87788127D01*
X101124286Y-87788127D02*
X101245238Y-87848603D01*
X101245238Y-87848603D02*
X101305714Y-87909080D01*
X101305714Y-87909080D02*
X101366191Y-88030032D01*
X101366191Y-88030032D02*
X101366191Y-88332413D01*
X101366191Y-88332413D02*
X101305714Y-88453365D01*
X101305714Y-88453365D02*
X101245238Y-88513842D01*
X101245238Y-88513842D02*
X101124286Y-88574318D01*
X101124286Y-88574318D02*
X100821905Y-88574318D01*
X100821905Y-88574318D02*
X100700952Y-88513842D01*
X100700952Y-88513842D02*
X100640476Y-88453365D01*
X80624047Y-88574318D02*
X80019285Y-88574318D01*
X80019285Y-88574318D02*
X80019285Y-87304318D01*
X81047380Y-87909080D02*
X81470714Y-87909080D01*
X81652142Y-88574318D02*
X81047380Y-88574318D01*
X81047380Y-88574318D02*
X81047380Y-87304318D01*
X81047380Y-87304318D02*
X81652142Y-87304318D01*
X82196428Y-88574318D02*
X82196428Y-87304318D01*
X82196428Y-87304318D02*
X82498809Y-87304318D01*
X82498809Y-87304318D02*
X82680238Y-87364794D01*
X82680238Y-87364794D02*
X82801190Y-87485746D01*
X82801190Y-87485746D02*
X82861667Y-87606699D01*
X82861667Y-87606699D02*
X82922143Y-87848603D01*
X82922143Y-87848603D02*
X82922143Y-88030032D01*
X82922143Y-88030032D02*
X82861667Y-88271937D01*
X82861667Y-88271937D02*
X82801190Y-88392889D01*
X82801190Y-88392889D02*
X82680238Y-88513842D01*
X82680238Y-88513842D02*
X82498809Y-88574318D01*
X82498809Y-88574318D02*
X82196428Y-88574318D01*
X83345476Y-87304318D02*
X84131667Y-87304318D01*
X84131667Y-87304318D02*
X83708333Y-87788127D01*
X83708333Y-87788127D02*
X83889762Y-87788127D01*
X83889762Y-87788127D02*
X84010714Y-87848603D01*
X84010714Y-87848603D02*
X84071190Y-87909080D01*
X84071190Y-87909080D02*
X84131667Y-88030032D01*
X84131667Y-88030032D02*
X84131667Y-88332413D01*
X84131667Y-88332413D02*
X84071190Y-88453365D01*
X84071190Y-88453365D02*
X84010714Y-88513842D01*
X84010714Y-88513842D02*
X83889762Y-88574318D01*
X83889762Y-88574318D02*
X83526905Y-88574318D01*
X83526905Y-88574318D02*
X83405952Y-88513842D01*
X83405952Y-88513842D02*
X83345476Y-88453365D01*
X85220238Y-87727651D02*
X85220238Y-88574318D01*
X84917857Y-87243842D02*
X84615476Y-88150984D01*
X84615476Y-88150984D02*
X85401667Y-88150984D01*
X64549047Y-88614318D02*
X63944285Y-88614318D01*
X63944285Y-88614318D02*
X63944285Y-87344318D01*
X64972380Y-87949080D02*
X65395714Y-87949080D01*
X65577142Y-88614318D02*
X64972380Y-88614318D01*
X64972380Y-88614318D02*
X64972380Y-87344318D01*
X64972380Y-87344318D02*
X65577142Y-87344318D01*
X66121428Y-88614318D02*
X66121428Y-87344318D01*
X66121428Y-87344318D02*
X66423809Y-87344318D01*
X66423809Y-87344318D02*
X66605238Y-87404794D01*
X66605238Y-87404794D02*
X66726190Y-87525746D01*
X66726190Y-87525746D02*
X66786667Y-87646699D01*
X66786667Y-87646699D02*
X66847143Y-87888603D01*
X66847143Y-87888603D02*
X66847143Y-88070032D01*
X66847143Y-88070032D02*
X66786667Y-88311937D01*
X66786667Y-88311937D02*
X66726190Y-88432889D01*
X66726190Y-88432889D02*
X66605238Y-88553842D01*
X66605238Y-88553842D02*
X66423809Y-88614318D01*
X66423809Y-88614318D02*
X66121428Y-88614318D01*
X67270476Y-87344318D02*
X68056667Y-87344318D01*
X68056667Y-87344318D02*
X67633333Y-87828127D01*
X67633333Y-87828127D02*
X67814762Y-87828127D01*
X67814762Y-87828127D02*
X67935714Y-87888603D01*
X67935714Y-87888603D02*
X67996190Y-87949080D01*
X67996190Y-87949080D02*
X68056667Y-88070032D01*
X68056667Y-88070032D02*
X68056667Y-88372413D01*
X68056667Y-88372413D02*
X67996190Y-88493365D01*
X67996190Y-88493365D02*
X67935714Y-88553842D01*
X67935714Y-88553842D02*
X67814762Y-88614318D01*
X67814762Y-88614318D02*
X67451905Y-88614318D01*
X67451905Y-88614318D02*
X67330952Y-88553842D01*
X67330952Y-88553842D02*
X67270476Y-88493365D01*
X68480000Y-87344318D02*
X69266191Y-87344318D01*
X69266191Y-87344318D02*
X68842857Y-87828127D01*
X68842857Y-87828127D02*
X69024286Y-87828127D01*
X69024286Y-87828127D02*
X69145238Y-87888603D01*
X69145238Y-87888603D02*
X69205714Y-87949080D01*
X69205714Y-87949080D02*
X69266191Y-88070032D01*
X69266191Y-88070032D02*
X69266191Y-88372413D01*
X69266191Y-88372413D02*
X69205714Y-88493365D01*
X69205714Y-88493365D02*
X69145238Y-88553842D01*
X69145238Y-88553842D02*
X69024286Y-88614318D01*
X69024286Y-88614318D02*
X68661429Y-88614318D01*
X68661429Y-88614318D02*
X68540476Y-88553842D01*
X68540476Y-88553842D02*
X68480000Y-88493365D01*
X176949047Y-73374318D02*
X176344285Y-73374318D01*
X176344285Y-73374318D02*
X176344285Y-72104318D01*
X177372380Y-72709080D02*
X177795714Y-72709080D01*
X177977142Y-73374318D02*
X177372380Y-73374318D01*
X177372380Y-73374318D02*
X177372380Y-72104318D01*
X177372380Y-72104318D02*
X177977142Y-72104318D01*
X178521428Y-73374318D02*
X178521428Y-72104318D01*
X178521428Y-72104318D02*
X178823809Y-72104318D01*
X178823809Y-72104318D02*
X179005238Y-72164794D01*
X179005238Y-72164794D02*
X179126190Y-72285746D01*
X179126190Y-72285746D02*
X179186667Y-72406699D01*
X179186667Y-72406699D02*
X179247143Y-72648603D01*
X179247143Y-72648603D02*
X179247143Y-72830032D01*
X179247143Y-72830032D02*
X179186667Y-73071937D01*
X179186667Y-73071937D02*
X179126190Y-73192889D01*
X179126190Y-73192889D02*
X179005238Y-73313842D01*
X179005238Y-73313842D02*
X178823809Y-73374318D01*
X178823809Y-73374318D02*
X178521428Y-73374318D01*
X179670476Y-72104318D02*
X180456667Y-72104318D01*
X180456667Y-72104318D02*
X180033333Y-72588127D01*
X180033333Y-72588127D02*
X180214762Y-72588127D01*
X180214762Y-72588127D02*
X180335714Y-72648603D01*
X180335714Y-72648603D02*
X180396190Y-72709080D01*
X180396190Y-72709080D02*
X180456667Y-72830032D01*
X180456667Y-72830032D02*
X180456667Y-73132413D01*
X180456667Y-73132413D02*
X180396190Y-73253365D01*
X180396190Y-73253365D02*
X180335714Y-73313842D01*
X180335714Y-73313842D02*
X180214762Y-73374318D01*
X180214762Y-73374318D02*
X179851905Y-73374318D01*
X179851905Y-73374318D02*
X179730952Y-73313842D01*
X179730952Y-73313842D02*
X179670476Y-73253365D01*
X180940476Y-72225270D02*
X181000952Y-72164794D01*
X181000952Y-72164794D02*
X181121905Y-72104318D01*
X181121905Y-72104318D02*
X181424286Y-72104318D01*
X181424286Y-72104318D02*
X181545238Y-72164794D01*
X181545238Y-72164794D02*
X181605714Y-72225270D01*
X181605714Y-72225270D02*
X181666191Y-72346222D01*
X181666191Y-72346222D02*
X181666191Y-72467175D01*
X181666191Y-72467175D02*
X181605714Y-72648603D01*
X181605714Y-72648603D02*
X180880000Y-73374318D01*
X180880000Y-73374318D02*
X181666191Y-73374318D01*
X160849047Y-73374318D02*
X160244285Y-73374318D01*
X160244285Y-73374318D02*
X160244285Y-72104318D01*
X161272380Y-72709080D02*
X161695714Y-72709080D01*
X161877142Y-73374318D02*
X161272380Y-73374318D01*
X161272380Y-73374318D02*
X161272380Y-72104318D01*
X161272380Y-72104318D02*
X161877142Y-72104318D01*
X162421428Y-73374318D02*
X162421428Y-72104318D01*
X162421428Y-72104318D02*
X162723809Y-72104318D01*
X162723809Y-72104318D02*
X162905238Y-72164794D01*
X162905238Y-72164794D02*
X163026190Y-72285746D01*
X163026190Y-72285746D02*
X163086667Y-72406699D01*
X163086667Y-72406699D02*
X163147143Y-72648603D01*
X163147143Y-72648603D02*
X163147143Y-72830032D01*
X163147143Y-72830032D02*
X163086667Y-73071937D01*
X163086667Y-73071937D02*
X163026190Y-73192889D01*
X163026190Y-73192889D02*
X162905238Y-73313842D01*
X162905238Y-73313842D02*
X162723809Y-73374318D01*
X162723809Y-73374318D02*
X162421428Y-73374318D01*
X163570476Y-72104318D02*
X164356667Y-72104318D01*
X164356667Y-72104318D02*
X163933333Y-72588127D01*
X163933333Y-72588127D02*
X164114762Y-72588127D01*
X164114762Y-72588127D02*
X164235714Y-72648603D01*
X164235714Y-72648603D02*
X164296190Y-72709080D01*
X164296190Y-72709080D02*
X164356667Y-72830032D01*
X164356667Y-72830032D02*
X164356667Y-73132413D01*
X164356667Y-73132413D02*
X164296190Y-73253365D01*
X164296190Y-73253365D02*
X164235714Y-73313842D01*
X164235714Y-73313842D02*
X164114762Y-73374318D01*
X164114762Y-73374318D02*
X163751905Y-73374318D01*
X163751905Y-73374318D02*
X163630952Y-73313842D01*
X163630952Y-73313842D02*
X163570476Y-73253365D01*
X165566191Y-73374318D02*
X164840476Y-73374318D01*
X165203333Y-73374318D02*
X165203333Y-72104318D01*
X165203333Y-72104318D02*
X165082381Y-72285746D01*
X165082381Y-72285746D02*
X164961429Y-72406699D01*
X164961429Y-72406699D02*
X164840476Y-72467175D01*
X144849047Y-73374318D02*
X144244285Y-73374318D01*
X144244285Y-73374318D02*
X144244285Y-72104318D01*
X145272380Y-72709080D02*
X145695714Y-72709080D01*
X145877142Y-73374318D02*
X145272380Y-73374318D01*
X145272380Y-73374318D02*
X145272380Y-72104318D01*
X145272380Y-72104318D02*
X145877142Y-72104318D01*
X146421428Y-73374318D02*
X146421428Y-72104318D01*
X146421428Y-72104318D02*
X146723809Y-72104318D01*
X146723809Y-72104318D02*
X146905238Y-72164794D01*
X146905238Y-72164794D02*
X147026190Y-72285746D01*
X147026190Y-72285746D02*
X147086667Y-72406699D01*
X147086667Y-72406699D02*
X147147143Y-72648603D01*
X147147143Y-72648603D02*
X147147143Y-72830032D01*
X147147143Y-72830032D02*
X147086667Y-73071937D01*
X147086667Y-73071937D02*
X147026190Y-73192889D01*
X147026190Y-73192889D02*
X146905238Y-73313842D01*
X146905238Y-73313842D02*
X146723809Y-73374318D01*
X146723809Y-73374318D02*
X146421428Y-73374318D01*
X147570476Y-72104318D02*
X148356667Y-72104318D01*
X148356667Y-72104318D02*
X147933333Y-72588127D01*
X147933333Y-72588127D02*
X148114762Y-72588127D01*
X148114762Y-72588127D02*
X148235714Y-72648603D01*
X148235714Y-72648603D02*
X148296190Y-72709080D01*
X148296190Y-72709080D02*
X148356667Y-72830032D01*
X148356667Y-72830032D02*
X148356667Y-73132413D01*
X148356667Y-73132413D02*
X148296190Y-73253365D01*
X148296190Y-73253365D02*
X148235714Y-73313842D01*
X148235714Y-73313842D02*
X148114762Y-73374318D01*
X148114762Y-73374318D02*
X147751905Y-73374318D01*
X147751905Y-73374318D02*
X147630952Y-73313842D01*
X147630952Y-73313842D02*
X147570476Y-73253365D01*
X149142857Y-72104318D02*
X149263810Y-72104318D01*
X149263810Y-72104318D02*
X149384762Y-72164794D01*
X149384762Y-72164794D02*
X149445238Y-72225270D01*
X149445238Y-72225270D02*
X149505714Y-72346222D01*
X149505714Y-72346222D02*
X149566191Y-72588127D01*
X149566191Y-72588127D02*
X149566191Y-72890508D01*
X149566191Y-72890508D02*
X149505714Y-73132413D01*
X149505714Y-73132413D02*
X149445238Y-73253365D01*
X149445238Y-73253365D02*
X149384762Y-73313842D01*
X149384762Y-73313842D02*
X149263810Y-73374318D01*
X149263810Y-73374318D02*
X149142857Y-73374318D01*
X149142857Y-73374318D02*
X149021905Y-73313842D01*
X149021905Y-73313842D02*
X148961429Y-73253365D01*
X148961429Y-73253365D02*
X148900952Y-73132413D01*
X148900952Y-73132413D02*
X148840476Y-72890508D01*
X148840476Y-72890508D02*
X148840476Y-72588127D01*
X148840476Y-72588127D02*
X148900952Y-72346222D01*
X148900952Y-72346222D02*
X148961429Y-72225270D01*
X148961429Y-72225270D02*
X149021905Y-72164794D01*
X149021905Y-72164794D02*
X149142857Y-72104318D01*
X128749047Y-73374318D02*
X128144285Y-73374318D01*
X128144285Y-73374318D02*
X128144285Y-72104318D01*
X129172380Y-72709080D02*
X129595714Y-72709080D01*
X129777142Y-73374318D02*
X129172380Y-73374318D01*
X129172380Y-73374318D02*
X129172380Y-72104318D01*
X129172380Y-72104318D02*
X129777142Y-72104318D01*
X130321428Y-73374318D02*
X130321428Y-72104318D01*
X130321428Y-72104318D02*
X130623809Y-72104318D01*
X130623809Y-72104318D02*
X130805238Y-72164794D01*
X130805238Y-72164794D02*
X130926190Y-72285746D01*
X130926190Y-72285746D02*
X130986667Y-72406699D01*
X130986667Y-72406699D02*
X131047143Y-72648603D01*
X131047143Y-72648603D02*
X131047143Y-72830032D01*
X131047143Y-72830032D02*
X130986667Y-73071937D01*
X130986667Y-73071937D02*
X130926190Y-73192889D01*
X130926190Y-73192889D02*
X130805238Y-73313842D01*
X130805238Y-73313842D02*
X130623809Y-73374318D01*
X130623809Y-73374318D02*
X130321428Y-73374318D01*
X131530952Y-72225270D02*
X131591428Y-72164794D01*
X131591428Y-72164794D02*
X131712381Y-72104318D01*
X131712381Y-72104318D02*
X132014762Y-72104318D01*
X132014762Y-72104318D02*
X132135714Y-72164794D01*
X132135714Y-72164794D02*
X132196190Y-72225270D01*
X132196190Y-72225270D02*
X132256667Y-72346222D01*
X132256667Y-72346222D02*
X132256667Y-72467175D01*
X132256667Y-72467175D02*
X132196190Y-72648603D01*
X132196190Y-72648603D02*
X131470476Y-73374318D01*
X131470476Y-73374318D02*
X132256667Y-73374318D01*
X132861429Y-73374318D02*
X133103333Y-73374318D01*
X133103333Y-73374318D02*
X133224286Y-73313842D01*
X133224286Y-73313842D02*
X133284762Y-73253365D01*
X133284762Y-73253365D02*
X133405714Y-73071937D01*
X133405714Y-73071937D02*
X133466191Y-72830032D01*
X133466191Y-72830032D02*
X133466191Y-72346222D01*
X133466191Y-72346222D02*
X133405714Y-72225270D01*
X133405714Y-72225270D02*
X133345238Y-72164794D01*
X133345238Y-72164794D02*
X133224286Y-72104318D01*
X133224286Y-72104318D02*
X132982381Y-72104318D01*
X132982381Y-72104318D02*
X132861429Y-72164794D01*
X132861429Y-72164794D02*
X132800952Y-72225270D01*
X132800952Y-72225270D02*
X132740476Y-72346222D01*
X132740476Y-72346222D02*
X132740476Y-72648603D01*
X132740476Y-72648603D02*
X132800952Y-72769556D01*
X132800952Y-72769556D02*
X132861429Y-72830032D01*
X132861429Y-72830032D02*
X132982381Y-72890508D01*
X132982381Y-72890508D02*
X133224286Y-72890508D01*
X133224286Y-72890508D02*
X133345238Y-72830032D01*
X133345238Y-72830032D02*
X133405714Y-72769556D01*
X133405714Y-72769556D02*
X133466191Y-72648603D01*
X112749047Y-73374318D02*
X112144285Y-73374318D01*
X112144285Y-73374318D02*
X112144285Y-72104318D01*
X113172380Y-72709080D02*
X113595714Y-72709080D01*
X113777142Y-73374318D02*
X113172380Y-73374318D01*
X113172380Y-73374318D02*
X113172380Y-72104318D01*
X113172380Y-72104318D02*
X113777142Y-72104318D01*
X114321428Y-73374318D02*
X114321428Y-72104318D01*
X114321428Y-72104318D02*
X114623809Y-72104318D01*
X114623809Y-72104318D02*
X114805238Y-72164794D01*
X114805238Y-72164794D02*
X114926190Y-72285746D01*
X114926190Y-72285746D02*
X114986667Y-72406699D01*
X114986667Y-72406699D02*
X115047143Y-72648603D01*
X115047143Y-72648603D02*
X115047143Y-72830032D01*
X115047143Y-72830032D02*
X114986667Y-73071937D01*
X114986667Y-73071937D02*
X114926190Y-73192889D01*
X114926190Y-73192889D02*
X114805238Y-73313842D01*
X114805238Y-73313842D02*
X114623809Y-73374318D01*
X114623809Y-73374318D02*
X114321428Y-73374318D01*
X115530952Y-72225270D02*
X115591428Y-72164794D01*
X115591428Y-72164794D02*
X115712381Y-72104318D01*
X115712381Y-72104318D02*
X116014762Y-72104318D01*
X116014762Y-72104318D02*
X116135714Y-72164794D01*
X116135714Y-72164794D02*
X116196190Y-72225270D01*
X116196190Y-72225270D02*
X116256667Y-72346222D01*
X116256667Y-72346222D02*
X116256667Y-72467175D01*
X116256667Y-72467175D02*
X116196190Y-72648603D01*
X116196190Y-72648603D02*
X115470476Y-73374318D01*
X115470476Y-73374318D02*
X116256667Y-73374318D01*
X116982381Y-72648603D02*
X116861429Y-72588127D01*
X116861429Y-72588127D02*
X116800952Y-72527651D01*
X116800952Y-72527651D02*
X116740476Y-72406699D01*
X116740476Y-72406699D02*
X116740476Y-72346222D01*
X116740476Y-72346222D02*
X116800952Y-72225270D01*
X116800952Y-72225270D02*
X116861429Y-72164794D01*
X116861429Y-72164794D02*
X116982381Y-72104318D01*
X116982381Y-72104318D02*
X117224286Y-72104318D01*
X117224286Y-72104318D02*
X117345238Y-72164794D01*
X117345238Y-72164794D02*
X117405714Y-72225270D01*
X117405714Y-72225270D02*
X117466191Y-72346222D01*
X117466191Y-72346222D02*
X117466191Y-72406699D01*
X117466191Y-72406699D02*
X117405714Y-72527651D01*
X117405714Y-72527651D02*
X117345238Y-72588127D01*
X117345238Y-72588127D02*
X117224286Y-72648603D01*
X117224286Y-72648603D02*
X116982381Y-72648603D01*
X116982381Y-72648603D02*
X116861429Y-72709080D01*
X116861429Y-72709080D02*
X116800952Y-72769556D01*
X116800952Y-72769556D02*
X116740476Y-72890508D01*
X116740476Y-72890508D02*
X116740476Y-73132413D01*
X116740476Y-73132413D02*
X116800952Y-73253365D01*
X116800952Y-73253365D02*
X116861429Y-73313842D01*
X116861429Y-73313842D02*
X116982381Y-73374318D01*
X116982381Y-73374318D02*
X117224286Y-73374318D01*
X117224286Y-73374318D02*
X117345238Y-73313842D01*
X117345238Y-73313842D02*
X117405714Y-73253365D01*
X117405714Y-73253365D02*
X117466191Y-73132413D01*
X117466191Y-73132413D02*
X117466191Y-72890508D01*
X117466191Y-72890508D02*
X117405714Y-72769556D01*
X117405714Y-72769556D02*
X117345238Y-72709080D01*
X117345238Y-72709080D02*
X117224286Y-72648603D01*
X96649047Y-73374318D02*
X96044285Y-73374318D01*
X96044285Y-73374318D02*
X96044285Y-72104318D01*
X97072380Y-72709080D02*
X97495714Y-72709080D01*
X97677142Y-73374318D02*
X97072380Y-73374318D01*
X97072380Y-73374318D02*
X97072380Y-72104318D01*
X97072380Y-72104318D02*
X97677142Y-72104318D01*
X98221428Y-73374318D02*
X98221428Y-72104318D01*
X98221428Y-72104318D02*
X98523809Y-72104318D01*
X98523809Y-72104318D02*
X98705238Y-72164794D01*
X98705238Y-72164794D02*
X98826190Y-72285746D01*
X98826190Y-72285746D02*
X98886667Y-72406699D01*
X98886667Y-72406699D02*
X98947143Y-72648603D01*
X98947143Y-72648603D02*
X98947143Y-72830032D01*
X98947143Y-72830032D02*
X98886667Y-73071937D01*
X98886667Y-73071937D02*
X98826190Y-73192889D01*
X98826190Y-73192889D02*
X98705238Y-73313842D01*
X98705238Y-73313842D02*
X98523809Y-73374318D01*
X98523809Y-73374318D02*
X98221428Y-73374318D01*
X99430952Y-72225270D02*
X99491428Y-72164794D01*
X99491428Y-72164794D02*
X99612381Y-72104318D01*
X99612381Y-72104318D02*
X99914762Y-72104318D01*
X99914762Y-72104318D02*
X100035714Y-72164794D01*
X100035714Y-72164794D02*
X100096190Y-72225270D01*
X100096190Y-72225270D02*
X100156667Y-72346222D01*
X100156667Y-72346222D02*
X100156667Y-72467175D01*
X100156667Y-72467175D02*
X100096190Y-72648603D01*
X100096190Y-72648603D02*
X99370476Y-73374318D01*
X99370476Y-73374318D02*
X100156667Y-73374318D01*
X100580000Y-72104318D02*
X101426667Y-72104318D01*
X101426667Y-72104318D02*
X100882381Y-73374318D01*
X80649047Y-73374318D02*
X80044285Y-73374318D01*
X80044285Y-73374318D02*
X80044285Y-72104318D01*
X81072380Y-72709080D02*
X81495714Y-72709080D01*
X81677142Y-73374318D02*
X81072380Y-73374318D01*
X81072380Y-73374318D02*
X81072380Y-72104318D01*
X81072380Y-72104318D02*
X81677142Y-72104318D01*
X82221428Y-73374318D02*
X82221428Y-72104318D01*
X82221428Y-72104318D02*
X82523809Y-72104318D01*
X82523809Y-72104318D02*
X82705238Y-72164794D01*
X82705238Y-72164794D02*
X82826190Y-72285746D01*
X82826190Y-72285746D02*
X82886667Y-72406699D01*
X82886667Y-72406699D02*
X82947143Y-72648603D01*
X82947143Y-72648603D02*
X82947143Y-72830032D01*
X82947143Y-72830032D02*
X82886667Y-73071937D01*
X82886667Y-73071937D02*
X82826190Y-73192889D01*
X82826190Y-73192889D02*
X82705238Y-73313842D01*
X82705238Y-73313842D02*
X82523809Y-73374318D01*
X82523809Y-73374318D02*
X82221428Y-73374318D01*
X83430952Y-72225270D02*
X83491428Y-72164794D01*
X83491428Y-72164794D02*
X83612381Y-72104318D01*
X83612381Y-72104318D02*
X83914762Y-72104318D01*
X83914762Y-72104318D02*
X84035714Y-72164794D01*
X84035714Y-72164794D02*
X84096190Y-72225270D01*
X84096190Y-72225270D02*
X84156667Y-72346222D01*
X84156667Y-72346222D02*
X84156667Y-72467175D01*
X84156667Y-72467175D02*
X84096190Y-72648603D01*
X84096190Y-72648603D02*
X83370476Y-73374318D01*
X83370476Y-73374318D02*
X84156667Y-73374318D01*
X85245238Y-72104318D02*
X85003333Y-72104318D01*
X85003333Y-72104318D02*
X84882381Y-72164794D01*
X84882381Y-72164794D02*
X84821905Y-72225270D01*
X84821905Y-72225270D02*
X84700952Y-72406699D01*
X84700952Y-72406699D02*
X84640476Y-72648603D01*
X84640476Y-72648603D02*
X84640476Y-73132413D01*
X84640476Y-73132413D02*
X84700952Y-73253365D01*
X84700952Y-73253365D02*
X84761429Y-73313842D01*
X84761429Y-73313842D02*
X84882381Y-73374318D01*
X84882381Y-73374318D02*
X85124286Y-73374318D01*
X85124286Y-73374318D02*
X85245238Y-73313842D01*
X85245238Y-73313842D02*
X85305714Y-73253365D01*
X85305714Y-73253365D02*
X85366191Y-73132413D01*
X85366191Y-73132413D02*
X85366191Y-72830032D01*
X85366191Y-72830032D02*
X85305714Y-72709080D01*
X85305714Y-72709080D02*
X85245238Y-72648603D01*
X85245238Y-72648603D02*
X85124286Y-72588127D01*
X85124286Y-72588127D02*
X84882381Y-72588127D01*
X84882381Y-72588127D02*
X84761429Y-72648603D01*
X84761429Y-72648603D02*
X84700952Y-72709080D01*
X84700952Y-72709080D02*
X84640476Y-72830032D01*
X64549047Y-73374318D02*
X63944285Y-73374318D01*
X63944285Y-73374318D02*
X63944285Y-72104318D01*
X64972380Y-72709080D02*
X65395714Y-72709080D01*
X65577142Y-73374318D02*
X64972380Y-73374318D01*
X64972380Y-73374318D02*
X64972380Y-72104318D01*
X64972380Y-72104318D02*
X65577142Y-72104318D01*
X66121428Y-73374318D02*
X66121428Y-72104318D01*
X66121428Y-72104318D02*
X66423809Y-72104318D01*
X66423809Y-72104318D02*
X66605238Y-72164794D01*
X66605238Y-72164794D02*
X66726190Y-72285746D01*
X66726190Y-72285746D02*
X66786667Y-72406699D01*
X66786667Y-72406699D02*
X66847143Y-72648603D01*
X66847143Y-72648603D02*
X66847143Y-72830032D01*
X66847143Y-72830032D02*
X66786667Y-73071937D01*
X66786667Y-73071937D02*
X66726190Y-73192889D01*
X66726190Y-73192889D02*
X66605238Y-73313842D01*
X66605238Y-73313842D02*
X66423809Y-73374318D01*
X66423809Y-73374318D02*
X66121428Y-73374318D01*
X67330952Y-72225270D02*
X67391428Y-72164794D01*
X67391428Y-72164794D02*
X67512381Y-72104318D01*
X67512381Y-72104318D02*
X67814762Y-72104318D01*
X67814762Y-72104318D02*
X67935714Y-72164794D01*
X67935714Y-72164794D02*
X67996190Y-72225270D01*
X67996190Y-72225270D02*
X68056667Y-72346222D01*
X68056667Y-72346222D02*
X68056667Y-72467175D01*
X68056667Y-72467175D02*
X67996190Y-72648603D01*
X67996190Y-72648603D02*
X67270476Y-73374318D01*
X67270476Y-73374318D02*
X68056667Y-73374318D01*
X69205714Y-72104318D02*
X68600952Y-72104318D01*
X68600952Y-72104318D02*
X68540476Y-72709080D01*
X68540476Y-72709080D02*
X68600952Y-72648603D01*
X68600952Y-72648603D02*
X68721905Y-72588127D01*
X68721905Y-72588127D02*
X69024286Y-72588127D01*
X69024286Y-72588127D02*
X69145238Y-72648603D01*
X69145238Y-72648603D02*
X69205714Y-72709080D01*
X69205714Y-72709080D02*
X69266191Y-72830032D01*
X69266191Y-72830032D02*
X69266191Y-73132413D01*
X69266191Y-73132413D02*
X69205714Y-73253365D01*
X69205714Y-73253365D02*
X69145238Y-73313842D01*
X69145238Y-73313842D02*
X69024286Y-73374318D01*
X69024286Y-73374318D02*
X68721905Y-73374318D01*
X68721905Y-73374318D02*
X68600952Y-73313842D01*
X68600952Y-73313842D02*
X68540476Y-73253365D01*
X176974047Y-58174318D02*
X176369285Y-58174318D01*
X176369285Y-58174318D02*
X176369285Y-56904318D01*
X177397380Y-57509080D02*
X177820714Y-57509080D01*
X178002142Y-58174318D02*
X177397380Y-58174318D01*
X177397380Y-58174318D02*
X177397380Y-56904318D01*
X177397380Y-56904318D02*
X178002142Y-56904318D01*
X178546428Y-58174318D02*
X178546428Y-56904318D01*
X178546428Y-56904318D02*
X178848809Y-56904318D01*
X178848809Y-56904318D02*
X179030238Y-56964794D01*
X179030238Y-56964794D02*
X179151190Y-57085746D01*
X179151190Y-57085746D02*
X179211667Y-57206699D01*
X179211667Y-57206699D02*
X179272143Y-57448603D01*
X179272143Y-57448603D02*
X179272143Y-57630032D01*
X179272143Y-57630032D02*
X179211667Y-57871937D01*
X179211667Y-57871937D02*
X179151190Y-57992889D01*
X179151190Y-57992889D02*
X179030238Y-58113842D01*
X179030238Y-58113842D02*
X178848809Y-58174318D01*
X178848809Y-58174318D02*
X178546428Y-58174318D01*
X179755952Y-57025270D02*
X179816428Y-56964794D01*
X179816428Y-56964794D02*
X179937381Y-56904318D01*
X179937381Y-56904318D02*
X180239762Y-56904318D01*
X180239762Y-56904318D02*
X180360714Y-56964794D01*
X180360714Y-56964794D02*
X180421190Y-57025270D01*
X180421190Y-57025270D02*
X180481667Y-57146222D01*
X180481667Y-57146222D02*
X180481667Y-57267175D01*
X180481667Y-57267175D02*
X180421190Y-57448603D01*
X180421190Y-57448603D02*
X179695476Y-58174318D01*
X179695476Y-58174318D02*
X180481667Y-58174318D01*
X181570238Y-57327651D02*
X181570238Y-58174318D01*
X181267857Y-56843842D02*
X180965476Y-57750984D01*
X180965476Y-57750984D02*
X181751667Y-57750984D01*
X160849047Y-58174318D02*
X160244285Y-58174318D01*
X160244285Y-58174318D02*
X160244285Y-56904318D01*
X161272380Y-57509080D02*
X161695714Y-57509080D01*
X161877142Y-58174318D02*
X161272380Y-58174318D01*
X161272380Y-58174318D02*
X161272380Y-56904318D01*
X161272380Y-56904318D02*
X161877142Y-56904318D01*
X162421428Y-58174318D02*
X162421428Y-56904318D01*
X162421428Y-56904318D02*
X162723809Y-56904318D01*
X162723809Y-56904318D02*
X162905238Y-56964794D01*
X162905238Y-56964794D02*
X163026190Y-57085746D01*
X163026190Y-57085746D02*
X163086667Y-57206699D01*
X163086667Y-57206699D02*
X163147143Y-57448603D01*
X163147143Y-57448603D02*
X163147143Y-57630032D01*
X163147143Y-57630032D02*
X163086667Y-57871937D01*
X163086667Y-57871937D02*
X163026190Y-57992889D01*
X163026190Y-57992889D02*
X162905238Y-58113842D01*
X162905238Y-58113842D02*
X162723809Y-58174318D01*
X162723809Y-58174318D02*
X162421428Y-58174318D01*
X163630952Y-57025270D02*
X163691428Y-56964794D01*
X163691428Y-56964794D02*
X163812381Y-56904318D01*
X163812381Y-56904318D02*
X164114762Y-56904318D01*
X164114762Y-56904318D02*
X164235714Y-56964794D01*
X164235714Y-56964794D02*
X164296190Y-57025270D01*
X164296190Y-57025270D02*
X164356667Y-57146222D01*
X164356667Y-57146222D02*
X164356667Y-57267175D01*
X164356667Y-57267175D02*
X164296190Y-57448603D01*
X164296190Y-57448603D02*
X163570476Y-58174318D01*
X163570476Y-58174318D02*
X164356667Y-58174318D01*
X164780000Y-56904318D02*
X165566191Y-56904318D01*
X165566191Y-56904318D02*
X165142857Y-57388127D01*
X165142857Y-57388127D02*
X165324286Y-57388127D01*
X165324286Y-57388127D02*
X165445238Y-57448603D01*
X165445238Y-57448603D02*
X165505714Y-57509080D01*
X165505714Y-57509080D02*
X165566191Y-57630032D01*
X165566191Y-57630032D02*
X165566191Y-57932413D01*
X165566191Y-57932413D02*
X165505714Y-58053365D01*
X165505714Y-58053365D02*
X165445238Y-58113842D01*
X165445238Y-58113842D02*
X165324286Y-58174318D01*
X165324286Y-58174318D02*
X164961429Y-58174318D01*
X164961429Y-58174318D02*
X164840476Y-58113842D01*
X164840476Y-58113842D02*
X164780000Y-58053365D01*
X144874047Y-58174318D02*
X144269285Y-58174318D01*
X144269285Y-58174318D02*
X144269285Y-56904318D01*
X145297380Y-57509080D02*
X145720714Y-57509080D01*
X145902142Y-58174318D02*
X145297380Y-58174318D01*
X145297380Y-58174318D02*
X145297380Y-56904318D01*
X145297380Y-56904318D02*
X145902142Y-56904318D01*
X146446428Y-58174318D02*
X146446428Y-56904318D01*
X146446428Y-56904318D02*
X146748809Y-56904318D01*
X146748809Y-56904318D02*
X146930238Y-56964794D01*
X146930238Y-56964794D02*
X147051190Y-57085746D01*
X147051190Y-57085746D02*
X147111667Y-57206699D01*
X147111667Y-57206699D02*
X147172143Y-57448603D01*
X147172143Y-57448603D02*
X147172143Y-57630032D01*
X147172143Y-57630032D02*
X147111667Y-57871937D01*
X147111667Y-57871937D02*
X147051190Y-57992889D01*
X147051190Y-57992889D02*
X146930238Y-58113842D01*
X146930238Y-58113842D02*
X146748809Y-58174318D01*
X146748809Y-58174318D02*
X146446428Y-58174318D01*
X147655952Y-57025270D02*
X147716428Y-56964794D01*
X147716428Y-56964794D02*
X147837381Y-56904318D01*
X147837381Y-56904318D02*
X148139762Y-56904318D01*
X148139762Y-56904318D02*
X148260714Y-56964794D01*
X148260714Y-56964794D02*
X148321190Y-57025270D01*
X148321190Y-57025270D02*
X148381667Y-57146222D01*
X148381667Y-57146222D02*
X148381667Y-57267175D01*
X148381667Y-57267175D02*
X148321190Y-57448603D01*
X148321190Y-57448603D02*
X147595476Y-58174318D01*
X147595476Y-58174318D02*
X148381667Y-58174318D01*
X148865476Y-57025270D02*
X148925952Y-56964794D01*
X148925952Y-56964794D02*
X149046905Y-56904318D01*
X149046905Y-56904318D02*
X149349286Y-56904318D01*
X149349286Y-56904318D02*
X149470238Y-56964794D01*
X149470238Y-56964794D02*
X149530714Y-57025270D01*
X149530714Y-57025270D02*
X149591191Y-57146222D01*
X149591191Y-57146222D02*
X149591191Y-57267175D01*
X149591191Y-57267175D02*
X149530714Y-57448603D01*
X149530714Y-57448603D02*
X148805000Y-58174318D01*
X148805000Y-58174318D02*
X149591191Y-58174318D01*
X128774047Y-58174318D02*
X128169285Y-58174318D01*
X128169285Y-58174318D02*
X128169285Y-56904318D01*
X129197380Y-57509080D02*
X129620714Y-57509080D01*
X129802142Y-58174318D02*
X129197380Y-58174318D01*
X129197380Y-58174318D02*
X129197380Y-56904318D01*
X129197380Y-56904318D02*
X129802142Y-56904318D01*
X130346428Y-58174318D02*
X130346428Y-56904318D01*
X130346428Y-56904318D02*
X130648809Y-56904318D01*
X130648809Y-56904318D02*
X130830238Y-56964794D01*
X130830238Y-56964794D02*
X130951190Y-57085746D01*
X130951190Y-57085746D02*
X131011667Y-57206699D01*
X131011667Y-57206699D02*
X131072143Y-57448603D01*
X131072143Y-57448603D02*
X131072143Y-57630032D01*
X131072143Y-57630032D02*
X131011667Y-57871937D01*
X131011667Y-57871937D02*
X130951190Y-57992889D01*
X130951190Y-57992889D02*
X130830238Y-58113842D01*
X130830238Y-58113842D02*
X130648809Y-58174318D01*
X130648809Y-58174318D02*
X130346428Y-58174318D01*
X131555952Y-57025270D02*
X131616428Y-56964794D01*
X131616428Y-56964794D02*
X131737381Y-56904318D01*
X131737381Y-56904318D02*
X132039762Y-56904318D01*
X132039762Y-56904318D02*
X132160714Y-56964794D01*
X132160714Y-56964794D02*
X132221190Y-57025270D01*
X132221190Y-57025270D02*
X132281667Y-57146222D01*
X132281667Y-57146222D02*
X132281667Y-57267175D01*
X132281667Y-57267175D02*
X132221190Y-57448603D01*
X132221190Y-57448603D02*
X131495476Y-58174318D01*
X131495476Y-58174318D02*
X132281667Y-58174318D01*
X133491191Y-58174318D02*
X132765476Y-58174318D01*
X133128333Y-58174318D02*
X133128333Y-56904318D01*
X133128333Y-56904318D02*
X133007381Y-57085746D01*
X133007381Y-57085746D02*
X132886429Y-57206699D01*
X132886429Y-57206699D02*
X132765476Y-57267175D01*
X112749047Y-58174318D02*
X112144285Y-58174318D01*
X112144285Y-58174318D02*
X112144285Y-56904318D01*
X113172380Y-57509080D02*
X113595714Y-57509080D01*
X113777142Y-58174318D02*
X113172380Y-58174318D01*
X113172380Y-58174318D02*
X113172380Y-56904318D01*
X113172380Y-56904318D02*
X113777142Y-56904318D01*
X114321428Y-58174318D02*
X114321428Y-56904318D01*
X114321428Y-56904318D02*
X114623809Y-56904318D01*
X114623809Y-56904318D02*
X114805238Y-56964794D01*
X114805238Y-56964794D02*
X114926190Y-57085746D01*
X114926190Y-57085746D02*
X114986667Y-57206699D01*
X114986667Y-57206699D02*
X115047143Y-57448603D01*
X115047143Y-57448603D02*
X115047143Y-57630032D01*
X115047143Y-57630032D02*
X114986667Y-57871937D01*
X114986667Y-57871937D02*
X114926190Y-57992889D01*
X114926190Y-57992889D02*
X114805238Y-58113842D01*
X114805238Y-58113842D02*
X114623809Y-58174318D01*
X114623809Y-58174318D02*
X114321428Y-58174318D01*
X115530952Y-57025270D02*
X115591428Y-56964794D01*
X115591428Y-56964794D02*
X115712381Y-56904318D01*
X115712381Y-56904318D02*
X116014762Y-56904318D01*
X116014762Y-56904318D02*
X116135714Y-56964794D01*
X116135714Y-56964794D02*
X116196190Y-57025270D01*
X116196190Y-57025270D02*
X116256667Y-57146222D01*
X116256667Y-57146222D02*
X116256667Y-57267175D01*
X116256667Y-57267175D02*
X116196190Y-57448603D01*
X116196190Y-57448603D02*
X115470476Y-58174318D01*
X115470476Y-58174318D02*
X116256667Y-58174318D01*
X117042857Y-56904318D02*
X117163810Y-56904318D01*
X117163810Y-56904318D02*
X117284762Y-56964794D01*
X117284762Y-56964794D02*
X117345238Y-57025270D01*
X117345238Y-57025270D02*
X117405714Y-57146222D01*
X117405714Y-57146222D02*
X117466191Y-57388127D01*
X117466191Y-57388127D02*
X117466191Y-57690508D01*
X117466191Y-57690508D02*
X117405714Y-57932413D01*
X117405714Y-57932413D02*
X117345238Y-58053365D01*
X117345238Y-58053365D02*
X117284762Y-58113842D01*
X117284762Y-58113842D02*
X117163810Y-58174318D01*
X117163810Y-58174318D02*
X117042857Y-58174318D01*
X117042857Y-58174318D02*
X116921905Y-58113842D01*
X116921905Y-58113842D02*
X116861429Y-58053365D01*
X116861429Y-58053365D02*
X116800952Y-57932413D01*
X116800952Y-57932413D02*
X116740476Y-57690508D01*
X116740476Y-57690508D02*
X116740476Y-57388127D01*
X116740476Y-57388127D02*
X116800952Y-57146222D01*
X116800952Y-57146222D02*
X116861429Y-57025270D01*
X116861429Y-57025270D02*
X116921905Y-56964794D01*
X116921905Y-56964794D02*
X117042857Y-56904318D01*
X96649047Y-58174318D02*
X96044285Y-58174318D01*
X96044285Y-58174318D02*
X96044285Y-56904318D01*
X97072380Y-57509080D02*
X97495714Y-57509080D01*
X97677142Y-58174318D02*
X97072380Y-58174318D01*
X97072380Y-58174318D02*
X97072380Y-56904318D01*
X97072380Y-56904318D02*
X97677142Y-56904318D01*
X98221428Y-58174318D02*
X98221428Y-56904318D01*
X98221428Y-56904318D02*
X98523809Y-56904318D01*
X98523809Y-56904318D02*
X98705238Y-56964794D01*
X98705238Y-56964794D02*
X98826190Y-57085746D01*
X98826190Y-57085746D02*
X98886667Y-57206699D01*
X98886667Y-57206699D02*
X98947143Y-57448603D01*
X98947143Y-57448603D02*
X98947143Y-57630032D01*
X98947143Y-57630032D02*
X98886667Y-57871937D01*
X98886667Y-57871937D02*
X98826190Y-57992889D01*
X98826190Y-57992889D02*
X98705238Y-58113842D01*
X98705238Y-58113842D02*
X98523809Y-58174318D01*
X98523809Y-58174318D02*
X98221428Y-58174318D01*
X100156667Y-58174318D02*
X99430952Y-58174318D01*
X99793809Y-58174318D02*
X99793809Y-56904318D01*
X99793809Y-56904318D02*
X99672857Y-57085746D01*
X99672857Y-57085746D02*
X99551905Y-57206699D01*
X99551905Y-57206699D02*
X99430952Y-57267175D01*
X100761429Y-58174318D02*
X101003333Y-58174318D01*
X101003333Y-58174318D02*
X101124286Y-58113842D01*
X101124286Y-58113842D02*
X101184762Y-58053365D01*
X101184762Y-58053365D02*
X101305714Y-57871937D01*
X101305714Y-57871937D02*
X101366191Y-57630032D01*
X101366191Y-57630032D02*
X101366191Y-57146222D01*
X101366191Y-57146222D02*
X101305714Y-57025270D01*
X101305714Y-57025270D02*
X101245238Y-56964794D01*
X101245238Y-56964794D02*
X101124286Y-56904318D01*
X101124286Y-56904318D02*
X100882381Y-56904318D01*
X100882381Y-56904318D02*
X100761429Y-56964794D01*
X100761429Y-56964794D02*
X100700952Y-57025270D01*
X100700952Y-57025270D02*
X100640476Y-57146222D01*
X100640476Y-57146222D02*
X100640476Y-57448603D01*
X100640476Y-57448603D02*
X100700952Y-57569556D01*
X100700952Y-57569556D02*
X100761429Y-57630032D01*
X100761429Y-57630032D02*
X100882381Y-57690508D01*
X100882381Y-57690508D02*
X101124286Y-57690508D01*
X101124286Y-57690508D02*
X101245238Y-57630032D01*
X101245238Y-57630032D02*
X101305714Y-57569556D01*
X101305714Y-57569556D02*
X101366191Y-57448603D01*
X80649047Y-58174318D02*
X80044285Y-58174318D01*
X80044285Y-58174318D02*
X80044285Y-56904318D01*
X81072380Y-57509080D02*
X81495714Y-57509080D01*
X81677142Y-58174318D02*
X81072380Y-58174318D01*
X81072380Y-58174318D02*
X81072380Y-56904318D01*
X81072380Y-56904318D02*
X81677142Y-56904318D01*
X82221428Y-58174318D02*
X82221428Y-56904318D01*
X82221428Y-56904318D02*
X82523809Y-56904318D01*
X82523809Y-56904318D02*
X82705238Y-56964794D01*
X82705238Y-56964794D02*
X82826190Y-57085746D01*
X82826190Y-57085746D02*
X82886667Y-57206699D01*
X82886667Y-57206699D02*
X82947143Y-57448603D01*
X82947143Y-57448603D02*
X82947143Y-57630032D01*
X82947143Y-57630032D02*
X82886667Y-57871937D01*
X82886667Y-57871937D02*
X82826190Y-57992889D01*
X82826190Y-57992889D02*
X82705238Y-58113842D01*
X82705238Y-58113842D02*
X82523809Y-58174318D01*
X82523809Y-58174318D02*
X82221428Y-58174318D01*
X84156667Y-58174318D02*
X83430952Y-58174318D01*
X83793809Y-58174318D02*
X83793809Y-56904318D01*
X83793809Y-56904318D02*
X83672857Y-57085746D01*
X83672857Y-57085746D02*
X83551905Y-57206699D01*
X83551905Y-57206699D02*
X83430952Y-57267175D01*
X84882381Y-57448603D02*
X84761429Y-57388127D01*
X84761429Y-57388127D02*
X84700952Y-57327651D01*
X84700952Y-57327651D02*
X84640476Y-57206699D01*
X84640476Y-57206699D02*
X84640476Y-57146222D01*
X84640476Y-57146222D02*
X84700952Y-57025270D01*
X84700952Y-57025270D02*
X84761429Y-56964794D01*
X84761429Y-56964794D02*
X84882381Y-56904318D01*
X84882381Y-56904318D02*
X85124286Y-56904318D01*
X85124286Y-56904318D02*
X85245238Y-56964794D01*
X85245238Y-56964794D02*
X85305714Y-57025270D01*
X85305714Y-57025270D02*
X85366191Y-57146222D01*
X85366191Y-57146222D02*
X85366191Y-57206699D01*
X85366191Y-57206699D02*
X85305714Y-57327651D01*
X85305714Y-57327651D02*
X85245238Y-57388127D01*
X85245238Y-57388127D02*
X85124286Y-57448603D01*
X85124286Y-57448603D02*
X84882381Y-57448603D01*
X84882381Y-57448603D02*
X84761429Y-57509080D01*
X84761429Y-57509080D02*
X84700952Y-57569556D01*
X84700952Y-57569556D02*
X84640476Y-57690508D01*
X84640476Y-57690508D02*
X84640476Y-57932413D01*
X84640476Y-57932413D02*
X84700952Y-58053365D01*
X84700952Y-58053365D02*
X84761429Y-58113842D01*
X84761429Y-58113842D02*
X84882381Y-58174318D01*
X84882381Y-58174318D02*
X85124286Y-58174318D01*
X85124286Y-58174318D02*
X85245238Y-58113842D01*
X85245238Y-58113842D02*
X85305714Y-58053365D01*
X85305714Y-58053365D02*
X85366191Y-57932413D01*
X85366191Y-57932413D02*
X85366191Y-57690508D01*
X85366191Y-57690508D02*
X85305714Y-57569556D01*
X85305714Y-57569556D02*
X85245238Y-57509080D01*
X85245238Y-57509080D02*
X85124286Y-57448603D01*
X64549047Y-58174318D02*
X63944285Y-58174318D01*
X63944285Y-58174318D02*
X63944285Y-56904318D01*
X64972380Y-57509080D02*
X65395714Y-57509080D01*
X65577142Y-58174318D02*
X64972380Y-58174318D01*
X64972380Y-58174318D02*
X64972380Y-56904318D01*
X64972380Y-56904318D02*
X65577142Y-56904318D01*
X66121428Y-58174318D02*
X66121428Y-56904318D01*
X66121428Y-56904318D02*
X66423809Y-56904318D01*
X66423809Y-56904318D02*
X66605238Y-56964794D01*
X66605238Y-56964794D02*
X66726190Y-57085746D01*
X66726190Y-57085746D02*
X66786667Y-57206699D01*
X66786667Y-57206699D02*
X66847143Y-57448603D01*
X66847143Y-57448603D02*
X66847143Y-57630032D01*
X66847143Y-57630032D02*
X66786667Y-57871937D01*
X66786667Y-57871937D02*
X66726190Y-57992889D01*
X66726190Y-57992889D02*
X66605238Y-58113842D01*
X66605238Y-58113842D02*
X66423809Y-58174318D01*
X66423809Y-58174318D02*
X66121428Y-58174318D01*
X68056667Y-58174318D02*
X67330952Y-58174318D01*
X67693809Y-58174318D02*
X67693809Y-56904318D01*
X67693809Y-56904318D02*
X67572857Y-57085746D01*
X67572857Y-57085746D02*
X67451905Y-57206699D01*
X67451905Y-57206699D02*
X67330952Y-57267175D01*
X68480000Y-56904318D02*
X69326667Y-56904318D01*
X69326667Y-56904318D02*
X68782381Y-58174318D01*
X176974047Y-42874318D02*
X176369285Y-42874318D01*
X176369285Y-42874318D02*
X176369285Y-41604318D01*
X177397380Y-42209080D02*
X177820714Y-42209080D01*
X178002142Y-42874318D02*
X177397380Y-42874318D01*
X177397380Y-42874318D02*
X177397380Y-41604318D01*
X177397380Y-41604318D02*
X178002142Y-41604318D01*
X178546428Y-42874318D02*
X178546428Y-41604318D01*
X178546428Y-41604318D02*
X178848809Y-41604318D01*
X178848809Y-41604318D02*
X179030238Y-41664794D01*
X179030238Y-41664794D02*
X179151190Y-41785746D01*
X179151190Y-41785746D02*
X179211667Y-41906699D01*
X179211667Y-41906699D02*
X179272143Y-42148603D01*
X179272143Y-42148603D02*
X179272143Y-42330032D01*
X179272143Y-42330032D02*
X179211667Y-42571937D01*
X179211667Y-42571937D02*
X179151190Y-42692889D01*
X179151190Y-42692889D02*
X179030238Y-42813842D01*
X179030238Y-42813842D02*
X178848809Y-42874318D01*
X178848809Y-42874318D02*
X178546428Y-42874318D01*
X180481667Y-42874318D02*
X179755952Y-42874318D01*
X180118809Y-42874318D02*
X180118809Y-41604318D01*
X180118809Y-41604318D02*
X179997857Y-41785746D01*
X179997857Y-41785746D02*
X179876905Y-41906699D01*
X179876905Y-41906699D02*
X179755952Y-41967175D01*
X181570238Y-41604318D02*
X181328333Y-41604318D01*
X181328333Y-41604318D02*
X181207381Y-41664794D01*
X181207381Y-41664794D02*
X181146905Y-41725270D01*
X181146905Y-41725270D02*
X181025952Y-41906699D01*
X181025952Y-41906699D02*
X180965476Y-42148603D01*
X180965476Y-42148603D02*
X180965476Y-42632413D01*
X180965476Y-42632413D02*
X181025952Y-42753365D01*
X181025952Y-42753365D02*
X181086429Y-42813842D01*
X181086429Y-42813842D02*
X181207381Y-42874318D01*
X181207381Y-42874318D02*
X181449286Y-42874318D01*
X181449286Y-42874318D02*
X181570238Y-42813842D01*
X181570238Y-42813842D02*
X181630714Y-42753365D01*
X181630714Y-42753365D02*
X181691191Y-42632413D01*
X181691191Y-42632413D02*
X181691191Y-42330032D01*
X181691191Y-42330032D02*
X181630714Y-42209080D01*
X181630714Y-42209080D02*
X181570238Y-42148603D01*
X181570238Y-42148603D02*
X181449286Y-42088127D01*
X181449286Y-42088127D02*
X181207381Y-42088127D01*
X181207381Y-42088127D02*
X181086429Y-42148603D01*
X181086429Y-42148603D02*
X181025952Y-42209080D01*
X181025952Y-42209080D02*
X180965476Y-42330032D01*
X160874047Y-42874318D02*
X160269285Y-42874318D01*
X160269285Y-42874318D02*
X160269285Y-41604318D01*
X161297380Y-42209080D02*
X161720714Y-42209080D01*
X161902142Y-42874318D02*
X161297380Y-42874318D01*
X161297380Y-42874318D02*
X161297380Y-41604318D01*
X161297380Y-41604318D02*
X161902142Y-41604318D01*
X162446428Y-42874318D02*
X162446428Y-41604318D01*
X162446428Y-41604318D02*
X162748809Y-41604318D01*
X162748809Y-41604318D02*
X162930238Y-41664794D01*
X162930238Y-41664794D02*
X163051190Y-41785746D01*
X163051190Y-41785746D02*
X163111667Y-41906699D01*
X163111667Y-41906699D02*
X163172143Y-42148603D01*
X163172143Y-42148603D02*
X163172143Y-42330032D01*
X163172143Y-42330032D02*
X163111667Y-42571937D01*
X163111667Y-42571937D02*
X163051190Y-42692889D01*
X163051190Y-42692889D02*
X162930238Y-42813842D01*
X162930238Y-42813842D02*
X162748809Y-42874318D01*
X162748809Y-42874318D02*
X162446428Y-42874318D01*
X164381667Y-42874318D02*
X163655952Y-42874318D01*
X164018809Y-42874318D02*
X164018809Y-41604318D01*
X164018809Y-41604318D02*
X163897857Y-41785746D01*
X163897857Y-41785746D02*
X163776905Y-41906699D01*
X163776905Y-41906699D02*
X163655952Y-41967175D01*
X165530714Y-41604318D02*
X164925952Y-41604318D01*
X164925952Y-41604318D02*
X164865476Y-42209080D01*
X164865476Y-42209080D02*
X164925952Y-42148603D01*
X164925952Y-42148603D02*
X165046905Y-42088127D01*
X165046905Y-42088127D02*
X165349286Y-42088127D01*
X165349286Y-42088127D02*
X165470238Y-42148603D01*
X165470238Y-42148603D02*
X165530714Y-42209080D01*
X165530714Y-42209080D02*
X165591191Y-42330032D01*
X165591191Y-42330032D02*
X165591191Y-42632413D01*
X165591191Y-42632413D02*
X165530714Y-42753365D01*
X165530714Y-42753365D02*
X165470238Y-42813842D01*
X165470238Y-42813842D02*
X165349286Y-42874318D01*
X165349286Y-42874318D02*
X165046905Y-42874318D01*
X165046905Y-42874318D02*
X164925952Y-42813842D01*
X164925952Y-42813842D02*
X164865476Y-42753365D01*
X144849047Y-42874318D02*
X144244285Y-42874318D01*
X144244285Y-42874318D02*
X144244285Y-41604318D01*
X145272380Y-42209080D02*
X145695714Y-42209080D01*
X145877142Y-42874318D02*
X145272380Y-42874318D01*
X145272380Y-42874318D02*
X145272380Y-41604318D01*
X145272380Y-41604318D02*
X145877142Y-41604318D01*
X146421428Y-42874318D02*
X146421428Y-41604318D01*
X146421428Y-41604318D02*
X146723809Y-41604318D01*
X146723809Y-41604318D02*
X146905238Y-41664794D01*
X146905238Y-41664794D02*
X147026190Y-41785746D01*
X147026190Y-41785746D02*
X147086667Y-41906699D01*
X147086667Y-41906699D02*
X147147143Y-42148603D01*
X147147143Y-42148603D02*
X147147143Y-42330032D01*
X147147143Y-42330032D02*
X147086667Y-42571937D01*
X147086667Y-42571937D02*
X147026190Y-42692889D01*
X147026190Y-42692889D02*
X146905238Y-42813842D01*
X146905238Y-42813842D02*
X146723809Y-42874318D01*
X146723809Y-42874318D02*
X146421428Y-42874318D01*
X148356667Y-42874318D02*
X147630952Y-42874318D01*
X147993809Y-42874318D02*
X147993809Y-41604318D01*
X147993809Y-41604318D02*
X147872857Y-41785746D01*
X147872857Y-41785746D02*
X147751905Y-41906699D01*
X147751905Y-41906699D02*
X147630952Y-41967175D01*
X149445238Y-42027651D02*
X149445238Y-42874318D01*
X149142857Y-41543842D02*
X148840476Y-42450984D01*
X148840476Y-42450984D02*
X149626667Y-42450984D01*
X128749047Y-42894318D02*
X128144285Y-42894318D01*
X128144285Y-42894318D02*
X128144285Y-41624318D01*
X129172380Y-42229080D02*
X129595714Y-42229080D01*
X129777142Y-42894318D02*
X129172380Y-42894318D01*
X129172380Y-42894318D02*
X129172380Y-41624318D01*
X129172380Y-41624318D02*
X129777142Y-41624318D01*
X130321428Y-42894318D02*
X130321428Y-41624318D01*
X130321428Y-41624318D02*
X130623809Y-41624318D01*
X130623809Y-41624318D02*
X130805238Y-41684794D01*
X130805238Y-41684794D02*
X130926190Y-41805746D01*
X130926190Y-41805746D02*
X130986667Y-41926699D01*
X130986667Y-41926699D02*
X131047143Y-42168603D01*
X131047143Y-42168603D02*
X131047143Y-42350032D01*
X131047143Y-42350032D02*
X130986667Y-42591937D01*
X130986667Y-42591937D02*
X130926190Y-42712889D01*
X130926190Y-42712889D02*
X130805238Y-42833842D01*
X130805238Y-42833842D02*
X130623809Y-42894318D01*
X130623809Y-42894318D02*
X130321428Y-42894318D01*
X132256667Y-42894318D02*
X131530952Y-42894318D01*
X131893809Y-42894318D02*
X131893809Y-41624318D01*
X131893809Y-41624318D02*
X131772857Y-41805746D01*
X131772857Y-41805746D02*
X131651905Y-41926699D01*
X131651905Y-41926699D02*
X131530952Y-41987175D01*
X132680000Y-41624318D02*
X133466191Y-41624318D01*
X133466191Y-41624318D02*
X133042857Y-42108127D01*
X133042857Y-42108127D02*
X133224286Y-42108127D01*
X133224286Y-42108127D02*
X133345238Y-42168603D01*
X133345238Y-42168603D02*
X133405714Y-42229080D01*
X133405714Y-42229080D02*
X133466191Y-42350032D01*
X133466191Y-42350032D02*
X133466191Y-42652413D01*
X133466191Y-42652413D02*
X133405714Y-42773365D01*
X133405714Y-42773365D02*
X133345238Y-42833842D01*
X133345238Y-42833842D02*
X133224286Y-42894318D01*
X133224286Y-42894318D02*
X132861429Y-42894318D01*
X132861429Y-42894318D02*
X132740476Y-42833842D01*
X132740476Y-42833842D02*
X132680000Y-42773365D01*
X112774047Y-42894318D02*
X112169285Y-42894318D01*
X112169285Y-42894318D02*
X112169285Y-41624318D01*
X113197380Y-42229080D02*
X113620714Y-42229080D01*
X113802142Y-42894318D02*
X113197380Y-42894318D01*
X113197380Y-42894318D02*
X113197380Y-41624318D01*
X113197380Y-41624318D02*
X113802142Y-41624318D01*
X114346428Y-42894318D02*
X114346428Y-41624318D01*
X114346428Y-41624318D02*
X114648809Y-41624318D01*
X114648809Y-41624318D02*
X114830238Y-41684794D01*
X114830238Y-41684794D02*
X114951190Y-41805746D01*
X114951190Y-41805746D02*
X115011667Y-41926699D01*
X115011667Y-41926699D02*
X115072143Y-42168603D01*
X115072143Y-42168603D02*
X115072143Y-42350032D01*
X115072143Y-42350032D02*
X115011667Y-42591937D01*
X115011667Y-42591937D02*
X114951190Y-42712889D01*
X114951190Y-42712889D02*
X114830238Y-42833842D01*
X114830238Y-42833842D02*
X114648809Y-42894318D01*
X114648809Y-42894318D02*
X114346428Y-42894318D01*
X116281667Y-42894318D02*
X115555952Y-42894318D01*
X115918809Y-42894318D02*
X115918809Y-41624318D01*
X115918809Y-41624318D02*
X115797857Y-41805746D01*
X115797857Y-41805746D02*
X115676905Y-41926699D01*
X115676905Y-41926699D02*
X115555952Y-41987175D01*
X116765476Y-41745270D02*
X116825952Y-41684794D01*
X116825952Y-41684794D02*
X116946905Y-41624318D01*
X116946905Y-41624318D02*
X117249286Y-41624318D01*
X117249286Y-41624318D02*
X117370238Y-41684794D01*
X117370238Y-41684794D02*
X117430714Y-41745270D01*
X117430714Y-41745270D02*
X117491191Y-41866222D01*
X117491191Y-41866222D02*
X117491191Y-41987175D01*
X117491191Y-41987175D02*
X117430714Y-42168603D01*
X117430714Y-42168603D02*
X116705000Y-42894318D01*
X116705000Y-42894318D02*
X117491191Y-42894318D01*
X96674047Y-42874318D02*
X96069285Y-42874318D01*
X96069285Y-42874318D02*
X96069285Y-41604318D01*
X97097380Y-42209080D02*
X97520714Y-42209080D01*
X97702142Y-42874318D02*
X97097380Y-42874318D01*
X97097380Y-42874318D02*
X97097380Y-41604318D01*
X97097380Y-41604318D02*
X97702142Y-41604318D01*
X98246428Y-42874318D02*
X98246428Y-41604318D01*
X98246428Y-41604318D02*
X98548809Y-41604318D01*
X98548809Y-41604318D02*
X98730238Y-41664794D01*
X98730238Y-41664794D02*
X98851190Y-41785746D01*
X98851190Y-41785746D02*
X98911667Y-41906699D01*
X98911667Y-41906699D02*
X98972143Y-42148603D01*
X98972143Y-42148603D02*
X98972143Y-42330032D01*
X98972143Y-42330032D02*
X98911667Y-42571937D01*
X98911667Y-42571937D02*
X98851190Y-42692889D01*
X98851190Y-42692889D02*
X98730238Y-42813842D01*
X98730238Y-42813842D02*
X98548809Y-42874318D01*
X98548809Y-42874318D02*
X98246428Y-42874318D01*
X100181667Y-42874318D02*
X99455952Y-42874318D01*
X99818809Y-42874318D02*
X99818809Y-41604318D01*
X99818809Y-41604318D02*
X99697857Y-41785746D01*
X99697857Y-41785746D02*
X99576905Y-41906699D01*
X99576905Y-41906699D02*
X99455952Y-41967175D01*
X101391191Y-42874318D02*
X100665476Y-42874318D01*
X101028333Y-42874318D02*
X101028333Y-41604318D01*
X101028333Y-41604318D02*
X100907381Y-41785746D01*
X100907381Y-41785746D02*
X100786429Y-41906699D01*
X100786429Y-41906699D02*
X100665476Y-41967175D01*
X80649047Y-42874318D02*
X80044285Y-42874318D01*
X80044285Y-42874318D02*
X80044285Y-41604318D01*
X81072380Y-42209080D02*
X81495714Y-42209080D01*
X81677142Y-42874318D02*
X81072380Y-42874318D01*
X81072380Y-42874318D02*
X81072380Y-41604318D01*
X81072380Y-41604318D02*
X81677142Y-41604318D01*
X82221428Y-42874318D02*
X82221428Y-41604318D01*
X82221428Y-41604318D02*
X82523809Y-41604318D01*
X82523809Y-41604318D02*
X82705238Y-41664794D01*
X82705238Y-41664794D02*
X82826190Y-41785746D01*
X82826190Y-41785746D02*
X82886667Y-41906699D01*
X82886667Y-41906699D02*
X82947143Y-42148603D01*
X82947143Y-42148603D02*
X82947143Y-42330032D01*
X82947143Y-42330032D02*
X82886667Y-42571937D01*
X82886667Y-42571937D02*
X82826190Y-42692889D01*
X82826190Y-42692889D02*
X82705238Y-42813842D01*
X82705238Y-42813842D02*
X82523809Y-42874318D01*
X82523809Y-42874318D02*
X82221428Y-42874318D01*
X84156667Y-42874318D02*
X83430952Y-42874318D01*
X83793809Y-42874318D02*
X83793809Y-41604318D01*
X83793809Y-41604318D02*
X83672857Y-41785746D01*
X83672857Y-41785746D02*
X83551905Y-41906699D01*
X83551905Y-41906699D02*
X83430952Y-41967175D01*
X84942857Y-41604318D02*
X85063810Y-41604318D01*
X85063810Y-41604318D02*
X85184762Y-41664794D01*
X85184762Y-41664794D02*
X85245238Y-41725270D01*
X85245238Y-41725270D02*
X85305714Y-41846222D01*
X85305714Y-41846222D02*
X85366191Y-42088127D01*
X85366191Y-42088127D02*
X85366191Y-42390508D01*
X85366191Y-42390508D02*
X85305714Y-42632413D01*
X85305714Y-42632413D02*
X85245238Y-42753365D01*
X85245238Y-42753365D02*
X85184762Y-42813842D01*
X85184762Y-42813842D02*
X85063810Y-42874318D01*
X85063810Y-42874318D02*
X84942857Y-42874318D01*
X84942857Y-42874318D02*
X84821905Y-42813842D01*
X84821905Y-42813842D02*
X84761429Y-42753365D01*
X84761429Y-42753365D02*
X84700952Y-42632413D01*
X84700952Y-42632413D02*
X84640476Y-42390508D01*
X84640476Y-42390508D02*
X84640476Y-42088127D01*
X84640476Y-42088127D02*
X84700952Y-41846222D01*
X84700952Y-41846222D02*
X84761429Y-41725270D01*
X84761429Y-41725270D02*
X84821905Y-41664794D01*
X84821905Y-41664794D02*
X84942857Y-41604318D01*
X65178809Y-42874318D02*
X64574047Y-42874318D01*
X64574047Y-42874318D02*
X64574047Y-41604318D01*
X65602142Y-42209080D02*
X66025476Y-42209080D01*
X66206904Y-42874318D02*
X65602142Y-42874318D01*
X65602142Y-42874318D02*
X65602142Y-41604318D01*
X65602142Y-41604318D02*
X66206904Y-41604318D01*
X66751190Y-42874318D02*
X66751190Y-41604318D01*
X66751190Y-41604318D02*
X67053571Y-41604318D01*
X67053571Y-41604318D02*
X67235000Y-41664794D01*
X67235000Y-41664794D02*
X67355952Y-41785746D01*
X67355952Y-41785746D02*
X67416429Y-41906699D01*
X67416429Y-41906699D02*
X67476905Y-42148603D01*
X67476905Y-42148603D02*
X67476905Y-42330032D01*
X67476905Y-42330032D02*
X67416429Y-42571937D01*
X67416429Y-42571937D02*
X67355952Y-42692889D01*
X67355952Y-42692889D02*
X67235000Y-42813842D01*
X67235000Y-42813842D02*
X67053571Y-42874318D01*
X67053571Y-42874318D02*
X66751190Y-42874318D01*
X68081667Y-42874318D02*
X68323571Y-42874318D01*
X68323571Y-42874318D02*
X68444524Y-42813842D01*
X68444524Y-42813842D02*
X68505000Y-42753365D01*
X68505000Y-42753365D02*
X68625952Y-42571937D01*
X68625952Y-42571937D02*
X68686429Y-42330032D01*
X68686429Y-42330032D02*
X68686429Y-41846222D01*
X68686429Y-41846222D02*
X68625952Y-41725270D01*
X68625952Y-41725270D02*
X68565476Y-41664794D01*
X68565476Y-41664794D02*
X68444524Y-41604318D01*
X68444524Y-41604318D02*
X68202619Y-41604318D01*
X68202619Y-41604318D02*
X68081667Y-41664794D01*
X68081667Y-41664794D02*
X68021190Y-41725270D01*
X68021190Y-41725270D02*
X67960714Y-41846222D01*
X67960714Y-41846222D02*
X67960714Y-42148603D01*
X67960714Y-42148603D02*
X68021190Y-42269556D01*
X68021190Y-42269556D02*
X68081667Y-42330032D01*
X68081667Y-42330032D02*
X68202619Y-42390508D01*
X68202619Y-42390508D02*
X68444524Y-42390508D01*
X68444524Y-42390508D02*
X68565476Y-42330032D01*
X68565476Y-42330032D02*
X68625952Y-42269556D01*
X68625952Y-42269556D02*
X68686429Y-42148603D01*
X161478809Y-27174318D02*
X160874047Y-27174318D01*
X160874047Y-27174318D02*
X160874047Y-25904318D01*
X161902142Y-26509080D02*
X162325476Y-26509080D01*
X162506904Y-27174318D02*
X161902142Y-27174318D01*
X161902142Y-27174318D02*
X161902142Y-25904318D01*
X161902142Y-25904318D02*
X162506904Y-25904318D01*
X163051190Y-27174318D02*
X163051190Y-25904318D01*
X163051190Y-25904318D02*
X163353571Y-25904318D01*
X163353571Y-25904318D02*
X163535000Y-25964794D01*
X163535000Y-25964794D02*
X163655952Y-26085746D01*
X163655952Y-26085746D02*
X163716429Y-26206699D01*
X163716429Y-26206699D02*
X163776905Y-26448603D01*
X163776905Y-26448603D02*
X163776905Y-26630032D01*
X163776905Y-26630032D02*
X163716429Y-26871937D01*
X163716429Y-26871937D02*
X163655952Y-26992889D01*
X163655952Y-26992889D02*
X163535000Y-27113842D01*
X163535000Y-27113842D02*
X163353571Y-27174318D01*
X163353571Y-27174318D02*
X163051190Y-27174318D01*
X164200238Y-25904318D02*
X165046905Y-25904318D01*
X165046905Y-25904318D02*
X164502619Y-27174318D01*
X145428809Y-27174318D02*
X144824047Y-27174318D01*
X144824047Y-27174318D02*
X144824047Y-25904318D01*
X145852142Y-26509080D02*
X146275476Y-26509080D01*
X146456904Y-27174318D02*
X145852142Y-27174318D01*
X145852142Y-27174318D02*
X145852142Y-25904318D01*
X145852142Y-25904318D02*
X146456904Y-25904318D01*
X147001190Y-27174318D02*
X147001190Y-25904318D01*
X147001190Y-25904318D02*
X147303571Y-25904318D01*
X147303571Y-25904318D02*
X147485000Y-25964794D01*
X147485000Y-25964794D02*
X147605952Y-26085746D01*
X147605952Y-26085746D02*
X147666429Y-26206699D01*
X147666429Y-26206699D02*
X147726905Y-26448603D01*
X147726905Y-26448603D02*
X147726905Y-26630032D01*
X147726905Y-26630032D02*
X147666429Y-26871937D01*
X147666429Y-26871937D02*
X147605952Y-26992889D01*
X147605952Y-26992889D02*
X147485000Y-27113842D01*
X147485000Y-27113842D02*
X147303571Y-27174318D01*
X147303571Y-27174318D02*
X147001190Y-27174318D01*
X148815476Y-25904318D02*
X148573571Y-25904318D01*
X148573571Y-25904318D02*
X148452619Y-25964794D01*
X148452619Y-25964794D02*
X148392143Y-26025270D01*
X148392143Y-26025270D02*
X148271190Y-26206699D01*
X148271190Y-26206699D02*
X148210714Y-26448603D01*
X148210714Y-26448603D02*
X148210714Y-26932413D01*
X148210714Y-26932413D02*
X148271190Y-27053365D01*
X148271190Y-27053365D02*
X148331667Y-27113842D01*
X148331667Y-27113842D02*
X148452619Y-27174318D01*
X148452619Y-27174318D02*
X148694524Y-27174318D01*
X148694524Y-27174318D02*
X148815476Y-27113842D01*
X148815476Y-27113842D02*
X148875952Y-27053365D01*
X148875952Y-27053365D02*
X148936429Y-26932413D01*
X148936429Y-26932413D02*
X148936429Y-26630032D01*
X148936429Y-26630032D02*
X148875952Y-26509080D01*
X148875952Y-26509080D02*
X148815476Y-26448603D01*
X148815476Y-26448603D02*
X148694524Y-26388127D01*
X148694524Y-26388127D02*
X148452619Y-26388127D01*
X148452619Y-26388127D02*
X148331667Y-26448603D01*
X148331667Y-26448603D02*
X148271190Y-26509080D01*
X148271190Y-26509080D02*
X148210714Y-26630032D01*
X129378809Y-27174318D02*
X128774047Y-27174318D01*
X128774047Y-27174318D02*
X128774047Y-25904318D01*
X129802142Y-26509080D02*
X130225476Y-26509080D01*
X130406904Y-27174318D02*
X129802142Y-27174318D01*
X129802142Y-27174318D02*
X129802142Y-25904318D01*
X129802142Y-25904318D02*
X130406904Y-25904318D01*
X130951190Y-27174318D02*
X130951190Y-25904318D01*
X130951190Y-25904318D02*
X131253571Y-25904318D01*
X131253571Y-25904318D02*
X131435000Y-25964794D01*
X131435000Y-25964794D02*
X131555952Y-26085746D01*
X131555952Y-26085746D02*
X131616429Y-26206699D01*
X131616429Y-26206699D02*
X131676905Y-26448603D01*
X131676905Y-26448603D02*
X131676905Y-26630032D01*
X131676905Y-26630032D02*
X131616429Y-26871937D01*
X131616429Y-26871937D02*
X131555952Y-26992889D01*
X131555952Y-26992889D02*
X131435000Y-27113842D01*
X131435000Y-27113842D02*
X131253571Y-27174318D01*
X131253571Y-27174318D02*
X130951190Y-27174318D01*
X132825952Y-25904318D02*
X132221190Y-25904318D01*
X132221190Y-25904318D02*
X132160714Y-26509080D01*
X132160714Y-26509080D02*
X132221190Y-26448603D01*
X132221190Y-26448603D02*
X132342143Y-26388127D01*
X132342143Y-26388127D02*
X132644524Y-26388127D01*
X132644524Y-26388127D02*
X132765476Y-26448603D01*
X132765476Y-26448603D02*
X132825952Y-26509080D01*
X132825952Y-26509080D02*
X132886429Y-26630032D01*
X132886429Y-26630032D02*
X132886429Y-26932413D01*
X132886429Y-26932413D02*
X132825952Y-27053365D01*
X132825952Y-27053365D02*
X132765476Y-27113842D01*
X132765476Y-27113842D02*
X132644524Y-27174318D01*
X132644524Y-27174318D02*
X132342143Y-27174318D01*
X132342143Y-27174318D02*
X132221190Y-27113842D01*
X132221190Y-27113842D02*
X132160714Y-27053365D01*
X113328809Y-27174318D02*
X112724047Y-27174318D01*
X112724047Y-27174318D02*
X112724047Y-25904318D01*
X113752142Y-26509080D02*
X114175476Y-26509080D01*
X114356904Y-27174318D02*
X113752142Y-27174318D01*
X113752142Y-27174318D02*
X113752142Y-25904318D01*
X113752142Y-25904318D02*
X114356904Y-25904318D01*
X114901190Y-27174318D02*
X114901190Y-25904318D01*
X114901190Y-25904318D02*
X115203571Y-25904318D01*
X115203571Y-25904318D02*
X115385000Y-25964794D01*
X115385000Y-25964794D02*
X115505952Y-26085746D01*
X115505952Y-26085746D02*
X115566429Y-26206699D01*
X115566429Y-26206699D02*
X115626905Y-26448603D01*
X115626905Y-26448603D02*
X115626905Y-26630032D01*
X115626905Y-26630032D02*
X115566429Y-26871937D01*
X115566429Y-26871937D02*
X115505952Y-26992889D01*
X115505952Y-26992889D02*
X115385000Y-27113842D01*
X115385000Y-27113842D02*
X115203571Y-27174318D01*
X115203571Y-27174318D02*
X114901190Y-27174318D01*
X116715476Y-26327651D02*
X116715476Y-27174318D01*
X116413095Y-25843842D02*
X116110714Y-26750984D01*
X116110714Y-26750984D02*
X116896905Y-26750984D01*
X97278809Y-27174318D02*
X96674047Y-27174318D01*
X96674047Y-27174318D02*
X96674047Y-25904318D01*
X97702142Y-26509080D02*
X98125476Y-26509080D01*
X98306904Y-27174318D02*
X97702142Y-27174318D01*
X97702142Y-27174318D02*
X97702142Y-25904318D01*
X97702142Y-25904318D02*
X98306904Y-25904318D01*
X98851190Y-27174318D02*
X98851190Y-25904318D01*
X98851190Y-25904318D02*
X99153571Y-25904318D01*
X99153571Y-25904318D02*
X99335000Y-25964794D01*
X99335000Y-25964794D02*
X99455952Y-26085746D01*
X99455952Y-26085746D02*
X99516429Y-26206699D01*
X99516429Y-26206699D02*
X99576905Y-26448603D01*
X99576905Y-26448603D02*
X99576905Y-26630032D01*
X99576905Y-26630032D02*
X99516429Y-26871937D01*
X99516429Y-26871937D02*
X99455952Y-26992889D01*
X99455952Y-26992889D02*
X99335000Y-27113842D01*
X99335000Y-27113842D02*
X99153571Y-27174318D01*
X99153571Y-27174318D02*
X98851190Y-27174318D01*
X100000238Y-25904318D02*
X100786429Y-25904318D01*
X100786429Y-25904318D02*
X100363095Y-26388127D01*
X100363095Y-26388127D02*
X100544524Y-26388127D01*
X100544524Y-26388127D02*
X100665476Y-26448603D01*
X100665476Y-26448603D02*
X100725952Y-26509080D01*
X100725952Y-26509080D02*
X100786429Y-26630032D01*
X100786429Y-26630032D02*
X100786429Y-26932413D01*
X100786429Y-26932413D02*
X100725952Y-27053365D01*
X100725952Y-27053365D02*
X100665476Y-27113842D01*
X100665476Y-27113842D02*
X100544524Y-27174318D01*
X100544524Y-27174318D02*
X100181667Y-27174318D01*
X100181667Y-27174318D02*
X100060714Y-27113842D01*
X100060714Y-27113842D02*
X100000238Y-27053365D01*
X81228809Y-27174318D02*
X80624047Y-27174318D01*
X80624047Y-27174318D02*
X80624047Y-25904318D01*
X81652142Y-26509080D02*
X82075476Y-26509080D01*
X82256904Y-27174318D02*
X81652142Y-27174318D01*
X81652142Y-27174318D02*
X81652142Y-25904318D01*
X81652142Y-25904318D02*
X82256904Y-25904318D01*
X82801190Y-27174318D02*
X82801190Y-25904318D01*
X82801190Y-25904318D02*
X83103571Y-25904318D01*
X83103571Y-25904318D02*
X83285000Y-25964794D01*
X83285000Y-25964794D02*
X83405952Y-26085746D01*
X83405952Y-26085746D02*
X83466429Y-26206699D01*
X83466429Y-26206699D02*
X83526905Y-26448603D01*
X83526905Y-26448603D02*
X83526905Y-26630032D01*
X83526905Y-26630032D02*
X83466429Y-26871937D01*
X83466429Y-26871937D02*
X83405952Y-26992889D01*
X83405952Y-26992889D02*
X83285000Y-27113842D01*
X83285000Y-27113842D02*
X83103571Y-27174318D01*
X83103571Y-27174318D02*
X82801190Y-27174318D01*
X84010714Y-26025270D02*
X84071190Y-25964794D01*
X84071190Y-25964794D02*
X84192143Y-25904318D01*
X84192143Y-25904318D02*
X84494524Y-25904318D01*
X84494524Y-25904318D02*
X84615476Y-25964794D01*
X84615476Y-25964794D02*
X84675952Y-26025270D01*
X84675952Y-26025270D02*
X84736429Y-26146222D01*
X84736429Y-26146222D02*
X84736429Y-26267175D01*
X84736429Y-26267175D02*
X84675952Y-26448603D01*
X84675952Y-26448603D02*
X83950238Y-27174318D01*
X83950238Y-27174318D02*
X84736429Y-27174318D01*
X177228809Y-27264318D02*
X176624047Y-27264318D01*
X176624047Y-27264318D02*
X176624047Y-25994318D01*
X177652142Y-26599080D02*
X178075476Y-26599080D01*
X178256904Y-27264318D02*
X177652142Y-27264318D01*
X177652142Y-27264318D02*
X177652142Y-25994318D01*
X177652142Y-25994318D02*
X178256904Y-25994318D01*
X178801190Y-27264318D02*
X178801190Y-25994318D01*
X178801190Y-25994318D02*
X179103571Y-25994318D01*
X179103571Y-25994318D02*
X179285000Y-26054794D01*
X179285000Y-26054794D02*
X179405952Y-26175746D01*
X179405952Y-26175746D02*
X179466429Y-26296699D01*
X179466429Y-26296699D02*
X179526905Y-26538603D01*
X179526905Y-26538603D02*
X179526905Y-26720032D01*
X179526905Y-26720032D02*
X179466429Y-26961937D01*
X179466429Y-26961937D02*
X179405952Y-27082889D01*
X179405952Y-27082889D02*
X179285000Y-27203842D01*
X179285000Y-27203842D02*
X179103571Y-27264318D01*
X179103571Y-27264318D02*
X178801190Y-27264318D01*
X180252619Y-26538603D02*
X180131667Y-26478127D01*
X180131667Y-26478127D02*
X180071190Y-26417651D01*
X180071190Y-26417651D02*
X180010714Y-26296699D01*
X180010714Y-26296699D02*
X180010714Y-26236222D01*
X180010714Y-26236222D02*
X180071190Y-26115270D01*
X180071190Y-26115270D02*
X180131667Y-26054794D01*
X180131667Y-26054794D02*
X180252619Y-25994318D01*
X180252619Y-25994318D02*
X180494524Y-25994318D01*
X180494524Y-25994318D02*
X180615476Y-26054794D01*
X180615476Y-26054794D02*
X180675952Y-26115270D01*
X180675952Y-26115270D02*
X180736429Y-26236222D01*
X180736429Y-26236222D02*
X180736429Y-26296699D01*
X180736429Y-26296699D02*
X180675952Y-26417651D01*
X180675952Y-26417651D02*
X180615476Y-26478127D01*
X180615476Y-26478127D02*
X180494524Y-26538603D01*
X180494524Y-26538603D02*
X180252619Y-26538603D01*
X180252619Y-26538603D02*
X180131667Y-26599080D01*
X180131667Y-26599080D02*
X180071190Y-26659556D01*
X180071190Y-26659556D02*
X180010714Y-26780508D01*
X180010714Y-26780508D02*
X180010714Y-27022413D01*
X180010714Y-27022413D02*
X180071190Y-27143365D01*
X180071190Y-27143365D02*
X180131667Y-27203842D01*
X180131667Y-27203842D02*
X180252619Y-27264318D01*
X180252619Y-27264318D02*
X180494524Y-27264318D01*
X180494524Y-27264318D02*
X180615476Y-27203842D01*
X180615476Y-27203842D02*
X180675952Y-27143365D01*
X180675952Y-27143365D02*
X180736429Y-27022413D01*
X180736429Y-27022413D02*
X180736429Y-26780508D01*
X180736429Y-26780508D02*
X180675952Y-26659556D01*
X180675952Y-26659556D02*
X180615476Y-26599080D01*
X180615476Y-26599080D02*
X180494524Y-26538603D01*
X66142809Y-26990318D02*
X65538047Y-26990318D01*
X65538047Y-26990318D02*
X65538047Y-25720318D01*
X66566142Y-26325080D02*
X66989476Y-26325080D01*
X67170904Y-26990318D02*
X66566142Y-26990318D01*
X66566142Y-26990318D02*
X66566142Y-25720318D01*
X66566142Y-25720318D02*
X67170904Y-25720318D01*
X67715190Y-26990318D02*
X67715190Y-25720318D01*
X67715190Y-25720318D02*
X68017571Y-25720318D01*
X68017571Y-25720318D02*
X68199000Y-25780794D01*
X68199000Y-25780794D02*
X68319952Y-25901746D01*
X68319952Y-25901746D02*
X68380429Y-26022699D01*
X68380429Y-26022699D02*
X68440905Y-26264603D01*
X68440905Y-26264603D02*
X68440905Y-26446032D01*
X68440905Y-26446032D02*
X68380429Y-26687937D01*
X68380429Y-26687937D02*
X68319952Y-26808889D01*
X68319952Y-26808889D02*
X68199000Y-26929842D01*
X68199000Y-26929842D02*
X68017571Y-26990318D01*
X68017571Y-26990318D02*
X67715190Y-26990318D01*
X69650429Y-26990318D02*
X68924714Y-26990318D01*
X69287571Y-26990318D02*
X69287571Y-25720318D01*
X69287571Y-25720318D02*
X69166619Y-25901746D01*
X69166619Y-25901746D02*
X69045667Y-26022699D01*
X69045667Y-26022699D02*
X68924714Y-26083175D01*
D13*
%TO.C,LED48*%
X177500000Y-106700000D02*
X177500000Y-106700000D01*
X177700000Y-106700000D02*
X177700000Y-106700000D01*
D14*
X178150000Y-105300000D02*
X181650000Y-105300000D01*
X178150000Y-108100000D02*
X181650000Y-108100000D01*
D13*
X177700000Y-106700000D02*
G75*
G03*
X177500000Y-106700000I-100000J0D01*
G01*
X177500000Y-106700000D02*
G75*
G03*
X177700000Y-106700000I100000J0D01*
G01*
%TO.C,LED47*%
X161400000Y-106700000D02*
X161400000Y-106700000D01*
X161600000Y-106700000D02*
X161600000Y-106700000D01*
D14*
X162050000Y-105300000D02*
X165550000Y-105300000D01*
X162050000Y-108100000D02*
X165550000Y-108100000D01*
D13*
X161600000Y-106700000D02*
G75*
G03*
X161400000Y-106700000I-100000J0D01*
G01*
X161400000Y-106700000D02*
G75*
G03*
X161600000Y-106700000I100000J0D01*
G01*
%TO.C,LED46*%
X145300000Y-106700000D02*
X145300000Y-106700000D01*
X145500000Y-106700000D02*
X145500000Y-106700000D01*
D14*
X145950000Y-105300000D02*
X149450000Y-105300000D01*
X145950000Y-108100000D02*
X149450000Y-108100000D01*
D13*
X145500000Y-106700000D02*
G75*
G03*
X145300000Y-106700000I-100000J0D01*
G01*
X145300000Y-106700000D02*
G75*
G03*
X145500000Y-106700000I100000J0D01*
G01*
%TO.C,LED45*%
X129250000Y-106700000D02*
X129250000Y-106700000D01*
X129450000Y-106700000D02*
X129450000Y-106700000D01*
D14*
X129900000Y-105300000D02*
X133400000Y-105300000D01*
X129900000Y-108100000D02*
X133400000Y-108100000D01*
D13*
X129450000Y-106700000D02*
G75*
G03*
X129250000Y-106700000I-100000J0D01*
G01*
X129250000Y-106700000D02*
G75*
G03*
X129450000Y-106700000I100000J0D01*
G01*
%TO.C,LED44*%
X113275000Y-106700000D02*
X113275000Y-106700000D01*
X113475000Y-106700000D02*
X113475000Y-106700000D01*
D14*
X113925000Y-105300000D02*
X117425000Y-105300000D01*
X113925000Y-108100000D02*
X117425000Y-108100000D01*
D13*
X113475000Y-106700000D02*
G75*
G03*
X113275000Y-106700000I-100000J0D01*
G01*
X113275000Y-106700000D02*
G75*
G03*
X113475000Y-106700000I100000J0D01*
G01*
%TO.C,LED43*%
X97200000Y-106700000D02*
X97200000Y-106700000D01*
X97400000Y-106700000D02*
X97400000Y-106700000D01*
D14*
X97850000Y-105300000D02*
X101350000Y-105300000D01*
X97850000Y-108100000D02*
X101350000Y-108100000D01*
D13*
X97400000Y-106700000D02*
G75*
G03*
X97200000Y-106700000I-100000J0D01*
G01*
X97200000Y-106700000D02*
G75*
G03*
X97400000Y-106700000I100000J0D01*
G01*
%TO.C,LED42*%
X81175000Y-106700000D02*
X81175000Y-106700000D01*
X81375000Y-106700000D02*
X81375000Y-106700000D01*
D14*
X81825000Y-105300000D02*
X85325000Y-105300000D01*
X81825000Y-108100000D02*
X85325000Y-108100000D01*
D13*
X81375000Y-106700000D02*
G75*
G03*
X81175000Y-106700000I-100000J0D01*
G01*
X81175000Y-106700000D02*
G75*
G03*
X81375000Y-106700000I100000J0D01*
G01*
%TO.C,LED41*%
X65075000Y-106680000D02*
X65075000Y-106680000D01*
X65275000Y-106680000D02*
X65275000Y-106680000D01*
D14*
X65725000Y-105280000D02*
X69225000Y-105280000D01*
X65725000Y-108080000D02*
X69225000Y-108080000D01*
D13*
X65275000Y-106680000D02*
G75*
G03*
X65075000Y-106680000I-100000J0D01*
G01*
X65075000Y-106680000D02*
G75*
G03*
X65275000Y-106680000I100000J0D01*
G01*
%TO.C,LED40*%
X177450000Y-91400000D02*
X177450000Y-91400000D01*
X177650000Y-91400000D02*
X177650000Y-91400000D01*
D14*
X178100000Y-90000000D02*
X181600000Y-90000000D01*
X178100000Y-92800000D02*
X181600000Y-92800000D01*
D13*
X177650000Y-91400000D02*
G75*
G03*
X177450000Y-91400000I-100000J0D01*
G01*
X177450000Y-91400000D02*
G75*
G03*
X177650000Y-91400000I100000J0D01*
G01*
%TO.C,LED39*%
X161400000Y-91400000D02*
X161400000Y-91400000D01*
X161600000Y-91400000D02*
X161600000Y-91400000D01*
D14*
X162050000Y-90000000D02*
X165550000Y-90000000D01*
X162050000Y-92800000D02*
X165550000Y-92800000D01*
D13*
X161600000Y-91400000D02*
G75*
G03*
X161400000Y-91400000I-100000J0D01*
G01*
X161400000Y-91400000D02*
G75*
G03*
X161600000Y-91400000I100000J0D01*
G01*
%TO.C,LED38*%
X145375000Y-91400000D02*
X145375000Y-91400000D01*
X145575000Y-91400000D02*
X145575000Y-91400000D01*
D14*
X146025000Y-90000000D02*
X149525000Y-90000000D01*
X146025000Y-92800000D02*
X149525000Y-92800000D01*
D13*
X145575000Y-91400000D02*
G75*
G03*
X145375000Y-91400000I-100000J0D01*
G01*
X145375000Y-91400000D02*
G75*
G03*
X145575000Y-91400000I100000J0D01*
G01*
%TO.C,LED37*%
X129275000Y-91400000D02*
X129275000Y-91400000D01*
X129475000Y-91400000D02*
X129475000Y-91400000D01*
D14*
X129925000Y-90000000D02*
X133425000Y-90000000D01*
X129925000Y-92800000D02*
X133425000Y-92800000D01*
D13*
X129475000Y-91400000D02*
G75*
G03*
X129275000Y-91400000I-100000J0D01*
G01*
X129275000Y-91400000D02*
G75*
G03*
X129475000Y-91400000I100000J0D01*
G01*
%TO.C,LED36*%
X113275000Y-91400000D02*
X113275000Y-91400000D01*
X113475000Y-91400000D02*
X113475000Y-91400000D01*
D14*
X113925000Y-90000000D02*
X117425000Y-90000000D01*
X113925000Y-92800000D02*
X117425000Y-92800000D01*
D13*
X113475000Y-91400000D02*
G75*
G03*
X113275000Y-91400000I-100000J0D01*
G01*
X113275000Y-91400000D02*
G75*
G03*
X113475000Y-91400000I100000J0D01*
G01*
%TO.C,LED35*%
X97175000Y-91400000D02*
X97175000Y-91400000D01*
X97375000Y-91400000D02*
X97375000Y-91400000D01*
D14*
X97825000Y-90000000D02*
X101325000Y-90000000D01*
X97825000Y-92800000D02*
X101325000Y-92800000D01*
D13*
X97375000Y-91400000D02*
G75*
G03*
X97175000Y-91400000I-100000J0D01*
G01*
X97175000Y-91400000D02*
G75*
G03*
X97375000Y-91400000I100000J0D01*
G01*
%TO.C,LED34*%
X81150000Y-91400000D02*
X81150000Y-91400000D01*
X81350000Y-91400000D02*
X81350000Y-91400000D01*
D14*
X81800000Y-90000000D02*
X85300000Y-90000000D01*
X81800000Y-92800000D02*
X85300000Y-92800000D01*
D13*
X81350000Y-91400000D02*
G75*
G03*
X81150000Y-91400000I-100000J0D01*
G01*
X81150000Y-91400000D02*
G75*
G03*
X81350000Y-91400000I100000J0D01*
G01*
%TO.C,LED33*%
X65075000Y-91440000D02*
X65075000Y-91440000D01*
X65275000Y-91440000D02*
X65275000Y-91440000D01*
D14*
X65725000Y-90040000D02*
X69225000Y-90040000D01*
X65725000Y-92840000D02*
X69225000Y-92840000D01*
D13*
X65275000Y-91440000D02*
G75*
G03*
X65075000Y-91440000I-100000J0D01*
G01*
X65075000Y-91440000D02*
G75*
G03*
X65275000Y-91440000I100000J0D01*
G01*
%TO.C,LED32*%
X177475000Y-76200000D02*
X177475000Y-76200000D01*
X177675000Y-76200000D02*
X177675000Y-76200000D01*
D14*
X178125000Y-74800000D02*
X181625000Y-74800000D01*
X178125000Y-77600000D02*
X181625000Y-77600000D01*
D13*
X177675000Y-76200000D02*
G75*
G03*
X177475000Y-76200000I-100000J0D01*
G01*
X177475000Y-76200000D02*
G75*
G03*
X177675000Y-76200000I100000J0D01*
G01*
%TO.C,LED31*%
X161375000Y-76200000D02*
X161375000Y-76200000D01*
X161575000Y-76200000D02*
X161575000Y-76200000D01*
D14*
X162025000Y-74800000D02*
X165525000Y-74800000D01*
X162025000Y-77600000D02*
X165525000Y-77600000D01*
D13*
X161575000Y-76200000D02*
G75*
G03*
X161375000Y-76200000I-100000J0D01*
G01*
X161375000Y-76200000D02*
G75*
G03*
X161575000Y-76200000I100000J0D01*
G01*
%TO.C,LED30*%
X145375000Y-76200000D02*
X145375000Y-76200000D01*
X145575000Y-76200000D02*
X145575000Y-76200000D01*
D14*
X146025000Y-74800000D02*
X149525000Y-74800000D01*
X146025000Y-77600000D02*
X149525000Y-77600000D01*
D13*
X145575000Y-76200000D02*
G75*
G03*
X145375000Y-76200000I-100000J0D01*
G01*
X145375000Y-76200000D02*
G75*
G03*
X145575000Y-76200000I100000J0D01*
G01*
%TO.C,LED29*%
X129275000Y-76200000D02*
X129275000Y-76200000D01*
X129475000Y-76200000D02*
X129475000Y-76200000D01*
D14*
X129925000Y-74800000D02*
X133425000Y-74800000D01*
X129925000Y-77600000D02*
X133425000Y-77600000D01*
D13*
X129475000Y-76200000D02*
G75*
G03*
X129275000Y-76200000I-100000J0D01*
G01*
X129275000Y-76200000D02*
G75*
G03*
X129475000Y-76200000I100000J0D01*
G01*
%TO.C,LED28*%
X113275000Y-76200000D02*
X113275000Y-76200000D01*
X113475000Y-76200000D02*
X113475000Y-76200000D01*
D14*
X113925000Y-74800000D02*
X117425000Y-74800000D01*
X113925000Y-77600000D02*
X117425000Y-77600000D01*
D13*
X113475000Y-76200000D02*
G75*
G03*
X113275000Y-76200000I-100000J0D01*
G01*
X113275000Y-76200000D02*
G75*
G03*
X113475000Y-76200000I100000J0D01*
G01*
%TO.C,LED27*%
X97175000Y-76200000D02*
X97175000Y-76200000D01*
X97375000Y-76200000D02*
X97375000Y-76200000D01*
D14*
X97825000Y-74800000D02*
X101325000Y-74800000D01*
X97825000Y-77600000D02*
X101325000Y-77600000D01*
D13*
X97375000Y-76200000D02*
G75*
G03*
X97175000Y-76200000I-100000J0D01*
G01*
X97175000Y-76200000D02*
G75*
G03*
X97375000Y-76200000I100000J0D01*
G01*
%TO.C,LED26*%
X81175000Y-76200000D02*
X81175000Y-76200000D01*
X81375000Y-76200000D02*
X81375000Y-76200000D01*
D14*
X81825000Y-74800000D02*
X85325000Y-74800000D01*
X81825000Y-77600000D02*
X85325000Y-77600000D01*
D13*
X81375000Y-76200000D02*
G75*
G03*
X81175000Y-76200000I-100000J0D01*
G01*
X81175000Y-76200000D02*
G75*
G03*
X81375000Y-76200000I100000J0D01*
G01*
%TO.C,LED25*%
X65075000Y-76200000D02*
X65075000Y-76200000D01*
X65275000Y-76200000D02*
X65275000Y-76200000D01*
D14*
X65725000Y-74800000D02*
X69225000Y-74800000D01*
X65725000Y-77600000D02*
X69225000Y-77600000D01*
D13*
X65275000Y-76200000D02*
G75*
G03*
X65075000Y-76200000I-100000J0D01*
G01*
X65075000Y-76200000D02*
G75*
G03*
X65275000Y-76200000I100000J0D01*
G01*
%TO.C,LED24*%
X177500000Y-61000000D02*
X177500000Y-61000000D01*
X177700000Y-61000000D02*
X177700000Y-61000000D01*
D14*
X178150000Y-59600000D02*
X181650000Y-59600000D01*
X178150000Y-62400000D02*
X181650000Y-62400000D01*
D13*
X177700000Y-61000000D02*
G75*
G03*
X177500000Y-61000000I-100000J0D01*
G01*
X177500000Y-61000000D02*
G75*
G03*
X177700000Y-61000000I100000J0D01*
G01*
%TO.C,LED23*%
X161375000Y-61000000D02*
X161375000Y-61000000D01*
X161575000Y-61000000D02*
X161575000Y-61000000D01*
D14*
X162025000Y-59600000D02*
X165525000Y-59600000D01*
X162025000Y-62400000D02*
X165525000Y-62400000D01*
D13*
X161575000Y-61000000D02*
G75*
G03*
X161375000Y-61000000I-100000J0D01*
G01*
X161375000Y-61000000D02*
G75*
G03*
X161575000Y-61000000I100000J0D01*
G01*
%TO.C,LED22*%
X145400000Y-61000000D02*
X145400000Y-61000000D01*
X145600000Y-61000000D02*
X145600000Y-61000000D01*
D14*
X146050000Y-59600000D02*
X149550000Y-59600000D01*
X146050000Y-62400000D02*
X149550000Y-62400000D01*
D13*
X145600000Y-61000000D02*
G75*
G03*
X145400000Y-61000000I-100000J0D01*
G01*
X145400000Y-61000000D02*
G75*
G03*
X145600000Y-61000000I100000J0D01*
G01*
%TO.C,LED21*%
X129300000Y-61000000D02*
X129300000Y-61000000D01*
X129500000Y-61000000D02*
X129500000Y-61000000D01*
D14*
X129950000Y-59600000D02*
X133450000Y-59600000D01*
X129950000Y-62400000D02*
X133450000Y-62400000D01*
D13*
X129500000Y-61000000D02*
G75*
G03*
X129300000Y-61000000I-100000J0D01*
G01*
X129300000Y-61000000D02*
G75*
G03*
X129500000Y-61000000I100000J0D01*
G01*
%TO.C,LED20*%
X113275000Y-61000000D02*
X113275000Y-61000000D01*
X113475000Y-61000000D02*
X113475000Y-61000000D01*
D14*
X113925000Y-59600000D02*
X117425000Y-59600000D01*
X113925000Y-62400000D02*
X117425000Y-62400000D01*
D13*
X113475000Y-61000000D02*
G75*
G03*
X113275000Y-61000000I-100000J0D01*
G01*
X113275000Y-61000000D02*
G75*
G03*
X113475000Y-61000000I100000J0D01*
G01*
%TO.C,LED19*%
X97175000Y-61000000D02*
X97175000Y-61000000D01*
X97375000Y-61000000D02*
X97375000Y-61000000D01*
D14*
X97825000Y-59600000D02*
X101325000Y-59600000D01*
X97825000Y-62400000D02*
X101325000Y-62400000D01*
D13*
X97375000Y-61000000D02*
G75*
G03*
X97175000Y-61000000I-100000J0D01*
G01*
X97175000Y-61000000D02*
G75*
G03*
X97375000Y-61000000I100000J0D01*
G01*
%TO.C,LED18*%
X81175000Y-61000000D02*
X81175000Y-61000000D01*
X81375000Y-61000000D02*
X81375000Y-61000000D01*
D14*
X81825000Y-59600000D02*
X85325000Y-59600000D01*
X81825000Y-62400000D02*
X85325000Y-62400000D01*
D13*
X81375000Y-61000000D02*
G75*
G03*
X81175000Y-61000000I-100000J0D01*
G01*
X81175000Y-61000000D02*
G75*
G03*
X81375000Y-61000000I100000J0D01*
G01*
%TO.C,LED17*%
X65075000Y-61000000D02*
X65075000Y-61000000D01*
X65275000Y-61000000D02*
X65275000Y-61000000D01*
D14*
X65725000Y-59600000D02*
X69225000Y-59600000D01*
X65725000Y-62400000D02*
X69225000Y-62400000D01*
D13*
X65275000Y-61000000D02*
G75*
G03*
X65075000Y-61000000I-100000J0D01*
G01*
X65075000Y-61000000D02*
G75*
G03*
X65275000Y-61000000I100000J0D01*
G01*
%TO.C,LED16*%
X177500000Y-45700000D02*
X177500000Y-45700000D01*
X177700000Y-45700000D02*
X177700000Y-45700000D01*
D14*
X178150000Y-44300000D02*
X181650000Y-44300000D01*
X178150000Y-47100000D02*
X181650000Y-47100000D01*
D13*
X177700000Y-45700000D02*
G75*
G03*
X177500000Y-45700000I-100000J0D01*
G01*
X177500000Y-45700000D02*
G75*
G03*
X177700000Y-45700000I100000J0D01*
G01*
%TO.C,LED15*%
X161400000Y-45700000D02*
X161400000Y-45700000D01*
X161600000Y-45700000D02*
X161600000Y-45700000D01*
D14*
X162050000Y-44300000D02*
X165550000Y-44300000D01*
X162050000Y-47100000D02*
X165550000Y-47100000D01*
D13*
X161600000Y-45700000D02*
G75*
G03*
X161400000Y-45700000I-100000J0D01*
G01*
X161400000Y-45700000D02*
G75*
G03*
X161600000Y-45700000I100000J0D01*
G01*
%TO.C,LED14*%
X145375000Y-45700000D02*
X145375000Y-45700000D01*
X145575000Y-45700000D02*
X145575000Y-45700000D01*
D14*
X146025000Y-44300000D02*
X149525000Y-44300000D01*
X146025000Y-47100000D02*
X149525000Y-47100000D01*
D13*
X145575000Y-45700000D02*
G75*
G03*
X145375000Y-45700000I-100000J0D01*
G01*
X145375000Y-45700000D02*
G75*
G03*
X145575000Y-45700000I100000J0D01*
G01*
%TO.C,LED13*%
X129275000Y-45720000D02*
X129275000Y-45720000D01*
X129475000Y-45720000D02*
X129475000Y-45720000D01*
D14*
X129925000Y-44320000D02*
X133425000Y-44320000D01*
X129925000Y-47120000D02*
X133425000Y-47120000D01*
D13*
X129475000Y-45720000D02*
G75*
G03*
X129275000Y-45720000I-100000J0D01*
G01*
X129275000Y-45720000D02*
G75*
G03*
X129475000Y-45720000I100000J0D01*
G01*
%TO.C,LED12*%
X113300000Y-45720000D02*
X113300000Y-45720000D01*
X113500000Y-45720000D02*
X113500000Y-45720000D01*
D14*
X113950000Y-44320000D02*
X117450000Y-44320000D01*
X113950000Y-47120000D02*
X117450000Y-47120000D01*
D13*
X113500000Y-45720000D02*
G75*
G03*
X113300000Y-45720000I-100000J0D01*
G01*
X113300000Y-45720000D02*
G75*
G03*
X113500000Y-45720000I100000J0D01*
G01*
%TO.C,LED11*%
X97200000Y-45700000D02*
X97200000Y-45700000D01*
X97400000Y-45700000D02*
X97400000Y-45700000D01*
D14*
X97850000Y-44300000D02*
X101350000Y-44300000D01*
X97850000Y-47100000D02*
X101350000Y-47100000D01*
D13*
X97400000Y-45700000D02*
G75*
G03*
X97200000Y-45700000I-100000J0D01*
G01*
X97200000Y-45700000D02*
G75*
G03*
X97400000Y-45700000I100000J0D01*
G01*
%TO.C,LED10*%
X81175000Y-45700000D02*
X81175000Y-45700000D01*
X81375000Y-45700000D02*
X81375000Y-45700000D01*
D14*
X81825000Y-44300000D02*
X85325000Y-44300000D01*
X81825000Y-47100000D02*
X85325000Y-47100000D01*
D13*
X81375000Y-45700000D02*
G75*
G03*
X81175000Y-45700000I-100000J0D01*
G01*
X81175000Y-45700000D02*
G75*
G03*
X81375000Y-45700000I100000J0D01*
G01*
%TO.C,LED9*%
X65100000Y-45700000D02*
X65100000Y-45700000D01*
X65300000Y-45700000D02*
X65300000Y-45700000D01*
D14*
X65750000Y-44300000D02*
X69250000Y-44300000D01*
X65750000Y-47100000D02*
X69250000Y-47100000D01*
D13*
X65300000Y-45700000D02*
G75*
G03*
X65100000Y-45700000I-100000J0D01*
G01*
X65100000Y-45700000D02*
G75*
G03*
X65300000Y-45700000I100000J0D01*
G01*
%TO.C,LED7*%
X161400000Y-30000000D02*
X161400000Y-30000000D01*
X161600000Y-30000000D02*
X161600000Y-30000000D01*
D14*
X162050000Y-28600000D02*
X165550000Y-28600000D01*
X162050000Y-31400000D02*
X165550000Y-31400000D01*
D13*
X161600000Y-30000000D02*
G75*
G03*
X161400000Y-30000000I-100000J0D01*
G01*
X161400000Y-30000000D02*
G75*
G03*
X161600000Y-30000000I100000J0D01*
G01*
%TO.C,LED6*%
X145350000Y-30000000D02*
X145350000Y-30000000D01*
X145550000Y-30000000D02*
X145550000Y-30000000D01*
D14*
X146000000Y-28600000D02*
X149500000Y-28600000D01*
X146000000Y-31400000D02*
X149500000Y-31400000D01*
D13*
X145550000Y-30000000D02*
G75*
G03*
X145350000Y-30000000I-100000J0D01*
G01*
X145350000Y-30000000D02*
G75*
G03*
X145550000Y-30000000I100000J0D01*
G01*
%TO.C,LED5*%
X129300000Y-30000000D02*
X129300000Y-30000000D01*
X129500000Y-30000000D02*
X129500000Y-30000000D01*
D14*
X129950000Y-28600000D02*
X133450000Y-28600000D01*
X129950000Y-31400000D02*
X133450000Y-31400000D01*
D13*
X129500000Y-30000000D02*
G75*
G03*
X129300000Y-30000000I-100000J0D01*
G01*
X129300000Y-30000000D02*
G75*
G03*
X129500000Y-30000000I100000J0D01*
G01*
%TO.C,LED4*%
X113250000Y-30000000D02*
X113250000Y-30000000D01*
X113450000Y-30000000D02*
X113450000Y-30000000D01*
D14*
X113900000Y-28600000D02*
X117400000Y-28600000D01*
X113900000Y-31400000D02*
X117400000Y-31400000D01*
D13*
X113450000Y-30000000D02*
G75*
G03*
X113250000Y-30000000I-100000J0D01*
G01*
X113250000Y-30000000D02*
G75*
G03*
X113450000Y-30000000I100000J0D01*
G01*
%TO.C,LED3*%
X97200000Y-30000000D02*
X97200000Y-30000000D01*
X97400000Y-30000000D02*
X97400000Y-30000000D01*
D14*
X97850000Y-28600000D02*
X101350000Y-28600000D01*
X97850000Y-31400000D02*
X101350000Y-31400000D01*
D13*
X97400000Y-30000000D02*
G75*
G03*
X97200000Y-30000000I-100000J0D01*
G01*
X97200000Y-30000000D02*
G75*
G03*
X97400000Y-30000000I100000J0D01*
G01*
%TO.C,LED2*%
X81150000Y-30000000D02*
X81150000Y-30000000D01*
X81350000Y-30000000D02*
X81350000Y-30000000D01*
D14*
X81800000Y-28600000D02*
X85300000Y-28600000D01*
X81800000Y-31400000D02*
X85300000Y-31400000D01*
D13*
X81350000Y-30000000D02*
G75*
G03*
X81150000Y-30000000I-100000J0D01*
G01*
X81150000Y-30000000D02*
G75*
G03*
X81350000Y-30000000I100000J0D01*
G01*
D14*
%TO.C,LED8*%
X178100000Y-28600000D02*
X181600000Y-28600000D01*
X178100000Y-31400000D02*
X181600000Y-31400000D01*
D13*
X177650000Y-30000000D02*
X177650000Y-30000000D01*
X177450000Y-30000000D02*
X177450000Y-30000000D01*
X177650000Y-30000000D02*
G75*
G03*
X177450000Y-30000000I-100000J0D01*
G01*
X177450000Y-30000000D02*
G75*
G03*
X177650000Y-30000000I100000J0D01*
G01*
D15*
%TO.C,J6*%
X57440000Y-104180000D02*
X57440000Y-114180000D01*
X57440000Y-114180000D02*
X49240000Y-114180000D01*
X49240000Y-114180000D02*
X49240000Y-104180000D01*
X49240000Y-104180000D02*
X57440000Y-104180000D01*
X49240000Y-103580000D02*
X57440000Y-103580000D01*
X57440000Y-103580000D02*
X57440000Y-104180000D01*
X49240000Y-103580000D02*
X49240000Y-104180000D01*
D13*
X53440000Y-102830000D02*
G75*
G03*
X53440000Y-102830000I-100000J0D01*
G01*
D15*
%TO.C,J5*%
X57440000Y-88940000D02*
X57440000Y-98940000D01*
X57440000Y-98940000D02*
X49240000Y-98940000D01*
X49240000Y-98940000D02*
X49240000Y-88940000D01*
X49240000Y-88940000D02*
X57440000Y-88940000D01*
X49240000Y-88340000D02*
X57440000Y-88340000D01*
X57440000Y-88340000D02*
X57440000Y-88940000D01*
X49240000Y-88340000D02*
X49240000Y-88940000D01*
D13*
X53440000Y-87590000D02*
G75*
G03*
X53440000Y-87590000I-100000J0D01*
G01*
D15*
%TO.C,J4*%
X57440000Y-73700000D02*
X57440000Y-83700000D01*
X57440000Y-83700000D02*
X49240000Y-83700000D01*
X49240000Y-83700000D02*
X49240000Y-73700000D01*
X49240000Y-73700000D02*
X57440000Y-73700000D01*
X49240000Y-73100000D02*
X57440000Y-73100000D01*
X57440000Y-73100000D02*
X57440000Y-73700000D01*
X49240000Y-73100000D02*
X49240000Y-73700000D01*
D13*
X53440000Y-72350000D02*
G75*
G03*
X53440000Y-72350000I-100000J0D01*
G01*
D15*
%TO.C,J3*%
X57440000Y-58540000D02*
X57440000Y-68540000D01*
X57440000Y-68540000D02*
X49240000Y-68540000D01*
X49240000Y-68540000D02*
X49240000Y-58540000D01*
X49240000Y-58540000D02*
X57440000Y-58540000D01*
X49240000Y-57940000D02*
X57440000Y-57940000D01*
X57440000Y-57940000D02*
X57440000Y-58540000D01*
X49240000Y-57940000D02*
X49240000Y-58540000D01*
D13*
X53440000Y-57190000D02*
G75*
G03*
X53440000Y-57190000I-100000J0D01*
G01*
D15*
%TO.C,J2*%
X57400000Y-43220000D02*
X57400000Y-53220000D01*
X57400000Y-53220000D02*
X49200000Y-53220000D01*
X49200000Y-53220000D02*
X49200000Y-43220000D01*
X49200000Y-43220000D02*
X57400000Y-43220000D01*
X49200000Y-42620000D02*
X57400000Y-42620000D01*
X57400000Y-42620000D02*
X57400000Y-43220000D01*
X49200000Y-42620000D02*
X49200000Y-43220000D01*
D13*
X53400000Y-41870000D02*
G75*
G03*
X53400000Y-41870000I-100000J0D01*
G01*
D15*
%TO.C,J1*%
X57400000Y-27500000D02*
X57400000Y-37500000D01*
X57400000Y-37500000D02*
X49200000Y-37500000D01*
X49200000Y-37500000D02*
X49200000Y-27500000D01*
X49200000Y-27500000D02*
X57400000Y-27500000D01*
X49200000Y-26900000D02*
X57400000Y-26900000D01*
X57400000Y-26900000D02*
X57400000Y-27500000D01*
X49200000Y-26900000D02*
X49200000Y-27500000D01*
D13*
X53400000Y-26150000D02*
G75*
G03*
X53400000Y-26150000I-100000J0D01*
G01*
%TO.C,LED1*%
X65100000Y-30000000D02*
X65100000Y-30000000D01*
X65300000Y-30000000D02*
X65300000Y-30000000D01*
D14*
X65750000Y-28600000D02*
X69250000Y-28600000D01*
X65750000Y-31400000D02*
X69250000Y-31400000D01*
D13*
X65300000Y-30000000D02*
G75*
G03*
X65100000Y-30000000I-100000J0D01*
G01*
X65100000Y-30000000D02*
G75*
G03*
X65300000Y-30000000I100000J0D01*
G01*
%TD*%
M02*
