%TF.GenerationSoftware,KiCad,Pcbnew,7.0.9*%
%TF.CreationDate,2023-12-10T21:52:56+01:00*%
%TF.ProjectId,Led Panel,4c656420-5061-46e6-956c-2e6b69636164,rev?*%
%TF.SameCoordinates,Original*%
%TF.FileFunction,Copper,L2,Bot*%
%TF.FilePolarity,Positive*%
%FSLAX46Y46*%
G04 Gerber Fmt 4.6, Leading zero omitted, Abs format (unit mm)*
G04 Created by KiCad (PCBNEW 7.0.9) date 2023-12-10 21:52:56*
%MOMM*%
%LPD*%
G01*
G04 APERTURE LIST*
%TA.AperFunction,ComponentPad*%
%ADD10R,1.800000X1.800000*%
%TD*%
%TA.AperFunction,ComponentPad*%
%ADD11C,1.800000*%
%TD*%
%TA.AperFunction,ViaPad*%
%ADD12C,0.800000*%
%TD*%
%TA.AperFunction,Conductor*%
%ADD13C,0.700000*%
%TD*%
G04 APERTURE END LIST*
D10*
%TO.P,J6,1,1*%
%TO.N,LED_5 +*%
X53340000Y-106680000D03*
D11*
%TO.P,J6,2,2*%
%TO.N,LED_5 -*%
X53340000Y-111680000D03*
%TD*%
D10*
%TO.P,J5,1,1*%
%TO.N,LED_4 +*%
X53340000Y-91440000D03*
D11*
%TO.P,J5,2,2*%
%TO.N,LED_4 -*%
X53340000Y-96440000D03*
%TD*%
D10*
%TO.P,J4,1,1*%
%TO.N,LED_3 +*%
X53340000Y-76200000D03*
D11*
%TO.P,J4,2,2*%
%TO.N,LED_3 -*%
X53340000Y-81200000D03*
%TD*%
D10*
%TO.P,J3,1,1*%
%TO.N,LED_2 +*%
X53340000Y-61040000D03*
D11*
%TO.P,J3,2,2*%
%TO.N,LED_2 -*%
X53340000Y-66040000D03*
%TD*%
D10*
%TO.P,J2,1,1*%
%TO.N,LED_1 +*%
X53300000Y-45720000D03*
D11*
%TO.P,J2,2,2*%
%TO.N,LED_1 -*%
X53300000Y-50720000D03*
%TD*%
D10*
%TO.P,J1,1,1*%
%TO.N,LED_0 +*%
X53300000Y-30000000D03*
D11*
%TO.P,J1,2,2*%
%TO.N,LED_0 -*%
X53300000Y-35000000D03*
%TD*%
D12*
%TO.N,LED_0 -*%
X185448000Y-30000000D03*
%TO.N,LED_1 -*%
X185420000Y-45700000D03*
%TO.N,LED_2 -*%
X185206000Y-61000000D03*
%TO.N,LED_3 -*%
X185166000Y-76200000D03*
%TO.N,LED_4 -*%
X185420000Y-91440000D03*
%TO.N,LED_5 -*%
X185420000Y-106680000D03*
%TD*%
D13*
%TO.N,LED_0 -*%
X187198000Y-33782000D02*
X185980000Y-35000000D01*
X186210000Y-30000000D02*
X187198000Y-30988000D01*
X185980000Y-35000000D02*
X53300000Y-35000000D01*
X185448000Y-30000000D02*
X186210000Y-30000000D01*
X187198000Y-30988000D02*
X187198000Y-33782000D01*
%TO.N,LED_1 -*%
X186162000Y-45700000D02*
X186944000Y-46482000D01*
X186008000Y-50720000D02*
X53300000Y-50720000D01*
X186944000Y-49784000D02*
X186008000Y-50720000D01*
X186944000Y-46482000D02*
X186944000Y-49784000D01*
X185420000Y-45700000D02*
X186162000Y-45700000D01*
%TO.N,LED_2 -*%
X186690000Y-65278000D02*
X185928000Y-66040000D01*
X185206000Y-61000000D02*
X185968000Y-61000000D01*
X185968000Y-61000000D02*
X186690000Y-61722000D01*
X186690000Y-61722000D02*
X186690000Y-65278000D01*
X185928000Y-66040000D02*
X53340000Y-66040000D01*
%TO.N,LED_3 -*%
X186008000Y-81200000D02*
X53340000Y-81200000D01*
X185928000Y-76200000D02*
X186690000Y-76962000D01*
X186690000Y-80518000D02*
X186008000Y-81200000D01*
X185166000Y-76200000D02*
X185928000Y-76200000D01*
X186690000Y-76962000D02*
X186690000Y-80518000D01*
%TO.N,LED_4 -*%
X186008000Y-96440000D02*
X53340000Y-96440000D01*
X185420000Y-91440000D02*
X186182000Y-91440000D01*
X186944000Y-95504000D02*
X186008000Y-96440000D01*
X186182000Y-91440000D02*
X186944000Y-92202000D01*
X186944000Y-92202000D02*
X186944000Y-95504000D01*
%TO.N,LED_5 -*%
X187198000Y-110490000D02*
X186008000Y-111680000D01*
X185420000Y-106680000D02*
X186436000Y-106680000D01*
X187198000Y-107442000D02*
X187198000Y-110490000D01*
X186436000Y-106680000D02*
X187198000Y-107442000D01*
X186008000Y-111680000D02*
X53340000Y-111680000D01*
%TD*%
M02*
